<?xml version="1.0" standalone="no"?>
<!DOCTYPE svg PUBLIC "-//W3C//DTD SVG 1.1//EN" "http://www.w3.org/Graphics/SVG/1.1/DTD/svg11.dtd" >
<svg xmlns="http://www.w3.org/2000/svg" xmlns:xlink="http://www.w3.org/1999/xlink" version="1.1">
<metadata>
Created by FontForge 20170910 at Tue Oct 29 10:55:21 2013
 By Jimmy Wärting
Copyright (c) 2012 S-Core. All rights reserved.
</metadata>
<defs>
<font id="CoreSansG-Thin" horiz-adv-x="390" >
  <font-face 
    font-family="Core Sans G"
    font-weight="250"
    font-stretch="normal"
    units-per-em="1000"
    panose-1="2 11 4 3 3 3 2 2 2 2"
    ascent="800"
    descent="-200"
    x-height="468"
    cap-height="700"
    bbox="-399 -294 1551 936"
    underline-thickness="24"
    underline-position="-207"
    unicode-range="U+0009-FB06"
  />
<missing-glyph horiz-adv-x="510" 
d="M5 0v700h500v-700h-500zM217 144q-13 -14 -13 -34t13.5 -34t33.5 -14t34 14t14 34t-14 34t-34 14t-34 -14zM341 229l-34 50q-19 -21 -44 -21q-33 0 -33 29t57 55q67 32 99 67.5t32 90.5q0 58 -46 96t-117 38q-43 0 -85.5 -21t-72.5 -58l52 -40q41 56 105 56
q45 0 70.5 -20.5t25.5 -49.5q0 -33 -25.5 -56t-82.5 -53q-79 -40 -79 -102q0 -43 26.5 -68.5t73.5 -25.5t78 33z" />
    <glyph glyph-name="f_f" unicode="ff" horiz-adv-x="608" 
d="M31 450v18h90v93q0 93 38.5 139t107.5 46q59 0 115 -39l-10 -16q-44 37 -105 37q-126 0 -126 -168v-92h276v108q0 91 38 138t106 47q57 0 97 -40l-13 -14q-36 36 -84 36q-124 0 -124 -168v-107h160v-18h-160v-450h-20v450h-276v-450h-20v450h-90z" />
    <glyph glyph-name="f_i" unicode="fi" horiz-adv-x="549" 
d="M31 450v18h90v101q0 91 50.5 141.5t122.5 50.5q70 0 118 -46l-13 -14q-37 42 -105 42q-66 0 -109.5 -46t-43.5 -129v-100h315v-468h-20v450h-295v-450h-20v450h-90z" />
    <glyph glyph-name="f_l" unicode="fl" horiz-adv-x="514" 
d="M415 750v-750h-20v688q-44 55 -115 55q-65 0 -102 -42.5t-37 -125.5v-107h160v-18h-160v-450h-20v450h-90v18h90v108q0 90 44.5 137.5t114.5 47.5q72 0 115 -50v39h20z" />
    <glyph glyph-name="f_f_i" unicode="ffi" horiz-adv-x="845" 
d="M417 0v450h-276v-450h-20v450h-90v18h90v93q0 93 38.5 139t107.5 46q59 0 115 -39l-10 -16q-44 37 -105 37q-126 0 -126 -168v-92h276v101q0 91 50.5 141.5t122.5 50.5q70 0 118 -46l-13 -14q-37 42 -105 42q-66 0 -109.5 -46t-43.5 -129v-100h315v-468h-20v450h-295
v-450h-20z" />
    <glyph glyph-name="f_f_l" unicode="ffl" horiz-adv-x="810" 
d="M711 750v-750h-20v688q-44 55 -115 55q-65 0 -102 -42.5t-37 -125.5v-107h160v-18h-160v-450h-20v450h-276v-450h-20v450h-90v18h90v93q0 93 38.5 139t107.5 46q59 0 115 -39l-10 -16q-44 37 -105 37q-126 0 -126 -168v-92h276v108q0 90 44.5 137.5t114.5 47.5
q72 0 115 -50v39h20z" />
    <glyph glyph-name=".notdef" horiz-adv-x="510" 
d="M5 0v700h500v-700h-500zM217 144q-13 -14 -13 -34t13.5 -34t33.5 -14t34 14t14 34t-14 34t-34 14t-34 -14zM341 229l-34 50q-19 -21 -44 -21q-33 0 -33 29t57 55q67 32 99 67.5t32 90.5q0 58 -46 96t-117 38q-43 0 -85.5 -21t-72.5 -58l52 -40q41 56 105 56
q45 0 70.5 -20.5t25.5 -49.5q0 -33 -25.5 -56t-82.5 -53q-79 -40 -79 -102q0 -43 26.5 -68.5t73.5 -25.5t78 33z" />
    <glyph glyph-name="NULL" horiz-adv-x="0" 
 />
    <glyph glyph-name="NULL" horiz-adv-x="0" 
 />
    <glyph glyph-name="uni000D" unicode="&#xd;" horiz-adv-x="237" 
 />
    <glyph glyph-name="nonmarkingreturn" unicode="&#x9;" horiz-adv-x="237" 
 />
    <glyph glyph-name="space" unicode=" " horiz-adv-x="300" 
 />
    <glyph glyph-name="exclam" unicode="!" horiz-adv-x="290" 
d="M135 700h20v-531h-20v531zM145 -12q-25 0 -25 25t25 25t25 -25t-25 -25z" />
    <glyph glyph-name="quotedbl" unicode="&#x22;" horiz-adv-x="470" 
d="M135 700h20v-272h-20v272zM315 700h20v-272h-20v272z" />
    <glyph glyph-name="numbersign" unicode="#" horiz-adv-x="679" 
d="M461 700h20v-204h131v-18h-131v-253h131v-18h-131v-207h-20v207h-243v-207h-20v207h-131v18h131v253h-131v18h131v204h20v-204h243v204zM218 478v-253h243v253h-243z" />
    <glyph glyph-name="dollar" unicode="$" horiz-adv-x="506" 
d="M49 98l17 11q63 -103 178 -103q78 0 129 48.5t51 120.5q0 70 -38.5 121t-135.5 89q-78 31 -116.5 74.5t-38.5 110.5q0 57 40 97t102 44v72h20v-71q75 -5 114 -56l-15 -12q-41 50 -108 50q-58 0 -95.5 -34.5t-37.5 -88.5q0 -59 34.5 -99t117.5 -73q92 -38 134.5 -91
t42.5 -131q0 -74 -48.5 -128t-131.5 -60v-77h-20v76q-60 0 -112.5 29.5t-82.5 80.5z" />
    <glyph glyph-name="percent" unicode="%" horiz-adv-x="893" 
d="M109 437q-47 48 -47 114t47.5 113.5t113.5 47.5t113.5 -47.5t47.5 -113.5t-47.5 -113.5t-113.5 -47.5t-114 47zM123 651q-41 -42 -41 -100t41.5 -100.5t99.5 -42.5t99.5 42.5t41.5 100.5t-41.5 100.5t-99.5 42.5t-100 -43zM197 -12l-16 12l515 712l16 -12zM783 262
q48 -47 48 -113t-47.5 -113.5t-113.5 -47.5t-113.5 47.5t-47.5 113.5t47.5 113.5t113.5 47.5t113 -48zM769 48q42 43 42 101t-41.5 100.5t-99.5 42.5t-99.5 -42.5t-41.5 -100.5t41.5 -100.5t99.5 -42.5t99 42z" />
    <glyph glyph-name="ampersand" unicode="&#x26;" horiz-adv-x="641" 
d="M242 384l-11 15q-51 63 -70.5 99t-19.5 75q0 62 39 100.5t99 38.5q56 0 95 -42.5t39 -106.5q0 -52 -35 -92t-106 -89q-1 -1 -4 -3l211 -274q44 40 97 107l16 -14q-48 -60 -101 -109l85 -110l-17 -13l-84 109q-102 -87 -217 -87q-82 0 -136 47.5t-54 121.5q0 64 39.5 115
t134.5 112zM88 157q0 -64 47.5 -107.5t123.5 -43.5q104 0 204 85l-210 278q-97 -66 -131 -108.5t-34 -103.5zM393 569q0 51 -34 88t-81 37q-55 0 -86 -35.5t-31 -84.5q0 -37 18.5 -70t65.5 -94l12 -16q69 43 102.5 83t33.5 92z" />
    <glyph glyph-name="quotesingle" unicode="'" horiz-adv-x="290" 
d="M135 700h20v-272h-20v272z" />
    <glyph glyph-name="parenleft" unicode="(" horiz-adv-x="340" 
d="M245 750l16 -10q-61 -110 -89 -211.5t-28 -218.5t28 -218.5t89 -211.5l-16 -10q-121 211 -121 440t121 440z" />
    <glyph glyph-name="parenright" unicode=")" horiz-adv-x="340" 
d="M95 -130l-16 10q61 110 89 211.5t28 218.5t-28 218.5t-89 211.5l16 10q121 -211 121 -440t-121 -440z" />
    <glyph glyph-name="asterisk" unicode="*" horiz-adv-x="560" 
d="M290 329l81 -103l50 -69l-16 -13l-50 70l-75 110l-75 -110l-50 -70l-16 13l50 69l80 103l-129 39l-75 24l7 19l74 -24l128 -47l-4 140v78h20v-78l-4 -140l128 47l74 24l7 -19l-75 -24z" />
    <glyph glyph-name="plus" unicode="+" horiz-adv-x="618" 
d="M319 341h207v-18h-207v-218h-20v218h-208v18h208v218h20v-218z" />
    <glyph glyph-name="comma" unicode="," horiz-adv-x="290" 
d="M152 39l19 -6l-63 -184l-19 7z" />
    <glyph glyph-name="hyphen" unicode="-" horiz-adv-x="406" 
d="M60 341h286v-18h-286v18z" />
    <glyph glyph-name="period" unicode="." horiz-adv-x="290" 
d="M145 -12q-25 0 -25 25t25 25t25 -25t-25 -25z" />
    <glyph glyph-name="slash" unicode="/" horiz-adv-x="501" 
d="M436 740l18 -9l-409 -823l-18 9z" />
    <glyph glyph-name="zero" unicode="0" horiz-adv-x="580" 
d="M153 600q-48 -94 -48 -250t48 -250t147 -94t147 94t48 250t-48 250t-147 94t-147 -94zM300 712q72 0 121.5 -49.5t71.5 -129.5t22 -183t-22 -183t-71.5 -129.5t-121.5 -49.5q-73 0 -122.5 50t-71 129t-21.5 183t21.5 183t71 129t122.5 50z" />
    <glyph glyph-name="one" unicode="1" horiz-adv-x="580" 
d="M335 712l10 -3v-709h-20v683l-193 -120l-10 16z" />
    <glyph glyph-name="two" unicode="2" horiz-adv-x="580" 
d="M93 0l-7 10l260 317q52 63 76.5 111t24.5 95q0 72 -45 116.5t-119 44.5q-102 0 -167 -101l-16 11q74 108 185 108q86 0 134 -52t48 -128q0 -91 -99 -210l-252 -304h363v-18h-386z" />
    <glyph glyph-name="three" unicode="3" horiz-adv-x="580" 
d="M234 397l-4 8l181 277h-309v18h334l4 -8l-182 -280q107 -23 160 -81.5t53 -133.5q0 -85 -58 -147t-163 -62q-54 0 -106.5 26.5t-86.5 79.5l14 12q68 -100 180 -100q88 0 144 55t56 138q0 76 -58 130t-159 68z" />
    <glyph glyph-name="four" unicode="4" horiz-adv-x="580" 
d="M41 158l-6 8l383 546l10 -4v-532h91v-18h-91v-158h-20v158h-367zM67 176h341v485z" />
    <glyph glyph-name="five" unicode="5" horiz-adv-x="580" 
d="M143 384l-7 5l48 311h273v-18h-257l-42 -275q45 17 95 17q99 0 164.5 -59.5t65.5 -155.5t-58.5 -158.5t-162.5 -62.5q-122 0 -197 107l15 11q34 -49 81 -74.5t95 -25.5q103 0 155 60t52 141q0 88 -59 143.5t-162 55.5q-52 0 -99 -22z" />
    <glyph glyph-name="six" unicode="6" horiz-adv-x="580" 
d="M68 210q0 63 34 119l238 383l17 -11l-194 -309q55 41 129 41q92 0 158.5 -65.5t66.5 -157.5t-66 -157t-159 -65t-158.5 65t-65.5 157zM147 355q-59 -60 -59 -145t59.5 -144.5t144.5 -59.5t145 59.5t60 144.5t-60 145t-145 60t-145 -60z" />
    <glyph glyph-name="seven" unicode="7" horiz-adv-x="580" 
d="M482 700l3 -5l-301 -707l-19 7l295 687h-379v18h401z" />
    <glyph glyph-name="eight" unicode="8" horiz-adv-x="580" 
d="M126 554q0 65 48 111.5t116 46.5t116 -46.5t48 -111.5q0 -51 -30 -91.5t-78 -57.5q72 -18 117.5 -74.5t45.5 -130.5q0 -89 -63.5 -150.5t-155.5 -61.5t-155.5 61.5t-63.5 150.5q0 74 45 130.5t118 74.5q-48 17 -78 57.5t-30 91.5zM489 199q0 81 -58 138.5t-141 57.5
t-141 -57.5t-58 -138.5q0 -80 58 -136.5t141 -56.5t141 56.5t58 136.5zM146 554q0 -59 41.5 -100t102.5 -41q59 0 101.5 41.5t42.5 99.5t-42.5 99t-101.5 41q-60 0 -102 -41t-42 -99z" />
    <glyph glyph-name="nine" unicode="9" horiz-adv-x="580" 
d="M517 490q0 -63 -34 -119l-238 -383l-17 11l194 309q-55 -41 -129 -41q-92 0 -158.5 65.5t-66.5 157.5t66 157t159 65t158.5 -65t65.5 -157zM437 345q60 60 60 145t-59.5 144.5t-144.5 59.5t-145 -59.5t-60 -144.5t60 -145t145 -60t144 60z" />
    <glyph glyph-name="colon" unicode=":" horiz-adv-x="290" 
d="M145 482q-25 0 -25 25t25 25t25 -25t-25 -25zM145 -12q-25 0 -25 25t25 25t25 -25t-25 -25z" />
    <glyph glyph-name="semicolon" unicode=";" horiz-adv-x="290" 
d="M152 39l19 -6l-63 -184l-19 7zM145 482q-25 0 -25 25t25 25t25 -25t-25 -25z" />
    <glyph glyph-name="less" unicode="&#x3c;" horiz-adv-x="618" 
d="M91 327v10l427 254l8 -15l-412 -244l412 -244l-8 -15z" />
    <glyph glyph-name="equal" unicode="=" horiz-adv-x="618" 
d="M526 428h-435v18h435v-18zM526 218h-435v18h435v-18z" />
    <glyph glyph-name="greater" unicode="&#x3e;" horiz-adv-x="618" 
d="M527 337v-10l-427 -254l-8 15l412 244l-412 244l8 15z" />
    <glyph glyph-name="question" unicode="?" horiz-adv-x="490" 
d="M298 212l8 -16q-27 -27 -73 -27q-41 0 -69 27t-28 69q0 34 23.5 64.5t70.5 49.5q91 37 132.5 80t41.5 102q0 55 -41 94t-119 39q-46 0 -93.5 -22t-77.5 -60l-16 13q78 87 188 87q80 0 129.5 -42t49.5 -110q0 -121 -170 -192q-52 -22 -75 -45.5t-23 -60.5q0 -34 23 -54.5
t57 -20.5t62 25zM225 -12q-25 0 -25 25t25 25t25 -25t-25 -25z" />
    <glyph glyph-name="at" unicode="@" horiz-adv-x="1002" 
d="M277 272q0 88 61 146.5t147 58.5q63 0 114 -32t76 -86v107h20v-275q0 -44 22 -71.5t59 -27.5q66 0 104 56t38 155q0 160 -119 275.5t-302 115.5q-175 0 -294 -122t-119 -294q0 -107 53.5 -203.5t153 -157.5t220.5 -61q142 0 259 70l8 -17q-117 -71 -267 -71
q-190 0 -318.5 132t-128.5 308q0 178 124 306t309 128q95 0 178.5 -34.5t140 -91.5t89.5 -131t33 -152q0 -102 -41.5 -165.5t-121.5 -63.5q-44 0 -71 31t-29 79q-25 -54 -76 -85.5t-114 -31.5q-86 0 -147 59t-61 146zM675 272q0 79 -55 133t-135 54q-79 0 -133.5 -54
t-54.5 -133q0 -78 54.5 -132t133.5 -54q80 0 135 54t55 132z" />
    <glyph glyph-name="A" unicode="A" horiz-adv-x="630" 
d="M311 712h8l292 -718l-18 -6l-89 219h-378l-89 -219l-18 6zM315 671l-182 -446h363z" />
    <glyph glyph-name="B" unicode="B" horiz-adv-x="522" 
d="M261 0h-162v700h119q95 0 146.5 -47.5t51.5 -111.5q0 -68 -30 -106t-88 -58q90 -20 129 -71.5t39 -115.5q0 -79 -56 -134.5t-149 -55.5zM119 18h134q90 0 141.5 49t51.5 124t-55.5 124.5t-150.5 49.5h-121v-347zM119 383h105q76 0 124 42.5t48 107.5q0 64 -45.5 106.5
t-131.5 42.5h-100v-299z" />
    <glyph glyph-name="C" unicode="C" horiz-adv-x="720" 
d="M425 712q143 0 245 -94l-14 -13q-97 89 -231 89q-142 0 -242.5 -99.5t-100.5 -244.5t100.5 -244.5t242.5 -99.5q134 0 231 89l14 -13q-102 -94 -245 -94q-151 0 -257 104.5t-106 257.5t106 257.5t257 104.5z" />
    <glyph glyph-name="D" unicode="D" horiz-adv-x="687" 
d="M99 700h167q153 0 256 -97t103 -253q0 -155 -103 -252.5t-256 -97.5h-167v700zM119 18h147q146 0 242.5 92t96.5 240t-96.5 240t-242.5 92h-147v-664z" />
    <glyph glyph-name="E" unicode="E" horiz-adv-x="465" 
d="M403 18v-18h-304v700h293v-18h-273v-277h246v-18h-246v-369h284z" />
    <glyph glyph-name="F" unicode="F" horiz-adv-x="424" 
d="M119 0h-20v700h288v-18h-268v-288h240v-18h-240v-376z" />
    <glyph glyph-name="G" unicode="G" horiz-adv-x="801" 
d="M508 331h237q-6 -149 -91.5 -246t-228.5 -97q-151 0 -257 104.5t-106 257.5t106 257.5t257 104.5q85 0 158 -37t122 -96l-15 -12q-49 59 -117.5 93t-147.5 34q-142 0 -242.5 -99.5t-100.5 -244.5t100.5 -244.5t242.5 -99.5q133 0 212.5 89.5t85.5 217.5h-215v18z" />
    <glyph glyph-name="H" unicode="H" horiz-adv-x="645" 
d="M526 700h20v-700h-20v377h-407v-377h-20v700h20v-305h407v305z" />
    <glyph glyph-name="I" unicode="I" horiz-adv-x="242" 
d="M111 700h20v-700h-20v700z" />
    <glyph glyph-name="J" unicode="J" horiz-adv-x="386" 
d="M4 51l15 13q40 -58 107 -58q68 0 104.5 48.5t36.5 138.5v507h20v-504q0 -105 -43 -156.5t-118 -51.5q-35 0 -68 17t-54 46z" />
    <glyph glyph-name="K" unicode="K" horiz-adv-x="536" 
d="M119 700v-339l349 351l16 -13l-340 -338l374 -361l-16 -12l-383 373v-361h-20v700h20z" />
    <glyph glyph-name="L" unicode="L" horiz-adv-x="438" 
d="M99 700h20v-682h295v-18h-315v700z" />
    <glyph glyph-name="M" unicode="M" horiz-adv-x="832" 
d="M421 0h-10l-198 655l-168 -667l-21 5l183 719h10l199 -656l199 656h10l183 -719l-21 -5l-168 667z" />
    <glyph glyph-name="N" unicode="N" horiz-adv-x="720" 
d="M610 -12l-491 677v-665h-20v707l11 5l491 -677v665h20v-707z" />
    <glyph glyph-name="O" unicode="O" horiz-adv-x="850" 
d="M168 92q-106 105 -106 258t106 257.5t257 104.5t257 -104.5t106 -257.5t-106 -257.5t-257 -104.5t-257 104zM667 105q101 100 101 245t-100.5 244.5t-242.5 99.5t-242.5 -99.5t-100.5 -244.5t100.5 -244.5t242.5 -99.5t242 99z" />
    <glyph glyph-name="P" unicode="P" horiz-adv-x="492" 
d="M119 334h105q93 0 148.5 48t55.5 126t-55.5 126t-148.5 48h-105v-348zM119 316v-316h-20v700h127q102 0 162 -54.5t60 -137.5t-60 -137.5t-162 -54.5h-107z" />
    <glyph glyph-name="Q" unicode="Q" horiz-adv-x="850" 
d="M788 349q0 -156 -110 -261l85 -86l-14 -14l-86 86q-101 -88 -238 -88q-151 0 -257 105t-106 258t106 258t257 105t257 -105t106 -258zM491 248l15 14l159 -161q103 101 103 248q0 145 -100.5 245t-242.5 100t-242.5 -100t-100.5 -245t100.5 -245t242.5 -100q128 0 225 84
z" />
    <glyph glyph-name="R" unicode="R" horiz-adv-x="518" 
d="M159 351l4 10q69 3 118 18.5t73.5 40t35 50t10.5 54.5q0 69 -52.5 113.5t-147.5 44.5h-81v-682h-20v700h107q98 0 156 -48.5t58 -128.5q0 -27 -8.5 -52t-31 -53t-71.5 -47.5t-120 -25.5l305 -346l-17 -11z" />
    <glyph glyph-name="S" unicode="S" horiz-adv-x="506" 
d="M49 98l17 11q63 -103 178 -103q78 0 129 48.5t51 120.5q0 70 -38.5 121t-135.5 89q-78 31 -116.5 74.5t-38.5 110.5q0 60 43.5 101t109.5 41q79 0 123 -56l-15 -12q-41 50 -108 50q-58 0 -95.5 -34.5t-37.5 -88.5q0 -59 34.5 -99t117.5 -73q92 -38 134.5 -91t42.5 -131
q0 -79 -54 -134t-146 -55q-60 0 -112.5 29.5t-82.5 80.5z" />
    <glyph glyph-name="T" unicode="T" horiz-adv-x="442" 
d="M24 682v18h394v-18h-187v-682h-20v682h-187z" />
    <glyph glyph-name="U" unicode="U" horiz-adv-x="626" 
d="M508 234v466h19v-468q0 -113 -59.5 -178.5t-154.5 -65.5t-154.5 65.5t-59.5 178.5v468h19v-466q0 -104 53.5 -166t141.5 -62t141.5 62t53.5 166z" />
    <glyph glyph-name="V" unicode="V" horiz-adv-x="630" 
d="M319 -12h-8l-292 718l18 6l278 -683l278 683l18 -6z" />
    <glyph glyph-name="W" unicode="W" horiz-adv-x="960" 
d="M475 712h10l210 -675l226 675l20 -5l-242 -719h-10l-209 669l-209 -669h-10l-242 719l20 5l226 -675z" />
    <glyph glyph-name="X" unicode="X" horiz-adv-x="563" 
d="M32 700l16 12l233 -331l234 331l16 -12l-238 -336l258 -364l-16 -12l-254 359l-253 -359l-16 12l257 364z" />
    <glyph glyph-name="Y" unicode="Y" horiz-adv-x="570" 
d="M295 0h-20v288l-263 414l17 10l256 -402l256 402l17 -10l-263 -414v-288z" />
    <glyph glyph-name="Z" unicode="Z" horiz-adv-x="462" 
d="M398 700l6 -10l-357 -672h391v-18h-413l-6 10l358 672h-329v18h350z" />
    <glyph glyph-name="bracketleft" unicode="[" horiz-adv-x="315" 
d="M146 -130v880h132v-18h-112v-844h112v-18h-132z" />
    <glyph glyph-name="backslash" unicode="\" horiz-adv-x="501" 
d="M27 731l18 9l409 -823l-18 -9z" />
    <glyph glyph-name="bracketright" unicode="]" horiz-adv-x="315" 
d="M169 750v-880h-132v18h112v844h-112v18h132z" />
    <glyph glyph-name="asciicircum" unicode="^" horiz-adv-x="646" 
d="M318 676h10l195 -271l-17 -12l-183 256l-183 -256l-17 12z" />
    <glyph glyph-name="underscore" unicode="_" horiz-adv-x="500" 
d="M0 -120v18h500v-18h-500z" />
    <glyph glyph-name="grave" unicode="`" horiz-adv-x="400" 
d="M122 713l14 14l142 -139l-14 -14z" />
    <glyph glyph-name="a" unicode="a" horiz-adv-x="645" 
d="M304 480q75 0 137.5 -41.5t90.5 -110.5v140h20v-468h-20v140q-28 -70 -90.5 -111t-137.5 -41q-101 0 -174.5 71t-73.5 175t73.5 175t174.5 71zM465 72q67 66 67 162t-67 162t-161 66t-161 -66t-67 -162t67 -162t161 -66t161 66z" />
    <glyph glyph-name="b" unicode="b" horiz-adv-x="645" 
d="M341 -12q-76 0 -138 41t-90 111v-140h-20v750h20v-422q28 69 90.5 110.5t137.5 41.5q101 0 174.5 -71t73.5 -175t-73.5 -175t-174.5 -71zM180 396q-67 -66 -67 -162t67 -162t161 -66t161 66t67 162t-67 162t-161 66t-161 -66z" />
    <glyph glyph-name="c" unicode="c" horiz-adv-x="484" 
d="M304 480q85 0 149 -49l-11 -14q-61 45 -138 45q-94 0 -161 -66t-67 -162t67 -162t161 -66q77 0 138 45l11 -14q-64 -49 -149 -49q-101 0 -174.5 71t-73.5 175t73.5 175t174.5 71z" />
    <glyph glyph-name="d" unicode="d" horiz-adv-x="645" 
d="M304 480q75 0 137.5 -41.5t90.5 -110.5v422h20v-750h-20v140q-28 -70 -90.5 -111t-137.5 -41q-101 0 -174.5 71t-73.5 175t73.5 175t174.5 71zM465 72q67 66 67 162t-67 162t-161 66t-161 -66t-67 -162t67 -162t161 -66t161 66z" />
    <glyph glyph-name="e" unicode="e" horiz-adv-x="586" 
d="M304 6q116 0 184 98l14 -12q-74 -104 -198 -104q-101 0 -174.5 71.5t-73.5 174.5q0 104 69 175t169 71q98 0 167 -69t71 -172h-456v-5q0 -95 67 -161.5t161 -66.5zM77 257h434q-10 88 -70 146.5t-147 58.5q-88 0 -148.5 -58.5t-68.5 -146.5z" />
    <glyph glyph-name="f" unicode="f" horiz-adv-x="312" 
d="M31 450v18h90v108q0 91 38 138t106 47q57 0 97 -40l-13 -14q-36 36 -84 36q-124 0 -124 -168v-107h160v-18h-160v-450h-20v450h-90z" />
    <glyph glyph-name="g" unicode="g" horiz-adv-x="645" 
d="M304 480q75 0 137.5 -41.5t90.5 -110.5v140h20v-458q0 -160 -68 -226t-189 -66q-53 0 -105.5 25.5t-87.5 80.5l15 12q29 -48 77.5 -74t101.5 -26q236 0 236 268v136q-28 -70 -90.5 -111t-137.5 -41q-101 0 -174.5 71t-73.5 175t73.5 175t174.5 71zM465 72q67 66 67 162
t-67 162t-161 66t-161 -66t-67 -162t67 -162t161 -66t161 66z" />
    <glyph glyph-name="h" unicode="h" horiz-adv-x="534" 
d="M427 0v279q0 79 -42 131t-115 52t-115 -52t-42 -131v-279h-20v750h20v-381q47 111 163 111q69 0 120 -52.5t51 -141.5v-286h-20z" />
    <glyph glyph-name="i" unicode="i" horiz-adv-x="228" 
d="M124 468v-468h-20v468h20zM114 659q-25 0 -25 25t25 25t25 -25t-25 -25z" />
    <glyph glyph-name="j" unicode="j" horiz-adv-x="237" 
d="M138 468v-566q0 -93 -34.5 -138.5t-106.5 -45.5q-73 0 -114 50l13 11q38 -43 101 -43q66 0 93.5 42t27.5 125v565h20zM128 659q-25 0 -25 25t25 25t25 -25t-25 -25z" />
    <glyph glyph-name="k" unicode="k" horiz-adv-x="470" 
d="M113 750v-750h-20v750h20zM113 256l289 224l14 -13l-276 -211l312 -254l-13 -14z" />
    <glyph glyph-name="l" unicode="l" horiz-adv-x="218" 
d="M119 750v-750h-20v750h20z" />
    <glyph glyph-name="m" unicode="m" horiz-adv-x="868" 
d="M761 0v277q0 79 -42 132t-115 53t-115 -53t-42 -132v-277h-20v277q0 79 -42 132t-115 53t-115 -53t-42 -132v-277h-20v468h20v-96q47 108 163 108q54 0 99 -33.5t62 -93.5q43 127 173 127q69 0 120 -52.5t51 -141.5v-286h-20z" />
    <glyph glyph-name="n" unicode="n" horiz-adv-x="534" 
d="M427 0v277q0 79 -42 132t-115 53t-115 -53t-42 -132v-277h-20v468h20v-96q47 108 163 108q69 0 120 -52.5t51 -141.5v-286h-20z" />
    <glyph glyph-name="o" unicode="o" horiz-adv-x="608" 
d="M465 72q67 66 67 162t-67 162t-161 66t-161 -66t-67 -162t67 -162t161 -66t161 66zM129 59q-73 71 -73 175t73.5 175t174.5 71t174.5 -71t73.5 -175t-73.5 -175t-174.5 -71t-175 71z" />
    <glyph glyph-name="p" unicode="p" horiz-adv-x="645" 
d="M341 -12q-75 0 -137.5 41.5t-90.5 110.5v-422h-20v750h20v-140q28 70 90 111t138 41q101 0 174.5 -71t73.5 -175t-73.5 -175t-174.5 -71zM180 396q-67 -66 -67 -162t67 -162t161 -66t161 66t67 162t-67 162t-161 66t-161 -66z" />
    <glyph glyph-name="q" unicode="q" horiz-adv-x="645" 
d="M304 480q75 0 137.5 -41t90.5 -111v140h20v-750h-20v422q-28 -69 -90.5 -110.5t-137.5 -41.5q-101 0 -174.5 71t-73.5 175t73.5 175t174.5 71zM465 72q67 66 67 162t-67 162t-161 66t-161 -66t-67 -162t67 -162t161 -66t161 66z" />
    <glyph glyph-name="r" unicode="r" horiz-adv-x="350" 
d="M332 465l-6 -20q-36 17 -72 17q-60 0 -100.5 -56t-40.5 -129v-277h-20v468h20v-97q49 109 147 109q34 0 72 -15z" />
    <glyph glyph-name="s" unicode="s" horiz-adv-x="375" 
d="M182 6q56 0 89.5 33t33.5 80t-29 77.5t-98 58.5q-111 47 -111 121q0 47 31.5 75.5t78.5 28.5q68 0 101 -49l-14 -11q-33 42 -87 42q-37 0 -63.5 -22.5t-26.5 -60.5t27 -63.5t90 -51.5q121 -50 121 -143q0 -57 -38 -95t-105 -38q-91 0 -139 86l14 11q48 -79 125 -79z" />
    <glyph glyph-name="t" unicode="t" horiz-adv-x="303" 
d="M31 450v18h90v132h20v-132h137v-18h-137v-450h-20v450h-90z" />
    <glyph glyph-name="u" unicode="u" horiz-adv-x="540" 
d="M113 468v-277q0 -79 42 -132t115 -53t115 53t42 132v277h20v-468h-20v96q-47 -108 -163 -108q-69 0 -120 52.5t-51 141.5v286h20z" />
    <glyph glyph-name="v" unicode="v" horiz-adv-x="464" 
d="M237 -12h-10l-205 485l18 7l192 -452l192 452l18 -7z" />
    <glyph glyph-name="w" unicode="w" horiz-adv-x="756" 
d="M561 -12h-10l-173 454l-173 -454h-10l-183 485l18 7l170 -452l173 452h10l173 -452l170 452l18 -7z" />
    <glyph glyph-name="x" unicode="x" horiz-adv-x="429" 
d="M202 243l-169 225l15 12l166 -221l167 221l15 -12l-169 -225l183 -243l-16 -12l-180 238l-179 -238l-16 12z" />
    <glyph glyph-name="y" unicode="y" horiz-adv-x="465" 
d="M437 473l-312 -767l-18 8l109 269l-188 490l18 7l181 -470l192 470z" />
    <glyph glyph-name="z" unicode="z" horiz-adv-x="385" 
d="M36 0l-5 7l261 443h-236v18h261l5 -7l-262 -443h294v-18h-318z" />
    <glyph glyph-name="braceleft" unicode="{" horiz-adv-x="381" 
d="M99 305v10q97 40 97 146v143q0 68 34 107t95 39h16v-18h-9q-116 0 -116 -133v-128q0 -116 -86 -161q86 -45 86 -161v-128q0 -133 116 -133h9v-18h-16q-61 0 -95 39t-34 107v143q0 106 -97 146z" />
    <glyph glyph-name="bar" unicode="|" horiz-adv-x="270" 
d="M125 -200v969h20v-969h-20z" />
    <glyph glyph-name="braceright" unicode="}" horiz-adv-x="381" 
d="M282 315v-10q-97 -40 -97 -146v-143q0 -68 -34 -107t-95 -39h-16v18h9q116 0 116 133v128q0 116 86 161q-86 45 -86 161v128q0 133 -116 133h-9v18h16q61 0 95 -39t34 -107v-143q0 -106 97 -146z" />
    <glyph glyph-name="asciitilde" unicode="~" horiz-adv-x="618" 
d="M302 326q-34 31 -57 44t-54 13q-76 0 -102 -97l-20 6q31 109 122 109q32 0 59 -13.5t65 -46.5q27 -23 38 -31.5t31 -17t42 -8.5q76 0 102 97l20 -6q-31 -109 -122 -109q-33 0 -60 13.5t-64 46.5z" />
    <glyph glyph-name="uni00A0" unicode="&#xa0;" horiz-adv-x="300" 
 />
    <glyph glyph-name="exclamdown" unicode="&#xa1;" horiz-adv-x="290" 
d="M155 -236h-20v531h20v-531zM145 476q25 0 25 -25t-25 -25t-25 25t25 25z" />
    <glyph glyph-name="cent" unicode="&#xa2;" horiz-adv-x="484" 
d="M56 234q0 102 71 172t170 74v76h20v-77q81 -5 136 -48l-11 -14q-61 45 -138 45q-94 0 -161 -66t-67 -162t67 -162t161 -66q77 0 138 45l11 -14q-64 -47 -143 -49v-82h-20v83q-98 6 -166 75.5t-68 169.5z" />
    <glyph glyph-name="sterling" unicode="&#xa3;" horiz-adv-x="590" 
d="M84 327v18h120v184q0 80 43.5 131.5t124.5 51.5t139 -68l-15 -13q-53 63 -124 63q-72 0 -110 -47.5t-38 -119.5v-182h206v-18h-206v-69q0 -129 -68 -240h372v-18h-396l-6 12q78 108 78 244v71h-120z" />
    <glyph glyph-name="currency" unicode="&#xa4;" horiz-adv-x="694" 
d="M200 171l-87 -87l-14 15l87 87q-56 62 -56 146t55 145l-86 87l14 15l87 -87q64 57 147 57t147 -57l87 87l14 -15l-87 -87q57 -64 57 -145q0 -83 -57 -147l87 -86l-14 -15l-87 87q-62 -57 -147 -57q-83 0 -147 57zM207 471q-57 -57 -57 -139t57.5 -140t139.5 -58t140 58
t58 140t-58 139.5t-140 57.5t-140 -58z" />
    <glyph glyph-name="yen" unicode="&#xa5;" horiz-adv-x="570" 
d="M295 0h-20v178h-206v18h206v87h-206v18h197l-254 401l17 10l256 -402l256 402l17 -10l-255 -401h198v-18h-206v-87h206v-18h-206v-178z" />
    <glyph glyph-name="brokenbar" unicode="&#xa6;" horiz-adv-x="270" 
d="M125 220h20v-320h-20v320zM125 688h20v-320h-20v320z" />
    <glyph glyph-name="section" unicode="&#xa7;" horiz-adv-x="517" 
d="M108 308q0 64 44.5 107t118.5 43q-78 36 -111 68.5t-33 76.5q0 50 35 79.5t93 29.5q61 0 105 -47l-15 -14q-40 43 -90 43q-48 0 -78 -24t-30 -65q0 -39 32.5 -68.5t100.5 -61.5q70 -32 102 -72t32 -97q0 -64 -44.5 -107t-118.5 -43q78 -36 111 -68.5t33 -76.5
q0 -50 -35 -79.5t-93 -29.5q-61 0 -105 47l15 14q40 -43 90 -43q48 0 78 24t30 65q0 39 -32.5 68.5t-100.5 61.5q-70 32 -102 72t-32 97zM166 403q-38 -37 -38 -96t38.5 -96.5t94.5 -37.5t94.5 37.5t38.5 96.5t-38.5 96.5t-94.5 37.5t-95 -38z" />
    <glyph glyph-name="dieresis" unicode="&#xa8;" horiz-adv-x="400" 
d="M91 633q-6 7 -6 16t6.5 15.5t15.5 6.5t15.5 -6.5t6.5 -15.5t-6.5 -15.5t-15.5 -6.5t-16 6zM277 633q-6 7 -6 16t6.5 15.5t15.5 6.5t15.5 -6.5t6.5 -15.5t-6.5 -15.5t-15.5 -6.5t-16 6z" />
    <glyph glyph-name="copyright" unicode="&#xa9;" horiz-adv-x="848" 
d="M439 545q65 0 114 -40l-12 -13q-41 35 -102 35q-70 0 -119.5 -49.5t-49.5 -125.5t49.5 -125.5t119.5 -49.5q61 0 102 35l12 -13q-49 -40 -114 -40q-78 0 -133.5 55t-55.5 138t55.5 138t133.5 55zM172 94q-105 106 -105 256t105 256t252 106t252 -106t105 -256t-105 -256
t-252 -106t-252 106zM186 591q-99 -100 -99 -241t99.5 -241.5t237.5 -100.5t237.5 100.5t99.5 241.5t-99.5 241.5t-237.5 100.5t-238 -101z" />
    <glyph glyph-name="ordfeminine" unicode="&#xaa;" horiz-adv-x="446" 
d="M212 695q51 0 95 -27.5t66 -72.5v91h20v-339h-20v91q-22 -45 -66 -72.5t-95 -27.5q-73 0 -126.5 52t-53.5 127t53.5 126.5t126.5 51.5zM372 517q0 66 -47 113t-113 47t-113 -47t-47 -113q0 -67 47 -114t113 -47t113 47t47 114z" />
    <glyph glyph-name="guillemotleft" unicode="&#xab;" horiz-adv-x="588" 
d="M81 307v10l206 159l11 -15l-194 -149l194 -149l-11 -15zM289 307v10l206 159l11 -15l-194 -149l194 -149l-11 -15z" />
    <glyph glyph-name="logicalnot" unicode="&#xac;" horiz-adv-x="618" 
d="M67 406v18h474v-250h-20v232h-454z" />
    <glyph glyph-name="uni00AD" unicode="&#xad;" horiz-adv-x="406" 
d="M60 341h286v-18h-286v18z" />
    <glyph glyph-name="registered" unicode="&#xae;" horiz-adv-x="848" 
d="M411 345l3 9q121 0 121 86q0 39 -28 62t-78 23h-63v-362h-24v380h88q57 0 91 -28.5t34 -74.5q0 -37 -27 -68.5t-89 -34.5l134 -165l-19 -14zM172 94q-105 106 -105 256t105 256t252 106t252 -106t105 -256t-105 -256t-252 -106t-252 106zM186 591q-99 -100 -99 -241
t99.5 -241.5t237.5 -100.5t237.5 100.5t99.5 241.5t-99.5 241.5t-237.5 100.5t-238 -101z" />
    <glyph glyph-name="macron" unicode="&#xaf;" horiz-adv-x="500" 
d="M0 639v18h500v-18h-500z" />
    <glyph glyph-name="degree" unicode="&#xb0;" horiz-adv-x="422" 
d="M125 505q-35 36 -35 86t35.5 85.5t85.5 35.5t85.5 -35.5t35.5 -85.5t-35.5 -85.5t-85.5 -35.5t-86 35zM139 664q-29 -30 -29 -73t29.5 -73t71.5 -30t71.5 30t29.5 73t-29.5 73t-71.5 30t-72 -30z" />
    <glyph glyph-name="plusminus" unicode="&#xb1;" horiz-adv-x="618" 
d="M319 404h207v-18h-207v-218h-20v218h-208v18h208v218h20v-218zM91 86h435v-18h-435v18z" />
    <glyph glyph-name="twosuperior" unicode="&#xb2;" 
d="M66 242l-5 9l169 210q63 77 63 133q0 46 -29 74t-80 28q-52 0 -100 -68l-15 9q51 75 117 75q61 0 93.5 -34t32.5 -85q0 -58 -65 -139l-157 -195h230v-17h-254z" />
    <glyph glyph-name="threesuperior" unicode="&#xb3;" 
d="M161 498l-3 11l113 173h-196v18h220l2 -10l-115 -178q69 -14 103 -53t34 -90q0 -55 -38 -97t-108 -42q-80 0 -129 71l15 12q22 -32 54 -48.5t61 -16.5q55 0 90 35t35 88q0 51 -36 84.5t-102 42.5z" />
    <glyph glyph-name="acute" unicode="&#xb4;" horiz-adv-x="400" 
d="M264 727l14 -14l-142 -139l-14 14z" />
    <glyph glyph-name="mu" unicode="&#xb5;" horiz-adv-x="568" 
d="M113 -193h-20v661h20v-277q0 -77 48.5 -131t122.5 -54t122.5 54t48.5 131v277h20v-468h-20v101q-23 -53 -70.5 -83t-106.5 -30q-52 0 -96.5 29t-68.5 79v-289z" />
    <glyph glyph-name="paragraph" unicode="&#xb6;" horiz-adv-x="560" 
d="M290 700h156v-831h-20v813h-66v-813h-20v477h-50q-102 0 -168 44t-66 134t65.5 133t168.5 43z" />
    <glyph glyph-name="periodcentered" unicode="&#xb7;" horiz-adv-x="290" 
d="M145 273q-25 0 -25 25t25 25t25 -25t-25 -25z" />
    <glyph glyph-name="cedilla" unicode="&#xb8;" horiz-adv-x="400" 
d="M160 -56l-5 10l27 48h20l-24 -45q47 -13 70 -41t23 -58q0 -35 -23.5 -65.5t-77.5 -30.5q-41 0 -76 32l11 16q30 -30 66 -30q40 0 60 23.5t20 53.5q0 33 -26 57.5t-65 29.5z" />
    <glyph glyph-name="onesuperior" unicode="&#xb9;" 
d="M225 712l12 -2v-468h-20v443l-123 -74l-9 15z" />
    <glyph glyph-name="ordmasculine" unicode="&#xba;" horiz-adv-x="450" 
d="M334 421q45 45 45 108t-45 108t-109 45t-109 -45t-45 -108t45 -108t109 -45t109 45zM51 529q0 69 52 120t122 51t122 -51t52 -120q0 -70 -52 -120.5t-122 -50.5t-122 50.5t-52 120.5z" />
    <glyph glyph-name="guillemotright" unicode="&#xbb;" horiz-adv-x="588" 
d="M507 317v-10l-206 -159l-11 15l194 149l-194 149l11 15zM299 317v-10l-206 -159l-11 15l194 149l-194 149l11 15z" />
    <glyph glyph-name="onequarter" unicode="&#xbc;" horiz-adv-x="950" 
d="M563 106l-4 8l249 362l11 -1v-351h57v-18h-57v-100h-20v100h-236zM588 124h211v310zM225 712l12 -2v-468h-20v443l-123 -74l-9 15zM633 703l18 -9l-374 -709l-18 9z" />
    <glyph glyph-name="onehalf" unicode="&#xbd;" horiz-adv-x="950" 
d="M607 6l-5 9l169 210q63 77 63 133q0 46 -29 74t-80 28q-52 0 -100 -68l-15 9q51 75 117 75q61 0 93.5 -34t32.5 -85q0 -58 -65 -139l-157 -195h230v-17h-254zM225 712l12 -2v-468h-20v443l-123 -74l-9 15zM633 703l18 -9l-374 -709l-18 9z" />
    <glyph glyph-name="threequarters" unicode="&#xbe;" horiz-adv-x="950" 
d="M161 498l-3 11l113 173h-196v18h220l2 -10l-115 -178q69 -14 103 -53t34 -90q0 -55 -38 -97t-108 -42q-80 0 -129 71l15 12q22 -32 54 -48.5t61 -16.5q55 0 90 35t35 88q0 51 -36 84.5t-102 42.5zM563 106l-4 8l249 362l11 -1v-351h57v-18h-57v-100h-20v100h-236z
M588 124h211v310zM633 703l18 -9l-374 -709l-18 9z" />
    <glyph glyph-name="questiondown" unicode="&#xbf;" horiz-adv-x="491" 
d="M179 252l-8 16q27 27 73 27q41 0 69 -27t28 -69q0 -34 -23.5 -64.5t-70.5 -49.5q-91 -37 -132.5 -80t-41.5 -102q0 -55 41 -94t119 -39q46 0 93.5 22t77.5 60l16 -13q-78 -87 -188 -87q-80 0 -129.5 42t-49.5 110q0 121 170 192q52 22 75 45.5t23 60.5q0 34 -23 54.5
t-57 20.5t-62 -25zM252 476q25 0 25 -25t-25 -25t-25 25t25 25z" />
    <glyph glyph-name="Agrave" unicode="&#xc0;" horiz-adv-x="630" 
d="M311 712h8l292 -718l-18 -6l-89 219h-378l-89 -219l-18 6zM315 671l-182 -446h363zM205 917l14 14l142 -139l-14 -14z" />
    <glyph glyph-name="Aacute" unicode="&#xc1;" horiz-adv-x="630" 
d="M311 712h8l292 -718l-18 -6l-89 219h-378l-89 -219l-18 6zM315 671l-182 -446h363zM426 931l14 -14l-142 -139l-14 14z" />
    <glyph glyph-name="Acircumflex" unicode="&#xc2;" horiz-adv-x="630" 
d="M311 712h8l292 -718l-18 -6l-89 219h-378l-89 -219l-18 6zM315 671l-182 -446h363zM310 924h10l122 -128l-13 -14l-114 120l-114 -120l-13 14z" />
    <glyph glyph-name="Atilde" unicode="&#xc3;" horiz-adv-x="630" 
d="M311 844q-36 34 -66 34q-45 0 -58 -58l-19 7q18 69 76 69q36 0 75 -36q36 -34 66 -34q45 0 58 58l19 -7q-18 -69 -76 -69q-36 0 -75 36zM311 712h8l292 -718l-18 -6l-89 219h-378l-89 -219l-18 6zM315 671l-182 -446h363z" />
    <glyph glyph-name="Adieresis" unicode="&#xc4;" horiz-adv-x="630" 
d="M206 837q-6 7 -6 16t6.5 15.5t15.5 6.5t15.5 -6.5t6.5 -15.5t-6.5 -15.5t-15.5 -6.5t-16 6zM392 837q-6 7 -6 16t6.5 15.5t15.5 6.5t15.5 -6.5t6.5 -15.5t-6.5 -15.5t-15.5 -6.5t-16 6zM311 712h8l292 -718l-18 -6l-89 219h-378l-89 -219l-18 6zM315 671l-182 -446h363z
" />
    <glyph glyph-name="Aring" unicode="&#xc5;" horiz-adv-x="630" 
d="M255 794q-25 24 -25 59t25 59t60 24t60 -24t25 -59t-25 -59t-60 -24t-60 24zM269 899q-19 -19 -19 -46t19 -46t46 -19t46 19t19 46t-19 46t-46 19t-46 -19zM311 712h8l292 -718l-18 -6l-89 219h-378l-89 -219l-18 6zM315 671l-182 -446h363z" />
    <glyph glyph-name="AE" unicode="&#xc6;" horiz-adv-x="804" 
d="M755 18v-18h-318v192h-283l-117 -204l-18 10l405 702h320v-18h-287v-276h259v-18h-259v-370h298zM165 210h272v473z" />
    <glyph glyph-name="Ccedilla" unicode="&#xc7;" horiz-adv-x="720" 
d="M371 -56l-5 10l20 36q-138 14 -231 116t-93 244q0 153 106 257.5t257 104.5q143 0 245 -94l-14 -13q-97 89 -231 89q-142 0 -242.5 -99.5t-100.5 -244.5t100.5 -244.5t242.5 -99.5q134 0 231 89l14 -13q-102 -94 -245 -94q-13 0 -19 1l-17 -32q47 -13 70 -41t23 -58
q0 -35 -23.5 -65.5t-77.5 -30.5q-41 0 -76 32l11 16q30 -30 66 -30q40 0 60 23.5t20 53.5q0 33 -26 57.5t-65 29.5z" />
    <glyph glyph-name="Egrave" unicode="&#xc8;" horiz-adv-x="465" 
d="M403 18v-18h-304v700h293v-18h-273v-277h246v-18h-246v-369h284zM161 917l14 14l142 -139l-14 -14z" />
    <glyph glyph-name="Eacute" unicode="&#xc9;" horiz-adv-x="465" 
d="M403 18v-18h-304v700h293v-18h-273v-277h246v-18h-246v-369h284zM307 931l14 -14l-142 -139l-14 14z" />
    <glyph glyph-name="Ecircumflex" unicode="&#xca;" horiz-adv-x="465" 
d="M403 18v-18h-304v700h293v-18h-273v-277h246v-18h-246v-369h284zM241 924h10l122 -128l-13 -14l-114 120l-114 -120l-13 14z" />
    <glyph glyph-name="Edieresis" unicode="&#xcb;" horiz-adv-x="465" 
d="M403 18v-18h-304v700h293v-18h-273v-277h246v-18h-246v-369h284zM133 837q-6 7 -6 16t6.5 15.5t15.5 6.5t15.5 -6.5t6.5 -15.5t-6.5 -15.5t-15.5 -6.5t-16 6zM319 837q-6 7 -6 16t6.5 15.5t15.5 6.5t15.5 -6.5t6.5 -15.5t-6.5 -15.5t-15.5 -6.5t-16 6z" />
    <glyph glyph-name="Igrave" unicode="&#xcc;" horiz-adv-x="242" 
d="M111 700h20v-700h-20v700zM-6 917l14 14l142 -139l-14 -14z" />
    <glyph glyph-name="Iacute" unicode="&#xcd;" horiz-adv-x="242" 
d="M111 700h20v-700h-20v700zM234 931l14 -14l-142 -139l-14 14z" />
    <glyph glyph-name="Icircumflex" unicode="&#xce;" horiz-adv-x="242" 
d="M116 924h10l122 -128l-13 -14l-114 120l-114 -120l-13 14zM111 700h20v-700h-20v700z" />
    <glyph glyph-name="Idieresis" unicode="&#xcf;" horiz-adv-x="242" 
d="M12 837q-6 7 -6 16t6.5 15.5t15.5 6.5t15.5 -6.5t6.5 -15.5t-6.5 -15.5t-15.5 -6.5t-16 6zM198 837q-6 7 -6 16t6.5 15.5t15.5 6.5t15.5 -6.5t6.5 -15.5t-6.5 -15.5t-15.5 -6.5t-16 6zM111 700h20v-700h-20v700z" />
    <glyph glyph-name="Eth" unicode="&#xd0;" horiz-adv-x="677" 
d="M12 341v18h77v341h167q153 0 256 -97t103 -253q0 -155 -103 -252.5t-256 -97.5h-167v341h-77zM109 18h147q146 0 242.5 92t96.5 240t-96.5 240t-242.5 92h-147v-323h213v-18h-213v-323z" />
    <glyph glyph-name="Ntilde" unicode="&#xd1;" horiz-adv-x="720" 
d="M356 844q-36 34 -66 34q-45 0 -58 -58l-19 7q18 69 76 69q36 0 75 -36q36 -34 66 -34q45 0 58 58l19 -7q-18 -69 -76 -69q-36 0 -75 36zM610 -12l-491 677v-665h-20v707l11 5l491 -677v665h20v-707z" />
    <glyph glyph-name="Ograve" unicode="&#xd2;" horiz-adv-x="850" 
d="M168 92q-106 105 -106 258t106 257.5t257 104.5t257 -104.5t106 -257.5t-106 -257.5t-257 -104.5t-257 104zM667 105q101 100 101 245t-100.5 244.5t-242.5 99.5t-242.5 -99.5t-100.5 -244.5t100.5 -244.5t242.5 -99.5t242 99zM319 917l14 14l142 -139l-14 -14z" />
    <glyph glyph-name="Oacute" unicode="&#xd3;" horiz-adv-x="850" 
d="M168 92q-106 105 -106 258t106 257.5t257 104.5t257 -104.5t106 -257.5t-106 -257.5t-257 -104.5t-257 104zM667 105q101 100 101 245t-100.5 244.5t-242.5 99.5t-242.5 -99.5t-100.5 -244.5t100.5 -244.5t242.5 -99.5t242 99zM515 931l14 -14l-142 -139l-14 14z" />
    <glyph glyph-name="Ocircumflex" unicode="&#xd4;" horiz-adv-x="850" 
d="M168 92q-106 105 -106 258t106 257.5t257 104.5t257 -104.5t106 -257.5t-106 -257.5t-257 -104.5t-257 104zM667 105q101 100 101 245t-100.5 244.5t-242.5 99.5t-242.5 -99.5t-100.5 -244.5t100.5 -244.5t242.5 -99.5t242 99zM420 924h10l122 -128l-13 -14l-114 120
l-114 -120l-13 14z" />
    <glyph glyph-name="Otilde" unicode="&#xd5;" horiz-adv-x="850" 
d="M168 92q-106 105 -106 258t106 257.5t257 104.5t257 -104.5t106 -257.5t-106 -257.5t-257 -104.5t-257 104zM667 105q101 100 101 245t-100.5 244.5t-242.5 99.5t-242.5 -99.5t-100.5 -244.5t100.5 -244.5t242.5 -99.5t242 99zM421 844q-36 34 -66 34q-45 0 -58 -58
l-19 7q18 69 76 69q36 0 75 -36q36 -34 66 -34q45 0 58 58l19 -7q-18 -69 -76 -69q-36 0 -75 36z" />
    <glyph glyph-name="Odieresis" unicode="&#xd6;" horiz-adv-x="850" 
d="M168 92q-106 105 -106 258t106 257.5t257 104.5t257 -104.5t106 -257.5t-106 -257.5t-257 -104.5t-257 104zM667 105q101 100 101 245t-100.5 244.5t-242.5 99.5t-242.5 -99.5t-100.5 -244.5t100.5 -244.5t242.5 -99.5t242 99zM316 837q-6 7 -6 16t6.5 15.5t15.5 6.5
t15.5 -6.5t6.5 -15.5t-6.5 -15.5t-15.5 -6.5t-16 6zM502 837q-6 7 -6 16t6.5 15.5t15.5 6.5t15.5 -6.5t6.5 -15.5t-6.5 -15.5t-15.5 -6.5t-16 6z" />
    <glyph glyph-name="multiply" unicode="&#xd7;" horiz-adv-x="646" 
d="M337 348l185 -185l-14 -14l-185 185l-185 -185l-14 14l185 185l-185 185l14 14l185 -185l185 185l14 -14z" />
    <glyph glyph-name="Oslash" unicode="&#xd8;" horiz-adv-x="850" 
d="M666 793l18 -10l-71 -124q80 -49 127.5 -130t47.5 -180q0 -153 -106 -258t-257 -105q-93 0 -172 42l-68 -119l-18 10l68 120q-79 48 -126 130t-47 180q0 153 106 258t257 105q91 0 170 -42zM768 349q0 94 -44 171.5t-120 123.5l-342 -600q74 -40 163 -40q142 0 242.5 100
t100.5 245zM425 694q-142 0 -242.5 -100t-100.5 -245q0 -94 43.5 -171t118.5 -123l342 599q-77 40 -161 40z" />
    <glyph glyph-name="Ugrave" unicode="&#xd9;" horiz-adv-x="626" 
d="M508 234v466h19v-468q0 -113 -59.5 -178.5t-154.5 -65.5t-154.5 65.5t-59.5 178.5v468h19v-466q0 -104 53.5 -166t141.5 -62t141.5 62t53.5 166zM222 917l14 14l142 -139l-14 -14z" />
    <glyph glyph-name="Uacute" unicode="&#xda;" horiz-adv-x="626" 
d="M508 234v466h19v-468q0 -113 -59.5 -178.5t-154.5 -65.5t-154.5 65.5t-59.5 178.5v468h19v-466q0 -104 53.5 -166t141.5 -62t141.5 62t53.5 166zM412 931l14 -14l-142 -139l-14 14z" />
    <glyph glyph-name="Ucircumflex" unicode="&#xdb;" horiz-adv-x="626" 
d="M508 235v466h19v-468q0 -113 -59.5 -178.5t-154.5 -65.5t-154.5 65.5t-59.5 178.5v468h19v-466q0 -104 53.5 -166t141.5 -62t141.5 62t53.5 166zM318 924h10l122 -128l-13 -14l-114 120l-114 -120l-13 14z" />
    <glyph glyph-name="Udieresis" unicode="&#xdc;" horiz-adv-x="626" 
d="M204 837q-6 7 -6 16t6.5 15.5t15.5 6.5t15.5 -6.5t6.5 -15.5t-6.5 -15.5t-15.5 -6.5t-16 6zM390 837q-6 7 -6 16t6.5 15.5t15.5 6.5t15.5 -6.5t6.5 -15.5t-6.5 -15.5t-15.5 -6.5t-16 6zM508 234v466h19v-468q0 -113 -59.5 -178.5t-154.5 -65.5t-154.5 65.5t-59.5 178.5
v468h19v-466q0 -104 53.5 -166t141.5 -62t141.5 62t53.5 166z" />
    <glyph glyph-name="Yacute" unicode="&#xdd;" horiz-adv-x="570" 
d="M295 0h-20v288l-263 414l17 10l256 -402l256 402l17 -10l-263 -414v-288zM389 931l14 -14l-142 -139l-14 14z" />
    <glyph glyph-name="Thorn" unicode="&#xde;" horiz-adv-x="492" 
d="M99 712h20v-163h107q102 0 162 -54.5t60 -137.5t-60 -137.5t-162 -54.5h-107v-165h-20v712zM119 183h105q93 0 148.5 48t55.5 126t-55.5 126t-148.5 48h-105v-348z" />
    <glyph glyph-name="germandbls" unicode="&#xdf;" horiz-adv-x="566" 
d="M82 0v550q0 93 47.5 146.5t130.5 53.5q74 0 126 -52.5t52 -122.5q0 -128 -139 -171q94 -4 152.5 -63t58.5 -142q0 -91 -51.5 -151t-148.5 -60q-53 0 -102 27l10 19q46 -28 96 -28q76 0 126 53t50 139t-60.5 139t-166.5 57l2 17q71 14 112 57.5t41 104.5q0 65 -46 112
t-114 47q-75 0 -115.5 -51t-40.5 -131v-550h-20z" />
    <glyph glyph-name="agrave" unicode="&#xe0;" horiz-adv-x="645" 
d="M304 480q75 0 137.5 -41.5t90.5 -110.5v140h20v-468h-20v140q-28 -70 -90.5 -111t-137.5 -41q-101 0 -174.5 71t-73.5 175t73.5 175t174.5 71zM465 72q67 66 67 162t-67 162t-161 66t-161 -66t-67 -162t67 -162t161 -66t161 66zM237 694l14 14l142 -139l-14 -14z" />
    <glyph glyph-name="aacute" unicode="&#xe1;" horiz-adv-x="645" 
d="M304 480q75 0 137.5 -41.5t90.5 -110.5v140h20v-468h-20v140q-28 -70 -90.5 -111t-137.5 -41q-101 0 -174.5 71t-73.5 175t73.5 175t174.5 71zM465 72q67 66 67 162t-67 162t-161 66t-161 -66t-67 -162t67 -162t161 -66t161 66zM388 708l14 -14l-142 -139l-14 14z" />
    <glyph glyph-name="acircumflex" unicode="&#xe2;" horiz-adv-x="645" 
d="M304 480q75 0 137.5 -41.5t90.5 -110.5v140h20v-468h-20v140q-28 -70 -90.5 -111t-137.5 -41q-101 0 -174.5 71t-73.5 175t73.5 175t174.5 71zM465 72q67 66 67 162t-67 162t-161 66t-161 -66t-67 -162t67 -162t161 -66t161 66zM318 701h10l122 -128l-13 -14l-114 120
l-114 -120l-13 14z" />
    <glyph glyph-name="atilde" unicode="&#xe3;" horiz-adv-x="645" 
d="M304 480q75 0 137.5 -41.5t90.5 -110.5v140h20v-468h-20v140q-28 -70 -90.5 -111t-137.5 -41q-101 0 -174.5 71t-73.5 175t73.5 175t174.5 71zM465 72q67 66 67 162t-67 162t-161 66t-161 -66t-67 -162t67 -162t161 -66t161 66zM319 621q-36 34 -66 34q-45 0 -58 -58
l-19 7q18 69 76 69q36 0 75 -36q36 -34 66 -34q45 0 58 58l19 -7q-18 -69 -76 -69q-36 0 -75 36z" />
    <glyph glyph-name="adieresis" unicode="&#xe4;" horiz-adv-x="645" 
d="M304 480q75 0 137.5 -41.5t90.5 -110.5v140h20v-468h-20v140q-28 -70 -90.5 -111t-137.5 -41q-101 0 -174.5 71t-73.5 175t73.5 175t174.5 71zM465 72q67 66 67 162t-67 162t-161 66t-161 -66t-67 -162t67 -162t161 -66t161 66zM196 614q-6 7 -6 16t6.5 15.5t15.5 6.5
t15.5 -6.5t6.5 -15.5t-6.5 -15.5t-15.5 -6.5t-16 6zM382 614q-6 7 -6 16t6.5 15.5t15.5 6.5t15.5 -6.5t6.5 -15.5t-6.5 -15.5t-15.5 -6.5t-16 6z" />
    <glyph glyph-name="aring" unicode="&#xe5;" horiz-adv-x="645" 
d="M304 480q75 0 137.5 -41.5t90.5 -110.5v140h20v-468h-20v140q-28 -70 -90.5 -111t-137.5 -41q-101 0 -174.5 71t-73.5 175t73.5 175t174.5 71zM465 72q67 66 67 162t-67 162t-161 66t-161 -66t-67 -162t67 -162t161 -66t161 66zM245 571q-25 24 -25 59t25 59t60 24
t60 -24t25 -59t-25 -59t-60 -24t-60 24zM259 676q-19 -19 -19 -46t19 -46t46 -19t46 19t19 46t-19 46t-46 19t-46 -19z" />
    <glyph glyph-name="ae" unicode="&#xe6;" horiz-adv-x="968" 
d="M257 296q55 0 103 -22.5t72 -61.5v54q0 92 -45.5 144t-129.5 52q-40 0 -85 -22t-75 -58l-14 14q76 84 174 84q80 0 129.5 -42.5t61.5 -114.5q26 71 87 114t138 43q99 0 169 -69.5t72 -171.5h-462v-5q0 -95 68.5 -161.5t162.5 -66.5q119 0 187 98l14 -12
q-74 -104 -201 -104q-75 0 -138 41t-93 109q-4 -53 -36.5 -88t-73 -48.5t-85.5 -13.5q-78 0 -136.5 43.5t-58.5 110.5t58.5 110.5t136.5 43.5zM133 239q-51 -38 -51 -97t51.5 -97.5t123.5 -38.5t123.5 38.5t51.5 97.5t-51.5 97.5t-123.5 38.5t-124 -39zM453 257h440
q-10 88 -71 146.5t-149 58.5q-89 0 -150.5 -58.5t-69.5 -146.5z" />
    <glyph glyph-name="ccedilla" unicode="&#xe7;" horiz-adv-x="484" 
d="M268 -56l-5 10l19 35q-94 8 -160 77.5t-66 167.5q0 104 73.5 175t174.5 71q85 0 149 -49l-11 -14q-61 45 -138 45q-94 0 -161 -66t-67 -162t67 -162t161 -66q77 0 138 45l11 -14q-64 -49 -149 -49h-2l-16 -31q47 -13 70 -41t23 -58q0 -35 -23.5 -65.5t-77.5 -30.5
q-41 0 -76 32l11 16q30 -30 66 -30q40 0 60 23.5t20 53.5q0 33 -26 57.5t-65 29.5z" />
    <glyph glyph-name="egrave" unicode="&#xe8;" horiz-adv-x="586" 
d="M212 694l14 14l142 -139l-14 -14zM304 6q116 0 184 98l14 -12q-74 -104 -198 -104q-101 0 -174.5 71.5t-73.5 174.5q0 104 69 175t169 71q98 0 167 -69t71 -172h-456v-5q0 -95 67 -161.5t161 -66.5zM77 257h434q-10 88 -70 146.5t-147 58.5q-88 0 -148.5 -58.5
t-68.5 -146.5z" />
    <glyph glyph-name="eacute" unicode="&#xe9;" horiz-adv-x="586" 
d="M304 6q116 0 184 98l14 -12q-74 -104 -198 -104q-101 0 -174.5 71.5t-73.5 174.5q0 104 69 175t169 71q98 0 167 -69t71 -172h-456v-5q0 -95 67 -161.5t161 -66.5zM77 257h434q-10 88 -70 146.5t-147 58.5q-88 0 -148.5 -58.5t-68.5 -146.5zM369 708l14 -14l-142 -139
l-14 14z" />
    <glyph glyph-name="ecircumflex" unicode="&#xea;" horiz-adv-x="586" 
d="M304 6q116 0 184 98l14 -12q-74 -104 -198 -104q-101 0 -174.5 71.5t-73.5 174.5q0 104 69 175t169 71q98 0 167 -69t71 -172h-456v-5q0 -95 67 -161.5t161 -66.5zM77 257h434q-10 88 -70 146.5t-147 58.5q-88 0 -148.5 -58.5t-68.5 -146.5zM290 701h10l122 -128l-13 -14
l-114 120l-114 -120l-13 14z" />
    <glyph glyph-name="edieresis" unicode="&#xeb;" horiz-adv-x="586" 
d="M186 614q-6 7 -6 16t6.5 15.5t15.5 6.5t15.5 -6.5t6.5 -15.5t-6.5 -15.5t-15.5 -6.5t-16 6zM372 614q-6 7 -6 16t6.5 15.5t15.5 6.5t15.5 -6.5t6.5 -15.5t-6.5 -15.5t-15.5 -6.5t-16 6zM304 6q116 0 184 98l14 -12q-74 -104 -198 -104q-101 0 -174.5 71.5t-73.5 174.5
q0 104 69 175t169 71q98 0 167 -69t71 -172h-456v-5q0 -95 67 -161.5t161 -66.5zM77 257h434q-10 88 -70 146.5t-147 58.5q-88 0 -148.5 -58.5t-68.5 -146.5z" />
    <glyph glyph-name="igrave" unicode="&#xec;" horiz-adv-x="228" 
d="M124 468v-468h-20v468h20zM-17 694l14 14l142 -139l-14 -14z" />
    <glyph glyph-name="iacute" unicode="&#xed;" horiz-adv-x="228" 
d="M235 708l14 -14l-142 -139l-14 14zM124 468v-468h-20v468h20z" />
    <glyph glyph-name="icircumflex" unicode="&#xee;" horiz-adv-x="228" 
d="M109 701h10l122 -128l-13 -14l-114 120l-114 -120l-13 14zM124 468v-468h-20v468h20z" />
    <glyph glyph-name="idieresis" unicode="&#xef;" horiz-adv-x="228" 
d="M124 468v-468h-20v468h20zM5 614q-6 7 -6 16t6.5 15.5t15.5 6.5t15.5 -6.5t6.5 -15.5t-6.5 -15.5t-15.5 -6.5t-16 6zM191 614q-6 7 -6 16t6.5 15.5t15.5 6.5t15.5 -6.5t6.5 -15.5t-6.5 -15.5t-15.5 -6.5t-16 6z" />
    <glyph glyph-name="eth" unicode="&#xf0;" horiz-adv-x="606" 
d="M139 529l-9 16l163 90q-31 24 -124 77l10 18q72 -41 132 -86l92 51l9 -16l-86 -47q224 -179 224 -398q0 -106 -69.5 -176t-177.5 -70t-177.5 70t-69.5 176t69.5 176t177.5 70q127 0 203 -102q-52 134 -197 244zM530 234q0 98 -66 163t-161 65q-97 0 -162 -63.5
t-65 -164.5t65 -164.5t162 -63.5t162 63.5t65 164.5z" />
    <glyph glyph-name="ntilde" unicode="&#xf1;" horiz-adv-x="534" 
d="M261 621q-36 34 -66 34q-45 0 -58 -58l-19 7q18 69 76 69q36 0 75 -36q36 -34 66 -34q45 0 58 58l19 -7q-18 -69 -76 -69q-36 0 -75 36zM427 0v277q0 79 -42 132t-115 53t-115 -53t-42 -132v-277h-20v468h20v-96q47 108 163 108q69 0 120 -52.5t51 -141.5v-286h-20z" />
    <glyph glyph-name="ograve" unicode="&#xf2;" horiz-adv-x="608" 
d="M465 72q67 66 67 162t-67 162t-161 66t-161 -66t-67 -162t67 -162t161 -66t161 66zM129 59q-73 71 -73 175t73.5 175t174.5 71t174.5 -71t73.5 -175t-73.5 -175t-174.5 -71t-175 71zM218 694l14 14l142 -139l-14 -14z" />
    <glyph glyph-name="oacute" unicode="&#xf3;" horiz-adv-x="608" 
d="M465 72q67 66 67 162t-67 162t-161 66t-161 -66t-67 -162t67 -162t161 -66t161 66zM129 59q-73 71 -73 175t73.5 175t174.5 71t174.5 -71t73.5 -175t-73.5 -175t-174.5 -71t-175 71zM405 708l14 -14l-142 -139l-14 14z" />
    <glyph glyph-name="ocircumflex" unicode="&#xf4;" horiz-adv-x="608" 
d="M465 72q67 66 67 162t-67 162t-161 66t-161 -66t-67 -162t67 -162t161 -66t161 66zM129 59q-73 71 -73 175t73.5 175t174.5 71t174.5 -71t73.5 -175t-73.5 -175t-174.5 -71t-175 71zM299 701h10l122 -128l-13 -14l-114 120l-114 -120l-13 14z" />
    <glyph glyph-name="otilde" unicode="&#xf5;" horiz-adv-x="608" 
d="M300 621q-36 34 -66 34q-45 0 -58 -58l-19 7q18 69 76 69q36 0 75 -36q36 -34 66 -34q45 0 58 58l19 -7q-18 -69 -76 -69q-36 0 -75 36zM465 72q67 66 67 162t-67 162t-161 66t-161 -66t-67 -162t67 -162t161 -66t161 66zM129 59q-73 71 -73 175t73.5 175t174.5 71
t174.5 -71t73.5 -175t-73.5 -175t-174.5 -71t-175 71z" />
    <glyph glyph-name="odieresis" unicode="&#xf6;" horiz-adv-x="608" 
d="M195 614q-6 7 -6 16t6.5 15.5t15.5 6.5t15.5 -6.5t6.5 -15.5t-6.5 -15.5t-15.5 -6.5t-16 6zM381 614q-6 7 -6 16t6.5 15.5t15.5 6.5t15.5 -6.5t6.5 -15.5t-6.5 -15.5t-15.5 -6.5t-16 6zM465 72q67 66 67 162t-67 162t-161 66t-161 -66t-67 -162t67 -162t161 -66t161 66z
M129 59q-73 71 -73 175t73.5 175t174.5 71t174.5 -71t73.5 -175t-73.5 -175t-174.5 -71t-175 71z" />
    <glyph glyph-name="divide" unicode="&#xf7;" horiz-adv-x="618" 
d="M287 508q-8 9 -8 21t8.5 20.5t20.5 8.5t20.5 -8.5t8.5 -20.5t-8.5 -20.5t-20.5 -8.5t-21 8zM73 337h471v-14h-471v14zM287 110q-8 9 -8 21t8.5 20.5t20.5 8.5t20.5 -8.5t8.5 -20.5t-8.5 -20.5t-20.5 -8.5t-21 8z" />
    <glyph glyph-name="oslash" unicode="&#xf8;" horiz-adv-x="608" 
d="M56 234q0 104 73.5 175t174.5 71q62 0 117 -29l68 118l17 -10l-68 -118q52 -33 83 -87.5t31 -119.5q0 -104 -73.5 -175t-174.5 -71q-54 0 -111 26l-66 -115l-18 11l65 114q-55 33 -86.5 88t-31.5 122zM304 462q-94 0 -161 -66t-67 -162q0 -62 29 -113t78 -82l229 396
q-51 27 -108 27zM532 234q0 60 -27.5 110.5t-75.5 80.5l-227 -396q48 -23 102 -23q94 0 161 66t67 162z" />
    <glyph glyph-name="ugrave" unicode="&#xf9;" horiz-adv-x="540" 
d="M113 468v-277q0 -79 42 -132t115 -53t115 53t42 132v277h20v-468h-20v96q-47 -108 -163 -108q-69 0 -120 52.5t-51 141.5v286h20zM184 694l14 14l142 -139l-14 -14z" />
    <glyph glyph-name="uacute" unicode="&#xfa;" horiz-adv-x="540" 
d="M113 468v-277q0 -79 42 -132t115 -53t115 53t42 132v277h20v-468h-20v96q-47 -108 -163 -108q-69 0 -120 52.5t-51 141.5v286h20zM350 708l14 -14l-142 -139l-14 14z" />
    <glyph glyph-name="ucircumflex" unicode="&#xfb;" horiz-adv-x="540" 
d="M113 468v-277q0 -79 42 -132t115 -53t115 53t42 132v277h20v-468h-20v96q-47 -108 -163 -108q-69 0 -120 52.5t-51 141.5v286h20zM269 701h10l122 -128l-13 -14l-114 120l-114 -120l-13 14z" />
    <glyph glyph-name="udieresis" unicode="&#xfc;" horiz-adv-x="540" 
d="M113 468v-277q0 -79 42 -132t115 -53t115 53t42 132v277h20v-468h-20v96q-47 -108 -163 -108q-69 0 -120 52.5t-51 141.5v286h20zM165 614q-6 7 -6 16t6.5 15.5t15.5 6.5t15.5 -6.5t6.5 -15.5t-6.5 -15.5t-15.5 -6.5t-16 6zM351 614q-6 7 -6 16t6.5 15.5t15.5 6.5
t15.5 -6.5t6.5 -15.5t-6.5 -15.5t-15.5 -6.5t-16 6z" />
    <glyph glyph-name="yacute" unicode="&#xfd;" horiz-adv-x="465" 
d="M437 473l-312 -767l-18 8l109 269l-188 490l18 7l181 -470l192 470zM289 708l14 -14l-142 -139l-14 14z" />
    <glyph glyph-name="thorn" unicode="&#xfe;" horiz-adv-x="645" 
d="M341 -12q-75 0 -137.5 41.5t-90.5 110.5v-422h-20v1032h20v-422q28 70 90 111t138 41q101 0 174.5 -71t73.5 -175t-73.5 -175t-174.5 -71zM180 396q-67 -66 -67 -162t67 -162t161 -66t161 66t67 162t-67 162t-161 66t-161 -66z" />
    <glyph glyph-name="ydieresis" unicode="&#xff;" horiz-adv-x="465" 
d="M118 614q-6 7 -6 16t6.5 15.5t15.5 6.5t15.5 -6.5t6.5 -15.5t-6.5 -15.5t-15.5 -6.5t-16 6zM304 614q-6 7 -6 16t6.5 15.5t15.5 6.5t15.5 -6.5t6.5 -15.5t-6.5 -15.5t-15.5 -6.5t-16 6zM437 473l-312 -767l-18 8l109 269l-188 490l18 7l181 -470l192 470z" />
    <glyph glyph-name="Amacron" unicode="&#x100;" horiz-adv-x="630" 
d="M311 712h8l292 -718l-18 -6l-89 219h-378l-89 -219l-18 6zM315 671l-182 -446h363zM179 843v18h272v-18h-272z" />
    <glyph glyph-name="amacron" unicode="&#x101;" horiz-adv-x="645" 
d="M304 480q75 0 137.5 -41.5t90.5 -110.5v140h20v-468h-20v140q-28 -70 -90.5 -111t-137.5 -41q-101 0 -174.5 71t-73.5 175t73.5 175t174.5 71zM465 72q67 66 67 162t-67 162t-161 66t-161 -66t-67 -162t67 -162t161 -66t161 66zM169 620v18h272v-18h-272z" />
    <glyph glyph-name="Abreve" unicode="&#x102;" horiz-adv-x="630" 
d="M311 712h8l292 -718l-18 -6l-89 219h-378l-89 -219l-18 6zM315 671l-182 -446h363zM192 914h20q4 -42 31 -71.5t72 -29.5t72 29.5t31 71.5h20q-4 -52 -40 -85.5t-83 -33.5t-83 33.5t-40 85.5z" />
    <glyph glyph-name="abreve" unicode="&#x103;" horiz-adv-x="645" 
d="M304 480q75 0 137.5 -41.5t90.5 -110.5v140h20v-468h-20v140q-28 -70 -90.5 -111t-137.5 -41q-101 0 -174.5 71t-73.5 175t73.5 175t174.5 71zM465 72q67 66 67 162t-67 162t-161 66t-161 -66t-67 -162t67 -162t161 -66t161 66zM182 691h20q4 -42 31 -71.5t72 -29.5
t72 29.5t31 71.5h20q-4 -52 -40 -85.5t-83 -33.5t-83 33.5t-40 85.5z" />
    <glyph glyph-name="Aogonek" unicode="&#x104;" horiz-adv-x="626" 
d="M311 712h8l292 -718l-8 -2q-75 -61 -75 -119q0 -33 20 -53.5t53 -20.5q21 0 41 17l7 -16q-19 -19 -50 -19q-41 0 -66 26t-25 65q0 67 81 126l-85 209h-378l-89 -219l-18 6zM315 671l-182 -446h363z" />
    <glyph glyph-name="aogonek" unicode="&#x105;" horiz-adv-x="640" 
d="M304 480q75 0 137.5 -41.5t90.5 -110.5v140h20v-468q-85 -61 -85 -127q0 -33 20.5 -53.5t52.5 -20.5q21 0 41 17l7 -16q-19 -19 -50 -19q-41 0 -66 26t-25 65q0 70 85 128v140q-28 -70 -90.5 -111t-137.5 -41q-101 0 -174.5 71t-73.5 175t73.5 175t174.5 71zM465 72
q67 66 67 162t-67 162t-161 66t-161 -66t-67 -162t67 -162t161 -66t161 66z" />
    <glyph glyph-name="Cacute" unicode="&#x106;" horiz-adv-x="720" 
d="M425 712q143 0 245 -94l-14 -13q-97 89 -231 89q-142 0 -242.5 -99.5t-100.5 -244.5t100.5 -244.5t242.5 -99.5q134 0 231 89l14 -13q-102 -94 -245 -94q-151 0 -257 104.5t-106 257.5t106 257.5t257 104.5zM457 931l14 -14l-142 -139l-14 14z" />
    <glyph glyph-name="cacute" unicode="&#x107;" horiz-adv-x="484" 
d="M304 480q85 0 149 -49l-11 -14q-61 45 -138 45q-94 0 -161 -66t-67 -162t67 -162t161 -66q77 0 138 45l11 -14q-64 -49 -149 -49q-101 0 -174.5 71t-73.5 175t73.5 175t174.5 71zM348 708l14 -14l-142 -139l-14 14z" />
    <glyph glyph-name="Ccircumflex" unicode="&#x108;" horiz-adv-x="720" 
d="M425 712q143 0 245 -94l-14 -13q-97 89 -231 89q-142 0 -242.5 -99.5t-100.5 -244.5t100.5 -244.5t242.5 -99.5q134 0 231 89l14 -13q-102 -94 -245 -94q-151 0 -257 104.5t-106 257.5t106 257.5t257 104.5zM412 924h10l122 -128l-13 -14l-114 120l-114 -120l-13 14z" />
    <glyph glyph-name="ccircumflex" unicode="&#x109;" horiz-adv-x="484" 
d="M304 480q85 0 149 -49l-11 -14q-61 45 -138 45q-94 0 -161 -66t-67 -162t67 -162t161 -66q77 0 138 45l11 -14q-64 -49 -149 -49q-101 0 -174.5 71t-73.5 175t73.5 175t174.5 71zM279 701h10l122 -128l-13 -14l-114 120l-114 -120l-13 14z" />
    <glyph glyph-name="Cdotaccent" unicode="&#x10a;" horiz-adv-x="720" 
d="M425 712q143 0 245 -94l-14 -13q-97 89 -231 89q-142 0 -242.5 -99.5t-100.5 -244.5t100.5 -244.5t242.5 -99.5q134 0 231 89l14 -13q-102 -94 -245 -94q-151 0 -257 104.5t-106 257.5t106 257.5t257 104.5zM401 837q-6 7 -6 16t6.5 15.5t15.5 6.5t15.5 -6.5t6.5 -15.5
t-6.5 -15.5t-15.5 -6.5t-16 6z" />
    <glyph glyph-name="cdotaccent" unicode="&#x10b;" horiz-adv-x="484" 
d="M304 480q85 0 149 -49l-11 -14q-61 45 -138 45q-94 0 -161 -66t-67 -162t67 -162t161 -66q77 0 138 45l11 -14q-64 -49 -149 -49q-101 0 -174.5 71t-73.5 175t73.5 175t174.5 71zM268 614q-6 7 -6 16t6.5 15.5t15.5 6.5t15.5 -6.5t6.5 -15.5t-6.5 -15.5t-15.5 -6.5t-16 6
z" />
    <glyph glyph-name="Ccaron" unicode="&#x10c;" horiz-adv-x="720" 
d="M425 712q143 0 245 -94l-14 -13q-97 89 -231 89q-142 0 -242.5 -99.5t-100.5 -244.5t100.5 -244.5t242.5 -99.5q134 0 231 89l14 -13q-102 -94 -245 -94q-151 0 -257 104.5t-106 257.5t106 257.5t257 104.5zM422 782h-10l-122 128l13 14l114 -120l114 120l13 -14z" />
    <glyph glyph-name="ccaron" unicode="&#x10d;" horiz-adv-x="484" 
d="M304 480q85 0 149 -49l-11 -14q-61 45 -138 45q-94 0 -161 -66t-67 -162t67 -162t161 -66q77 0 138 45l11 -14q-64 -49 -149 -49q-101 0 -174.5 71t-73.5 175t73.5 175t174.5 71zM289 559h-10l-122 128l13 14l114 -120l114 120l13 -14z" />
    <glyph glyph-name="Dcaron" unicode="&#x10e;" horiz-adv-x="687" 
d="M99 700h167q153 0 256 -97t103 -253q0 -155 -103 -252.5t-256 -97.5h-167v700zM119 18h147q146 0 242.5 92t96.5 240t-96.5 240t-242.5 92h-147v-664zM280 782h-10l-122 128l13 14l114 -120l114 120l13 -14z" />
    <glyph glyph-name="dcaron" unicode="&#x10f;" horiz-adv-x="763" 
d="M304 480q75 0 137.5 -41.5t90.5 -110.5v422h20v-750h-20v140q-28 -70 -90.5 -111t-137.5 -41q-101 0 -174.5 71t-73.5 175t73.5 175t174.5 71zM465 72q67 66 67 162t-67 162t-161 66t-161 -66t-67 -162t67 -162t161 -66t161 66zM733 732l19 -6l-75 -228l-19 6z" />
    <glyph glyph-name="Dcroat" unicode="&#x110;" horiz-adv-x="677" 
d="M12 341v18h77v341h167q153 0 256 -97t103 -253q0 -155 -103 -252.5t-256 -97.5h-167v341h-77zM109 18h147q146 0 242.5 92t96.5 240t-96.5 240t-242.5 92h-147v-323h213v-18h-213v-323z" />
    <glyph glyph-name="dcroat" unicode="&#x111;" horiz-adv-x="644" 
d="M304 480q75 0 137.5 -41.5t90.5 -110.5v292h-294v18h294v112h20v-112h63v-18h-63v-620h-20v140q-28 -70 -90.5 -111t-137.5 -41q-101 0 -174.5 71t-73.5 175t73.5 175t174.5 71zM465 72q67 66 67 162t-67 162t-161 66t-161 -66t-67 -162t67 -162t161 -66t161 66z" />
    <glyph glyph-name="Emacron" unicode="&#x112;" horiz-adv-x="465" 
d="M403 18v-18h-304v700h293v-18h-273v-277h246v-18h-246v-369h284zM108 843v18h272v-18h-272z" />
    <glyph glyph-name="emacron" unicode="&#x113;" horiz-adv-x="586" 
d="M304 6q116 0 184 98l14 -12q-74 -104 -198 -104q-101 0 -174.5 71.5t-73.5 174.5q0 104 69 175t169 71q98 0 167 -69t71 -172h-456v-5q0 -95 67 -161.5t161 -66.5zM77 257h434q-10 88 -70 146.5t-147 58.5q-88 0 -148.5 -58.5t-68.5 -146.5zM159 620v18h272v-18h-272z
" />
    <glyph glyph-name="Ebreve" unicode="&#x114;" horiz-adv-x="465" 
d="M403 18v-18h-304v700h293v-18h-273v-277h246v-18h-246v-369h284zM118 914h20q4 -42 31 -71.5t72 -29.5t72 29.5t31 71.5h20q-4 -52 -40 -85.5t-83 -33.5t-83 33.5t-40 85.5z" />
    <glyph glyph-name="ebreve" unicode="&#x115;" horiz-adv-x="586" 
d="M304 6q116 0 184 98l14 -12q-74 -104 -198 -104q-101 0 -174.5 71.5t-73.5 174.5q0 104 69 175t169 71q98 0 167 -69t71 -172h-456v-5q0 -95 67 -161.5t161 -66.5zM77 257h434q-10 88 -70 146.5t-147 58.5q-88 0 -148.5 -58.5t-68.5 -146.5zM172 691h20q4 -42 31 -71.5
t72 -29.5t72 29.5t31 71.5h20q-4 -52 -40 -85.5t-83 -33.5t-83 33.5t-40 85.5z" />
    <glyph glyph-name="Edotaccent" unicode="&#x116;" horiz-adv-x="465" 
d="M403 18v-18h-304v700h293v-18h-273v-277h246v-18h-246v-369h284zM226 837q-6 7 -6 16t6.5 15.5t15.5 6.5t15.5 -6.5t6.5 -15.5t-6.5 -15.5t-15.5 -6.5t-16 6z" />
    <glyph glyph-name="edotaccent" unicode="&#x117;" horiz-adv-x="586" 
d="M304 6q116 0 184 98l14 -12q-74 -104 -198 -104q-101 0 -174.5 71.5t-73.5 174.5q0 104 69 175t169 71q98 0 167 -69t71 -172h-456v-5q0 -95 67 -161.5t161 -66.5zM77 257h434q-10 88 -70 146.5t-147 58.5q-88 0 -148.5 -58.5t-68.5 -146.5zM279 614q-6 7 -6 16t6.5 15.5
t15.5 6.5t15.5 -6.5t6.5 -15.5t-6.5 -15.5t-15.5 -6.5t-16 6z" />
    <glyph glyph-name="Eogonek" unicode="&#x118;" horiz-adv-x="465" 
d="M403 18v-18h-60q-85 -61 -85 -127q0 -33 20 -53.5t53 -20.5q21 0 41 17l7 -16q-19 -19 -50 -19q-41 0 -66 26t-25 65q0 70 84 128h-223v700h293v-18h-273v-277h246v-18h-246v-369h284z" />
    <glyph glyph-name="eogonek" unicode="&#x119;" horiz-adv-x="586" 
d="M304 6q116 0 184 98l14 -12q-70 -99 -187 -104q-69 -54 -69 -115q0 -33 20 -53.5t53 -20.5q21 0 41 17l7 -16q-19 -19 -50 -19q-41 0 -66 26t-25 65q0 61 68 116q-98 4 -168 74.5t-70 171.5q0 104 69 175t169 71q98 0 167 -69t71 -172h-456v-5q0 -95 67 -161.5t161 -66.5
zM77 257h434q-10 88 -70 146.5t-147 58.5q-88 0 -148.5 -58.5t-68.5 -146.5z" />
    <glyph glyph-name="Ecaron" unicode="&#x11a;" horiz-adv-x="465" 
d="M403 18v-18h-304v700h293v-18h-273v-277h246v-18h-246v-369h284zM246 782h-10l-122 128l13 14l114 -120l114 120l13 -14z" />
    <glyph glyph-name="ecaron" unicode="&#x11b;" horiz-adv-x="586" 
d="M304 6q116 0 184 98l14 -12q-74 -104 -198 -104q-101 0 -174.5 71.5t-73.5 174.5q0 104 69 175t169 71q98 0 167 -69t71 -172h-456v-5q0 -95 67 -161.5t161 -66.5zM77 257h434q-10 88 -70 146.5t-147 58.5q-88 0 -148.5 -58.5t-68.5 -146.5zM295 559h-10l-122 128l13 14
l114 -120l114 120l13 -14z" />
    <glyph glyph-name="Gcircumflex" unicode="&#x11c;" horiz-adv-x="801" 
d="M508 331h237q-6 -149 -91.5 -246t-228.5 -97q-151 0 -257 104.5t-106 257.5t106 257.5t257 104.5q85 0 158 -37t122 -96l-15 -12q-49 59 -117.5 93t-147.5 34q-142 0 -242.5 -99.5t-100.5 -244.5t100.5 -244.5t242.5 -99.5q133 0 212.5 89.5t85.5 217.5h-215v18zM398 924
h10l122 -128l-13 -14l-114 120l-114 -120l-13 14z" />
    <glyph glyph-name="gcircumflex" unicode="&#x11d;" horiz-adv-x="645" 
d="M304 480q75 0 137.5 -41.5t90.5 -110.5v140h20v-458q0 -160 -68 -226t-189 -66q-53 0 -105.5 25.5t-87.5 80.5l15 12q29 -48 77.5 -74t101.5 -26q236 0 236 268v136q-28 -70 -90.5 -111t-137.5 -41q-101 0 -174.5 71t-73.5 175t73.5 175t174.5 71zM465 72q67 66 67 162
t-67 162t-161 66t-161 -66t-67 -162t67 -162t161 -66t161 66zM297 701h10l122 -128l-13 -14l-114 120l-114 -120l-13 14z" />
    <glyph glyph-name="Gbreve" unicode="&#x11e;" horiz-adv-x="801" 
d="M508 331h237q-6 -149 -91.5 -246t-228.5 -97q-151 0 -257 104.5t-106 257.5t106 257.5t257 104.5q85 0 158 -37t122 -96l-15 -12q-49 59 -117.5 93t-147.5 34q-142 0 -242.5 -99.5t-100.5 -244.5t100.5 -244.5t242.5 -99.5q133 0 212.5 89.5t85.5 217.5h-215v18zM280 914
h20q4 -42 31 -71.5t72 -29.5t72 29.5t31 71.5h20q-4 -52 -40 -85.5t-83 -33.5t-83 33.5t-40 85.5z" />
    <glyph glyph-name="gbreve" unicode="&#x11f;" horiz-adv-x="645" 
d="M304 480q75 0 137.5 -41.5t90.5 -110.5v140h20v-458q0 -160 -68 -226t-189 -66q-53 0 -105.5 25.5t-87.5 80.5l15 12q29 -48 77.5 -74t101.5 -26q236 0 236 268v136q-28 -70 -90.5 -111t-137.5 -41q-101 0 -174.5 71t-73.5 175t73.5 175t174.5 71zM465 72q67 66 67 162
t-67 162t-161 66t-161 -66t-67 -162t67 -162t161 -66t161 66zM175 691h20q4 -42 31 -71.5t72 -29.5t72 29.5t31 71.5h20q-4 -52 -40 -85.5t-83 -33.5t-83 33.5t-40 85.5z" />
    <glyph glyph-name="Gdotaccent" unicode="&#x120;" horiz-adv-x="801" 
d="M508 331h237q-6 -149 -91.5 -246t-228.5 -97q-151 0 -257 104.5t-106 257.5t106 257.5t257 104.5q85 0 158 -37t122 -96l-15 -12q-49 59 -117.5 93t-147.5 34q-142 0 -242.5 -99.5t-100.5 -244.5t100.5 -244.5t242.5 -99.5q133 0 212.5 89.5t85.5 217.5h-215v18zM387 837
q-6 7 -6 16t6.5 15.5t15.5 6.5t15.5 -6.5t6.5 -15.5t-6.5 -15.5t-15.5 -6.5t-16 6z" />
    <glyph glyph-name="gdotaccent" unicode="&#x121;" horiz-adv-x="645" 
d="M304 480q75 0 137.5 -41.5t90.5 -110.5v140h20v-458q0 -160 -68 -226t-189 -66q-53 0 -105.5 25.5t-87.5 80.5l15 12q29 -48 77.5 -74t101.5 -26q236 0 236 268v136q-28 -70 -90.5 -111t-137.5 -41q-101 0 -174.5 71t-73.5 175t73.5 175t174.5 71zM465 72q67 66 67 162
t-67 162t-161 66t-161 -66t-67 -162t67 -162t161 -66t161 66zM285 614q-6 7 -6 16t6.5 15.5t15.5 6.5t15.5 -6.5t6.5 -15.5t-6.5 -15.5t-15.5 -6.5t-16 6z" />
    <glyph glyph-name="Gcommaaccent" unicode="&#x122;" horiz-adv-x="801" 
d="M508 331h237q-6 -149 -91.5 -246t-228.5 -97q-151 0 -257 104.5t-106 257.5t106 257.5t257 104.5q85 0 158 -37t122 -96l-15 -12q-49 59 -117.5 93t-147.5 34q-142 0 -242.5 -99.5t-100.5 -244.5t100.5 -244.5t242.5 -99.5q133 0 212.5 89.5t85.5 217.5h-215v18zM425 -73
l19 -6l-64 -195l-19 6z" />
    <glyph glyph-name="gcommaaccent" unicode="&#x123;" horiz-adv-x="645" 
d="M304 480q75 0 137.5 -41.5t90.5 -110.5v140h20v-458q0 -160 -68 -226t-189 -66q-53 0 -105.5 25.5t-87.5 80.5l15 12q29 -48 77.5 -74t101.5 -26q236 0 236 268v136q-28 -70 -90.5 -111t-137.5 -41q-101 0 -174.5 71t-73.5 175t73.5 175t174.5 71zM465 72q67 66 67 162
t-67 162t-161 66t-161 -66t-67 -162t67 -162t161 -66t161 66zM289 528l-19 6l64 195l19 -6z" />
    <glyph glyph-name="Hcircumflex" unicode="&#x124;" horiz-adv-x="645" 
d="M526 700h20v-700h-20v377h-407v-377h-20v700h20v-305h407v305zM317 924h10l122 -128l-13 -14l-114 120l-114 -120l-13 14z" />
    <glyph glyph-name="hcircumflex" unicode="&#x125;" horiz-adv-x="520" 
d="M414 0v279q0 79 -42 131t-115 52t-115 -52t-42 -131v-279h-20v750h20v-381q47 111 163 111q69 0 120 -52.5t51 -141.5v-286h-20zM85 924h10l122 -128l-13 -14l-114 120l-114 -120l-13 14z" />
    <glyph glyph-name="Hbar" unicode="&#x126;" horiz-adv-x="629" 
d="M91 562h-59v18h59v120h20v-120h407v120h20v-120h59v-18h-59v-562h-20v377h-407v-377h-20v562zM111 395h407v167h-407v-167z" />
    <glyph glyph-name="hbar" unicode="&#x127;" horiz-adv-x="526" 
d="M419 0v279q0 79 -42 131t-115 52t-115 -52t-42 -131v-279h-20v620h-63v18h63v112h20v-112h184v-18h-184v-251q47 111 163 111q69 0 120 -52.5t51 -141.5v-286h-20z" />
    <glyph glyph-name="Itilde" unicode="&#x128;" horiz-adv-x="242" 
d="M117 844q-36 34 -66 34q-45 0 -58 -58l-19 7q18 69 76 69q36 0 75 -36q36 -34 66 -34q45 0 58 58l19 -7q-18 -69 -76 -69q-36 0 -75 36zM111 700h20v-700h-20v700z" />
    <glyph glyph-name="itilde" unicode="&#x129;" horiz-adv-x="228" 
d="M110 621q-36 34 -66 34q-45 0 -58 -58l-19 7q18 69 76 69q36 0 75 -36q36 -34 66 -34q45 0 58 58l19 -7q-18 -69 -76 -69q-36 0 -75 36zM124 468v-468h-20v468h20z" />
    <glyph glyph-name="Imacron" unicode="&#x12a;" horiz-adv-x="242" 
d="M111 700h20v-700h-20v700zM-15 843v18h272v-18h-272z" />
    <glyph glyph-name="imacron" unicode="&#x12b;" horiz-adv-x="228" 
d="M-22 620v18h272v-18h-272zM124 468v-468h-20v468h20z" />
    <glyph glyph-name="Ibreve" unicode="&#x12c;" horiz-adv-x="242" 
d="M-2 914h20q4 -42 31 -71.5t72 -29.5t72 29.5t31 71.5h20q-4 -52 -40 -85.5t-83 -33.5t-83 33.5t-40 85.5zM111 700h20v-700h-20v700z" />
    <glyph glyph-name="ibreve" unicode="&#x12d;" horiz-adv-x="228" 
d="M-9 691h20q4 -42 31 -71.5t72 -29.5t72 29.5t31 71.5h20q-4 -52 -40 -85.5t-83 -33.5t-83 33.5t-40 85.5zM124 468v-468h-20v468h20z" />
    <glyph glyph-name="Iogonek" unicode="&#x12e;" horiz-adv-x="242" 
d="M111 700h20v-700q-85 -61 -85 -127q0 -33 20 -53.5t53 -20.5q21 0 41 17l7 -16q-19 -19 -50 -19q-41 0 -66 26t-25 65q0 70 85 128v700z" />
    <glyph glyph-name="iogonek" unicode="&#x12f;" horiz-adv-x="228" 
d="M124 468v-468q-85 -61 -85 -127q0 -33 20.5 -53.5t52.5 -20.5q21 0 41 17l7 -16q-19 -19 -50 -19q-41 0 -66 26t-25 65q0 70 85 128v468h20zM114 659q-25 0 -25 25t25 25t25 -25t-25 -25z" />
    <glyph glyph-name="Idotaccent" unicode="&#x130;" horiz-adv-x="242" 
d="M105 837q-6 7 -6 16t6.5 15.5t15.5 6.5t15.5 -6.5t6.5 -15.5t-6.5 -15.5t-15.5 -6.5t-16 6zM111 700h20v-700h-20v700z" />
    <glyph glyph-name="dotlessi" unicode="&#x131;" horiz-adv-x="228" 
d="M124 468v-468h-20v468h20z" />
    <glyph glyph-name="IJ" unicode="&#x132;" horiz-adv-x="616" 
d="M234 51l15 13q40 -58 107 -58q68 0 104.5 48.5t36.5 138.5v507h20v-504q0 -105 -43 -156.5t-118 -51.5q-35 0 -68 17t-54 46zM111 700h20v-700h-20v700z" />
    <glyph glyph-name="ij" unicode="&#x133;" horiz-adv-x="493" 
d="M394 468v-566q0 -93 -34.5 -138.5t-106.5 -45.5q-73 0 -114 50l13 11q38 -43 101 -43q66 0 93.5 42t27.5 125v565h20zM384 659q-25 0 -25 25t25 25t25 -25t-25 -25zM124 468v-468h-20v468h20zM114 659q-25 0 -25 25t25 25t25 -25t-25 -25z" />
    <glyph glyph-name="Jcircumflex" unicode="&#x134;" horiz-adv-x="372" 
d="M4 51l15 13q40 -58 107 -58q68 0 104.5 48.5t36.5 138.5v507h20v-504q0 -105 -43 -156.5t-118 -51.5q-35 0 -68 17t-54 46zM272 924h10l122 -128l-13 -14l-114 120l-114 -120l-13 14z" />
    <glyph glyph-name="jcircumflex" unicode="&#x135;" horiz-adv-x="225" 
d="M138 468v-566q0 -93 -34.5 -138.5t-106.5 -45.5q-73 0 -114 50l13 11q38 -43 101 -43q66 0 93.5 42t27.5 125v565h20zM124 701h10l122 -128l-13 -14l-114 120l-114 -120l-13 14z" />
    <glyph glyph-name="Kcommaaccent" unicode="&#x136;" horiz-adv-x="536" 
d="M119 700v-339l349 351l16 -13l-340 -338l374 -361l-16 -12l-383 373v-361h-20v700h20zM317 -73l19 -6l-64 -195l-19 6z" />
    <glyph glyph-name="kcommaaccent" unicode="&#x137;" horiz-adv-x="470" 
d="M113 750v-750h-20v750h20zM113 256l289 224l14 -13l-276 -211l312 -254l-13 -14zM277 -73l19 -6l-64 -195l-19 6z" />
    <glyph glyph-name="kgreenlandic" unicode="&#x138;" horiz-adv-x="470" 
d="M113 256l289 224l14 -13l-276 -211l312 -254l-13 -14zM113 468v-468h-20v468h20z" />
    <glyph glyph-name="Lacute" unicode="&#x139;" horiz-adv-x="437" 
d="M99 700h20v-682h295v-18h-315v700zM237 931l14 -14l-142 -139l-14 14z" />
    <glyph glyph-name="lacute" unicode="&#x13a;" horiz-adv-x="201" 
d="M119 721v-721h-20v721h20zM222 931l14 -14l-142 -139l-14 14z" />
    <glyph glyph-name="Lcommaaccent" unicode="&#x13b;" horiz-adv-x="438" 
d="M99 700h20v-682h295v-18h-315v700zM251 -73l19 -6l-64 -195l-19 6z" />
    <glyph glyph-name="lcommaaccent" unicode="&#x13c;" horiz-adv-x="218" 
d="M119 750v-750h-20v750h20zM98 -73l19 -6l-64 -195l-19 6z" />
    <glyph glyph-name="Lcaron" unicode="&#x13d;" horiz-adv-x="438" 
d="M99 700h20v-682h295v-18h-315v700zM347 732l19 -6l-75 -228l-19 6z" />
    <glyph glyph-name="lcaron" unicode="&#x13e;" horiz-adv-x="286" 
d="M119 750v-750h-20v750h20zM256 742l19 -6l-75 -228l-19 6z" />
    <glyph glyph-name="Ldot" unicode="&#x13f;" horiz-adv-x="438" 
d="M297 364q-6 7 -6 16t6.5 15.5t15.5 6.5t15.5 -6.5t6.5 -15.5t-6.5 -15.5t-15.5 -6.5t-16 6zM99 700h20v-682h295v-18h-315v700z" />
    <glyph glyph-name="ldot" unicode="&#x140;" horiz-adv-x="325" 
d="M263 364q-6 7 -6 16t6.5 15.5t15.5 6.5t15.5 -6.5t6.5 -15.5t-6.5 -15.5t-15.5 -6.5t-16 6zM119 750v-750h-20v750h20z" />
    <glyph glyph-name="Lslash" unicode="&#x141;" horiz-adv-x="427" 
d="M13 236l-10 15l85 57v392h20v-378l246 166l10 -15l-256 -173v-282h295v-18h-315v286z" />
    <glyph glyph-name="lslash" unicode="&#x142;" horiz-adv-x="378" 
d="M199 389v-389h-20v376l-164 -111l-10 15l174 117v353h20v-339l164 111l10 -15z" />
    <glyph glyph-name="Nacute" unicode="&#x143;" horiz-adv-x="720" 
d="M610 -12l-491 677v-665h-20v707l11 5l491 -677v665h20v-707zM421 931l14 -14l-142 -139l-14 14z" />
    <glyph glyph-name="nacute" unicode="&#x144;" horiz-adv-x="534" 
d="M427 0v277q0 79 -42 132t-115 53t-115 -53t-42 -132v-277h-20v468h20v-96q47 108 163 108q69 0 120 -52.5t51 -141.5v-286h-20zM355 708l14 -14l-142 -139l-14 14z" />
    <glyph glyph-name="Ncommaaccent" unicode="&#x145;" horiz-adv-x="720" 
d="M610 -12l-491 677v-665h-20v707l11 5l491 -677v665h20v-707zM383 -73l19 -6l-64 -195l-19 6z" />
    <glyph glyph-name="ncommaaccent" unicode="&#x146;" horiz-adv-x="534" 
d="M427 0v277q0 79 -42 132t-115 53t-115 -53t-42 -132v-277h-20v468h20v-96q47 108 163 108q69 0 120 -52.5t51 -141.5v-286h-20zM286 -73l19 -6l-64 -195l-19 6z" />
    <glyph glyph-name="Ncaron" unicode="&#x147;" horiz-adv-x="720" 
d="M610 -12l-491 677v-665h-20v707l11 5l491 -677v665h20v-707zM365 782h-10l-122 128l13 14l114 -120l114 120l13 -14z" />
    <glyph glyph-name="ncaron" unicode="&#x148;" horiz-adv-x="534" 
d="M427 0v277q0 79 -42 132t-115 53t-115 -53t-42 -132v-277h-20v468h20v-96q47 108 163 108q69 0 120 -52.5t51 -141.5v-286h-20zM273 559h-10l-122 128l13 14l114 -120l114 120l13 -14z" />
    <glyph glyph-name="napostrophe" unicode="&#x149;" horiz-adv-x="565" 
d="M98 732l19 -6l-75 -228l-19 6zM458 0v277q0 79 -42 132t-115 53t-115 -53t-42 -132v-277h-20v468h20v-96q23 53 65.5 80.5t97.5 27.5q69 0 120 -52.5t51 -141.5v-286h-20z" />
    <glyph glyph-name="Eng" unicode="&#x14a;" horiz-adv-x="720" 
d="M601 0l-482 665v-665h-20v707l11 5l491 -677v665h20v-798q0 -93 -34.5 -138.5t-106.5 -45.5q-73 0 -114 50l13 11q38 -43 101 -43q66 0 93.5 42t27.5 125v97z" />
    <glyph glyph-name="eng" unicode="&#x14b;" horiz-adv-x="534" 
d="M427 -97v374q0 79 -42 132t-115 53t-115 -53t-42 -132v-277h-20v468h20v-96q47 108 163 108q69 0 120 -52.5t51 -141.5v-384q0 -93 -34.5 -138.5t-106.5 -45.5q-73 0 -114 50l13 11q38 -43 101 -43q66 0 93.5 42t27.5 125z" />
    <glyph glyph-name="Omacron" unicode="&#x14c;" horiz-adv-x="850" 
d="M168 92q-106 105 -106 258t106 257.5t257 104.5t257 -104.5t106 -257.5t-106 -257.5t-257 -104.5t-257 104zM667 105q101 100 101 245t-100.5 244.5t-242.5 99.5t-242.5 -99.5t-100.5 -244.5t100.5 -244.5t242.5 -99.5t242 99zM289 843v18h272v-18h-272z" />
    <glyph glyph-name="omacron" unicode="&#x14d;" horiz-adv-x="608" 
d="M465 72q67 66 67 162t-67 162t-161 66t-161 -66t-67 -162t67 -162t161 -66t161 66zM129 59q-73 71 -73 175t73.5 175t174.5 71t174.5 -71t73.5 -175t-73.5 -175t-174.5 -71t-175 71zM168 620v18h272v-18h-272z" />
    <glyph glyph-name="Obreve" unicode="&#x14e;" horiz-adv-x="850" 
d="M168 92q-106 105 -106 258t106 257.5t257 104.5t257 -104.5t106 -257.5t-106 -257.5t-257 -104.5t-257 104zM667 105q101 100 101 245t-100.5 244.5t-242.5 99.5t-242.5 -99.5t-100.5 -244.5t100.5 -244.5t242.5 -99.5t242 99zM302 914h20q4 -42 31 -71.5t72 -29.5
t72 29.5t31 71.5h20q-4 -52 -40 -85.5t-83 -33.5t-83 33.5t-40 85.5z" />
    <glyph glyph-name="obreve" unicode="&#x14f;" horiz-adv-x="608" 
d="M465 72q67 66 67 162t-67 162t-161 66t-161 -66t-67 -162t67 -162t161 -66t161 66zM129 59q-73 71 -73 175t73.5 175t174.5 71t174.5 -71t73.5 -175t-73.5 -175t-174.5 -71t-175 71zM181 691h20q4 -42 31 -71.5t72 -29.5t72 29.5t31 71.5h20q-4 -52 -40 -85.5t-83 -33.5
t-83 33.5t-40 85.5z" />
    <glyph glyph-name="Ohungarumlaut" unicode="&#x150;" horiz-adv-x="850" 
d="M168 92q-106 105 -106 258t106 257.5t257 104.5t257 -104.5t106 -257.5t-106 -257.5t-257 -104.5t-257 104zM667 105q101 100 101 245t-100.5 244.5t-242.5 99.5t-242.5 -99.5t-100.5 -244.5t100.5 -244.5t242.5 -99.5t242 99zM417 931l14 -14l-142 -139l-14 14zM593 931
l14 -14l-142 -139l-14 14z" />
    <glyph glyph-name="ohungarumlaut" unicode="&#x151;" horiz-adv-x="608" 
d="M465 72q67 66 67 162t-67 162t-161 66t-161 -66t-67 -162t67 -162t161 -66t161 66zM129 59q-73 71 -73 175t73.5 175t174.5 71t174.5 -71t73.5 -175t-73.5 -175t-174.5 -71t-175 71zM310 708l14 -14l-142 -139l-14 14zM486 708l14 -14l-142 -139l-14 14z" />
    <glyph glyph-name="OE" unicode="&#x152;" horiz-adv-x="818" 
d="M425 700h333v-18h-273v-277h246v-18h-246v-369h284v-18h-344q-152 0 -257.5 99.5t-105.5 250.5t105.5 250.5t257.5 99.5zM425 18h40v664h-40q-143 0 -243 -94t-100 -238t100 -238t243 -94z" />
    <glyph glyph-name="oe" unicode="&#x153;" horiz-adv-x="1064" 
d="M304 480q81 0 147 -50t90 -129q22 81 84.5 130t144.5 49q98 0 167 -69t71 -172h-456q4 -107 70 -170t158 -63q116 0 184 98l14 -12q-74 -104 -198 -104q-83 0 -148.5 50.5t-89.5 129.5q-24 -79 -90 -129.5t-148 -50.5q-101 0 -174.5 71t-73.5 175t73.5 175t174.5 71z
M553 257h434q-10 88 -70 146.5t-147 58.5q-88 0 -148.5 -58.5t-68.5 -146.5zM465 72q67 67 67 162t-67 161.5t-161 66.5t-161 -66t-67 -162t67 -162t161 -66t161 66z" />
    <glyph glyph-name="Racute" unicode="&#x154;" horiz-adv-x="518" 
d="M159 351l4 10q69 3 118 18.5t73.5 40t35 50t10.5 54.5q0 69 -52.5 113.5t-147.5 44.5h-81v-682h-20v700h107q98 0 156 -48.5t58 -128.5q0 -27 -8.5 -52t-31 -53t-71.5 -47.5t-120 -25.5l305 -346l-17 -11zM310 931l14 -14l-142 -139l-14 14z" />
    <glyph glyph-name="racute" unicode="&#x155;" horiz-adv-x="350" 
d="M332 465l-6 -20q-36 17 -72 17q-60 0 -100.5 -56t-40.5 -129v-277h-20v468h20v-97q49 109 147 109q34 0 72 -15zM257 708l14 -14l-142 -139l-14 14z" />
    <glyph glyph-name="Rcommaaccent" unicode="&#x156;" horiz-adv-x="518" 
d="M159 351l4 10q69 3 118 18.5t73.5 40t35 50t10.5 54.5q0 69 -52.5 113.5t-147.5 44.5h-81v-682h-20v700h107q98 0 156 -48.5t58 -128.5q0 -27 -8.5 -52t-31 -53t-71.5 -47.5t-120 -25.5l305 -346l-17 -11zM280 -73l19 -6l-64 -195l-19 6z" />
    <glyph glyph-name="rcommaaccent" unicode="&#x157;" horiz-adv-x="350" 
d="M332 465l-6 -20q-36 17 -72 17q-60 0 -100.5 -56t-40.5 -129v-277h-20v468h20v-97q49 109 147 109q34 0 72 -15zM102 -73l19 -6l-64 -195l-19 6z" />
    <glyph glyph-name="Rcaron" unicode="&#x158;" horiz-adv-x="522" 
d="M163 351l4 10q69 3 118 18.5t73.5 40t35 50t10.5 54.5q0 69 -52.5 113.5t-147.5 44.5h-81v-682h-20v700h107q98 0 156 -48.5t58 -128.5q0 -27 -8.5 -52t-31 -53t-71.5 -47.5t-120 -25.5l305 -346l-17 -11zM231 782h-10l-122 128l13 14l114 -120l114 120l13 -14z" />
    <glyph glyph-name="rcaron" unicode="&#x159;" horiz-adv-x="350" 
d="M332 465l-6 -20q-36 17 -72 17q-60 0 -100.5 -56t-40.5 -129v-277h-20v468h20v-97q49 109 147 109q34 0 72 -15zM199 559h-10l-122 128l13 14l114 -120l114 120l13 -14z" />
    <glyph glyph-name="Sacute" unicode="&#x15a;" horiz-adv-x="506" 
d="M49 98l17 11q63 -103 178 -103q78 0 129 48.5t51 120.5q0 70 -38.5 121t-135.5 89q-78 31 -116.5 74.5t-38.5 110.5q0 60 43.5 101t109.5 41q79 0 123 -56l-15 -12q-41 50 -108 50q-58 0 -95.5 -34.5t-37.5 -88.5q0 -59 34.5 -99t117.5 -73q92 -38 134.5 -91t42.5 -131
q0 -79 -54 -134t-146 -55q-60 0 -112.5 29.5t-82.5 80.5zM302 931l14 -14l-142 -139l-14 14z" />
    <glyph glyph-name="sacute" unicode="&#x15b;" horiz-adv-x="375" 
d="M182 6q56 0 89.5 33t33.5 80t-29 77.5t-98 58.5q-111 47 -111 121q0 47 31.5 75.5t78.5 28.5q68 0 101 -49l-14 -11q-33 42 -87 42q-37 0 -63.5 -22.5t-26.5 -60.5t27 -63.5t90 -51.5q121 -50 121 -143q0 -57 -38 -95t-105 -38q-91 0 -139 86l14 11q48 -79 125 -79z
M243 708l14 -14l-142 -139l-14 14z" />
    <glyph glyph-name="Scircumflex" unicode="&#x15c;" horiz-adv-x="506" 
d="M49 98l17 11q63 -103 178 -103q78 0 129 48.5t51 120.5q0 70 -38.5 121t-135.5 89q-78 31 -116.5 74.5t-38.5 110.5q0 60 43.5 101t109.5 41q79 0 123 -56l-15 -12q-41 50 -108 50q-58 0 -95.5 -34.5t-37.5 -88.5q0 -59 34.5 -99t117.5 -73q92 -38 134.5 -91t42.5 -131
q0 -79 -54 -134t-146 -55q-60 0 -112.5 29.5t-82.5 80.5zM226 924h10l122 -128l-13 -14l-114 120l-114 -120l-13 14z" />
    <glyph glyph-name="scircumflex" unicode="&#x15d;" horiz-adv-x="375" 
d="M182 6q56 0 89.5 33t33.5 80t-29 77.5t-98 58.5q-111 47 -111 121q0 47 31.5 75.5t78.5 28.5q68 0 101 -49l-14 -11q-33 42 -87 42q-37 0 -63.5 -22.5t-26.5 -60.5t27 -63.5t90 -51.5q121 -50 121 -143q0 -57 -38 -95t-105 -38q-91 0 -139 86l14 11q48 -79 125 -79z
M161 701h10l122 -128l-13 -14l-114 120l-114 -120l-13 14z" />
    <glyph glyph-name="Scedilla" unicode="&#x15e;" horiz-adv-x="506" 
d="M211 -56l-5 10l19 35q-55 5 -101.5 33.5t-74.5 75.5l17 11q63 -103 178 -103q78 0 129 48.5t51 120.5q0 70 -38.5 121t-135.5 89q-78 31 -116.5 74.5t-38.5 110.5q0 60 43.5 101t109.5 41q79 0 123 -56l-15 -12q-41 50 -108 50q-58 0 -95.5 -34.5t-37.5 -88.5
q0 -59 34.5 -99t117.5 -73q92 -38 134.5 -91t42.5 -131t-54 -133t-145 -56l-16 -31q47 -13 70 -41t23 -58q0 -35 -23.5 -65.5t-77.5 -30.5q-41 0 -76 32l11 16q30 -30 66 -30q40 0 60 23.5t20 53.5q0 33 -26 57.5t-65 29.5z" />
    <glyph glyph-name="scedilla" unicode="&#x15f;" horiz-adv-x="375" 
d="M156 -56l-5 10l19 35q-82 5 -127 85l14 11q48 -79 125 -79q56 0 89.5 33t33.5 80t-29 77.5t-98 58.5q-111 47 -111 121q0 47 31.5 75.5t78.5 28.5q68 0 101 -49l-14 -11q-33 42 -87 42q-37 0 -63.5 -22.5t-26.5 -60.5t27 -63.5t90 -51.5q121 -50 121 -143
q0 -55 -36 -92.5t-99 -40.5l-16 -31q47 -13 70 -41t23 -58q0 -35 -23.5 -65.5t-77.5 -30.5q-41 0 -76 32l11 16q30 -30 66 -30q40 0 60 23.5t20 53.5q0 33 -26 57.5t-65 29.5z" />
    <glyph glyph-name="Scaron" unicode="&#x160;" horiz-adv-x="506" 
d="M49 98l17 11q63 -103 178 -103q78 0 129 48.5t51 120.5q0 70 -38.5 121t-135.5 89q-78 31 -116.5 74.5t-38.5 110.5q0 60 43.5 101t109.5 41q79 0 123 -56l-15 -12q-41 50 -108 50q-58 0 -95.5 -34.5t-37.5 -88.5q0 -59 34.5 -99t117.5 -73q92 -38 134.5 -91t42.5 -131
q0 -79 -54 -134t-146 -55q-60 0 -112.5 29.5t-82.5 80.5zM236 782h-10l-122 128l13 14l114 -120l114 120l13 -14z" />
    <glyph glyph-name="scaron" unicode="&#x161;" horiz-adv-x="375" 
d="M182 6q56 0 89.5 33t33.5 80t-29 77.5t-98 58.5q-111 47 -111 121q0 47 31.5 75.5t78.5 28.5q68 0 101 -49l-14 -11q-33 42 -87 42q-37 0 -63.5 -22.5t-26.5 -60.5t27 -63.5t90 -51.5q121 -50 121 -143q0 -57 -38 -95t-105 -38q-91 0 -139 86l14 11q48 -79 125 -79z
M171 559h-10l-122 128l13 14l114 -120l114 120l13 -14z" />
    <glyph glyph-name="Tcommaaccent" unicode="&#x162;" horiz-adv-x="442" 
d="M189 -56l-5 10l27 48v680h-187v18h394v-18h-187v-682h-1l-23 -43q47 -13 70 -41t23 -58q0 -35 -23.5 -65.5t-77.5 -30.5q-41 0 -76 32l11 16q30 -30 66 -30q40 0 60 23.5t20 53.5q0 33 -26 57.5t-65 29.5z" />
    <glyph glyph-name="tcommaaccent" unicode="&#x163;" horiz-adv-x="303" 
d="M31 450v18h90v132h20v-132h137v-18h-137v-448h1l-1 -2l-23 -43q47 -13 70 -41t23 -58q0 -35 -23.5 -65.5t-77.5 -30.5q-41 0 -76 32l11 16q30 -30 66 -30q40 0 60 23.5t20 53.5q0 33 -26 57.5t-65 29.5l-5 10l26 46v450h-90z" />
    <glyph glyph-name="Tcaron" unicode="&#x164;" horiz-adv-x="442" 
d="M226 782h-10l-122 128l13 14l114 -120l114 120l13 -14zM24 682v18h394v-18h-187v-682h-20v682h-187z" />
    <glyph glyph-name="tcaron" unicode="&#x165;" horiz-adv-x="432" 
d="M31 450v18h90v132h20v-132h137v-18h-137v-450h-20v450h-90zM403 742l19 -6l-75 -228l-19 6z" />
    <glyph glyph-name="Tbar" unicode="&#x166;" horiz-adv-x="442" 
d="M24 682v18h394v-18h-187v-322h134v-18h-134v-342h-20v342h-133v18h133v322h-187z" />
    <glyph glyph-name="tbar" unicode="&#x167;" horiz-adv-x="303" 
d="M121 252h-69v18h69v180h-90v18h90v132h20v-132h137v-18h-137v-180h118v-18h-118v-252h-20v252z" />
    <glyph glyph-name="Utilde" unicode="&#x168;" horiz-adv-x="626" 
d="M319 844q-36 34 -66 34q-45 0 -58 -58l-19 7q18 69 76 69q36 0 75 -36q36 -34 66 -34q45 0 58 58l19 -7q-18 -69 -76 -69q-36 0 -75 36zM508 234v466h19v-468q0 -113 -59.5 -178.5t-154.5 -65.5t-154.5 65.5t-59.5 178.5v468h19v-466q0 -104 53.5 -166t141.5 -62
t141.5 62t53.5 166z" />
    <glyph glyph-name="utilde" unicode="&#x169;" horiz-adv-x="540" 
d="M270 621q-36 34 -66 34q-45 0 -58 -58l-19 7q18 69 76 69q36 0 75 -36q36 -34 66 -34q45 0 58 58l19 -7q-18 -69 -76 -69q-36 0 -75 36zM113 468v-277q0 -79 42 -132t115 -53t115 53t42 132v277h20v-468h-20v96q-47 -108 -163 -108q-69 0 -120 52.5t-51 141.5v286h20z
" />
    <glyph glyph-name="Umacron" unicode="&#x16a;" horiz-adv-x="626" 
d="M508 234v466h19v-468q0 -113 -59.5 -178.5t-154.5 -65.5t-154.5 65.5t-59.5 178.5v468h19v-466q0 -104 53.5 -166t141.5 -62t141.5 62t53.5 166zM187 843v18h272v-18h-272z" />
    <glyph glyph-name="umacron" unicode="&#x16b;" horiz-adv-x="540" 
d="M113 468v-277q0 -79 42 -132t115 -53t115 53t42 132v277h20v-468h-20v96q-47 -108 -163 -108q-69 0 -120 52.5t-51 141.5v286h20zM138 620v18h272v-18h-272z" />
    <glyph glyph-name="Ubreve" unicode="&#x16c;" horiz-adv-x="626" 
d="M508 234v466h19v-468q0 -113 -59.5 -178.5t-154.5 -65.5t-154.5 65.5t-59.5 178.5v468h19v-466q0 -104 53.5 -166t141.5 -62t141.5 62t53.5 166zM200 915h20q4 -42 31 -71.5t72 -29.5t72 29.5t31 71.5h20q-4 -52 -40 -85.5t-83 -33.5t-83 33.5t-40 85.5z" />
    <glyph glyph-name="ubreve" unicode="&#x16d;" horiz-adv-x="540" 
d="M113 468v-277q0 -79 42 -132t115 -53t115 53t42 132v277h20v-468h-20v96q-47 -108 -163 -108q-69 0 -120 52.5t-51 141.5v286h20zM151 691h20q4 -42 31 -71.5t72 -29.5t72 29.5t31 71.5h20q-4 -52 -40 -85.5t-83 -33.5t-83 33.5t-40 85.5z" />
    <glyph glyph-name="Uring" unicode="&#x16e;" horiz-adv-x="626" 
d="M263 794q-25 24 -25 59t25 59t60 24t60 -24t25 -59t-25 -59t-60 -24t-60 24zM277 899q-19 -19 -19 -46t19 -46t46 -19t46 19t19 46t-19 46t-46 19t-46 -19zM508 234v466h19v-468q0 -113 -59.5 -178.5t-154.5 -65.5t-154.5 65.5t-59.5 178.5v468h19v-466q0 -104 53.5 -166
t141.5 -62t141.5 62t53.5 166z" />
    <glyph glyph-name="uring" unicode="&#x16f;" horiz-adv-x="540" 
d="M214 570q-25 24 -25 59t25 59t60 24t60 -24t25 -59t-25 -59t-60 -24t-60 24zM228 675q-19 -19 -19 -46t19 -46t46 -19t46 19t19 46t-19 46t-46 19t-46 -19zM113 468v-277q0 -79 42 -132t115 -53t115 53t42 132v277h20v-468h-20v96q-47 -108 -163 -108q-69 0 -120 52.5
t-51 141.5v286h20z" />
    <glyph glyph-name="Uhungarumlaut" unicode="&#x170;" horiz-adv-x="626" 
d="M508 234v466h19v-468q0 -113 -59.5 -178.5t-154.5 -65.5t-154.5 65.5t-59.5 178.5v468h19v-466q0 -104 53.5 -166t141.5 -62t141.5 62t53.5 166zM325 931l14 -14l-142 -139l-14 14zM501 931l14 -14l-142 -139l-14 14z" />
    <glyph glyph-name="uhungarumlaut" unicode="&#x171;" horiz-adv-x="538" 
d="M113 468v-277q0 -79 42 -132t115 -53t115 53t42 132v277h20v-468h-20v96q-47 -108 -163 -108q-69 0 -120 52.5t-51 141.5v286h20zM271 708l14 -14l-142 -139l-14 14zM447 708l14 -14l-142 -139l-14 14z" />
    <glyph glyph-name="Uogonek" unicode="&#x172;" horiz-adv-x="626" 
d="M508 234v466h19v-468q0 -99 -45.5 -161.5t-122.5 -77.5q-74 -58 -74 -120q0 -33 20.5 -53.5t52.5 -20.5q21 0 41 17l7 -16q-19 -19 -50 -19q-41 0 -66 26t-25 65q0 63 69 117q-4 0 -11 -0.5t-10 -0.5q-95 0 -154.5 65.5t-59.5 178.5v468h19v-466q0 -104 53.5 -166
t141.5 -62t141.5 62t53.5 166z" />
    <glyph glyph-name="uogonek" unicode="&#x173;" horiz-adv-x="537" 
d="M113 468v-277q0 -79 42 -132t115 -53t115 53t42 132v277h20v-468h-2q-85 -61 -85 -127q0 -33 20 -53.5t53 -20.5q21 0 41 17l7 -16q-19 -19 -50 -19q-41 0 -66 26t-25 65q0 71 87 129v95q-47 -108 -163 -108q-69 0 -120 52.5t-51 141.5v286h20z" />
    <glyph glyph-name="Wcircumflex" unicode="&#x174;" horiz-adv-x="960" 
d="M475 712h10l210 -675l226 675l20 -5l-242 -719h-10l-209 669l-209 -669h-10l-242 719l20 5l226 -675zM475 924h10l122 -128l-13 -14l-114 120l-114 -120l-13 14z" />
    <glyph glyph-name="wcircumflex" unicode="&#x175;" horiz-adv-x="756" 
d="M561 -12h-10l-173 454l-173 -454h-10l-183 485l18 7l170 -452l173 452h10l173 -452l170 452l18 -7zM373 701h10l122 -128l-13 -14l-114 120l-114 -120l-13 14z" />
    <glyph glyph-name="Ycircumflex" unicode="&#x176;" horiz-adv-x="570" 
d="M295 0h-20v288l-263 414l17 10l256 -402l256 402l17 -10l-263 -414v-288zM280 924h10l122 -128l-13 -14l-114 120l-114 -120l-13 14z" />
    <glyph glyph-name="ycircumflex" unicode="&#x177;" horiz-adv-x="465" 
d="M437 473l-312 -767l-18 8l109 269l-188 490l18 7l181 -470l192 470zM219 701h10l122 -128l-13 -14l-114 120l-114 -120l-13 14z" />
    <glyph glyph-name="Ydieresis" unicode="&#x178;" horiz-adv-x="570" 
d="M176 837q-6 7 -6 16t6.5 15.5t15.5 6.5t15.5 -6.5t6.5 -15.5t-6.5 -15.5t-15.5 -6.5t-16 6zM362 837q-6 7 -6 16t6.5 15.5t15.5 6.5t15.5 -6.5t6.5 -15.5t-6.5 -15.5t-15.5 -6.5t-16 6zM295 0h-20v288l-263 414l17 10l256 -402l256 402l17 -10l-263 -414v-288z" />
    <glyph glyph-name="Zacute" unicode="&#x179;" horiz-adv-x="462" 
d="M398 700l6 -10l-357 -672h391v-18h-413l-6 10l358 672h-329v18h350zM307 931l14 -14l-142 -139l-14 14z" />
    <glyph glyph-name="zacute" unicode="&#x17a;" horiz-adv-x="385" 
d="M36 0l-5 7l261 443h-236v18h261l5 -7l-262 -443h294v-18h-318zM246 708l14 -14l-142 -139l-14 14z" />
    <glyph glyph-name="Zdotaccent" unicode="&#x17b;" horiz-adv-x="462" 
d="M398 700l6 -10l-357 -672h391v-18h-413l-6 10l358 672h-329v18h350zM207 837q-6 7 -6 16t6.5 15.5t15.5 6.5t15.5 -6.5t6.5 -15.5t-6.5 -15.5t-15.5 -6.5t-16 6z" />
    <glyph glyph-name="zdotaccent" unicode="&#x17c;" horiz-adv-x="385" 
d="M36 0l-5 7l261 443h-236v18h261l5 -7l-262 -443h294v-18h-318zM160 614q-6 7 -6 16t6.5 15.5t15.5 6.5t15.5 -6.5t6.5 -15.5t-6.5 -15.5t-15.5 -6.5t-16 6z" />
    <glyph glyph-name="Zcaron" unicode="&#x17d;" horiz-adv-x="462" 
d="M398 700l6 -10l-357 -672h391v-18h-413l-6 10l358 672h-329v18h350zM229 782h-10l-122 128l13 14l114 -120l114 120l13 -14z" />
    <glyph glyph-name="zcaron" unicode="&#x17e;" horiz-adv-x="385" 
d="M36 0l-5 7l261 443h-236v18h261l5 -7l-262 -443h294v-18h-318zM185 559h-10l-122 128l13 14l114 -120l114 120l13 -14z" />
    <glyph glyph-name="longs" unicode="&#x17f;" horiz-adv-x="312" 
d="M31 450v18h90v108q0 91 38 138t106 47q57 0 97 -40l-13 -14q-36 36 -84 36q-124 0 -124 -168v-575h-20v450h-90z" />
    <glyph glyph-name="florin" unicode="&#x192;" horiz-adv-x="289" 
d="M118 450v-547q0 -91 -38 -138t-106 -47q-57 0 -97 40l13 14q36 -36 84 -36q124 0 124 168v546h-90v18h90v108q0 91 38 138t106 47q57 0 97 -40l-13 -14q-36 36 -84 36q-124 0 -124 -168v-107h160v-18h-160z" />
    <glyph glyph-name="Ohorn" unicode="&#x1a0;" horiz-adv-x="850" 
d="M425 712q148 0 251 -100q68 42 68 107q0 53 -30 92l17 10q32 -47 32 -102q0 -71 -74 -119q99 -104 99 -250q0 -153 -106 -257.5t-257 -104.5t-257 104.5t-106 257.5t106 257.5t257 104.5zM667 105q101 100 101 245t-100.5 244.5t-242.5 99.5t-242.5 -99.5t-100.5 -244.5
t100.5 -244.5t242.5 -99.5t242 99z" />
    <glyph glyph-name="ohorn" unicode="&#x1a1;" horiz-adv-x="613" 
d="M307 480q98 0 173 -69q68 42 68 107q0 53 -30 92l17 10q32 -47 32 -102q0 -70 -75 -119q66 -71 66 -165q0 -103 -75 -174.5t-176 -71.5t-176 71.5t-75 174.5t75 174.5t176 71.5zM469 72q69 67 69 162t-68.5 161.5t-162.5 66.5t-162.5 -66.5t-68.5 -161.5t68.5 -161.5
t162.5 -66.5t162 66z" />
    <glyph glyph-name="Uhorn" unicode="&#x1af;" horiz-adv-x="614" 
d="M528 234v466h19q27 11 42.5 33.5t15.5 48.5q0 53 -30 92l17 10q32 -47 32 -102q0 -70 -77 -102v-448q0 -112 -64 -178t-160 -66t-160 66t-64 178v468h19v-466q0 -103 58 -165.5t147 -62.5t147 62.5t58 165.5z" />
    <glyph glyph-name="uhorn" unicode="&#x1b0;" horiz-adv-x="530" 
d="M113 468v-277q0 -79 42 -132t115 -53t115 53t42 132v277h20q27 11 42.5 33.5t15.5 48.5q0 53 -30 92l17 10q32 -47 32 -102q0 -70 -77 -102v-448h-20v96q-47 -108 -163 -108q-69 0 -120 52.5t-51 141.5v286h20z" />
    <glyph glyph-name="Scommaaccent" unicode="&#x218;" horiz-adv-x="506" 
d="M49 98l17 11q63 -103 178 -103q78 0 129 48.5t51 120.5q0 70 -38.5 121t-135.5 89q-78 31 -116.5 74.5t-38.5 110.5q0 60 43.5 101t109.5 41q79 0 123 -56l-15 -12q-41 50 -108 50q-58 0 -95.5 -34.5t-37.5 -88.5q0 -59 34.5 -99t117.5 -73q92 -38 134.5 -91t42.5 -131
q0 -79 -54 -134t-146 -55q-60 0 -112.5 29.5t-82.5 80.5zM243 -73l19 -6l-64 -195l-19 6z" />
    <glyph glyph-name="scommaaccent" unicode="&#x219;" horiz-adv-x="375" 
d="M182 6q56 0 89.5 33t33.5 80t-29 77.5t-98 58.5q-111 47 -111 121q0 47 31.5 75.5t78.5 28.5q68 0 101 -49l-14 -11q-33 42 -87 42q-37 0 -63.5 -22.5t-26.5 -60.5t27 -63.5t90 -51.5q121 -50 121 -143q0 -57 -38 -95t-105 -38q-91 0 -139 86l14 11q48 -79 125 -79z
M191 -73l19 -6l-64 -195l-19 6z" />
    <glyph glyph-name="uni021A" unicode="&#x21a;" horiz-adv-x="442" 
d="M24 682v18h394v-18h-187v-682h-20v682h-187zM213 -73l19 -6l-64 -195l-19 6z" />
    <glyph glyph-name="uni021B" unicode="&#x21b;" horiz-adv-x="303" 
d="M31 450v18h90v132h20v-132h137v-18h-137v-450h-20v450h-90zM129 -73l19 -6l-64 -195l-19 6z" />
    <glyph glyph-name="uni0237" unicode="&#x237;" horiz-adv-x="239" 
d="M138 468v-566q0 -93 -34.5 -138.5t-106.5 -45.5q-73 0 -114 50l13 11q38 -43 101 -43q66 0 93.5 42t27.5 125v565h20z" />
    <glyph glyph-name="apostrophe" unicode="&#x2bc;" horiz-adv-x="400" 
d="M228 739l19 -6l-75 -228l-19 6z" />
    <glyph glyph-name="circumflex" unicode="&#x2c6;" horiz-adv-x="400" 
d="M195 720h10l122 -128l-13 -14l-114 120l-114 -120l-13 14z" />
    <glyph glyph-name="caron" unicode="&#x2c7;" horiz-adv-x="400" 
d="M205 578h-10l-122 128l13 14l114 -120l114 120l13 -14z" />
    <glyph glyph-name="uni02C9" unicode="&#x2c9;" horiz-adv-x="400" 
d="M64 639v18h272v-18h-272z" />
    <glyph glyph-name="breve" unicode="&#x2d8;" horiz-adv-x="400" 
d="M77 700h20q4 -42 31 -71.5t72 -29.5t72 29.5t31 71.5h20q-4 -52 -40 -85.5t-83 -33.5t-83 33.5t-40 85.5z" />
    <glyph glyph-name="dotaccent" unicode="&#x2d9;" horiz-adv-x="400" 
d="M184 633q-6 7 -6 16t6.5 15.5t15.5 6.5t15.5 -6.5t6.5 -15.5t-6.5 -15.5t-15.5 -6.5t-16 6z" />
    <glyph glyph-name="ring" unicode="&#x2da;" horiz-adv-x="400" 
d="M140 590q-25 24 -25 59t25 59t60 24t60 -24t25 -59t-25 -59t-60 -24t-60 24zM154 695q-19 -19 -19 -46t19 -46t46 -19t46 19t19 46t-19 46t-46 19t-46 -19z" />
    <glyph glyph-name="ogonek" unicode="&#x2db;" horiz-adv-x="400" 
d="M218 3l16 -3q-85 -61 -85 -127q0 -33 20.5 -53.5t52.5 -20.5q21 0 41 17l7 -16q-19 -19 -50 -19q-41 0 -66 26t-25 65q0 71 89 131z" />
    <glyph glyph-name="tilde" unicode="&#x2dc;" horiz-adv-x="400" 
d="M196 641q-36 34 -66 34q-45 0 -58 -58l-19 7q18 69 76 69q36 0 75 -36q36 -34 66 -34q45 0 58 58l19 -7q-18 -69 -76 -69q-36 0 -75 36z" />
    <glyph glyph-name="hungarumlaut" unicode="&#x2dd;" horiz-adv-x="400" 
d="M176 727l14 -14l-142 -139l-14 14zM352 727l14 -14l-142 -139l-14 14z" />
    <glyph glyph-name="gravecomb" unicode="&#x300;" horiz-adv-x="0" 
d="M-356 713l14 14l142 -139l-14 -14z" />
    <glyph glyph-name="acutecomb" unicode="&#x301;" horiz-adv-x="0" 
d="M-160 727l14 -14l-142 -139l-14 14z" />
    <glyph glyph-name="uni0302" unicode="&#x302;" horiz-adv-x="0" 
d="M-257 720h10l122 -128l-13 -14l-114 120l-114 -120l-13 14z" />
    <glyph glyph-name="tildecomb" unicode="&#x303;" horiz-adv-x="0" 
d="M-256 641q-36 34 -66 34q-45 0 -58 -58l-19 7q18 69 76 69q36 0 75 -36q36 -34 66 -34q45 0 58 58l19 -7q-18 -69 -76 -69q-36 0 -75 36z" />
    <glyph glyph-name="uni0304" unicode="&#x304;" horiz-adv-x="0" 
d="M-385 639v18h272v-18h-272z" />
    <glyph glyph-name="uni0306" unicode="&#x306;" horiz-adv-x="0" 
d="M-375 700h20q4 -42 31 -71.5t72 -29.5t72 29.5t31 71.5h20q-4 -52 -40 -85.5t-83 -33.5t-83 33.5t-40 85.5z" />
    <glyph glyph-name="uni0307" unicode="&#x307;" horiz-adv-x="0" 
d="M-268 633q-6 7 -6 16t6.5 15.5t15.5 6.5t15.5 -6.5t6.5 -15.5t-6.5 -15.5t-15.5 -6.5t-16 6z" />
    <glyph glyph-name="uni0308" unicode="&#x308;" horiz-adv-x="0" 
d="M-361 633q-6 7 -6 16t6.5 15.5t15.5 6.5t15.5 -6.5t6.5 -15.5t-6.5 -15.5t-15.5 -6.5t-16 6zM-175 633q-6 7 -6 16t6.5 15.5t15.5 6.5t15.5 -6.5t6.5 -15.5t-6.5 -15.5t-15.5 -6.5t-16 6z" />
    <glyph glyph-name="hookabovecomb" unicode="&#x309;" horiz-adv-x="0" 
d="M-250 609v-47h-18v52l9 10q51 15 51 54q0 23 -14 37t-35 14q-31 0 -57 -30l-13 12q29 36 70 36q32 0 50.5 -19.5t18.5 -49.5q0 -50 -62 -69z" />
    <glyph glyph-name="uni030A" unicode="&#x30a;" horiz-adv-x="0" 
d="M-312 590q-25 24 -25 59t25 59t60 24t60 -24t25 -59t-25 -59t-60 -24t-60 24zM-298 695q-19 -19 -19 -46t19 -46t46 -19t46 19t19 46t-19 46t-46 19t-46 -19z" />
    <glyph glyph-name="uni030C" unicode="&#x30c;" horiz-adv-x="0" 
d="M-247 578h-10l-122 128l13 14l114 -120l114 120l13 -14z" />
    <glyph glyph-name="dotbelowcomb" unicode="&#x323;" horiz-adv-x="0" 
d="M-268 -240q-6 7 -6 16t6.5 15.5t15.5 6.5t15.5 -6.5t6.5 -15.5t-6.5 -15.5t-15.5 -6.5t-16 6z" />
    <glyph glyph-name="uni03A9" unicode="&#x3a9;" horiz-adv-x="834" 
d="M772 18v-18h-229v14q77 41 141 136.5t64 200.5q0 143 -95.5 243t-235.5 100t-235.5 -100t-95.5 -243q0 -105 64 -201t141 -136v-14h-229v18h188q-184 141 -184 333q0 151 101 256t250 105t250 -105t101 -256q0 -192 -184 -333h188z" />
    <glyph glyph-name="pi" unicode="&#x3c0;" horiz-adv-x="610" 
d="M407 171v279h-217q0 -139 -20 -246t-68 -214l-19 9q46 109 66.5 214t20.5 237h-146v18h562v-18h-159v-286q0 -77 22 -117.5t75 -40.5q32 0 62 27l12 -16q-32 -29 -72 -29q-36 0 -60.5 14t-36.5 40.5t-17 57t-5 71.5z" />
    <glyph glyph-name="uni0400" unicode="&#x400;" horiz-adv-x="465" 
d="M403 18v-18h-304v700h293v-18h-273v-277h246v-18h-246v-369h284zM161 917l14 14l142 -139l-14 -14z" />
    <glyph glyph-name="afii10023" unicode="&#x401;" horiz-adv-x="465" 
d="M403 18v-18h-304v700h293v-18h-273v-277h246v-18h-246v-369h284zM133 837q-6 7 -6 16t6.5 15.5t15.5 6.5t15.5 -6.5t6.5 -15.5t-6.5 -15.5t-15.5 -6.5t-16 6zM319 837q-6 7 -6 16t6.5 15.5t15.5 6.5t15.5 -6.5t6.5 -15.5t-6.5 -15.5t-15.5 -6.5t-16 6z" />
    <glyph glyph-name="afii10051" unicode="&#x402;" horiz-adv-x="648" 
d="M24 682v18h394v-18h-187v-308q61 56 146 56q92 0 153.5 -62t61.5 -153t-61.5 -153t-153.5 -62v18q83 0 139 57t56 140t-56 140t-139 57q-88 0 -146 -66v-346h-20v682h-187z" />
    <glyph glyph-name="afii10052" unicode="&#x403;" horiz-adv-x="410" 
d="M99 0v700h287v-18h-267v-682h-20zM318 931l14 -14l-142 -139l-14 14z" />
    <glyph glyph-name="afii10053" unicode="&#x404;" horiz-adv-x="695" 
d="M425 712q143 0 245 -94l-14 -13q-97 89 -231 89q-140 0 -239.5 -96.5t-103.5 -238.5h463v-18h-463q4 -142 103.5 -238.5t239.5 -96.5q134 0 231 89l14 -13q-102 -94 -245 -94q-151 0 -257 104.5t-106 257.5t106 257.5t257 104.5z" />
    <glyph glyph-name="afii10054" unicode="&#x405;" horiz-adv-x="506" 
d="M49 98l17 11q63 -103 178 -103q78 0 129 48.5t51 120.5q0 70 -38.5 121t-135.5 89q-78 31 -116.5 74.5t-38.5 110.5q0 60 43.5 101t109.5 41q79 0 123 -56l-15 -12q-41 50 -108 50q-58 0 -95.5 -34.5t-37.5 -88.5q0 -59 34.5 -99t117.5 -73q92 -38 134.5 -91t42.5 -131
q0 -79 -54 -134t-146 -55q-60 0 -112.5 29.5t-82.5 80.5z" />
    <glyph glyph-name="afii10055" unicode="&#x406;" horiz-adv-x="242" 
d="M111 700h20v-700h-20v700z" />
    <glyph glyph-name="afii10056" unicode="&#x407;" horiz-adv-x="218" 
d="M0 837q-6 7 -6 16t6.5 15.5t15.5 6.5t15.5 -6.5t6.5 -15.5t-6.5 -15.5t-15.5 -6.5t-16 6zM186 837q-6 7 -6 16t6.5 15.5t15.5 6.5t15.5 -6.5t6.5 -15.5t-6.5 -15.5t-15.5 -6.5t-16 6zM99 700h20v-700h-20v700z" />
    <glyph glyph-name="afii10057" unicode="&#x408;" horiz-adv-x="386" 
d="M4 51l15 13q40 -58 107 -58q68 0 104.5 48.5t36.5 138.5v507h20v-504q0 -105 -43 -156.5t-118 -51.5q-35 0 -68 17t-54 46z" />
    <glyph glyph-name="afii10058" unicode="&#x409;" horiz-adv-x="926" 
d="M143 208l36 492h374v-316h107q102 0 162 -54.5t60 -137.5t-60 -137.5t-162 -54.5h-127v682h-335l-34 -474q-9 -134 -139 -212l-13 15q61 40 93.5 86.5t37.5 110.5zM658 366h-105v-348h105q93 0 148.5 48t55.5 126t-55.5 126t-148.5 48z" />
    <glyph glyph-name="afii10059" unicode="&#x40a;" horiz-adv-x="879" 
d="M506 700v-316h107q102 0 162 -54.5t60 -137.5t-60 -137.5t-162 -54.5h-127v377h-367v-377h-20v700h20v-305h367v305h20zM611 366h-105v-348h105q93 0 148.5 48t55.5 126t-55.5 126t-148.5 48z" />
    <glyph glyph-name="afii10060" unicode="&#x40b;" horiz-adv-x="652" 
d="M231 356v-356h-20v682h-187v18h394v-18h-187v-301q67 49 157 49q72 0 124.5 -52.5t52.5 -141.5v-236h-20v227q0 79 -44 132t-119 53q-85 0 -151 -56z" />
    <glyph glyph-name="afii10061" unicode="&#x40c;" horiz-adv-x="536" 
d="M119 700v-339l349 351l16 -13l-340 -338l374 -361l-16 -12l-383 373v-361h-20v700h20zM347 931l14 -14l-142 -139l-14 14z" />
    <glyph glyph-name="uni040D" unicode="&#x40d;" horiz-adv-x="720" 
d="M601 665l-491 -677l-11 5v707h20v-665l491 677l11 -5v-707h-20v665zM285 917l14 14l142 -139l-14 -14z" />
    <glyph glyph-name="afii10062" unicode="&#x40e;" horiz-adv-x="554" 
d="M283 271l238 441l21 -12l-385 -712l-22 11l134 247l-257 454l21 12zM143 914h20q4 -42 31 -71.5t72 -29.5t72 29.5t31 71.5h20q-4 -52 -40 -85.5t-83 -33.5t-83 33.5t-40 85.5z" />
    <glyph glyph-name="afii10145" unicode="&#x40f;" horiz-adv-x="636" 
d="M328 -136h-20v136h-209v700h20v-682h398v682h20v-700h-209v-136z" />
    <glyph glyph-name="afii10017" unicode="&#x410;" horiz-adv-x="630" 
d="M311 712h8l292 -718l-18 -6l-89 219h-378l-89 -219l-18 6zM315 671l-182 -446h363z" />
    <glyph glyph-name="afii10018" unicode="&#x411;" horiz-adv-x="498" 
d="M394 682h-275v-298h107q102 0 162 -54.5t60 -137.5t-60 -137.5t-162 -54.5h-127v700h295v-18zM224 366h-105v-348h105q93 0 148.5 48t55.5 126t-55.5 126t-148.5 48z" />
    <glyph glyph-name="afii10019" unicode="&#x412;" horiz-adv-x="522" 
d="M261 0h-162v700h119q95 0 146.5 -47.5t51.5 -111.5q0 -68 -30 -106t-88 -58q90 -20 129 -71.5t39 -115.5q0 -79 -56 -134.5t-149 -55.5zM119 18h134q90 0 141.5 49t51.5 124t-55.5 124.5t-150.5 49.5h-121v-347zM119 383h105q76 0 124 42.5t48 107.5q0 64 -45.5 106.5
t-131.5 42.5h-100v-299z" />
    <glyph glyph-name="afii10020" unicode="&#x413;" horiz-adv-x="410" 
d="M99 0v700h287v-18h-267v-682h-20z" />
    <glyph glyph-name="afii10021" unicode="&#x414;" horiz-adv-x="593" 
d="M558 18v-145h-20v127h-508v-127h-20v145h60q103 246 103 649v33h315v-682h70zM91 18h377v664h-275q0 -412 -102 -664z" />
    <glyph glyph-name="afii10022" unicode="&#x415;" horiz-adv-x="465" 
d="M403 18v-18h-304v700h293v-18h-273v-277h246v-18h-246v-369h284z" />
    <glyph glyph-name="afii10024" unicode="&#x416;" horiz-adv-x="814" 
d="M417 700v-339l329 351l16 -13l-320 -338l354 -361l-16 -12l-363 373v-361h-20v700h20zM397 361l-363 -373l-16 12l354 361l-320 338l16 13z" />
    <glyph glyph-name="afii10025" unicode="&#x417;" horiz-adv-x="508" 
d="M191 395v18h42q59 0 101.5 41.5t42.5 99.5t-42.5 99t-101.5 41q-95 0 -138 -76l-19 11q25 39 67 61t90 22q68 0 116 -46.5t48 -111.5q0 -51 -30 -91.5t-78 -57.5q72 -18 117.5 -74.5t45.5 -130.5q0 -89 -63.5 -150.5t-155.5 -61.5q-56 0 -104 26t-79 68l17 13
q69 -89 166 -89q83 0 141 56.5t58 136.5q0 81 -58 138.5t-141 57.5h-42z" />
    <glyph glyph-name="afii10026" unicode="&#x418;" horiz-adv-x="720" 
d="M601 665l-491 -677l-11 5v707h20v-665l491 677l11 -5v-707h-20v665z" />
    <glyph glyph-name="afii10027" unicode="&#x419;" horiz-adv-x="720" 
d="M237 932h20q4 -42 31 -71.5t72 -29.5t72 29.5t31 71.5h20q-4 -52 -40 -85.5t-83 -33.5t-83 33.5t-40 85.5zM601 665l-491 -677l-11 5v707h20v-665l491 677l11 -5v-707h-20v665z" />
    <glyph glyph-name="afii10028" unicode="&#x41a;" horiz-adv-x="536" 
d="M119 700v-339l349 351l16 -13l-340 -338l374 -361l-16 -12l-383 373v-361h-20v700h20z" />
    <glyph glyph-name="afii10029" unicode="&#x41b;" horiz-adv-x="652" 
d="M143 208l36 492h374v-700h-20v682h-335l-34 -474q-9 -134 -139 -212l-13 15q61 40 93.5 86.5t37.5 110.5z" />
    <glyph glyph-name="afii10030" unicode="&#x41c;" horiz-adv-x="832" 
d="M421 0h-10l-198 655l-168 -667l-21 5l183 719h10l199 -656l199 656h10l183 -719l-21 -5l-168 667z" />
    <glyph glyph-name="afii10031" unicode="&#x41d;" horiz-adv-x="645" 
d="M526 700h20v-700h-20v377h-407v-377h-20v700h20v-305h407v305z" />
    <glyph glyph-name="afii10032" unicode="&#x41e;" horiz-adv-x="850" 
d="M168 92q-106 105 -106 258t106 257.5t257 104.5t257 -104.5t106 -257.5t-106 -257.5t-257 -104.5t-257 104zM667 105q101 100 101 245t-100.5 244.5t-242.5 99.5t-242.5 -99.5t-100.5 -244.5t100.5 -244.5t242.5 -99.5t242 99z" />
    <glyph glyph-name="afii10033" unicode="&#x41f;" horiz-adv-x="636" 
d="M537 700v-700h-20v682h-398v-682h-20v700h438z" />
    <glyph glyph-name="afii10034" unicode="&#x420;" horiz-adv-x="492" 
d="M119 334h105q93 0 148.5 48t55.5 126t-55.5 126t-148.5 48h-105v-348zM119 316v-316h-20v700h127q102 0 162 -54.5t60 -137.5t-60 -137.5t-162 -54.5h-107z" />
    <glyph glyph-name="afii10035" unicode="&#x421;" horiz-adv-x="720" 
d="M425 712q143 0 245 -94l-14 -13q-97 89 -231 89q-142 0 -242.5 -99.5t-100.5 -244.5t100.5 -244.5t242.5 -99.5q134 0 231 89l14 -13q-102 -94 -245 -94q-151 0 -257 104.5t-106 257.5t106 257.5t257 104.5z" />
    <glyph glyph-name="afii10036" unicode="&#x422;" horiz-adv-x="442" 
d="M24 682v18h394v-18h-187v-682h-20v682h-187z" />
    <glyph glyph-name="afii10037" unicode="&#x423;" horiz-adv-x="554" 
d="M283 271l238 441l21 -12l-385 -712l-22 11l134 247l-257 454l21 12z" />
    <glyph glyph-name="afii10038" unicode="&#x424;" horiz-adv-x="818" 
d="M488 116h-69v-116h-20v116h-69q-129 0 -204.5 67t-75.5 175t75.5 175t204.5 67h69v100h20v-100h69q129 0 204.5 -67t75.5 -175t-75.5 -175t-204.5 -67zM399 134v448h-67q-123 0 -192.5 -61t-69.5 -163t69.5 -163t192.5 -61h67zM419 582v-448h67q123 0 192.5 61t69.5 163
t-69.5 163t-192.5 61h-67z" />
    <glyph glyph-name="afii10039" unicode="&#x425;" horiz-adv-x="563" 
d="M32 700l16 12l233 -331l234 331l16 -12l-238 -336l258 -364l-16 -12l-254 359l-253 -359l-16 12l257 364z" />
    <glyph glyph-name="afii10040" unicode="&#x426;" horiz-adv-x="642" 
d="M119 700v-682h398v682h20v-682h70v-145h-20v127h-488v700h20z" />
    <glyph glyph-name="afii10041" unicode="&#x427;" horiz-adv-x="534" 
d="M435 0h-20v318q-70 -48 -157 -48q-72 0 -124.5 52.5t-52.5 141.5v236h20v-227q0 -79 44 -132t119 -53q82 0 151 55v357h20v-700z" />
    <glyph glyph-name="afii10042" unicode="&#x428;" horiz-adv-x="928" 
d="M454 18v682h20v-682h335v682h20v-700h-730v700h20v-682h335z" />
    <glyph glyph-name="afii10043" unicode="&#x429;" horiz-adv-x="934" 
d="M454 18v682h20v-682h335v682h20v-682h70v-144h-20v126h-780v700h20v-682h335z" />
    <glyph glyph-name="afii10044" unicode="&#x42a;" horiz-adv-x="586" 
d="M213 700v-316h107q102 0 162 -54.5t60 -137.5t-60 -137.5t-162 -54.5h-127v682h-175v18h195zM318 366h-105v-348h105q93 0 148.5 48t55.5 126t-55.5 126t-148.5 48z" />
    <glyph glyph-name="afii10045" unicode="&#x42b;" horiz-adv-x="720" 
d="M224 366h-105v-348h105q93 0 148.5 48t55.5 126t-55.5 126t-148.5 48zM119 700v-316h107q102 0 162 -54.5t60 -137.5t-60 -137.5t-162 -54.5h-127v700h20zM601 700h20v-700h-20v700z" />
    <glyph glyph-name="afii10046" unicode="&#x42c;" horiz-adv-x="492" 
d="M224 366h-105v-348h105q93 0 148.5 48t55.5 126t-55.5 126t-148.5 48zM119 700v-316h107q102 0 162 -54.5t60 -137.5t-60 -137.5t-162 -54.5h-127v700h20z" />
    <glyph glyph-name="afii10047" unicode="&#x42d;" horiz-adv-x="695" 
d="M270 -12q-143 0 -245 94l14 13q97 -89 231 -89q140 0 239.5 96.5t102.5 238.5h-462v18h462q-3 142 -102.5 238.5t-239.5 96.5q-134 0 -231 -89l-14 13q102 94 245 94q151 0 257 -104.5t106 -257.5t-106 -257.5t-257 -104.5z" />
    <glyph glyph-name="afii10048" unicode="&#x42e;" horiz-adv-x="1026" 
d="M99 700h20v-339h119q4 149 109.5 250t253.5 101q151 0 257 -104.5t106 -257.5t-106 -257.5t-257 -104.5q-149 0 -255 102t-108 253h-119v-343h-20v700zM843 105q101 100 101 245t-100.5 244.5t-242.5 99.5t-242.5 -99.5t-100.5 -244.5t100.5 -244.5t242.5 -99.5t242 99z
" />
    <glyph glyph-name="afii10049" unicode="&#x42f;" horiz-adv-x="519" 
d="M356 361l4 -10l-318 -363l-17 11l305 346q-71 6 -120 25.5t-71.5 47.5t-31 53t-8.5 52q0 80 58 128.5t156 48.5h107v-700h-20v682h-81q-95 0 -147.5 -44.5t-52.5 -113.5q0 -29 10.5 -54.5t35 -50t73.5 -40t118 -18.5z" />
    <glyph glyph-name="afii10065" unicode="&#x430;" horiz-adv-x="645" 
d="M304 480q75 0 137.5 -41.5t90.5 -110.5v140h20v-468h-20v140q-28 -70 -90.5 -111t-137.5 -41q-101 0 -174.5 71t-73.5 175t73.5 175t174.5 71zM465 72q67 66 67 162t-67 162t-161 66t-161 -66t-67 -162t67 -162t161 -66t161 66z" />
    <glyph glyph-name="afii10066" unicode="&#x431;" horiz-adv-x="619" 
d="M67 255q0 125 27 216t80 147t120 87t158 45l4 -20q-96 -12 -165 -45.5t-110.5 -87t-62.5 -117t-29 -145.5q31 65 92 105t134 40q101 0 174.5 -71t73.5 -175t-73.5 -175t-174.5 -71q-110 0 -179 76.5t-69 190.5zM315 462q-92 0 -158 -63t-70 -156v-9q0 -96 67 -162
t161 -66t161 66t67 162t-67 162t-161 66z" />
    <glyph glyph-name="afii10067" unicode="&#x432;" horiz-adv-x="470" 
d="M222 0h-129v468h133q88 0 127.5 -32.5t39.5 -81.5q0 -33 -28 -64.5t-77 -40.5q62 -4 99.5 -37.5t37.5 -81.5q0 -130 -203 -130zM373 354q0 96 -147 96h-113v-193h107q79 0 116 30t37 67zM405 128q0 111 -186 111h-106v-221h109q88 0 135.5 28t47.5 82z" />
    <glyph glyph-name="afii10068" unicode="&#x433;" horiz-adv-x="383" 
d="M352 468v-18h-239v-450h-20v468h259z" />
    <glyph glyph-name="afii10069" unicode="&#x434;" horiz-adv-x="499" 
d="M464 18v-124h-20v106h-414v-106h-20v124h47q95 180 95 437v13h252v-450h60zM81 18h303v432h-213q0 -242 -90 -432z" />
    <glyph glyph-name="afii10070" unicode="&#x435;" horiz-adv-x="586" 
d="M304 6q116 0 184 98l14 -12q-74 -104 -198 -104q-101 0 -174.5 71.5t-73.5 174.5q0 104 69 175t169 71q98 0 167 -69t71 -172h-456v-5q0 -95 67 -161.5t161 -66.5zM77 257h434q-10 88 -70 146.5t-147 58.5q-88 0 -148.5 -58.5t-68.5 -146.5z" />
    <glyph glyph-name="afii10072" unicode="&#x436;" horiz-adv-x="694" 
d="M337 0v468h20v-212l269 224l14 -13l-256 -211l292 -254l-13 -14l-306 268v-256h-20zM68 480l269 -224l-306 -268l-13 14l292 254l-256 211z" />
    <glyph glyph-name="afii10073" unicode="&#x437;" horiz-adv-x="395" 
d="M168 462q-61 0 -110 -37l-11 12q55 43 124 43q63 0 101 -30t38 -76q0 -39 -26.5 -68.5t-73.5 -39.5q58 -7 92.5 -45.5t34.5 -92.5q0 -58 -45 -99t-121 -41q-89 0 -149 61l15 15q58 -58 133 -58q64 0 105.5 34t41.5 87q0 58 -42 94t-109 36h-45v18h45q53 0 88.5 28
t35.5 69t-32 65.5t-90 24.5z" />
    <glyph glyph-name="afii10074" unicode="&#x438;" horiz-adv-x="562" 
d="M469 0h-20v448l-336 -460l-20 12v468h20v-448l336 460l20 -12v-468z" />
    <glyph glyph-name="afii10075" unicode="&#x439;" horiz-adv-x="562" 
d="M469 0h-20v448l-336 -460l-20 12v468h20v-448l336 460l20 -12v-468zM158 690h20q4 -42 31 -71.5t72 -29.5t72 29.5t31 71.5h20q-4 -52 -40 -85.5t-83 -33.5t-83 33.5t-40 85.5z" />
    <glyph glyph-name="afii10076" unicode="&#x43a;" horiz-adv-x="470" 
d="M113 256l289 224l14 -13l-276 -211l312 -254l-13 -14zM113 468v-468h-20v468h20z" />
    <glyph glyph-name="afii10077" unicode="&#x43b;" horiz-adv-x="555" 
d="M114 169l28 299h320v-468h-20v450h-282l-26 -281q-6 -64 -32 -104t-79 -77l-11 16q49 34 73 71.5t29 93.5z" />
    <glyph glyph-name="afii10078" unicode="&#x43c;" horiz-adv-x="658" 
d="M329 46l155 434h7l142 -486l-20 -6l-126 442l-155 -434h-6l-155 434l-126 -442l-20 6l142 486h7z" />
    <glyph glyph-name="afii10079" unicode="&#x43d;" horiz-adv-x="542" 
d="M429 468h20v-468h-20v248h-316v-248h-20v468h20v-202h316v202z" />
    <glyph glyph-name="afii10080" unicode="&#x43e;" horiz-adv-x="608" 
d="M465 72q67 66 67 162t-67 162t-161 66t-161 -66t-67 -162t67 -162t161 -66t161 66zM129 59q-73 71 -73 175t73.5 175t174.5 71t174.5 -71t73.5 -175t-73.5 -175t-174.5 -71t-175 71z" />
    <glyph glyph-name="afii10081" unicode="&#x43f;" horiz-adv-x="530" 
d="M437 468v-468h-20v450h-304v-450h-20v468h344z" />
    <glyph glyph-name="afii10082" unicode="&#x440;" horiz-adv-x="645" 
d="M341 -12q-75 0 -137.5 41.5t-90.5 110.5v-422h-20v750h20v-140q28 70 90 111t138 41q101 0 174.5 -71t73.5 -175t-73.5 -175t-174.5 -71zM180 396q-67 -66 -67 -162t67 -162t161 -66t161 66t67 162t-67 162t-161 66t-161 -66z" />
    <glyph glyph-name="afii10083" unicode="&#x441;" horiz-adv-x="484" 
d="M304 480q85 0 149 -49l-11 -14q-61 45 -138 45q-94 0 -161 -66t-67 -162t67 -162t161 -66q77 0 138 45l11 -14q-64 -49 -149 -49q-101 0 -174.5 71t-73.5 175t73.5 175t174.5 71z" />
    <glyph glyph-name="afii10084" unicode="&#x442;" horiz-adv-x="416" 
d="M31 450v18h354v-18h-167v-450h-20v450h-167z" />
    <glyph glyph-name="afii10085" unicode="&#x443;" horiz-adv-x="465" 
d="M437 473l-312 -767l-18 8l109 269l-188 490l18 7l181 -470l192 470z" />
    <glyph glyph-name="afii10086" unicode="&#x444;" horiz-adv-x="1084" 
d="M304 480q75 0 137.5 -41.5t90.5 -110.5v422h20v-422q28 69 90.5 110.5t137.5 41.5q101 0 174.5 -71t73.5 -175t-73.5 -175t-174.5 -71q-76 0 -138 41t-90 111v-422h-20v422q-28 -70 -90 -111t-138 -41q-101 0 -174.5 71t-73.5 175t73.5 175t174.5 71zM532 224v10
q0 96 -67 162t-161 66t-161 -66t-67 -162t67 -162t161 -66q92 0 158 62.5t70 155.5zM552 243v-9q0 -96 67 -162t161 -66t161 66t67 162t-67 162t-161 66q-92 0 -158 -63t-70 -156z" />
    <glyph glyph-name="afii10087" unicode="&#x445;" horiz-adv-x="429" 
d="M202 243l-169 225l15 12l166 -221l167 221l15 -12l-169 -225l183 -243l-16 -12l-180 238l-179 -238l-16 12z" />
    <glyph glyph-name="afii10088" unicode="&#x446;" horiz-adv-x="532" 
d="M497 18v-124h-20v106h-384v468h20v-450h304v450h20v-450h60z" />
    <glyph glyph-name="afii10089" unicode="&#x447;" horiz-adv-x="506" 
d="M393 201v267h20v-468h-20v179q-64 -52 -156 -52q-76 0 -119 54t-43 148v139h20v-140q0 -84 37 -133.5t115 -49.5q35 0 77.5 15.5t68.5 40.5z" />
    <glyph glyph-name="afii10090" unicode="&#x448;" horiz-adv-x="790" 
d="M385 18v450h20v-450h272v450h20v-468h-604v468h20v-450h272z" />
    <glyph glyph-name="afii10091" unicode="&#x449;" horiz-adv-x="792" 
d="M385 18v450h20v-450h272v450h20v-450h60v-124h-20v106h-644v468h20v-450h272z" />
    <glyph glyph-name="afii10092" unicode="&#x44a;" horiz-adv-x="508" 
d="M269 0h-110v450h-134v18h154v-154h90q105 0 156.5 -41.5t51.5 -115.5t-51.5 -115.5t-156.5 -41.5zM271 296h-92v-278h92q186 0 186 139t-186 139z" />
    <glyph glyph-name="afii10093" unicode="&#x44b;" horiz-adv-x="616" 
d="M203 0h-110v468h20v-154h90q105 0 156.5 -41.5t51.5 -115.5t-51.5 -115.5t-156.5 -41.5zM205 296h-92v-278h92q186 0 186 139t-186 139zM521 468v-468h-20v468h20z" />
    <glyph glyph-name="afii10094" unicode="&#x44c;" horiz-adv-x="442" 
d="M203 0h-110v468h20v-154h90q105 0 156.5 -41.5t51.5 -115.5t-51.5 -115.5t-156.5 -41.5zM205 296h-92v-278h92q186 0 186 139t-186 139z" />
    <glyph glyph-name="afii10095" unicode="&#x44d;" horiz-adv-x="484" 
d="M180 -12q-85 0 -149 49l11 14q61 -45 138 -45q91 0 157.5 63t70.5 155h-293v18h293q-3 93 -69.5 156.5t-158.5 63.5q-77 0 -138 -45l-11 14q64 49 149 49q101 0 174.5 -71t73.5 -175t-73.5 -175t-174.5 -71z" />
    <glyph glyph-name="afii10096" unicode="&#x44e;" horiz-adv-x="745" 
d="M113 225v-225h-20v468h20v-225h80q4 101 76.5 169t171.5 68q101 0 174.5 -71t73.5 -175t-73.5 -175t-174.5 -71q-99 0 -171.5 68t-76.5 169h-80zM602 72q67 66 67 162t-67 162t-161 66t-161 -66t-67 -162t67 -162t161 -66t161 66z" />
    <glyph glyph-name="afii10097" unicode="&#x44f;" horiz-adv-x="461" 
d="M75 334q0 59 47 96.5t124 37.5h122v-468h-20v450h-103q-65 0 -107.5 -31t-42.5 -84q0 -55 36.5 -86t97.5 -31h62l4 -14l-238 -216l-14 11l221 201h-34q-73 0 -114 37t-41 97z" />
    <glyph glyph-name="uni0450" unicode="&#x450;" horiz-adv-x="586" 
d="M212 694l14 14l142 -139l-14 -14zM304 6q116 0 184 98l14 -12q-74 -104 -198 -104q-101 0 -174.5 71.5t-73.5 174.5q0 104 69 175t169 71q98 0 167 -69t71 -172h-456v-5q0 -95 67 -161.5t161 -66.5zM77 257h434q-10 88 -70 146.5t-147 58.5q-88 0 -148.5 -58.5
t-68.5 -146.5z" />
    <glyph glyph-name="afii10071" unicode="&#x451;" horiz-adv-x="586" 
d="M186 614q-6 7 -6 16t6.5 15.5t15.5 6.5t15.5 -6.5t6.5 -15.5t-6.5 -15.5t-15.5 -6.5t-16 6zM372 614q-6 7 -6 16t6.5 15.5t15.5 6.5t15.5 -6.5t6.5 -15.5t-6.5 -15.5t-15.5 -6.5t-16 6zM304 6q116 0 184 98l14 -12q-74 -104 -198 -104q-101 0 -174.5 71.5t-73.5 174.5
q0 104 69 175t169 71q98 0 167 -69t71 -172h-456v-5q0 -95 67 -161.5t161 -66.5zM77 257h434q-10 88 -70 146.5t-147 58.5q-88 0 -148.5 -58.5t-68.5 -146.5z" />
    <glyph glyph-name="afii10099" unicode="&#x452;" horiz-adv-x="526" 
d="M439 286v-384q0 -94 -31.5 -139t-99.5 -45q-63 0 -104 50l13 11q38 -43 91 -43q61 0 86 42t25 125v376q0 79 -42 131t-115 52t-115 -52t-42 -131v-279h-20v620h-63v18h63v112h20v-112h184v-18h-184v-251q47 111 163 111q69 0 120 -52.5t51 -141.5z" />
    <glyph glyph-name="afii10100" unicode="&#x453;" horiz-adv-x="383" 
d="M352 468v-18h-239v-450h-20v468h259zM290 727l14 -14l-142 -139l-14 14z" />
    <glyph glyph-name="afii10101" unicode="&#x454;" horiz-adv-x="484" 
d="M304 480q85 0 149 -49l-11 -14q-61 45 -138 45q-93 0 -159 -63.5t-69 -156.5h293v-18h-293q4 -93 70 -155.5t158 -62.5q77 0 138 45l11 -14q-64 -49 -149 -49q-101 0 -174.5 71t-73.5 175t73.5 175t174.5 71z" />
    <glyph glyph-name="afii10102" unicode="&#x455;" horiz-adv-x="375" 
d="M182 6q56 0 89.5 33t33.5 80t-29 77.5t-98 58.5q-111 47 -111 121q0 47 31.5 75.5t78.5 28.5q68 0 101 -49l-14 -11q-33 42 -87 42q-37 0 -63.5 -22.5t-26.5 -60.5t27 -63.5t90 -51.5q121 -50 121 -143q0 -57 -38 -95t-105 -38q-91 0 -139 86l14 11q48 -79 125 -79z" />
    <glyph glyph-name="afii10103" unicode="&#x456;" horiz-adv-x="228" 
d="M124 468v-468h-20v468h20zM114 659q-25 0 -25 25t25 25t25 -25t-25 -25z" />
    <glyph glyph-name="afii10104" unicode="&#x457;" horiz-adv-x="228" 
d="M124 468v-468h-20v468h20zM5 614q-6 7 -6 16t6.5 15.5t15.5 6.5t15.5 -6.5t6.5 -15.5t-6.5 -15.5t-15.5 -6.5t-16 6zM191 614q-6 7 -6 16t6.5 15.5t15.5 6.5t15.5 -6.5t6.5 -15.5t-6.5 -15.5t-15.5 -6.5t-16 6z" />
    <glyph glyph-name="afii10105" unicode="&#x458;" horiz-adv-x="237" 
d="M138 468v-566q0 -93 -34.5 -138.5t-106.5 -45.5q-73 0 -114 50l13 11q38 -43 101 -43q66 0 93.5 42t27.5 125v565h20zM128 659q-25 0 -25 25t25 25t25 -25t-25 -25z" />
    <glyph glyph-name="afii10106" unicode="&#x459;" horiz-adv-x="701" 
d="M114 169l28 299h290v-174h75q78 0 120.5 -39.5t42.5 -107.5t-42.5 -107.5t-120.5 -39.5h-95v450h-252l-26 -281q-6 -64 -32 -104t-79 -77l-11 16q49 34 73 71.5t29 93.5zM509 276h-77v-258h77q69 0 105 34.5t36 94.5t-36 94.5t-105 34.5z" />
    <glyph glyph-name="afii10107" unicode="&#x45a;" horiz-adv-x="708" 
d="M514 0h-95v248h-306v-248h-20v468h20v-202h306v202h20v-174h75q78 0 120.5 -39.5t42.5 -107.5t-42.5 -107.5t-120.5 -39.5zM516 276h-77v-258h77q69 0 105 34.5t36 94.5t-36 94.5t-105 34.5z" />
    <glyph glyph-name="afii10108" unicode="&#x45b;" horiz-adv-x="526" 
d="M419 0v279q0 79 -42 131t-115 52t-115 -52t-42 -131v-279h-20v620h-63v18h63v112h20v-112h184v-18h-184v-251q47 111 163 111q69 0 120 -52.5t51 -141.5v-286h-20z" />
    <glyph glyph-name="afii10109" unicode="&#x45c;" horiz-adv-x="470" 
d="M113 256l289 224l14 -13l-276 -211l312 -254l-13 -14zM113 468v-468h-20v468h20zM315 708l14 -14l-142 -139l-14 14z" />
    <glyph glyph-name="uni045D" unicode="&#x45d;" horiz-adv-x="562" 
d="M469 0h-20v448l-336 -460l-20 12v468h20v-448l336 460l20 -12v-468zM213 695l14 14l142 -139l-14 -14z" />
    <glyph glyph-name="afii10110" unicode="&#x45e;" horiz-adv-x="465" 
d="M437 473l-312 -767l-18 8l109 269l-188 490l18 7l181 -470l192 470zM113 700h20q4 -42 31 -71.5t72 -29.5t72 29.5t31 71.5h20q-4 -52 -40 -85.5t-83 -33.5t-83 33.5t-40 85.5z" />
    <glyph glyph-name="afii10193" unicode="&#x45f;" horiz-adv-x="530" 
d="M275 -116h-20v116h-162v468h20v-450h304v450h20v-468h-162v-116z" />
    <glyph glyph-name="afii10050" unicode="&#x490;" horiz-adv-x="429" 
d="M99 0v700h267v136h20v-154h-267v-682h-20z" />
    <glyph glyph-name="afii10098" unicode="&#x491;" horiz-adv-x="365" 
d="M93 0v468h221v116h20v-134h-221v-450h-20z" />
    <glyph glyph-name="Wgrave" unicode="&#x1e80;" horiz-adv-x="960" 
d="M475 712h10l210 -675l226 675l20 -5l-242 -719h-10l-209 669l-209 -669h-10l-242 719l20 5l226 -675zM341 917l14 14l142 -139l-14 -14z" />
    <glyph glyph-name="wgrave" unicode="&#x1e81;" horiz-adv-x="756" 
d="M561 -12h-10l-173 454l-173 -454h-10l-183 485l18 7l170 -452l173 452h10l173 -452l170 452l18 -7zM242 694l14 14l142 -139l-14 -14z" />
    <glyph glyph-name="Wacute" unicode="&#x1e82;" horiz-adv-x="960" 
d="M475 712h10l210 -675l226 675l20 -5l-242 -719h-10l-209 669l-209 -669h-10l-242 719l20 5l226 -675zM605 931l14 -14l-142 -139l-14 14z" />
    <glyph glyph-name="wacute" unicode="&#x1e83;" horiz-adv-x="756" 
d="M561 -12h-10l-173 454l-173 -454h-10l-183 485l18 7l170 -452l173 452h10l173 -452l170 452l18 -7zM500 708l14 -14l-142 -139l-14 14z" />
    <glyph glyph-name="Wdieresis" unicode="&#x1e84;" horiz-adv-x="960" 
d="M371 837q-6 7 -6 16t6.5 15.5t15.5 6.5t15.5 -6.5t6.5 -15.5t-6.5 -15.5t-15.5 -6.5t-16 6zM557 837q-6 7 -6 16t6.5 15.5t15.5 6.5t15.5 -6.5t6.5 -15.5t-6.5 -15.5t-15.5 -6.5t-16 6zM475 712h10l210 -675l226 675l20 -5l-242 -719h-10l-209 669l-209 -669h-10
l-242 719l20 5l226 -675z" />
    <glyph glyph-name="wdieresis" unicode="&#x1e85;" horiz-adv-x="756" 
d="M561 -12h-10l-173 454l-173 -454h-10l-183 485l18 7l170 -452l173 452h10l173 -452l170 452l18 -7zM269 614q-6 7 -6 16t6.5 15.5t15.5 6.5t15.5 -6.5t6.5 -15.5t-6.5 -15.5t-15.5 -6.5t-16 6zM455 614q-6 7 -6 16t6.5 15.5t15.5 6.5t15.5 -6.5t6.5 -15.5t-6.5 -15.5
t-15.5 -6.5t-16 6z" />
    <glyph glyph-name="uni1E9E" unicode="&#x1e9e;" horiz-adv-x="618" 
d="M88 0v520q0 94 56 143t145 49q82 0 141.5 -44t59.5 -121q0 -67 -41 -105.5t-118 -57.5q98 0 164.5 -55t66.5 -142q0 -89 -52.5 -144t-147.5 -55q-53 0 -102 27l9 18q43 -27 97 -27q76 0 126 47.5t50 132.5q0 88 -68 137t-179 51l2 17q38 9 64 19t53.5 27.5t41.5 44.5
t14 63q0 73 -53.5 111t-129.5 38q-82 0 -130.5 -45.5t-48.5 -128.5v-520h-20z" />
    <glyph glyph-name="Ygrave" unicode="&#x1ef2;" horiz-adv-x="570" 
d="M295 0h-20v288l-263 414l17 10l256 -402l256 402l17 -10l-263 -414v-288zM186 917l14 14l142 -139l-14 -14z" />
    <glyph glyph-name="ygrave" unicode="&#x1ef3;" horiz-adv-x="465" 
d="M437 473l-312 -767l-18 8l109 269l-188 490l18 7l181 -470l192 470zM138 694l14 14l142 -139l-14 -14z" />
    <glyph glyph-name="thinspace" unicode="&#x2009;" horiz-adv-x="200" 
 />
    <glyph glyph-name="figuredash" unicode="&#x2012;" horiz-adv-x="618" 
d="M91 341h435v-18h-435v18z" />
    <glyph glyph-name="endash" unicode="&#x2013;" horiz-adv-x="500" 
d="M500 323h-500v18h500v-18z" />
    <glyph glyph-name="emdash" unicode="&#x2014;" horiz-adv-x="1000" 
d="M1000 323h-1000v18h1000v-18z" />
    <glyph glyph-name="uni2015" unicode="&#x2015;" horiz-adv-x="1000" 
d="M900 323h-800v18h800v-18z" />
    <glyph glyph-name="quoteleft" unicode="&#x2018;" horiz-adv-x="290" 
d="M138 560l-19 6l63 184l19 -7z" />
    <glyph glyph-name="quoteright" unicode="&#x2019;" horiz-adv-x="290" 
d="M152 750l19 -6l-63 -184l-19 7z" />
    <glyph glyph-name="quotesinglbase" unicode="&#x201a;" horiz-adv-x="290" 
d="M152 39l19 -6l-63 -184l-19 7z" />
    <glyph glyph-name="quotedblleft" unicode="&#x201c;" horiz-adv-x="438" 
d="M138 560l-19 6l63 184l19 -7zM286 560l-19 6l63 184l19 -7z" />
    <glyph glyph-name="quotedblright" unicode="&#x201d;" horiz-adv-x="438" 
d="M152 750l19 -6l-63 -184l-19 7zM300 750l19 -6l-63 -184l-19 7z" />
    <glyph glyph-name="quotedblbase" unicode="&#x201e;" horiz-adv-x="473" 
d="M152 39l19 -6l-63 -184l-19 7zM335 39l19 -6l-63 -184l-19 7z" />
    <glyph glyph-name="dagger" unicode="&#x2020;" horiz-adv-x="596" 
d="M308 535v-666h-20v666h-198v18h198v195h20v-195h198v-18h-198z" />
    <glyph glyph-name="daggerdbl" unicode="&#x2021;" horiz-adv-x="596" 
d="M506 82v-18h-198v-195h-20v195h-198v18h198v453h-198v18h198v195h20v-195h198v-18h-198v-453h198z" />
    <glyph glyph-name="bullet" unicode="&#x2022;" horiz-adv-x="480" 
d="M169 261q-28 29 -28 71t28.5 70.5t70.5 28.5t70.5 -28.5t28.5 -70.5t-28.5 -70.5t-70.5 -28.5t-71 28z" />
    <glyph glyph-name="onedotenleader" unicode="&#x2024;" horiz-adv-x="290" 
d="M145 -12q-25 0 -25 25t25 25t25 -25t-25 -25z" />
    <glyph glyph-name="twodotenleader" unicode="&#x2025;" horiz-adv-x="580" 
d="M145 -12q-25 0 -25 25t25 25t25 -25t-25 -25zM435 -12q-25 0 -25 25t25 25t25 -25t-25 -25z" />
    <glyph glyph-name="ellipsis" unicode="&#x2026;" horiz-adv-x="870" 
d="M145 -12q-25 0 -25 25t25 25t25 -25t-25 -25zM435 -12q-25 0 -25 25t25 25t25 -25t-25 -25zM725 -12q-25 0 -25 25t25 25t25 -25t-25 -25z" />
    <glyph glyph-name="perthousand" unicode="&#x2030;" horiz-adv-x="1243" 
d="M109 437q-47 48 -47 114t47.5 113.5t113.5 47.5t113.5 -47.5t47.5 -113.5t-47.5 -113.5t-113.5 -47.5t-114 47zM123 651q-41 -42 -41 -100t41.5 -100.5t99.5 -42.5t99.5 42.5t41.5 100.5t-41.5 100.5t-99.5 42.5t-100 -43zM187 -12l-16 12l515 712l16 -12zM763 262
q48 -47 48 -113t-47.5 -113.5t-113.5 -47.5t-113.5 47.5t-47.5 113.5t47.5 113.5t113.5 47.5t113 -48zM749 48q42 43 42 101t-41.5 100.5t-99.5 42.5t-99.5 -42.5t-41.5 -100.5t41.5 -100.5t99.5 -42.5t99 42zM1133 262q48 -47 48 -113t-47.5 -113.5t-113.5 -47.5
t-113.5 47.5t-47.5 113.5t47.5 113.5t113.5 47.5t113 -48zM1119 48q42 43 42 101t-41.5 100.5t-99.5 42.5t-99.5 -42.5t-41.5 -100.5t41.5 -100.5t99.5 -42.5t99 42z" />
    <glyph glyph-name="uni2031" unicode="&#x2031;" horiz-adv-x="1613" 
d="M109 437q-47 48 -47 114t47.5 113.5t113.5 47.5t113.5 -47.5t47.5 -113.5t-47.5 -113.5t-113.5 -47.5t-114 47zM123 651q-41 -42 -41 -100t41.5 -100.5t99.5 -42.5t99.5 42.5t41.5 100.5t-41.5 100.5t-99.5 42.5t-100 -43zM187 -12l-16 12l515 712l16 -12zM763 262
q48 -47 48 -113t-47.5 -113.5t-113.5 -47.5t-113.5 47.5t-47.5 113.5t47.5 113.5t113.5 47.5t113 -48zM749 48q42 43 42 101t-41.5 100.5t-99.5 42.5t-99.5 -42.5t-41.5 -100.5t41.5 -100.5t99.5 -42.5t99 42zM1133 262q48 -47 48 -113t-47.5 -113.5t-113.5 -47.5
t-113.5 47.5t-47.5 113.5t47.5 113.5t113.5 47.5t113 -48zM1119 48q42 43 42 101t-41.5 100.5t-99.5 42.5t-99.5 -42.5t-41.5 -100.5t41.5 -100.5t99.5 -42.5t99 42zM1503 262q48 -47 48 -113t-47.5 -113.5t-113.5 -47.5t-113.5 47.5t-47.5 113.5t47.5 113.5t113.5 47.5
t113 -48zM1489 48q42 43 42 101t-41.5 100.5t-99.5 42.5t-99.5 -42.5t-41.5 -100.5t41.5 -100.5t99.5 -42.5t99 42z" />
    <glyph glyph-name="guilsinglleft" unicode="&#x2039;" horiz-adv-x="380" 
d="M81 307v10l206 159l11 -15l-194 -149l194 -149l-11 -15z" />
    <glyph glyph-name="guilsinglright" unicode="&#x203a;" horiz-adv-x="380" 
d="M299 317v-10l-206 -159l-11 15l194 149l-194 149l11 15z" />
    <glyph glyph-name="uni203E" unicode="&#x203e;" horiz-adv-x="500" 
d="M0 639v18h500v-18h-500z" />
    <glyph glyph-name="fraction" unicode="&#x2044;" horiz-adv-x="414" 
d="M385 703l18 -9l-374 -709l-18 9z" />
    <glyph glyph-name="zerosuperior" unicode="&#x2070;" 
d="M285 311q31 62 31 160t-31 160.5t-90 62.5t-90 -62.5t-31 -160.5t31 -160.5t90 -62.5t90 63zM91 299q-37 69 -37 172t37 172t104 69t104 -69t37 -172t-37 -172t-104 -69t-104 69z" />
    <glyph glyph-name="uni2071" unicode="&#x2071;" 
d="M205 569v-327h-20v327h20zM181 674q-6 6 -6 14t6 14t14 6t14 -6t6 -14t-6 -14t-14 -6t-14 6z" />
    <glyph glyph-name="foursuperior" unicode="&#x2074;" 
d="M37 342l-4 8l249 362l11 -1v-351h57v-18h-57v-100h-20v100h-236zM62 360h211v310z" />
    <glyph glyph-name="fivesuperior" unicode="&#x2075;" 
d="M108 490l-7 6l31 204h181v-18h-166l-26 -169q26 10 58 10q64 0 108 -41.5t44 -102.5t-39 -105t-107 -44q-82 0 -130 72l14 11q43 -65 112 -65q64 0 97 40.5t33 89.5q0 53 -37.5 90t-101.5 37q-33 0 -64 -15z" />
    <glyph glyph-name="sixsuperior" unicode="&#x2076;" 
d="M51 378q0 47 21 81l153 253l17 -11l-130 -205q41 31 85 31q61 0 104 -44t43 -105t-43 -104.5t-104 -43.5t-103.5 43.5t-42.5 104.5zM71 378q0 -52 37.5 -91t88.5 -39q53 0 90 39t37 91q0 53 -37 92t-90 39q-51 0 -88.5 -39t-37.5 -92z" />
    <glyph glyph-name="sevensuperior" unicode="&#x2077;" 
d="M335 700l4 -7l-197 -463l-19 6l192 446h-241v18h261z" />
    <glyph glyph-name="eightsuperior" unicode="&#x2078;" 
d="M107 285q38 -37 88 -37t87.5 37t37.5 88t-37 88.5t-88 37.5t-88 -37.5t-37 -88.5t37 -88zM132 543q26 -26 63 -26t63 26t26 63t-26 62.5t-63 25.5t-63 -25.5t-26 -62.5t26 -63zM50 373q0 49 29 86t76 50q-31 11 -50 37.5t-19 59.5q0 43 32.5 74.5t76.5 31.5t76.5 -31.5
t32.5 -74.5q0 -33 -19 -59.5t-50 -37.5q47 -13 76 -50t29 -86q0 -60 -43.5 -101.5t-101.5 -41.5t-101.5 41.5t-43.5 101.5z" />
    <glyph glyph-name="ninesuperior" unicode="&#x2079;" 
d="M339 564q0 -47 -21 -81l-153 -253l-17 11l130 205q-41 -31 -85 -31q-61 0 -104 44t-43 105t43 104.5t104 43.5t103.5 -43.5t42.5 -104.5zM319 564q0 52 -37.5 91t-88.5 39q-53 0 -90 -39t-37 -91q0 -53 37 -92t90 -39q51 0 88.5 39t37.5 92z" />
    <glyph glyph-name="uni207A" unicode="&#x207a;" 
d="M185 320v143h-147v18h147v143h20v-143h148v-18h-148v-143h-20z" />
    <glyph glyph-name="uni207B" unicode="&#x207b;" 
d="M353 463h-315v18h315v-18z" />
    <glyph glyph-name="uni207C" unicode="&#x207c;" 
d="M353 403h-315v18h315v-18zM353 522h-315v18h315v-18z" />
    <glyph glyph-name="uni207D" unicode="&#x207d;" 
d="M160 470q0 153 77 287l14 -8q-71 -138 -71 -279q0 -142 71 -280l-14 -8q-77 134 -77 288z" />
    <glyph glyph-name="uni207E" unicode="&#x207e;" 
d="M230 470q0 -154 -77 -288l-14 8q71 138 71 280q0 141 -71 279l14 8q77 -134 77 -287z" />
    <glyph glyph-name="uni207F" unicode="&#x207f;" 
d="M281 238v199q0 51 -25.5 83t-70.5 32q-44 0 -70.5 -33t-26.5 -82v-199h-20v324h20v-52q33 60 101 60q46 0 79 -33.5t33 -93.5v-205h-20z" />
    <glyph glyph-name="zeroinferior" unicode="&#x2080;" 
d="M285 -51q31 62 31 160t-31 160.5t-90 62.5t-90 -62.5t-31 -160.5t31 -160.5t90 -62.5t90 63zM91 -63q-37 69 -37 172t37 172t104 69t104 -69t37 -172t-37 -172t-104 -69t-104 69z" />
    <glyph glyph-name="oneinferior" unicode="&#x2081;" 
d="M225 350l12 -2v-468h-20v443l-123 -74l-9 15z" />
    <glyph glyph-name="twoinferior" unicode="&#x2082;" 
d="M66 -120l-5 9l169 210q63 77 63 133q0 46 -29 74t-80 28q-52 0 -100 -68l-15 9q51 75 117 75q61 0 93.5 -34t32.5 -85q0 -58 -65 -139l-157 -195h230v-17h-254z" />
    <glyph glyph-name="threeinferior" unicode="&#x2083;" 
d="M161 136l-3 11l113 173h-196v18h220l2 -10l-115 -178q69 -14 103 -53t34 -90q0 -55 -38 -97t-108 -42q-80 0 -129 71l15 12q22 -32 54 -48.5t61 -16.5q55 0 90 35t35 88q0 51 -36 84.5t-102 42.5z" />
    <glyph glyph-name="fourinferior" unicode="&#x2084;" 
d="M37 -20l-4 8l249 362l11 -1v-351h57v-18h-57v-100h-20v100h-236zM62 -2h211v310z" />
    <glyph glyph-name="fiveinferior" unicode="&#x2085;" 
d="M108 128l-7 6l31 204h181v-18h-166l-26 -169q26 10 58 10q64 0 108 -41.5t44 -102.5t-39 -105t-107 -44q-82 0 -130 72l14 11q43 -65 112 -65q64 0 97 40.5t33 89.5q0 53 -37.5 90t-101.5 37q-33 0 -64 -15z" />
    <glyph glyph-name="sixinferior" unicode="&#x2086;" 
d="M51 16q0 47 21 81l153 253l17 -11l-130 -205q41 31 85 31q61 0 104 -44t43 -105t-43 -104.5t-104 -43.5t-103.5 43.5t-42.5 104.5zM71 16q0 -52 37.5 -91t88.5 -39q53 0 90 39t37 91q0 53 -37 92t-90 39q-51 0 -88.5 -39t-37.5 -92z" />
    <glyph glyph-name="seveninferior" unicode="&#x2087;" 
d="M335 338l4 -7l-197 -463l-19 6l192 446h-241v18h261z" />
    <glyph glyph-name="eightinferior" unicode="&#x2088;" 
d="M107 -77q38 -37 88 -37t87.5 37t37.5 88t-37 88.5t-88 37.5t-88 -37.5t-37 -88.5t37 -88zM132 181q26 -26 63 -26t63 26t26 63t-26 62.5t-63 25.5t-63 -25.5t-26 -62.5t26 -63zM50 11q0 49 29 86t76 50q-31 11 -50 37.5t-19 59.5q0 43 32.5 74.5t76.5 31.5t76.5 -31.5
t32.5 -74.5q0 -33 -19 -59.5t-50 -37.5q47 -13 76 -50t29 -86q0 -60 -43.5 -101.5t-101.5 -41.5t-101.5 41.5t-43.5 101.5z" />
    <glyph glyph-name="nineinferior" unicode="&#x2089;" 
d="M330 202q0 -47 -21 -81l-153 -253l-17 11l130 205q-41 -31 -85 -31q-61 0 -104 44t-43 105t43 104.5t104 43.5t103.5 -43.5t42.5 -104.5zM310 202q0 52 -37.5 91t-88.5 39q-53 0 -90 -39t-37 -91q0 -53 37 -92t90 -39q51 0 88.5 39t37.5 92z" />
    <glyph glyph-name="uni208A" unicode="&#x208a;" 
d="M185 -42v143h-147v18h147v143h20v-143h148v-18h-148v-143h-20z" />
    <glyph glyph-name="uni208B" unicode="&#x208b;" 
d="M353 101h-315v18h315v-18z" />
    <glyph glyph-name="uni208C" unicode="&#x208c;" 
d="M353 41h-315v18h315v-18zM353 160h-315v18h315v-18z" />
    <glyph glyph-name="uni208D" unicode="&#x208d;" 
d="M160 108q0 153 77 287l14 -8q-71 -138 -71 -279q0 -142 71 -280l-14 -8q-77 134 -77 288z" />
    <glyph glyph-name="uni208E" unicode="&#x208e;" 
d="M230 108q0 -154 -77 -288l-14 8q71 138 71 280q0 141 -71 279l14 8q77 -134 77 -287z" />
    <glyph glyph-name="uni2090" unicode="&#x2090;" 
d="M342 190v-308h-20v82q-20 -42 -59.5 -66t-85.5 -24q-66 0 -115 47.5t-49 114.5t49 114.5t115 47.5q46 0 85.5 -24t59.5 -66v82h20zM321 36q0 59 -42.5 101.5t-101.5 42.5t-101.5 -42.5t-42.5 -101.5q0 -60 42 -102t102 -42t102 42t42 102z" />
    <glyph glyph-name="uni2091" unicode="&#x2091;" 
d="M191 179q-56 0 -94 -36t-44 -91h275q-6 53 -44 90t-93 37zM349 34h-297q0 -60 42.5 -102t102.5 -42q74 0 120 63l13 -10q-50 -71 -133 -71q-68 0 -116 47t-48 115q0 69 45 116t113 47q67 0 111.5 -46.5t46.5 -116.5z" />
    <glyph glyph-name="uni2092" unicode="&#x2092;" 
d="M297 -67q42 42 42 102t-42.5 102.5t-101.5 42.5t-101.5 -42.5t-42.5 -102.5t42 -102t102 -42t102 42zM31 35q0 68 49 115.5t115 47.5t115 -47.5t49 -115.5q0 -67 -49 -114.5t-115 -47.5t-115 47.5t-49 114.5z" />
    <glyph glyph-name="uni2093" unicode="&#x2093;" 
d="M183 47l-108 145l14 11l106 -141l106 141l14 -11l-109 -145l119 -157l-16 -11l-114 152l-114 -152l-16 11z" />
    <glyph glyph-name="uni2094" unicode="&#x2094;" 
d="M199 -110q55 0 93.5 36.5t44.5 90.5h-275q6 -54 43.5 -90.5t93.5 -36.5zM41 35h297q0 59 -42.5 101.5t-102.5 42.5q-74 0 -120 -63l-13 10q50 71 133 71q68 0 116 -47t48 -115q0 -69 -45 -116t-113 -47q-67 0 -111.5 46.5t-46.5 116.5z" />
    <glyph glyph-name="uni20A0" unicode="&#x20a0;" horiz-adv-x="774" 
d="M312 712q76 0 143 -46l-12 -16q-60 44 -131 44q-98 0 -164.5 -67t-66.5 -163t66.5 -163t164.5 -67q66 0 130 43v213h256v-18h-236v-194h207v-18h-207v-242h248v-18h-268v253q-63 -37 -130 -37q-103 0 -177 73t-74 175t74 175t177 73z" />
    <glyph glyph-name="colonmonetary" unicode="&#x20a1;" horiz-adv-x="720" 
d="M573 788l18 -5l-29 -98q56 -22 108 -67l-14 -13q-45 41 -99 63l-194 -657q33 -5 62 -5q134 0 231 89l14 -13q-102 -94 -245 -94q-34 0 -67 6l-19 -63l-18 5l18 62q-58 13 -112 47l-34 -114l-18 5l35 121q-70 50 -109 126t-39 167q0 147 99.5 250t242.5 111l23 77l18 -5
l-21 -71q62 0 120 -20zM82 350q0 -172 134 -274l183 617q-134 -10 -225.5 -107t-91.5 -236zM425 694h-7l-186 -630q55 -36 112 -49l195 659q-57 20 -114 20z" />
    <glyph glyph-name="uni20A2" unicode="&#x20a2;" horiz-adv-x="720" 
d="M581 455l-6 -20q-36 17 -72 17q-60 0 -100.5 -56t-40.5 -129v-255q30 -6 63 -6q134 0 231 89l14 -13q-102 -94 -245 -94q-151 0 -257 104.5t-106 257.5t106 257.5t257 104.5q143 0 245 -94l-14 -13q-97 89 -231 89q-142 0 -242.5 -99.5t-100.5 -244.5q0 -122 73.5 -214.5
t186.5 -119.5v442h20v-97q49 109 147 109q35 0 72 -15z" />
    <glyph glyph-name="franc" unicode="&#x20a3;" horiz-adv-x="417" 
d="M112 0h-20v217h-56v18h56v465h288v-18h-268v-288h240v-18h-240v-141h205v-18h-205v-217z" />
    <glyph glyph-name="lira" unicode="&#x20a4;" horiz-adv-x="590" 
d="M84 267v18h120v122h-120v18h120v104q0 80 43.5 131.5t124.5 51.5t139 -68l-15 -13q-53 63 -124 63q-72 0 -110 -47.5t-38 -119.5v-102h176v-18h-176v-122h176v-18h-176v-9q0 -129 -68 -240h372v-18h-396l-6 12q78 108 78 244v11h-120z" />
    <glyph glyph-name="uni20A6" unicode="&#x20a6;" horiz-adv-x="702" 
d="M25 271v18h65v122h-65v18h65v278l11 5l205 -283h286v271h20v-271h65v-18h-65v-122h65v-18h-65v-278l-11 -5l-206 283h-285v-271h-20v271h-65zM319 411l88 -122h185v122h-273zM110 411v-122h272l-88 122h-184zM420 271l172 -236v236h-172zM281 429l-171 236v-236h171z" />
    <glyph glyph-name="peseta" unicode="&#x20a7;" horiz-adv-x="1027" 
d="M119 334h105q93 0 148.5 48t55.5 126t-55.5 126t-148.5 48h-105v-348zM119 316v-316h-20v700h127q102 0 162 -54.5t60 -137.5t-60 -137.5t-162 -54.5h-107zM468 450v18h90v132h20v-132h137v-18h-137v-450h-20v450h-90zM828 6q56 0 89.5 33t33.5 80t-29 77.5t-98 58.5
q-111 47 -111 121q0 47 31.5 75.5t78.5 28.5q68 0 101 -49l-14 -11q-33 42 -87 42q-37 0 -63.5 -22.5t-26.5 -60.5t27 -63.5t90 -51.5q121 -49 121 -143q0 -57 -38 -95t-105 -38q-91 0 -139 86l14 11q48 -79 125 -79z" />
    <glyph glyph-name="uni20A8" unicode="&#x20a8;" horiz-adv-x="841" 
d="M159 351l4 10q69 3 118 18.5t73.5 40t35 50t10.5 54.5q0 69 -52.5 113.5t-147.5 44.5h-81v-682h-20v700h107q98 0 156 -48.5t58 -128.5q0 -27 -8.5 -52t-31 -53t-71.5 -47.5t-120 -25.5l305 -346l-17 -11zM642 6q56 0 89.5 33t33.5 80t-29 77.5t-98 58.5
q-111 47 -111 121q0 47 31.5 75.5t78.5 28.5q68 0 101 -49l-14 -11q-33 42 -87 42q-37 0 -63.5 -22.5t-26.5 -60.5t27 -63.5t90 -51.5q121 -49 121 -143q0 -57 -38 -95t-105 -38q-91 0 -139 86l14 11q48 -79 125 -79z" />
    <glyph glyph-name="uni20A9" unicode="&#x20a9;" horiz-adv-x="960" 
d="M18 267v18h143l-41 122h-102v18h96l-95 282l20 5l96 -287h250l90 287h10l89 -287h251l96 287l20 -5l-95 -282h96v-18h-102l-41 -122h143v-18h-149l-94 -279h-10l-88 279h-243l-87 -279h-10l-94 279h-149zM141 407l41 -122h160l38 122h-239zM580 407l38 -122h160l41 122
h-239zM402 407l-38 -122h232l-38 122h-156zM188 267l77 -230l71 230h-148zM623 267l72 -230l77 230h-149zM480 657l-73 -232h145z" />
    <glyph glyph-name="afii57636" unicode="&#x20aa;" horiz-adv-x="866" 
d="M99 0v700h196q121 0 193.5 -84.5t72.5 -218.5v-135h-20v126q0 133 -66 213.5t-183 80.5h-173v-682h-20zM767 700v-700h-196q-121 0 -193.5 84.5t-72.5 218.5v135h20v-126q0 -133 66 -213.5t183 -80.5h173v682h20z" />
    <glyph glyph-name="dong" unicode="&#x20ab;" horiz-adv-x="643" 
d="M307 480q75 0 139 -42t92 -110v292h-294v18h294v112h20v-112h63v-18h-63v-620h-20v140q-27 -69 -91.5 -110.5t-139.5 -41.5q-101 0 -176 71.5t-75 174.5t75 174.5t176 71.5zM145 -128v18h393v-18h-393zM469 72q69 67 69 162t-68.5 161.5t-162.5 66.5t-162.5 -66.5
t-68.5 -161.5t68.5 -161.5t162.5 -66.5t162 66z" />
    <glyph glyph-name="Euro" unicode="&#x20ac;" horiz-adv-x="626" 
d="M16 417v18h60q20 125 98.5 201t197.5 76q125 0 205 -104l-13 -12q-76 98 -192 98q-111 0 -183 -70.5t-93 -188.5h338v-18h-341q-4 -31 -4 -67q0 -37 4 -65h341v-18h-338q21 -118 93 -189.5t183 -71.5q116 0 192 98l13 -12q-80 -104 -205 -104q-120 0 -198 76.5t-99 202.5
h-59v18h57q-4 28 -4 65q0 36 4 67h-57z" />
    <glyph glyph-name="uni2116" unicode="&#x2116;" horiz-adv-x="1040" 
d="M982 290v-18h-298v18h298zM554 -12l-435 685v-673h-20v706l16 6l435 -685v673h20v-706zM932 449q39 40 39 101t-39 100.5t-99 39.5t-99 -39.5t-39 -100.5t39 -100.5t99 -39.5t99 39zM833 708q68 0 113 -45.5t45 -112.5t-45 -112.5t-113 -45.5q-69 0 -113.5 45.5
t-44.5 112.5t44.5 112.5t113.5 45.5z" />
    <glyph glyph-name="trademark" unicode="&#x2122;" horiz-adv-x="652" 
d="M41 678v18h197v-18h-89v-315h-20v315h-88zM433 363h-10l-90 290l-68 -297l-20 3l81 337h10l92 -282l92 282h10l81 -337l-20 -3l-68 297z" />
    <glyph glyph-name="onethird" unicode="&#x2153;" horiz-adv-x="950" 
d="M710 263l-3 11l113 173h-196v18h220l2 -10l-115 -178q69 -14 103 -53t34 -90q0 -55 -38 -97t-108 -42q-80 0 -129 71l15 12q22 -32 54 -48.5t61 -16.5q55 0 90 35t35 88q0 51 -36 84.5t-102 42.5zM225 712l12 -2v-468h-20v443l-123 -74l-9 15zM633 703l18 -9l-374 -709
l-18 9z" />
    <glyph glyph-name="twothirds" unicode="&#x2154;" horiz-adv-x="950" 
d="M710 263l-3 11l113 173h-196v18h220l2 -10l-115 -178q69 -14 103 -53t34 -90q0 -55 -38 -97t-108 -42q-80 0 -129 71l15 12q22 -32 54 -48.5t61 -16.5q55 0 90 35t35 88q0 51 -36 84.5t-102 42.5zM66 242l-5 9l169 210q63 77 63 133q0 46 -29 74t-80 28q-52 0 -100 -68
l-15 9q51 75 117 75q61 0 93.5 -34t32.5 -85q0 -58 -65 -139l-157 -195h230v-17h-254zM633 703l18 -9l-374 -709l-18 9z" />
    <glyph glyph-name="onefifth" unicode="&#x2155;" horiz-adv-x="950" 
d="M652 254l-7 6l31 204h181v-18h-166l-26 -169q26 10 58 10q64 0 108 -41.5t44 -102.5t-39 -105t-107 -44q-82 0 -130 72l14 11q43 -65 112 -65q64 0 97 40.5t33 89.5q0 53 -37.5 90t-101.5 37q-33 0 -64 -15zM225 712l12 -2v-468h-20v443l-123 -74l-9 15zM633 703l18 -9
l-374 -709l-18 9z" />
    <glyph glyph-name="twofifths" unicode="&#x2156;" horiz-adv-x="950" 
d="M652 254l-7 6l31 204h181v-18h-166l-26 -169q26 10 58 10q64 0 108 -41.5t44 -102.5t-39 -105t-107 -44q-82 0 -130 72l14 11q43 -65 112 -65q64 0 97 40.5t33 89.5q0 53 -37.5 90t-101.5 37q-33 0 -64 -15zM66 242l-5 9l169 210q63 77 63 133q0 46 -29 74t-80 28
q-52 0 -100 -68l-15 9q51 75 117 75q61 0 93.5 -34t32.5 -85q0 -58 -65 -139l-157 -195h230v-17h-254zM633 703l18 -9l-374 -709l-18 9z" />
    <glyph glyph-name="threefifths" unicode="&#x2157;" horiz-adv-x="950" 
d="M161 498l-3 11l113 173h-196v18h220l2 -10l-115 -178q69 -14 103 -53t34 -90q0 -55 -38 -97t-108 -42q-80 0 -129 71l15 12q22 -32 54 -48.5t61 -16.5q55 0 90 35t35 88q0 51 -36 84.5t-102 42.5zM652 254l-7 6l31 204h181v-18h-166l-26 -169q26 10 58 10q64 0 108 -41.5
t44 -102.5t-39 -105t-107 -44q-82 0 -130 72l14 11q43 -65 112 -65q64 0 97 40.5t33 89.5q0 53 -37.5 90t-101.5 37q-33 0 -64 -15zM633 703l18 -9l-374 -709l-18 9z" />
    <glyph glyph-name="fourfifths" unicode="&#x2158;" horiz-adv-x="950" 
d="M652 254l-7 6l31 204h181v-18h-166l-26 -169q26 10 58 10q64 0 108 -41.5t44 -102.5t-39 -105t-107 -44q-82 0 -130 72l14 11q43 -65 112 -65q64 0 97 40.5t33 89.5q0 53 -37.5 90t-101.5 37q-33 0 -64 -15zM37 342l-4 8l249 362l11 -1v-351h57v-18h-57v-100h-20v100
h-236zM62 360h211v310zM633 703l18 -9l-374 -709l-18 9z" />
    <glyph glyph-name="onesixth" unicode="&#x2159;" horiz-adv-x="950" 
d="M571 143q0 47 21 81l153 253l17 -11l-130 -205q41 31 85 31q61 0 104 -44t43 -105t-43 -104.5t-104 -43.5t-103.5 43.5t-42.5 104.5zM591 143q0 -52 37.5 -91t88.5 -39q53 0 90 39t37 91q0 53 -37 92t-90 39q-51 0 -88.5 -39t-37.5 -92zM225 712l12 -2v-468h-20v443
l-123 -74l-9 15zM633 703l18 -9l-374 -709l-18 9z" />
    <glyph glyph-name="fivesixths" unicode="&#x215a;" horiz-adv-x="950" 
d="M571 143q0 47 21 81l153 253l17 -11l-130 -205q41 31 85 31q61 0 104 -44t43 -105t-43 -104.5t-104 -43.5t-103.5 43.5t-42.5 104.5zM591 143q0 -52 37.5 -91t88.5 -39q53 0 90 39t37 91q0 53 -37 92t-90 39q-51 0 -88.5 -39t-37.5 -92zM108 490l-7 6l31 204h181v-18
h-166l-26 -169q26 10 58 10q64 0 108 -41.5t44 -102.5t-39 -105t-107 -44q-82 0 -130 72l14 11q43 -65 112 -65q64 0 97 40.5t33 89.5q0 53 -37.5 90t-101.5 37q-33 0 -64 -15zM633 703l18 -9l-374 -709l-18 9z" />
    <glyph glyph-name="oneeighth" unicode="&#x215b;" horiz-adv-x="950" 
d="M857 138q0 52 -37.5 89t-87.5 37t-87.5 -37t-37.5 -89q0 -51 37.5 -88t87.5 -37t87.5 37t37.5 88zM669 308q26 -26 63 -26t63 26t26 63t-26 62.5t-63 25.5t-63 -25.5t-26 -62.5t26 -63zM587 138q0 49 29 86t76 50q-31 11 -50 37.5t-19 59.5q0 43 32.5 74.5t76.5 31.5
t76.5 -31.5t32.5 -74.5q0 -33 -19 -59.5t-50 -37.5q47 -13 76 -50t29 -86q0 -60 -43.5 -101.5t-101.5 -41.5t-101.5 41.5t-43.5 101.5zM225 712l12 -2v-468h-20v443l-123 -74l-9 15zM633 703l18 -9l-374 -709l-18 9z" />
    <glyph glyph-name="threeeighths" unicode="&#x215c;" horiz-adv-x="950" 
d="M857 138q0 52 -37.5 89t-87.5 37t-87.5 -37t-37.5 -89q0 -51 37.5 -88t87.5 -37t87.5 37t37.5 88zM669 308q26 -26 63 -26t63 26t26 63t-26 62.5t-63 25.5t-63 -25.5t-26 -62.5t26 -63zM587 138q0 49 29 86t76 50q-31 11 -50 37.5t-19 59.5q0 43 32.5 74.5t76.5 31.5
t76.5 -31.5t32.5 -74.5q0 -33 -19 -59.5t-50 -37.5q47 -13 76 -50t29 -86q0 -60 -43.5 -101.5t-101.5 -41.5t-101.5 41.5t-43.5 101.5zM161 498l-3 11l113 173h-196v18h220l2 -10l-115 -178q69 -14 103 -53t34 -90q0 -55 -38 -97t-108 -42q-80 0 -129 71l15 12
q22 -32 54 -48.5t61 -16.5q55 0 90 35t35 88q0 51 -36 84.5t-102 42.5zM633 703l18 -9l-374 -709l-18 9z" />
    <glyph glyph-name="fiveeighths" unicode="&#x215d;" horiz-adv-x="950" 
d="M857 138q0 52 -37.5 89t-87.5 37t-87.5 -37t-37.5 -89q0 -51 37.5 -88t87.5 -37t87.5 37t37.5 88zM669 308q26 -26 63 -26t63 26t26 63t-26 62.5t-63 25.5t-63 -25.5t-26 -62.5t26 -63zM587 138q0 49 29 86t76 50q-31 11 -50 37.5t-19 59.5q0 43 32.5 74.5t76.5 31.5
t76.5 -31.5t32.5 -74.5q0 -33 -19 -59.5t-50 -37.5q47 -13 76 -50t29 -86q0 -60 -43.5 -101.5t-101.5 -41.5t-101.5 41.5t-43.5 101.5zM108 490l-7 6l31 204h181v-18h-166l-26 -169q26 10 58 10q64 0 108 -41.5t44 -102.5t-39 -105t-107 -44q-82 0 -130 72l14 11
q43 -65 112 -65q64 0 97 40.5t33 89.5q0 53 -37.5 90t-101.5 37q-33 0 -64 -15zM633 703l18 -9l-374 -709l-18 9z" />
    <glyph glyph-name="seveneighths" unicode="&#x215e;" horiz-adv-x="950" 
d="M857 138q0 52 -37.5 89t-87.5 37t-87.5 -37t-37.5 -89q0 -51 37.5 -88t87.5 -37t87.5 37t37.5 88zM669 308q26 -26 63 -26t63 26t26 63t-26 62.5t-63 25.5t-63 -25.5t-26 -62.5t26 -63zM587 138q0 49 29 86t76 50q-31 11 -50 37.5t-19 59.5q0 43 32.5 74.5t76.5 31.5
t76.5 -31.5t32.5 -74.5q0 -33 -19 -59.5t-50 -37.5q47 -13 76 -50t29 -86q0 -60 -43.5 -101.5t-101.5 -41.5t-101.5 41.5t-43.5 101.5zM633 703l18 -9l-374 -709l-18 9zM335 700l4 -7l-197 -463l-19 6l192 446h-241v18h261z" />
    <glyph glyph-name="uni215F" unicode="&#x215f;" horiz-adv-x="950" 
d="M225 712l12 -2v-468h-20v443l-123 -74l-9 15zM633 703l18 -9l-374 -709l-18 9z" />
    <glyph glyph-name="partialdiff" unicode="&#x2202;" horiz-adv-x="612" 
d="M306 480q63 0 117 -27.5t89 -74.5q-74 192 -337 334l10 18q371 -209 371 -496q0 -106 -71 -176t-179 -70t-179 70t-71 176t71 176t179 70zM536 234q0 98 -67 163t-163 65q-98 0 -164 -64t-66 -164t66 -164t164 -64t164 64t66 164z" />
    <glyph glyph-name="Delta" unicode="&#x2206;" horiz-adv-x="690" 
d="M57 18h576l-288 661zM651 0h-612l-6 8l307 704h10l307 -704z" />
    <glyph glyph-name="product" unicode="&#x220f;" horiz-adv-x="687" 
d="M588 740v-851h-20v833h-449v-833h-20v851h489z" />
    <glyph glyph-name="summation" unicode="&#x2211;" horiz-adv-x="562" 
d="M360 334l-284 -427h449v-18h-476l-3 10l295 440l-295 391l3 10h476v-18h-449l284 -377v-11z" />
    <glyph glyph-name="minus" unicode="&#x2212;" horiz-adv-x="618" 
d="M528 323h-438v18h438v-18z" />
    <glyph glyph-name="uni2215" unicode="&#x2215;" horiz-adv-x="444" 
d="M406 715l18 -10l-386 -721l-18 10z" />
    <glyph glyph-name="uni2219" unicode="&#x2219;" horiz-adv-x="290" 
d="M145 273q-25 0 -25 25t25 25t25 -25t-25 -25z" />
    <glyph glyph-name="radical" unicode="&#x221a;" horiz-adv-x="742" 
d="M383 0h-10l-177 344h-72v18h84l166 -324l174 732h20z" />
    <glyph glyph-name="infinity" unicode="&#x221e;" horiz-adv-x="786" 
d="M202 454q-49 0 -83 -31.5t-34 -81.5t34 -81.5t83 -31.5q40 0 81.5 25t97.5 88q-95 113 -179 113zM393 329q-57 -65 -101.5 -92t-90.5 -27q-57 0 -96.5 39t-39.5 92t39.5 92t96.5 39q46 0 90.5 -27.5t101.5 -92.5q57 65 101.5 92.5t90.5 27.5q57 0 96.5 -39t39.5 -92
t-39.5 -92t-96.5 -39q-46 0 -90.5 27t-101.5 92zM584 454q-86 0 -179 -113q96 -113 179 -113q49 0 83 31.5t34 81.5t-34 81.5t-83 31.5z" />
    <glyph glyph-name="orthogonal" unicode="&#x221f;" horiz-adv-x="657" 
d="M628 18v-18h-504v575h20v-557h484z" />
    <glyph glyph-name="integral" unicode="&#x222b;" horiz-adv-x="560" 
d="M290 564v-599q0 -91 -38 -138t-106 -47q-57 0 -97 40l13 14q36 -36 84 -36q124 0 124 168v599q0 91 38 138t106 47q57 0 97 -40l-13 -14q-36 36 -84 36q-124 0 -124 -168z" />
    <glyph glyph-name="approxequal" unicode="&#x2248;" horiz-adv-x="618" 
d="M302 419q-34 31 -57 44t-54 13q-76 0 -102 -97l-20 6q31 109 122 109q32 0 59 -13.5t65 -46.5q27 -23 38 -31.5t31 -17t42 -8.5q76 0 102 97l20 -6q-31 -109 -122 -109q-33 0 -60 13.5t-64 46.5zM302 225q-34 31 -57 44t-54 13q-76 0 -102 -97l-20 6q31 109 122 109
q32 0 59 -13.5t65 -46.5q27 -23 38 -31.5t31 -17t42 -8.5q76 0 102 97l20 -6q-31 -109 -122 -109q-33 0 -60 13.5t-64 46.5z" />
    <glyph glyph-name="notequal" unicode="&#x2260;" horiz-adv-x="618" 
d="M481 623l17 -11l-102 -166h130v-18h-141l-117 -192h258v-18h-269l-120 -196l-17 11l113 185h-142v18h153l117 192h-270v18h281z" />
    <glyph glyph-name="lessequal" unicode="&#x2264;" horiz-adv-x="618" 
d="M91 390v10l427 224l8 -15l-412 -214l412 -214l-8 -15zM526 66h-435v18h435v-18z" />
    <glyph glyph-name="greaterequal" unicode="&#x2265;" horiz-adv-x="618" 
d="M526 400v-10l-427 -224l-8 15l412 214l-412 214l8 15zM526 66h-435v18h435v-18z" />
    <glyph glyph-name="lozenge" unicode="&#x25ca;" horiz-adv-x="586" 
d="M293 -157l-244 459l244 459l244 -459zM293 721l-222 -419l222 -419l222 419z" />
    <glyph glyph-name="H18533" unicode="&#x25cf;" horiz-adv-x="1000" 
d="M261 87q-99 99 -99 239t99 239t239 99t239 -99t99 -239t-99 -239t-239 -99t-239 99z" />
    <glyph glyph-name="s_t" unicode="&#xfb06;" horiz-adv-x="658" 
d="M476 0v589q0 72 -37.5 113t-99.5 41t-99.5 -41t-37.5 -113q0 -77 46 -130q17 -11 30 -28l-14 -11q-33 42 -87 42q-37 0 -63.5 -22.5t-26.5 -60.5t27 -63.5t90 -51.5q121 -50 121 -143q0 -57 -38 -95t-105 -38q-91 0 -139 86l14 11q48 -79 125 -79q56 0 89.5 33t33.5 80
t-29 77.5t-98 58.5q-111 47 -111 121q0 47 31.5 75.5t78.5 28.5q19 0 42 -7q-37 51 -37 118q0 78 44.5 124t112.5 46t112.5 -46t44.5 -124v-123h137v-18h-137v-450h-20z" />
    <glyph glyph-name="f_j" horiz-adv-x="561" 
d="M459 468v-566q0 -93 -34.5 -138.5t-106.5 -45.5q-73 0 -114 50l13 11q38 -43 101 -43q66 0 93.5 42t27.5 125v547h-298v-450h-20v450h-90v18h90v108q0 88 46.5 136.5t116.5 48.5q71 0 115 -47l-13 -14q-40 43 -102 43q-64 0 -103.5 -45.5t-39.5 -122.5v-107h318z" />
    <glyph glyph-name="zero.tnum" horiz-adv-x="626" 
d="M166 600q-48 -94 -48 -250t48 -250t147 -94t147 94t48 250t-48 250t-147 94t-147 -94zM313 712q72 0 121.5 -49.5t71.5 -129.5t22 -183t-22 -183t-71.5 -129.5t-121.5 -49.5q-73 0 -122.5 50t-71 129t-21.5 183t21.5 183t71 129t122.5 50z" />
    <glyph glyph-name="one.tnum" horiz-adv-x="448" 
d="M247 712l10 -3v-709h-20v683l-193 -120l-10 16z" />
    <glyph glyph-name="two.tnum" horiz-adv-x="539" 
d="M64 0l-7 10l260 317q52 63 76.5 111t24.5 95q0 72 -45 116.5t-119 44.5q-102 0 -167 -101l-16 11q74 108 185 108q86 0 134 -52t48 -128q0 -91 -99 -210l-252 -304h363v-18h-386z" />
    <glyph glyph-name="three.tnum" horiz-adv-x="549" 
d="M223 397l-4 8l181 277h-309v18h334l4 -8l-182 -280q107 -23 160 -81.5t53 -133.5q0 -85 -58 -147t-163 -62q-54 0 -106.5 26.5t-86.5 79.5l14 12q68 -100 180 -100q88 0 144 55t56 138q0 76 -58 130t-159 68z" />
    <glyph glyph-name="four.tnum" horiz-adv-x="585" 
d="M51 158l-6 8l383 546l10 -4v-532h91v-18h-91v-158h-20v158h-367zM77 176h341v485z" />
    <glyph glyph-name="five.tnum" horiz-adv-x="570" 
d="M135 384l-7 5l48 311h273v-18h-257l-42 -275q45 17 95 17q99 0 164.5 -59.5t65.5 -155.5t-58.5 -158.5t-162.5 -62.5q-122 0 -197 107l15 11q34 -49 81 -74.5t95 -25.5q103 0 155 60t52 141q0 88 -59 143.5t-162 55.5q-52 0 -99 -22z" />
    <glyph glyph-name="six.tnum" horiz-adv-x="643" 
d="M98 210q0 63 34 119l238 383l17 -11l-194 -309q55 41 129 41q92 0 158.5 -65.5t66.5 -157.5t-66 -157t-159 -65t-158.5 65t-65.5 157zM177 355q-59 -60 -59 -145t59.5 -144.5t144.5 -59.5t145 59.5t60 144.5t-60 145t-145 60t-145 -60z" />
    <glyph glyph-name="seven.tnum" horiz-adv-x="505" 
d="M447 700l3 -5l-301 -707l-19 7l295 687h-379v18h401z" />
    <glyph glyph-name="eight.tnum" horiz-adv-x="630" 
d="M151 554q0 65 48 111.5t116 46.5t116 -46.5t48 -111.5q0 -51 -30 -91.5t-78 -57.5q72 -18 117.5 -74.5t45.5 -130.5q0 -89 -63.5 -150.5t-155.5 -61.5t-155.5 61.5t-63.5 150.5q0 74 45 130.5t118 74.5q-48 17 -78 57.5t-30 91.5zM514 199q0 81 -58 138.5t-141 57.5
t-141 -57.5t-58 -138.5q0 -80 58 -136.5t141 -56.5t141 56.5t58 136.5zM171 554q0 -59 41.5 -100t102.5 -41q59 0 101.5 41.5t42.5 99.5t-42.5 99t-101.5 41q-60 0 -102 -41t-42 -99z" />
    <glyph glyph-name="nine.tnum" horiz-adv-x="643" 
d="M545 490q0 -63 -34 -119l-238 -383l-17 11l194 309q-55 -41 -129 -41q-92 0 -158.5 65.5t-66.5 157.5t66 157t159 65t158.5 -65t65.5 -157zM465 345q60 60 60 145t-59.5 144.5t-144.5 59.5t-145 -59.5t-60 -144.5t60 -145t145 -60t144 60z" />
    <glyph glyph-name="hyphen.case" horiz-adv-x="406" 
d="M60 359h286v-18h-286v18z" />
    <glyph glyph-name="parenleft.case" horiz-adv-x="340" 
d="M245 790l16 -10q-61 -110 -89 -211.5t-28 -218.5t28 -218.5t89 -211.5l-16 -10q-121 211 -121 440t121 440z" />
    <glyph glyph-name="parenright.case" horiz-adv-x="340" 
d="M95 -90l-16 10q61 110 89 211.5t28 218.5t-28 218.5t-89 211.5l16 10q121 -211 121 -440t-121 -440z" />
    <glyph glyph-name="bracketleft.case" horiz-adv-x="315" 
d="M146 -90v880h132v-18h-112v-844h112v-18h-132z" />
    <glyph glyph-name="bracketright.case" horiz-adv-x="315" 
d="M169 790v-880h-132v18h112v844h-112v18h132z" />
    <glyph glyph-name="braceleft.case" horiz-adv-x="381" 
d="M99 345v10q97 40 97 146v143q0 68 34 107t95 39h16v-18h-9q-116 0 -116 -133v-128q0 -116 -86 -161q86 -45 86 -161v-128q0 -133 116 -133h9v-18h-16q-61 0 -95 39t-34 107v143q0 106 -97 146z" />
    <glyph glyph-name="braceright.case" horiz-adv-x="381" 
d="M282 355v-10q-97 -40 -97 -146v-143q0 -68 -34 -107t-95 -39h-16v18h9q116 0 116 133v128q0 116 86 161q-86 45 -86 161v128q0 133 -116 133h-9v18h16q61 0 95 -39t34 -107v-143q0 -106 97 -146z" />
    <glyph glyph-name="at.case" horiz-adv-x="1002" 
d="M277 347q0 88 61 146.5t147 58.5q63 0 114 -32t76 -86v107h20v-275q0 -44 22 -71.5t59 -27.5q66 0 104 56t38 155q0 160 -119 275.5t-302 115.5q-175 0 -294 -122t-119 -294q0 -107 53.5 -203.5t153 -157.5t220.5 -61q142 0 259 70l8 -17q-117 -71 -267 -71
q-190 0 -318.5 132t-128.5 308q0 178 124 306t309 128q95 0 178.5 -34.5t140 -91.5t89.5 -131t33 -152q0 -102 -41.5 -165.5t-121.5 -63.5q-44 0 -71 31t-29 79q-25 -54 -76 -85.5t-114 -31.5q-86 0 -147 59t-61 146zM675 347q0 79 -55 133t-135 54q-79 0 -133.5 -54
t-54.5 -133q0 -78 54.5 -132t133.5 -54q80 0 135 54t55 132z" />
    <glyph glyph-name="guillemotleft.case" horiz-adv-x="588" 
d="M81 345v10l206 159l11 -15l-194 -149l194 -149l-11 -15zM289 345v10l206 159l11 -15l-194 -149l194 -149l-11 -15z" />
    <glyph glyph-name="guillemotright.case" horiz-adv-x="588" 
d="M507 355v-10l-206 -159l-11 15l194 149l-194 149l11 15zM299 355v-10l-206 -159l-11 15l194 149l-194 149l11 15z" />
    <glyph glyph-name="guilsinglleft.case" horiz-adv-x="380" 
d="M81 345v10l206 159l11 -15l-194 -149l194 -149l-11 -15z" />
    <glyph glyph-name="guilsinglright.case" horiz-adv-x="380" 
d="M299 355v-10l-206 -159l-11 15l194 149l-194 149l11 15z" />
    <glyph glyph-name="endash.case" horiz-adv-x="500" 
d="M500 341h-500v18h500v-18z" />
    <glyph glyph-name="emdash.case" horiz-adv-x="1000" 
d="M1000 341h-1000v18h1000v-18z" />
    <glyph glyph-name="periodcentered.case" horiz-adv-x="290" 
d="M145 293q-25 0 -25 25t25 25t25 -25t-25 -25z" />
    <glyph glyph-name="questiondown.case" horiz-adv-x="491" 
d="M179 488l-8 16q27 27 73 27q41 0 69 -27t28 -69q0 -34 -23.5 -64.5t-70.5 -49.5q-91 -37 -132.5 -80t-41.5 -102q0 -55 41 -94t119 -39q46 0 93.5 22t77.5 60l16 -13q-78 -87 -188 -87q-80 0 -129.5 42t-49.5 110q0 121 170 192q52 22 75 45.5t23 60.5q0 34 -23 54.5
t-57 20.5t-62 -25zM252 712q25 0 25 -25t-25 -25t-25 25t25 25z" />
    <glyph glyph-name="exclamdown.case" horiz-adv-x="290" 
d="M155 0h-20v531h20v-531zM145 712q25 0 25 -25t-25 -25t-25 25t25 25z" />
    <glyph glyph-name="bullet.case" horiz-adv-x="480" 
d="M169 279q-28 29 -28 71t28.5 70.5t70.5 28.5t70.5 -28.5t28.5 -70.5t-28.5 -70.5t-70.5 -28.5t-71 28z" />
    <glyph glyph-name="zero.p_osf" horiz-adv-x="488" 
d="M364 80q42 74 42 193t-41.5 193t-120.5 74t-120.5 -74t-41.5 -193t41.5 -193t120.5 -74t120 74zM108 68q-46 80 -46 205t46.5 205t135.5 80t135.5 -80t46.5 -205t-46.5 -205t-135.5 -80t-136 80z" />
    <glyph glyph-name="one.p_osf" horiz-adv-x="384" 
d="M224 558l11 -2v-556h-20v531l-176 -93l-9 15z" />
    <glyph glyph-name="two.p_osf" horiz-adv-x="448" 
d="M49 0l-5 10l214 245q45 52 66.5 88.5t21.5 71.5q0 57 -38.5 91t-102.5 34q-87 0 -152 -82l-16 11q68 89 169 89q74 0 117 -41.5t43 -102.5q0 -66 -86 -164l-204 -232h304v-18h-331z" />
    <glyph glyph-name="three.p_osf" horiz-adv-x="522" 
d="M233 257l-6 11l172 260h-293v18h316l5 -10l-174 -264q104 -23 153.5 -77t49.5 -125q0 -81 -55 -139.5t-154 -58.5q-117 0 -185 100l15 14q65 -96 171 -96q81 0 134.5 52t53.5 130q0 72 -54 121t-149 64z" />
    <glyph glyph-name="four.p_osf" horiz-adv-x="545" 
d="M61 34l-7 8l349 516l10 -4v-502h76v-18h-76v-150h-20v150h-332zM86 52h307v456z" />
    <glyph glyph-name="five.p_osf" horiz-adv-x="526" 
d="M137 247l-7 6l45 294h260v-18h-243l-42 -259q45 16 92 16q94 0 155.5 -56t61.5 -147q0 -92 -55 -151.5t-154 -59.5q-54 0 -104 26t-84 75l16 13q31 -46 76.5 -71t90.5 -25q96 0 145 57t49 134q0 83 -55.5 135t-152.5 52q-44 0 -94 -21z" />
    <glyph glyph-name="six.p_osf" horiz-adv-x="584" 
d="M81 202q0 61 34 115l229 369l17 -11l-190 -300q54 42 127 42q90 0 154 -63t64 -152t-64 -151.5t-154 -62.5t-153.5 62t-63.5 152zM101 202q0 -81 57.5 -138.5t139.5 -57.5t140 57.5t58 138.5q0 82 -58 139.5t-140 57.5t-139.5 -57.5t-57.5 -139.5z" />
    <glyph glyph-name="seven.p_osf" horiz-adv-x="452" 
d="M425 547l3 -5l-290 -682l-20 7l284 662h-365v18h388z" />
    <glyph glyph-name="eight.p_osf" horiz-adv-x="551" 
d="M67 189q0 71 45 125t115 68q-49 15 -78.5 53.5t-29.5 88.5q0 61 46 105t110 44t110 -44t46 -105q0 -50 -29.5 -88.5t-78.5 -53.5q70 -14 115 -68t45 -125q0 -84 -60 -142.5t-148 -58.5t-148 58.5t-60 142.5zM275 373q-78 0 -133 -54.5t-55 -130.5q0 -75 55 -128.5
t133 -53.5q77 0 132.5 53.5t55.5 128.5t-55.5 130t-132.5 55zM411 524q0 54 -39.5 92.5t-96.5 38.5t-96.5 -38.5t-39.5 -92.5q0 -55 39.5 -94t96.5 -39t96.5 39t39.5 94z" />
    <glyph glyph-name="nine.p_osf" horiz-adv-x="584" 
d="M503 344q0 -61 -34 -115l-229 -369l-17 11l190 300q-54 -42 -127 -42q-90 0 -154 63t-64 152t64 151.5t154 62.5t153.5 -62t63.5 -152zM483 344q0 81 -57.5 138.5t-139.5 57.5t-140 -57.5t-58 -138.5q0 -82 58 -139.5t140 -57.5t139.5 57.5t57.5 139.5z" />
    <glyph glyph-name="zero.t_osf" horiz-adv-x="554" 
d="M397 80q42 74 42 193t-41.5 193t-120.5 74t-120.5 -74t-41.5 -193t41.5 -193t120.5 -74t120 74zM141 68q-46 80 -46 205t46.5 205t135.5 80t135.5 -80t46.5 -205t-46.5 -205t-135.5 -80t-136 80z" />
    <glyph glyph-name="one.t_osf" horiz-adv-x="554" 
d="M297 558l11 -2v-556h-20v531l-176 -93l-9 15z" />
    <glyph glyph-name="two.t_osf" horiz-adv-x="554" 
d="M113 0l-5 10l214 245q45 52 66.5 88.5t21.5 71.5q0 57 -38.5 91t-102.5 34q-87 0 -152 -82l-16 11q68 89 169 89q74 0 117 -41.5t43 -102.5q0 -66 -86 -164l-204 -232h304v-18h-331z" />
    <glyph glyph-name="three.t_osf" horiz-adv-x="554" 
d="M222 257l-6 11l172 260h-293v18h316l5 -10l-174 -264q104 -23 153.5 -77t49.5 -125q0 -81 -55 -139.5t-154 -58.5q-117 0 -185 100l15 14q65 -96 171 -96q81 0 134.5 52t53.5 130q0 72 -54 121t-149 64z" />
    <glyph glyph-name="four.t_osf" horiz-adv-x="554" 
d="M51 34l-7 8l349 516l10 -4v-502h76v-18h-76v-150h-20v150h-332zM76 52h307v456z" />
    <glyph glyph-name="five.t_osf" horiz-adv-x="554" 
d="M139 247l-7 6l45 294h260v-18h-243l-42 -259q45 16 92 16q94 0 155.5 -56t61.5 -147q0 -92 -55 -151.5t-154 -59.5q-54 0 -104 26t-84 75l16 13q31 -46 76.5 -71t90.5 -25q96 0 145 57t49 134q0 83 -55.5 135t-152.5 52q-44 0 -94 -21z" />
    <glyph glyph-name="six.t_osf" horiz-adv-x="554" 
d="M66 202q0 61 34 115l229 369l17 -11l-190 -300q54 42 127 42q90 0 154 -63t64 -152t-64 -151.5t-154 -62.5t-153.5 62t-63.5 152zM86 202q0 -81 57.5 -138.5t139.5 -57.5t140 57.5t58 138.5q0 82 -58 139.5t-140 57.5t-139.5 -57.5t-57.5 -139.5z" />
    <glyph glyph-name="seven.t_osf" horiz-adv-x="554" 
d="M461 547l3 -5l-290 -682l-20 7l284 662h-365v18h388z" />
    <glyph glyph-name="eight.t_osf" horiz-adv-x="554" 
d="M68 189q0 71 45 125t115 68q-49 15 -78.5 53.5t-29.5 88.5q0 61 46 105t110 44t110 -44t46 -105q0 -50 -29.5 -88.5t-78.5 -53.5q70 -14 115 -68t45 -125q0 -84 -60 -142.5t-148 -58.5t-148 58.5t-60 142.5zM276 373q-78 0 -133 -54.5t-55 -130.5q0 -75 55 -128.5
t133 -53.5q77 0 132.5 53.5t55.5 128.5t-55.5 130t-132.5 55zM412 524q0 54 -39.5 92.5t-96.5 38.5t-96.5 -38.5t-39.5 -92.5q0 -55 39.5 -94t96.5 -39t96.5 39t39.5 94z" />
    <glyph glyph-name="nine.t_osf" horiz-adv-x="554" 
d="M490 344q0 -61 -34 -115l-229 -369l-17 11l190 300q-54 -42 -127 -42q-90 0 -154 63t-64 152t64 151.5t154 62.5t153.5 -62t63.5 -152zM470 344q0 81 -57.5 138.5t-139.5 57.5t-140 -57.5t-58 -138.5q0 -82 58 -139.5t140 -57.5t139.5 57.5t57.5 139.5z" />
    <glyph glyph-name="dollar.osf" horiz-adv-x="454" 
d="M74 115l17 11q25 -40 62 -61.5t74 -21.5q56 0 94.5 36.5t38.5 86.5q0 52 -28.5 90t-101.5 66q-59 23 -88 55.5t-29 83.5q0 46 30 76.5t78 33.5v53h18v-53q58 -5 91 -49l-14 -11q-30 42 -86 42q-42 0 -69.5 -25t-27.5 -66q0 -42 26 -70.5t86 -52.5q71 -29 103 -70t32 -101
q0 -57 -36.5 -97t-99.5 -46v-51h-19v51q-100 2 -151 90z" />
    <glyph glyph-name="cent.osf" horiz-adv-x="523" 
d="M74 302q0 100 71.5 171t169.5 75v76h20v-76q81 -5 139 -49l-11 -14q-61 45 -138 45q-94 0 -162.5 -66.5t-68.5 -161.5t68.5 -161.5t162.5 -66.5q77 0 138 45l11 -14q-64 -49 -146 -49v-82h-20v82q-95 6 -164.5 77t-69.5 169z" />
    <glyph glyph-name="sterling.osf" horiz-adv-x="467" 
d="M62 270v18h83v148q0 67 39 109.5t111 42.5q69 0 120 -57l-12 -12q-47 51 -108 51q-64 0 -97 -37t-33 -98v-147h159v-18h-159v-56q0 -111 -57 -196h322v-18h-345l-6 11q66 83 66 201v58h-83z" />
    <glyph glyph-name="yen.osf" horiz-adv-x="546" 
d="M283 0h-20v146h-179v18h179v70h-179v18h169l-216 319l17 10l219 -324l219 324l17 -10l-217 -319h171v-18h-180v-70h180v-18h-180v-146z" />
    <glyph glyph-name="florin.osf" horiz-adv-x="480" 
d="M150 377v16h81v111q0 82 34 124.5t95 42.5q59 0 96 -45l-12 -11q-34 40 -84 40q-56 0 -83.5 -39.5t-27.5 -111.5v-111h144v-16h-144v-335q0 -82 -34 -124.5t-95 -42.5q-59 0 -96 45l12 11q34 -40 84 -40q56 0 83.5 39.5t27.5 111.5v335h-81z" />
    <glyph glyph-name="Euro.osf" horiz-adv-x="572" 
d="M62 341v18h57q16 103 80 166t159 63q105 0 165 -85l-13 -11q-56 78 -152 78q-86 0 -144.5 -57.5t-74.5 -153.5h270v-18h-272q-3 -25 -3 -53q0 -38 2 -49h273v-18h-270q14 -97 73.5 -156t145.5 -59q96 0 152 78l13 -11q-60 -85 -165 -85q-97 0 -160 63.5t-79 169.5h-57v18
h55q-3 24 -3 49q0 28 3 53h-55z" />
    <glyph glyph-name="zero.numerator" 
d="M285 311q31 62 31 160t-31 160.5t-90 62.5t-90 -62.5t-31 -160.5t31 -160.5t90 -62.5t90 63zM91 299q-37 69 -37 172t37 172t104 69t104 -69t37 -172t-37 -172t-104 -69t-104 69z" />
    <glyph glyph-name="one.numerator" 
d="M225 712l12 -2v-468h-20v443l-123 -74l-9 15z" />
    <glyph glyph-name="two.numerator" 
d="M66 242l-5 9l169 210q63 77 63 133q0 46 -29 74t-80 28q-52 0 -100 -68l-15 9q51 75 117 75q61 0 93.5 -34t32.5 -85q0 -58 -65 -139l-157 -195h230v-17h-254z" />
    <glyph glyph-name="three.numerator" 
d="M161 498l-3 11l113 173h-196v18h220l2 -10l-115 -178q69 -14 103 -53t34 -90q0 -55 -38 -97t-108 -42q-80 0 -129 71l15 12q22 -32 54 -48.5t61 -16.5q55 0 90 35t35 88q0 51 -36 84.5t-102 42.5z" />
    <glyph glyph-name="four.numerator" 
d="M37 342l-4 8l249 362l11 -1v-351h57v-18h-57v-100h-20v100h-236zM62 360h211v310z" />
    <glyph glyph-name="five.numerator" 
d="M108 490l-7 6l31 204h181v-18h-166l-26 -169q26 10 58 10q64 0 108 -41.5t44 -102.5t-39 -105t-107 -44q-82 0 -130 72l14 11q43 -65 112 -65q64 0 97 40.5t33 89.5q0 53 -37.5 90t-101.5 37q-33 0 -64 -15z" />
    <glyph glyph-name="six.numerator" 
d="M42 378q0 47 21 81l153 253l17 -11l-130 -205q41 31 85 31q61 0 104 -44t43 -105t-43 -104.5t-104 -43.5t-103.5 43.5t-42.5 104.5zM62 378q0 -52 37.5 -91t88.5 -39q53 0 90 39t37 91q0 53 -37 92t-90 39q-51 0 -88.5 -39t-37.5 -92z" />
    <glyph glyph-name="seven.numerator" 
d="M335 700l4 -7l-197 -463l-19 6l192 446h-241v18h261z" />
    <glyph glyph-name="eight.numerator" 
d="M107 285q38 -37 88 -37t87.5 37t37.5 88t-37 88.5t-88 37.5t-88 -37.5t-37 -88.5t37 -88zM132 543q26 -26 63 -26t63 26t26 63t-26 62.5t-63 25.5t-63 -25.5t-26 -62.5t26 -63zM50 373q0 49 29 86t76 50q-31 11 -50 37.5t-19 59.5q0 43 32.5 74.5t76.5 31.5t76.5 -31.5
t32.5 -74.5q0 -33 -19 -59.5t-50 -37.5q47 -13 76 -50t29 -86q0 -60 -43.5 -101.5t-101.5 -41.5t-101.5 41.5t-43.5 101.5z" />
    <glyph glyph-name="nine.numerator" 
d="M325 564q0 -47 -21 -81l-153 -253l-17 11l130 205q-41 -31 -85 -31q-61 0 -104 44t-43 105t43 104.5t104 43.5t103.5 -43.5t42.5 -104.5zM305 564q0 52 -37.5 91t-88.5 39q-53 0 -90 -39t-37 -91q0 -53 37 -92t90 -39q51 0 88.5 39t37.5 92z" />
    <glyph glyph-name="zero.denominator" 
d="M285 -51q31 62 31 160t-31 160.5t-90 62.5t-90 -62.5t-31 -160.5t31 -160.5t90 -62.5t90 63zM91 -63q-37 69 -37 172t37 172t104 69t104 -69t37 -172t-37 -172t-104 -69t-104 69z" />
    <glyph glyph-name="one.denominator" 
d="M225 350l12 -2v-468h-20v443l-123 -74l-9 15z" />
    <glyph glyph-name="two.denominator" 
d="M66 -120l-5 9l169 210q63 77 63 133q0 46 -29 74t-80 28q-52 0 -100 -68l-15 9q51 75 117 75q61 0 93.5 -34t32.5 -85q0 -58 -65 -139l-157 -195h230v-17h-254z" />
    <glyph glyph-name="three.denominator" 
d="M161 136l-3 11l113 173h-196v18h220l2 -10l-115 -178q69 -14 103 -53t34 -90q0 -55 -38 -97t-108 -42q-80 0 -129 71l15 12q22 -32 54 -48.5t61 -16.5q55 0 90 35t35 88q0 51 -36 84.5t-102 42.5z" />
    <glyph glyph-name="four.denominator" 
d="M37 -20l-4 8l249 362l11 -1v-351h57v-18h-57v-100h-20v100h-236zM62 -2h211v310z" />
    <glyph glyph-name="five.denominator" 
d="M108 128l-7 6l31 204h181v-18h-166l-26 -169q26 10 58 10q64 0 108 -41.5t44 -102.5t-39 -105t-107 -44q-82 0 -130 72l14 11q43 -65 112 -65q64 0 97 40.5t33 89.5q0 53 -37.5 90t-101.5 37q-33 0 -64 -15z" />
    <glyph glyph-name="six.denominator" 
d="M42 16q0 47 21 81l153 253l17 -11l-130 -205q41 31 85 31q61 0 104 -44t43 -105t-43 -104.5t-104 -43.5t-103.5 43.5t-42.5 104.5zM62 16q0 -52 37.5 -91t88.5 -39q53 0 90 39t37 91q0 53 -37 92t-90 39q-51 0 -88.5 -39t-37.5 -92z" />
    <glyph glyph-name="seven.denominator" 
d="M335 338l4 -7l-197 -463l-19 6l192 446h-241v18h261z" />
    <glyph glyph-name="eight.denominator" 
d="M107 -77q38 -37 88 -37t87.5 37t37.5 88t-37 88.5t-88 37.5t-88 -37.5t-37 -88.5t37 -88zM132 181q26 -26 63 -26t63 26t26 63t-26 62.5t-63 25.5t-63 -25.5t-26 -62.5t26 -63zM50 11q0 49 29 86t76 50q-31 11 -50 37.5t-19 59.5q0 43 32.5 74.5t76.5 31.5t76.5 -31.5
t32.5 -74.5q0 -33 -19 -59.5t-50 -37.5q47 -13 76 -50t29 -86q0 -60 -43.5 -101.5t-101.5 -41.5t-101.5 41.5t-43.5 101.5z" />
    <glyph glyph-name="nine.denominator" 
d="M330 202q0 -47 -21 -81l-153 -253l-17 11l130 205q-41 -31 -85 -31q-61 0 -104 44t-43 105t43 104.5t104 43.5t103.5 -43.5t42.5 -104.5zM310 202q0 52 -37.5 91t-88.5 39q-53 0 -90 -39t-37 -91q0 -53 37 -92t90 -39q51 0 88.5 39t37.5 92z" />
    <glyph glyph-name="commaaccent" horiz-adv-x="400" 
d="M222 -48l19 -6l-64 -195l-19 6z" />
    <glyph glyph-name="c_t" horiz-adv-x="765" 
d="M603 0h-20v589q0 72 -37.5 113t-99.5 41t-99.5 -41t-37.5 -113q0 -64 48 -115q56 -11 96 -43l-11 -14q-61 45 -138 45q-94 0 -161 -66t-67 -162t67 -162t161 -66q77 0 138 45l11 -14q-64 -49 -149 -49q-101 0 -174.5 71t-73.5 175t73.5 175t174.5 71q8 0 30 -2
q-45 45 -45 113q0 78 44.5 124t112.5 46t112.5 -46t44.5 -124v-123h137v-18h-137v-450z" />
    <glyph glyph-name="s_p" horiz-adv-x="1000" 
d="M696 -12q-75 0 -137.5 41.5t-90.5 110.5v-422h-20v872q0 71 -38 112t-99 41q-62 0 -99.5 -41t-37.5 -113q0 -67 51 -118q34 -12 53 -40l-14 -11q-33 42 -87 42q-37 0 -63.5 -22.5t-26.5 -60.5t27 -63.5t90 -51.5q121 -50 121 -143q0 -57 -38 -95t-105 -38q-91 0 -139 86
l14 11q48 -79 125 -79q56 0 89.5 33t33.5 80t-29 77.5t-98 58.5q-111 47 -111 121q0 47 31.5 75.5t78.5 28.5q8 0 22 -2q-45 45 -45 113q0 78 44.5 124t112.5 46t112.5 -46t44.5 -124v-263q28 70 90 111t138 41q101 0 174.5 -71t73.5 -175t-73.5 -175t-174.5 -71zM535 396
q-67 -66 -67 -162t67 -162t161 -66t161 66t67 162t-67 162t-161 66t-161 -66z" />
    <glyph glyph-name="f_t" horiz-adv-x="571" 
d="M31 450v18h90v108q0 91 38 138t106 47q57 0 97 -40l-13 -14q-36 36 -84 36q-124 0 -124 -168v-107h248v132h20v-132h137v-18h-137v-450h-20v450h-248v-450h-20v450h-90z" />
    <glyph glyph-name="f_b" horiz-adv-x="947" 
d="M395 711v39h20v-422q28 69 90.5 110.5t137.5 41.5q101 0 174.5 -71t73.5 -175t-73.5 -175t-174.5 -71q-76 0 -138 41t-90 111v-140h-20v688q-44 55 -115 55q-65 0 -102 -42.5t-37 -125.5v-107h160v-18h-160v-450h-20v450h-90v18h90v108q0 90 44.5 137.5t114.5 47.5
q72 0 115 -50zM482 396q-67 -66 -67 -162t67 -162t161 -66t161 66t67 162t-67 162t-161 66t-161 -66z" />
    <glyph glyph-name="t_t" horiz-adv-x="558" 
d="M31 450v18h90v132h20v-132h235v132h20v-132h137v-18h-137v-450h-20v450h-235v-450h-20v450h-90z" />
    <glyph glyph-name="f_k" horiz-adv-x="754" 
d="M395 711v39h20v-494l289 224l14 -13l-276 -211l312 -254l-13 -14l-326 268v-256h-20v688q-44 55 -115 55q-65 0 -102 -42.5t-37 -125.5v-107h160v-18h-160v-450h-20v450h-90v18h90v108q0 90 44.5 137.5t114.5 47.5q72 0 115 -50z" />
    <glyph glyph-name="f_h" horiz-adv-x="836" 
d="M395 711v39h20v-381q47 111 163 111q69 0 120 -52.5t51 -141.5v-286h-20v279q0 79 -42 131t-115 52t-115 -52t-42 -131v-279h-20v688q-44 55 -115 55q-65 0 -102 -42.5t-37 -125.5v-107h160v-18h-160v-450h-20v450h-90v18h90v108q0 90 44.5 137.5t114.5 47.5
q72 0 115 -50z" />
    <glyph glyph-name="f_f_h" horiz-adv-x="1132" 
d="M691 711v39h20v-381q47 111 163 111q69 0 120 -52.5t51 -141.5v-286h-20v279q0 79 -42 131t-115 52t-115 -52t-42 -131v-279h-20v688q-44 55 -115 55q-65 0 -102 -42.5t-37 -125.5v-107h160v-18h-160v-450h-20v450h-276v-450h-20v450h-90v18h90v93q0 93 38.5 139
t107.5 46q59 0 115 -39l-10 -16q-44 37 -105 37q-126 0 -126 -168v-92h276v108q0 90 44.5 137.5t114.5 47.5q72 0 115 -50z" />
    <glyph glyph-name="f_f_b" horiz-adv-x="1243" 
d="M691 711v39h20v-422q28 69 90.5 110.5t137.5 41.5q101 0 174.5 -71t73.5 -175t-73.5 -175t-174.5 -71q-76 0 -138 41t-90 111v-140h-20v688q-44 55 -115 55q-65 0 -102 -42.5t-37 -125.5v-107h160v-18h-160v-450h-20v450h-276v-450h-20v450h-90v18h90v93q0 93 38.5 139
t107.5 46q59 0 115 -39l-10 -16q-44 37 -105 37q-126 0 -126 -168v-92h276v108q0 90 44.5 137.5t114.5 47.5q72 0 115 -50zM778 396q-67 -66 -67 -162t67 -162t161 -66t161 66t67 162t-67 162t-161 66t-161 -66z" />
    <glyph glyph-name="f_iogonek" horiz-adv-x="545" 
d="M31 450v18h90v101q0 91 50.5 141.5t122.5 50.5q70 0 118 -46l-13 -14q-37 42 -105 42q-66 0 -109.5 -46t-43.5 -129v-100h315v-468h-4q-85 -61 -85 -127q0 -33 20.5 -53.5t52.5 -20.5q21 0 41 17l7 -16q-19 -19 -50 -19q-41 0 -66 26t-25 65q0 71 89 131v447h-295v-450
h-20v450h-90z" />
    <glyph glyph-name="f_f_k" horiz-adv-x="1050" 
d="M691 711v39h20v-494l289 224l14 -13l-276 -211l312 -254l-13 -14l-326 268v-256h-20v688q-44 55 -115 55q-65 0 -102 -42.5t-37 -125.5v-107h160v-18h-160v-450h-20v450h-276v-450h-20v450h-90v18h90v93q0 93 38.5 139t107.5 46q59 0 115 -39l-10 -16q-44 37 -105 37
q-126 0 -126 -168v-92h276v108q0 90 44.5 137.5t114.5 47.5q72 0 115 -50z" />
    <glyph glyph-name="f_f_j" horiz-adv-x="845" 
d="M141 560v-92h276v101q0 91 50.5 141.5t122.5 50.5q70 0 118 -46l-13 -14q-37 42 -105 42q-66 0 -109.5 -46t-43.5 -129v-100h315v-566q0 -93 -34.5 -138.5t-106.5 -45.5q-73 0 -114 50l13 11q38 -43 101 -43q66 0 93.5 42t27.5 125v547h-295v-450h-20v450h-276v-450h-20
v450h-90v18h90v93q0 93 38.5 139t107.5 46q59 0 115 -39l-10 -16q-44 37 -105 37q-126 0 -126 -168z" />
    <glyph glyph-name="f_t_t" horiz-adv-x="849" 
d="M141 575v-107h271v132h20v-132h235v132h20v-132h137v-18h-137v-450h-20v450h-235v-450h-20v450h-271v-450h-20v450h-90v18h90v108q0 91 38 138t106 47q57 0 97 -40l-13 -14q-36 36 -84 36q-124 0 -124 -168z" />
    <glyph glyph-name="f_f_t" horiz-adv-x="867" 
d="M141 450v-450h-20v450h-90v18h90v93q0 93 38.5 139t107.5 46q59 0 115 -39l-10 -16q-44 37 -105 37q-126 0 -126 -168v-92h276v108q0 91 38 138t106 47q57 0 97 -40l-13 -14q-36 36 -84 36q-124 0 -124 -168v-107h248v132h20v-132h137v-18h-137v-450h-20v450h-248v-450
h-20v450h-276z" />
    <glyph glyph-name="f_f_iogonek" horiz-adv-x="841" 
d="M417 0v450h-276v-450h-20v450h-90v18h90v93q0 93 38.5 139t107.5 46q59 0 115 -39l-10 -16q-44 37 -105 37q-126 0 -126 -168v-92h276v101q0 91 50.5 141.5t122.5 50.5q70 0 118 -46l-13 -14q-37 42 -105 42q-66 0 -109.5 -46t-43.5 -129v-100h315v-468q-85 -61 -85 -127
q0 -33 20.5 -53.5t52.5 -20.5q21 0 41 17l7 -16q-19 -19 -50 -19q-41 0 -66 26t-25 65q0 70 85 128v450h-295v-450h-20z" />
    <glyph glyph-name="f_f_kcommaaccent" horiz-adv-x="1050" 
d="M691 711v39h20v-494l289 224l14 -13l-276 -211l312 -254l-13 -14l-326 268v-256h-20v688q-44 55 -115 55q-65 0 -102 -42.5t-37 -125.5v-107h160v-18h-160v-450h-20v450h-276v-450h-20v450h-90v18h90v93q0 93 38.5 139t107.5 46q59 0 115 -39l-10 -16q-44 37 -105 37
q-126 0 -126 -168v-92h276v108q0 90 44.5 137.5t114.5 47.5q72 0 115 -50zM875 -73l19 -6l-64 -195l-19 6z" />
    <glyph glyph-name="f_lcaron" horiz-adv-x="582" 
d="M415 750v-750h-20v688q-44 55 -115 55q-65 0 -102 -42.5t-37 -125.5v-107h160v-18h-160v-450h-20v450h-90v18h90v108q0 90 44.5 137.5t114.5 47.5q72 0 115 -50v39h20zM552 742l19 -6l-75 -228l-19 6z" />
    <glyph glyph-name="f_lcommaaccent" horiz-adv-x="514" 
d="M415 750v-750h-20v688q-44 55 -115 55q-65 0 -102 -42.5t-37 -125.5v-107h160v-18h-160v-450h-20v450h-90v18h90v108q0 90 44.5 137.5t114.5 47.5q72 0 115 -50v39h20zM394 -73l19 -6l-64 -195l-19 6z" />
    <glyph glyph-name="f_f_lcommaaccent" horiz-adv-x="830" 
d="M711 750v-750h-20v688q-44 55 -115 55q-65 0 -102 -42.5t-37 -125.5v-107h160v-18h-160v-450h-20v450h-276v-450h-20v450h-90v18h90v93q0 93 38.5 139t107.5 46q59 0 115 -39l-10 -16q-44 37 -105 37q-126 0 -126 -168v-92h276v108q0 90 44.5 137.5t114.5 47.5
q72 0 115 -50v39h20zM690 -73l19 -6l-64 -195l-19 6z" />
    <glyph glyph-name="f_ldot" horiz-adv-x="621" 
d="M415 750v-750h-20v688q-44 55 -115 55q-65 0 -102 -42.5t-37 -125.5v-107h160v-18h-160v-450h-20v450h-90v18h90v108q0 90 44.5 137.5t114.5 47.5q72 0 115 -50v39h20zM559 364q-6 7 -6 16t6.5 15.5t15.5 6.5t15.5 -6.5t6.5 -15.5t-6.5 -15.5t-15.5 -6.5t-16 6z" />
    <glyph glyph-name="f_f_lslash" horiz-adv-x="863" 
d="M711 319v-319h-20v306l-123 -83l-10 15l133 90v360q-44 55 -115 55q-65 0 -102 -42.5t-37 -125.5v-107h160v-18h-160v-450h-20v450h-276v-450h-20v450h-90v18h90v93q0 93 38.5 139t107.5 46q59 0 115 -39l-10 -16q-44 37 -105 37q-126 0 -126 -168v-92h276v108
q0 90 44.5 137.5t114.5 47.5q72 0 115 -50v39h20v-409l137 93l10 -15z" />
    <glyph glyph-name="f_lslash" horiz-adv-x="567" 
d="M415 319v-319h-20v306l-123 -83l-10 15l133 90v360q-44 55 -115 55q-65 0 -102 -42.5t-37 -125.5v-107h160v-18h-160v-450h-20v450h-90v18h90v108q0 90 44.5 137.5t114.5 47.5q72 0 115 -50v39h20v-409l137 93l10 -15z" />
    <glyph glyph-name="f_f_tbar" horiz-adv-x="867" 
d="M685 252h-69v18h69v180h-248v-450h-20v450h-276v-450h-20v450h-90v18h90v93q0 93 38.5 139t107.5 46q59 0 115 -39l-10 -16q-44 37 -105 37q-126 0 -126 -168v-92h276v108q0 91 38 138t106 47q57 0 97 -40l-13 -14q-36 36 -84 36q-124 0 -124 -168v-107h248v132h20v-132
h137v-18h-137v-180h118v-18h-118v-252h-20v252z" />
    <glyph glyph-name="f_tbar" horiz-adv-x="571" 
d="M31 450v18h90v108q0 91 38 138t106 47q57 0 97 -40l-13 -14q-36 36 -84 36q-124 0 -124 -168v-107h248v132h20v-132h137v-18h-137v-180h118v-18h-118v-252h-20v252h-69v18h69v180h-248v-450h-20v450h-90z" />
    <glyph glyph-name="f_tcaron" horiz-adv-x="704" 
d="M31 450v18h90v108q0 91 38 138t106 47q57 0 97 -40l-13 -14q-36 36 -84 36q-124 0 -124 -168v-107h248v132h20v-132h137v-18h-137v-450h-20v450h-248v-450h-20v450h-90zM674 742l19 -6l-75 -228l-19 6z" />
    <glyph glyph-name="f_f_tcaron" horiz-adv-x="997" 
d="M141 450v-450h-20v450h-90v18h90v93q0 93 38.5 139t107.5 46q59 0 115 -39l-10 -16q-44 37 -105 37q-126 0 -126 -168v-92h276v108q0 91 38 138t106 47q57 0 97 -40l-13 -14q-36 36 -84 36q-124 0 -124 -168v-107h248v132h20v-132h137v-18h-137v-450h-20v450h-248v-450
h-20v450h-276zM967 742l19 -6l-75 -228l-19 6z" />
    <glyph glyph-name="f_uni021B" horiz-adv-x="571" 
d="M31 450v18h90v108q0 91 38 138t106 47q57 0 97 -40l-13 -14q-36 36 -84 36q-124 0 -124 -168v-107h248v132h20v-132h137v-18h-137v-450h-20v450h-248v-450h-20v450h-90zM399 -73l19 -6l-64 -195l-19 6z" />
    <glyph glyph-name="f_f_uni021B" horiz-adv-x="867" 
d="M141 450v-450h-20v450h-90v18h90v93q0 93 38.5 139t107.5 46q59 0 115 -39l-10 -16q-44 37 -105 37q-126 0 -126 -168v-92h276v108q0 91 38 138t106 47q57 0 97 -40l-13 -14q-36 36 -84 36q-124 0 -124 -168v-107h248v132h20v-132h137v-18h-137v-450h-20v450h-248v-450
h-20v450h-276zM695 -73l19 -6l-64 -195l-19 6z" />
    <glyph glyph-name="t_uni021B" horiz-adv-x="548" 
d="M141 450v-450h-20v450h-90v18h90v132h20v-132h225v132h20v-132h137v-18h-137v-450h-20v450h-225zM373 -73l19 -6l-64 -195l-19 6z" />
    <glyph glyph-name="uni021B_t" horiz-adv-x="548" 
d="M141 450v-450h-20v450h-90v18h90v132h20v-132h225v132h20v-132h137v-18h-137v-450h-20v450h-225zM129 -73l19 -6l-64 -195l-19 6z" />
    <glyph glyph-name="uni021B_uni021B" horiz-adv-x="548" 
d="M141 450v-450h-20v450h-90v18h90v132h20v-132h225v132h20v-132h137v-18h-137v-450h-20v450h-225zM373 -73l19 -6l-64 -195l-19 6zM129 -73l19 -6l-64 -195l-19 6z" />
    <glyph glyph-name="f_f_ldot" horiz-adv-x="917" 
d="M711 750v-750h-20v688q-44 55 -115 55q-65 0 -102 -42.5t-37 -125.5v-107h160v-18h-160v-450h-20v450h-276v-450h-20v450h-90v18h90v93q0 93 38.5 139t107.5 46q59 0 115 -39l-10 -16q-44 37 -105 37q-126 0 -126 -168v-92h276v108q0 90 44.5 137.5t114.5 47.5
q72 0 115 -50v39h20zM855 364q-6 7 -6 16t6.5 15.5t15.5 6.5t15.5 -6.5t6.5 -15.5t-6.5 -15.5t-15.5 -6.5t-16 6z" />
    <glyph glyph-name="a.salt" horiz-adv-x="539" 
d="M257 296q56 0 104 -22.5t71 -63.5v56q0 92 -45.5 144t-129.5 52q-40 0 -85 -22t-75 -58l-14 14q76 84 174 84q93 0 144 -56.5t51 -146.5v-277h-20v74q-23 -41 -71 -63.5t-104 -22.5q-78 0 -136.5 43.5t-58.5 110.5t58.5 110.5t136.5 43.5zM133 239q-51 -38 -51 -97
t51.5 -97.5t123.5 -38.5t123.5 38.5t51.5 97.5t-51.5 97.5t-123.5 38.5t-124 -39z" />
    <glyph glyph-name="g.salt" horiz-adv-x="590" 
d="M67 -130q0 92 114 132q-51 7 -73.5 30t-22.5 47q0 50 67 76q-64 54 -64 138q0 80 59 133.5t142 53.5q32 0 71 -12h165v-18h-126q91 -55 91 -157q0 -80 -59 -133.5t-142 -53.5q-69 0 -124 38q-60 -23 -60 -63q0 -26 32 -45.5t91 -20.5q40 7 76 7q101 0 169 -42t68 -110
t-68 -110t-169 -42t-169 42t-68 110zM470 293q0 76 -54.5 122.5t-126.5 46.5t-126.5 -46.5t-54.5 -122.5q0 -77 54 -123t127 -46t127 46t54 123zM148 -34q-61 -38 -61 -96t61 -96t156 -38t156 38t61 96t-61 96t-156 38t-156 -38z" />
    <glyph glyph-name="agrave.salt" horiz-adv-x="539" 
d="M257 296q56 0 104 -22.5t71 -63.5v56q0 92 -45.5 144t-129.5 52q-40 0 -85 -22t-75 -58l-14 14q76 84 174 84q93 0 144 -56.5t51 -146.5v-277h-20v74q-23 -41 -71 -63.5t-104 -22.5q-78 0 -136.5 43.5t-58.5 110.5t58.5 110.5t136.5 43.5zM133 239q-51 -38 -51 -97
t51.5 -97.5t123.5 -38.5t123.5 38.5t51.5 97.5t-51.5 97.5t-123.5 38.5t-124 -39zM191 713l14 14l142 -139l-14 -14z" />
    <glyph glyph-name="aacute.salt" horiz-adv-x="539" 
d="M257 296q56 0 104 -22.5t71 -63.5v56q0 92 -45.5 144t-129.5 52q-40 0 -85 -22t-75 -58l-14 14q76 84 174 84q93 0 144 -56.5t51 -146.5v-277h-20v74q-23 -41 -71 -63.5t-104 -22.5q-78 0 -136.5 43.5t-58.5 110.5t58.5 110.5t136.5 43.5zM133 239q-51 -38 -51 -97
t51.5 -97.5t123.5 -38.5t123.5 38.5t51.5 97.5t-51.5 97.5t-123.5 38.5t-124 -39zM340 727l14 -14l-142 -139l-14 14z" />
    <glyph glyph-name="acircumflex.salt" horiz-adv-x="539" 
d="M257 296q56 0 104 -22.5t71 -63.5v56q0 92 -45.5 144t-129.5 52q-40 0 -85 -22t-75 -58l-14 14q76 84 174 84q93 0 144 -56.5t51 -146.5v-277h-20v74q-23 -41 -71 -63.5t-104 -22.5q-78 0 -136.5 43.5t-58.5 110.5t58.5 110.5t136.5 43.5zM133 239q-51 -38 -51 -97
t51.5 -97.5t123.5 -38.5t123.5 38.5t51.5 97.5t-51.5 97.5t-123.5 38.5t-124 -39zM259 720h10l122 -128l-13 -14l-114 120l-114 -120l-13 14z" />
    <glyph glyph-name="atilde.salt" horiz-adv-x="539" 
d="M257 296q56 0 104 -22.5t71 -63.5v56q0 92 -45.5 144t-129.5 52q-40 0 -85 -22t-75 -58l-14 14q76 84 174 84q93 0 144 -56.5t51 -146.5v-277h-20v74q-23 -41 -71 -63.5t-104 -22.5q-78 0 -136.5 43.5t-58.5 110.5t58.5 110.5t136.5 43.5zM133 239q-51 -38 -51 -97
t51.5 -97.5t123.5 -38.5t123.5 38.5t51.5 97.5t-51.5 97.5t-123.5 38.5t-124 -39zM265 641q-36 34 -66 34q-45 0 -58 -58l-19 7q18 69 76 69q36 0 75 -36q36 -34 66 -34q45 0 58 58l19 -7q-18 -69 -76 -69q-36 0 -75 36z" />
    <glyph glyph-name="adieresis.salt" horiz-adv-x="539" 
d="M257 296q56 0 104 -22.5t71 -63.5v56q0 92 -45.5 144t-129.5 52q-40 0 -85 -22t-75 -58l-14 14q76 84 174 84q93 0 144 -56.5t51 -146.5v-277h-20v74q-23 -41 -71 -63.5t-104 -22.5q-78 0 -136.5 43.5t-58.5 110.5t58.5 110.5t136.5 43.5zM133 239q-51 -38 -51 -97
t51.5 -97.5t123.5 -38.5t123.5 38.5t51.5 97.5t-51.5 97.5t-123.5 38.5t-124 -39zM162 633q-6 7 -6 16t6.5 15.5t15.5 6.5t15.5 -6.5t6.5 -15.5t-6.5 -15.5t-15.5 -6.5t-16 6zM348 633q-6 7 -6 16t6.5 15.5t15.5 6.5t15.5 -6.5t6.5 -15.5t-6.5 -15.5t-15.5 -6.5t-16 6z" />
    <glyph glyph-name="aring.salt" horiz-adv-x="539" 
d="M257 296q56 0 104 -22.5t71 -63.5v56q0 92 -45.5 144t-129.5 52q-40 0 -85 -22t-75 -58l-14 14q76 84 174 84q93 0 144 -56.5t51 -146.5v-277h-20v74q-23 -41 -71 -63.5t-104 -22.5q-78 0 -136.5 43.5t-58.5 110.5t58.5 110.5t136.5 43.5zM133 239q-51 -38 -51 -97
t51.5 -97.5t123.5 -38.5t123.5 38.5t51.5 97.5t-51.5 97.5t-123.5 38.5t-124 -39zM211 590q-25 24 -25 59t25 59t60 24t60 -24t25 -59t-25 -59t-60 -24t-60 24zM225 695q-19 -19 -19 -46t19 -46t46 -19t46 19t19 46t-19 46t-46 19t-46 -19z" />
    <glyph glyph-name="amacron.salt" horiz-adv-x="539" 
d="M257 296q56 0 104 -22.5t71 -63.5v56q0 92 -45.5 144t-129.5 52q-40 0 -85 -22t-75 -58l-14 14q76 84 174 84q93 0 144 -56.5t51 -146.5v-277h-20v74q-23 -41 -71 -63.5t-104 -22.5q-78 0 -136.5 43.5t-58.5 110.5t58.5 110.5t136.5 43.5zM133 239q-51 -38 -51 -97
t51.5 -97.5t123.5 -38.5t123.5 38.5t51.5 97.5t-51.5 97.5t-123.5 38.5t-124 -39zM132 639v18h272v-18h-272z" />
    <glyph glyph-name="abreve.salt" horiz-adv-x="539" 
d="M257 296q56 0 104 -22.5t71 -63.5v56q0 92 -45.5 144t-129.5 52q-40 0 -85 -22t-75 -58l-14 14q76 84 174 84q93 0 144 -56.5t51 -146.5v-277h-20v74q-23 -41 -71 -63.5t-104 -22.5q-78 0 -136.5 43.5t-58.5 110.5t58.5 110.5t136.5 43.5zM133 239q-51 -38 -51 -97
t51.5 -97.5t123.5 -38.5t123.5 38.5t51.5 97.5t-51.5 97.5t-123.5 38.5t-124 -39zM147 700h20q4 -42 31 -71.5t72 -29.5t72 29.5t31 71.5h20q-4 -52 -40 -85.5t-83 -33.5t-83 33.5t-40 85.5z" />
    <glyph glyph-name="aogonek.salt" horiz-adv-x="534" 
d="M257 296q56 0 104 -22.5t71 -63.5v56q0 92 -45.5 144t-129.5 52q-40 0 -85 -22t-75 -58l-14 14q76 84 174 84q93 0 144 -56.5t51 -146.5v-277h-3q-85 -61 -85 -127q0 -33 20 -53.5t53 -20.5q21 0 41 17l7 -16q-19 -19 -50 -19q-41 0 -66 26t-25 65q0 72 88 130v72
q-23 -41 -71 -63.5t-104 -22.5q-78 0 -136.5 43.5t-58.5 110.5t58.5 110.5t136.5 43.5zM133 239q-51 -38 -51 -97t51.5 -97.5t123.5 -38.5t123.5 38.5t51.5 97.5t-51.5 97.5t-123.5 38.5t-124 -39z" />
    <glyph glyph-name="gcircumflex.salt" horiz-adv-x="590" 
d="M67 -130q0 92 114 132q-51 7 -73.5 30t-22.5 47q0 50 67 76q-64 54 -64 138q0 80 59 133.5t142 53.5q32 0 71 -12h165v-18h-126q91 -55 91 -157q0 -80 -59 -133.5t-142 -53.5q-69 0 -124 38q-60 -23 -60 -63q0 -26 32 -45.5t91 -20.5q40 7 76 7q101 0 169 -42t68 -110
t-68 -110t-169 -42t-169 42t-68 110zM470 293q0 76 -54.5 122.5t-126.5 46.5t-126.5 -46.5t-54.5 -122.5q0 -77 54 -123t127 -46t127 46t54 123zM148 -34q-61 -38 -61 -96t61 -96t156 -38t156 38t61 96t-61 96t-156 38t-156 -38zM277 720h10l122 -128l-13 -14l-114 120
l-114 -120l-13 14z" />
    <glyph glyph-name="gbreve.salt" horiz-adv-x="590" 
d="M67 -130q0 92 114 132q-51 7 -73.5 30t-22.5 47q0 50 67 76q-64 54 -64 138q0 80 59 133.5t142 53.5q32 0 71 -12h165v-18h-126q91 -55 91 -157q0 -80 -59 -133.5t-142 -53.5q-69 0 -124 38q-60 -23 -60 -63q0 -26 32 -45.5t91 -20.5q40 7 76 7q101 0 169 -42t68 -110
t-68 -110t-169 -42t-169 42t-68 110zM470 293q0 76 -54.5 122.5t-126.5 46.5t-126.5 -46.5t-54.5 -122.5q0 -77 54 -123t127 -46t127 46t54 123zM148 -34q-61 -38 -61 -96t61 -96t156 -38t156 38t61 96t-61 96t-156 38t-156 -38zM157 700h20q4 -42 31 -71.5t72 -29.5
t72 29.5t31 71.5h20q-4 -52 -40 -85.5t-83 -33.5t-83 33.5t-40 85.5z" />
    <glyph glyph-name="gdotaccent.salt" horiz-adv-x="590" 
d="M67 -130q0 92 114 132q-51 7 -73.5 30t-22.5 47q0 50 67 76q-64 54 -64 138q0 80 59 133.5t142 53.5q32 0 71 -12h165v-18h-126q91 -55 91 -157q0 -80 -59 -133.5t-142 -53.5q-69 0 -124 38q-60 -23 -60 -63q0 -26 32 -45.5t91 -20.5q40 7 76 7q101 0 169 -42t68 -110
t-68 -110t-169 -42t-169 42t-68 110zM470 293q0 76 -54.5 122.5t-126.5 46.5t-126.5 -46.5t-54.5 -122.5q0 -77 54 -123t127 -46t127 46t54 123zM148 -34q-61 -38 -61 -96t61 -96t156 -38t156 38t61 96t-61 96t-156 38t-156 -38zM271 633q-6 7 -6 16t6.5 15.5t15.5 6.5
t15.5 -6.5t6.5 -15.5t-6.5 -15.5t-15.5 -6.5t-16 6z" />
    <glyph glyph-name="gcommaaccent.salt" horiz-adv-x="590" 
d="M67 -130q0 92 114 132q-51 7 -73.5 30t-22.5 47q0 50 67 76q-64 54 -64 138q0 80 59 133.5t142 53.5q32 0 71 -12h165v-18h-126q91 -55 91 -157q0 -80 -59 -133.5t-142 -53.5q-69 0 -124 38q-60 -23 -60 -63q0 -26 32 -45.5t91 -20.5q40 7 76 7q101 0 169 -42t68 -110
t-68 -110t-169 -42t-169 42t-68 110zM470 293q0 76 -54.5 122.5t-126.5 46.5t-126.5 -46.5t-54.5 -122.5q0 -77 54 -123t127 -46t127 46t54 123zM148 -34q-61 -38 -61 -96t61 -96t156 -38t156 38t61 96t-61 96t-156 38t-156 -38zM276 528l-19 6l64 195l19 -6z" />
    <glyph glyph-name="tcommaaccent.salt" horiz-adv-x="360" 
d="M24 450v18h105v161l20 9v-170h176v-18h-176v-317q0 -127 106 -127q37 0 74 26l8 -19q-42 -25 -84 -25q-25 0 -45 6l-19 -37q47 -13 70 -41t23 -58q0 -35 -23.5 -65.5t-77.5 -30.5q-41 0 -76 32l11 16q30 -30 66 -30q40 0 60 23.5t20 53.5q0 33 -26 57.5t-65 29.5l-5 10
l26 46q-63 30 -63 129v321h-105z" />
    <glyph glyph-name="tcaron.salt" horiz-adv-x="475" 
d="M24 450v18h105v161l20 9v-170h176v-18h-176v-317q0 -127 106 -127q37 0 74 26l8 -19q-42 -25 -84 -25q-124 0 -124 141v321h-105zM445 732l19 -6l-75 -228l-19 6z" />
    <glyph glyph-name="tbar.salt" horiz-adv-x="360" 
d="M24 450v18h105v161l20 9v-170h176v-18h-176v-180h103v-18h-103v-119q0 -127 106 -127q37 0 74 26l8 -19q-42 -25 -84 -25q-124 0 -124 141v123h-84v18h84v180h-105z" />
    <glyph glyph-name="uni021B.salt" horiz-adv-x="360" 
d="M24 450v18h105v161l20 9v-170h176v-18h-176v-317q0 -127 106 -127q37 0 74 26l8 -19q-42 -25 -84 -25q-124 0 -124 141v321h-105zM213 -73l19 -6l-64 -195l-19 6z" />
    <glyph glyph-name="f_t.salt" horiz-adv-x="623" 
d="M141 450v-450h-20v450h-90v18h90v108q0 91 38 138t106 47q57 0 97 -40l-13 -14q-36 36 -84 36q-124 0 -124 -168v-107h251v161l20 9v-170h176v-18h-176v-317q0 -127 106 -127q37 0 74 26l8 -19q-42 -25 -84 -25q-124 0 -124 141v321h-251z" />
    <glyph glyph-name="t_t.salt" horiz-adv-x="635" 
d="M24 450v18h105v161l20 9v-170h255v161l20 9v-170h176v-18h-176v-317q0 -127 106 -127q37 0 74 26l8 -19q-42 -25 -84 -25q-124 0 -124 141v321h-255v-317q0 -127 106 -127q37 0 74 26l8 -19q-42 -25 -84 -25q-124 0 -124 141v321h-105z" />
    <glyph glyph-name="f_t_t.salt" horiz-adv-x="898" 
d="M141 450v-450h-20v450h-90v18h90v108q0 91 38 138t106 47q57 0 97 -40l-13 -14q-36 36 -84 36q-124 0 -124 -168v-107h251v161l20 9v-170h255v161l20 9v-170h176v-18h-176v-317q0 -127 106 -127q37 0 74 26l8 -19q-42 -25 -84 -25q-124 0 -124 141v321h-255v-317
q0 -127 106 -127q37 0 74 26l8 -19q-42 -25 -84 -25q-124 0 -124 141v321h-251z" />
    <glyph glyph-name="f_f_t.salt" horiz-adv-x="919" 
d="M31 450v18h90v93q0 93 38.5 139t107.5 46q59 0 115 -39l-10 -16q-44 37 -105 37q-126 0 -126 -168v-92h276v108q0 91 38 138t106 47q57 0 97 -40l-13 -14q-36 36 -84 36q-124 0 -124 -168v-107h251v161l20 9v-170h176v-18h-176v-317q0 -127 106 -127q37 0 74 26l8 -19
q-42 -25 -84 -25q-124 0 -124 141v321h-251v-450h-20v450h-276v-450h-20v450h-90z" />
    <glyph glyph-name="f_f_tbar.salt" horiz-adv-x="919" 
d="M31 450v18h90v93q0 93 38.5 139t107.5 46q59 0 115 -39l-10 -16q-44 37 -105 37q-126 0 -126 -168v-92h276v108q0 91 38 138t106 47q57 0 97 -40l-13 -14q-36 36 -84 36q-124 0 -124 -168v-107h251v161l20 9v-170h176v-18h-176v-180h103v-18h-103v-119q0 -127 106 -127
q37 0 74 26l8 -19q-42 -25 -84 -25q-124 0 -124 141v123h-84v18h84v180h-251v-450h-20v450h-276v-450h-20v450h-90z" />
    <glyph glyph-name="f_tbar.salt" horiz-adv-x="623" 
d="M31 450v18h90v108q0 91 38 138t106 47q57 0 97 -40l-13 -14q-36 36 -84 36q-124 0 -124 -168v-107h251v161l20 9v-170h176v-18h-176v-180h103v-18h-103v-119q0 -127 106 -127q37 0 74 26l8 -19q-42 -25 -84 -25q-124 0 -124 141v123h-84v18h84v180h-251v-450h-20v450h-90
z" />
    <glyph glyph-name="f_tcaron.salt" horiz-adv-x="738" 
d="M31 450v18h90v108q0 91 38 138t106 47q57 0 97 -40l-13 -14q-36 36 -84 36q-124 0 -124 -168v-107h251v161l20 9v-170h176v-18h-176v-317q0 -127 106 -127q37 0 74 26l8 -19q-42 -25 -84 -25q-124 0 -124 141v321h-251v-450h-20v450h-90zM708 732l19 -6l-75 -228l-19 6z
" />
    <glyph glyph-name="f_f_tcaron.salt" horiz-adv-x="1034" 
d="M31 450v18h90v93q0 93 38.5 139t107.5 46q59 0 115 -39l-10 -16q-44 37 -105 37q-126 0 -126 -168v-92h276v108q0 91 38 138t106 47q57 0 97 -40l-13 -14q-36 36 -84 36q-124 0 -124 -168v-107h251v161l20 9v-170h176v-18h-176v-317q0 -127 106 -127q37 0 74 26l8 -19
q-42 -25 -84 -25q-124 0 -124 141v321h-251v-450h-20v450h-276v-450h-20v450h-90zM1004 732l19 -6l-75 -228l-19 6z" />
    <glyph glyph-name="f_uni021B.salt" horiz-adv-x="623" 
d="M31 450v18h90v108q0 91 38 138t106 47q57 0 97 -40l-13 -14q-36 36 -84 36q-124 0 -124 -168v-107h251v161l20 9v-170h176v-18h-176v-317q0 -127 106 -127q37 0 74 26l8 -19q-42 -25 -84 -25q-124 0 -124 141v321h-251v-450h-20v450h-90zM475 -73l19 -6l-64 -195l-19 6z
" />
    <glyph glyph-name="f_f_uni021B.salt" horiz-adv-x="919" 
d="M31 450v18h90v93q0 93 38.5 139t107.5 46q59 0 115 -39l-10 -16q-44 37 -105 37q-126 0 -126 -168v-92h276v108q0 91 38 138t106 47q57 0 97 -40l-13 -14q-36 36 -84 36q-124 0 -124 -168v-107h251v161l20 9v-170h176v-18h-176v-317q0 -127 106 -127q37 0 74 26l8 -19
q-42 -25 -84 -25q-124 0 -124 141v321h-251v-450h-20v450h-276v-450h-20v450h-90zM771 -73l19 -6l-64 -195l-19 6z" />
    <glyph glyph-name="t_uni021B.salt" horiz-adv-x="635" 
d="M24 450v18h105v161l20 9v-170h255v161l20 9v-170h176v-18h-176v-317q0 -127 106 -127q37 0 74 26l8 -19q-42 -25 -84 -25q-124 0 -124 141v321h-255v-317q0 -127 106 -127q37 0 74 26l8 -19q-42 -25 -84 -25q-124 0 -124 141v321h-105zM487 -73l19 -6l-64 -195l-19 6z
" />
    <glyph glyph-name="uni021B_t.salt" horiz-adv-x="635" 
d="M24 450v18h105v161l20 9v-170h255v161l20 9v-170h176v-18h-176v-317q0 -127 106 -127q37 0 74 26l8 -19q-42 -25 -84 -25q-124 0 -124 141v321h-255v-317q0 -127 106 -127q37 0 74 26l8 -19q-42 -25 -84 -25q-124 0 -124 141v321h-105zM213 -73l19 -6l-64 -195l-19 6z
" />
    <glyph glyph-name="uni021B_uni021B.salt" horiz-adv-x="635" 
d="M24 450v18h105v161l20 9v-170h255v161l20 9v-170h176v-18h-176v-317q0 -127 106 -127q37 0 74 26l8 -19q-42 -25 -84 -25q-124 0 -124 141v321h-255v-317q0 -127 106 -127q37 0 74 26l8 -19q-42 -25 -84 -25q-124 0 -124 141v321h-105zM213 -73l19 -6l-64 -195l-19 6z
M487 -73l19 -6l-64 -195l-19 6z" />
    <glyph glyph-name="s_t.salt" horiz-adv-x="708" 
d="M182 6q56 0 89.5 33t33.5 80t-29 77.5t-98 58.5q-111 47 -111 121q0 47 31.5 75.5t78.5 28.5q25 0 43 -7q-37 51 -37 118q0 78 44.5 124t112.5 46t112.5 -46t44.5 -124v-123h176v-18h-176v-317q0 -127 106 -127q37 0 74 26l8 -19q-42 -25 -84 -25q-124 0 -124 141v460
q0 72 -37.5 113t-99.5 41t-99.5 -41t-37.5 -113q0 -78 48 -132q16 -11 27 -26l-14 -11q-33 42 -87 42q-37 0 -63.5 -22.5t-26.5 -60.5t27 -63.5t90 -51.5q121 -50 121 -143q0 -57 -38 -95t-105 -38q-91 0 -139 86l14 11q48 -79 125 -79z" />
    <glyph glyph-name="t.salt" horiz-adv-x="360" 
d="M24 450v18h105v161l20 9v-170h176v-18h-176v-317q0 -127 106 -127q37 0 74 26l8 -19q-42 -25 -84 -25q-124 0 -124 141v321h-105z" />
    <glyph glyph-name="f_f_lcaron" horiz-adv-x="901" 
d="M711 750v-750h-20v688q-44 55 -115 55q-65 0 -102 -42.5t-37 -125.5v-107h160v-18h-160v-450h-20v450h-276v-450h-20v450h-90v18h90v93q0 93 38.5 139t107.5 46q59 0 115 -39l-10 -16q-44 37 -105 37q-126 0 -126 -168v-92h276v108q0 90 44.5 137.5t114.5 47.5
q72 0 115 -50v39h20zM871 742l19 -6l-75 -228l-19 6z" />
    <glyph glyph-name="_008" horiz-adv-x="0" 
 />
    <glyph glyph-name="_01d" horiz-adv-x="0" 
 />
    <glyph glyph-name="f_kcommaaccent" horiz-adv-x="754" 
d="M395 711v39h20v-494l289 224l14 -13l-276 -211l312 -254l-13 -14l-326 268v-256h-20v688q-44 55 -115 55q-65 0 -102 -42.5t-37 -125.5v-107h160v-18h-160v-450h-20v450h-90v18h90v108q0 90 44.5 137.5t114.5 47.5q72 0 115 -50zM579 -73l19 -6l-64 -195l-19 6z" />
    <glyph glyph-name="c_b" horiz-adv-x="1113" 
d="M809 -12q-76 0 -138 41t-90 111v-140h-20v689q-45 54 -115 54q-62 0 -99.5 -41t-37.5 -113q0 -64 48 -115q56 -11 96 -43l-11 -14q-61 45 -138 45q-94 0 -161 -66t-67 -162t67 -162t161 -66q77 0 138 45l11 -14q-64 -49 -149 -49q-101 0 -174.5 71t-73.5 175t73.5 175
t174.5 71q8 0 30 -2q-45 45 -45 113q0 78 44.5 124t112.5 46q69 0 115 -46v35h20v-422q28 69 90.5 110.5t137.5 41.5q101 0 174.5 -71t73.5 -175t-73.5 -175t-174.5 -71zM648 396q-67 -66 -67 -162t67 -162t161 -66t161 66t67 162t-67 162t-161 66t-161 -66z" />
    <glyph glyph-name="c_h" horiz-adv-x="1002" 
d="M446 743q-62 0 -99.5 -41t-37.5 -113q0 -64 48 -115q56 -11 96 -43l-11 -14q-61 45 -138 45q-94 0 -161 -66t-67 -162t67 -162t161 -66q77 0 138 45l11 -14q-64 -49 -149 -49q-101 0 -174.5 71t-73.5 175t73.5 175t174.5 71q8 0 30 -2q-45 45 -45 113q0 78 44.5 124
t112.5 46q69 0 115 -46v35h20v-381q47 111 163 111q69 0 120 -52.5t51 -141.5v-286h-20v279q0 79 -42 131t-115 52t-115 -52t-42 -131v-279h-20v689q-45 54 -115 54z" />
    <glyph glyph-name="c_k" horiz-adv-x="920" 
d="M446 761q69 0 115 -46v35h20v-494l289 224l14 -13l-276 -211l312 -254l-13 -14l-326 268v-256h-20v689q-45 54 -115 54q-62 0 -99.5 -41t-37.5 -113q0 -64 48 -115q56 -11 96 -43l-11 -14q-61 45 -138 45q-94 0 -161 -66t-67 -162t67 -162t161 -66q77 0 138 45l11 -14
q-64 -49 -149 -49q-101 0 -174.5 71t-73.5 175t73.5 175t174.5 71q8 0 30 -2q-45 45 -45 113q0 78 44.5 124t112.5 46z" />
    <glyph glyph-name="c_l" horiz-adv-x="685" 
d="M446 743q-62 0 -99.5 -41t-37.5 -113q0 -64 48 -115q56 -11 96 -43l-11 -14q-61 45 -138 45q-94 0 -161 -66t-67 -162t67 -162t161 -66q77 0 138 45l11 -14q-64 -49 -149 -49q-101 0 -174.5 71t-73.5 175t73.5 175t174.5 71q8 0 30 -2q-45 45 -45 113q0 78 44.5 124
t112.5 46q74 0 120 -46v35h20v-750h-20v689q-43 54 -120 54z" />
    <glyph glyph-name="ccedilla_b" horiz-adv-x="1113" 
d="M809 -12q-76 0 -138 41t-90 111v-140h-20v689q-45 54 -115 54q-62 0 -99.5 -41t-37.5 -113q0 -64 48 -115q56 -11 96 -43l-11 -14q-61 45 -138 45q-94 0 -161 -66t-67 -162t67 -162t161 -66q77 0 138 45l11 -14q-64 -49 -149 -49h-5l-16 -31q47 -13 70 -41t23 -58
q0 -35 -23.5 -65.5t-77.5 -30.5q-41 0 -76 32l11 16q30 -30 66 -30q40 0 60 23.5t20 53.5q0 33 -26 57.5t-65 29.5l-5 10l19 35q-93 9 -158 78.5t-65 166.5q0 104 73.5 175t174.5 71q8 0 30 -2q-45 45 -45 113q0 78 44.5 124t112.5 46q69 0 115 -46v35h20v-422
q28 69 90.5 110.5t137.5 41.5q101 0 174.5 -71t73.5 -175t-73.5 -175t-174.5 -71zM648 396q-67 -66 -67 -162t67 -162t161 -66t161 66t67 162t-67 162t-161 66t-161 -66z" />
    <glyph glyph-name="ccedilla_h" horiz-adv-x="1002" 
d="M446 743q-62 0 -99.5 -41t-37.5 -113q0 -64 48 -115q56 -11 96 -43l-11 -14q-61 45 -138 45q-94 0 -161 -66t-67 -162t67 -162t161 -66q77 0 138 45l11 -14q-64 -49 -149 -49h-5l-16 -31q47 -13 70 -41t23 -58q0 -35 -23.5 -65.5t-77.5 -30.5q-41 0 -76 32l11 16
q30 -30 66 -30q40 0 60 23.5t20 53.5q0 33 -26 57.5t-65 29.5l-5 10l19 35q-93 9 -158 78.5t-65 166.5q0 104 73.5 175t174.5 71q8 0 30 -2q-45 45 -45 113q0 78 44.5 124t112.5 46q69 0 115 -46v35h20v-381q47 111 163 111q69 0 120 -52.5t51 -141.5v-286h-20v279
q0 79 -42 131t-115 52t-115 -52t-42 -131v-279h-20v689q-45 54 -115 54z" />
    <glyph glyph-name="ccedilla_k" horiz-adv-x="920" 
d="M446 761q69 0 115 -46v35h20v-494l289 224l14 -13l-276 -211l312 -254l-13 -14l-326 268v-256h-20v689q-45 54 -115 54q-62 0 -99.5 -41t-37.5 -113q0 -64 48 -115q56 -11 96 -43l-11 -14q-61 45 -138 45q-94 0 -161 -66t-67 -162t67 -162t161 -66q77 0 138 45l11 -14
q-64 -49 -149 -49h-5l-16 -31q47 -13 70 -41t23 -58q0 -35 -23.5 -65.5t-77.5 -30.5q-41 0 -76 32l11 16q30 -30 66 -30q40 0 60 23.5t20 53.5q0 33 -26 57.5t-65 29.5l-5 10l19 35q-93 9 -158 78.5t-65 166.5q0 104 73.5 175t174.5 71q8 0 30 -2q-45 45 -45 113
q0 78 44.5 124t112.5 46z" />
    <glyph glyph-name="ccedilla_l" horiz-adv-x="685" 
d="M446 743q-62 0 -99.5 -41t-37.5 -113q0 -64 48 -115q56 -11 96 -43l-11 -14q-61 45 -138 45q-94 0 -161 -66t-67 -162t67 -162t161 -66q77 0 138 45l11 -14q-64 -49 -149 -49h-5l-16 -31q47 -13 70 -41t23 -58q0 -35 -23.5 -65.5t-77.5 -30.5q-41 0 -76 32l11 16
q30 -30 66 -30q40 0 60 23.5t20 53.5q0 33 -26 57.5t-65 29.5l-5 10l19 35q-93 9 -158 78.5t-65 166.5q0 104 73.5 175t174.5 71q8 0 30 -2q-45 45 -45 113q0 78 44.5 124t112.5 46q74 0 120 -46v35h20v-750h-20v689q-43 54 -120 54z" />
    <glyph glyph-name="ccedilla_t" horiz-adv-x="765" 
d="M268 -56l-5 10l19 35q-94 8 -160 77.5t-66 167.5q0 104 73.5 175t174.5 71q8 0 30 -2q-45 45 -45 113q0 78 44.5 124t112.5 46t112.5 -46t44.5 -124v-123h137v-18h-137v-450h-20v589q0 72 -37.5 113t-99.5 41t-99.5 -41t-37.5 -113q0 -64 48 -115q56 -11 96 -43l-11 -14
q-61 45 -138 45q-94 0 -161 -66t-67 -162t67 -162t161 -66q77 0 138 45l11 -14q-64 -49 -149 -49h-2l-16 -31q47 -13 70 -41t23 -58q0 -35 -23.5 -65.5t-77.5 -30.5q-41 0 -76 32l11 16q30 -30 66 -30q40 0 60 23.5t20 53.5q0 33 -26 57.5t-65 29.5z" />
    <glyph glyph-name="s_b" horiz-adv-x="1010" 
d="M706 -12q-76 0 -138 41t-90 111v-140h-20v688q-44 55 -116 55q-57 0 -101 -40.5t-44 -113.5q0 -79 49 -128q19 -11 32 -30l-14 -11q-33 42 -87 42q-37 0 -63.5 -22.5t-26.5 -60.5t27 -63.5t90 -51.5q121 -50 121 -143q0 -57 -38 -95t-105 -38q-91 0 -139 86l14 11
q48 -79 125 -79q56 0 89.5 33t33.5 80t-29 77.5t-98 58.5q-111 47 -111 121q0 47 31.5 75.5t78.5 28.5q22 0 35 -4q-35 47 -35 114q0 81 50.5 126t114.5 45q72 0 116 -47v36h20v-422q28 69 90.5 110.5t137.5 41.5q101 0 174.5 -71t73.5 -175t-73.5 -175t-174.5 -71zM545 396
q-67 -66 -67 -162t67 -162t161 -66t161 66t67 162t-67 162t-161 66t-161 -66z" />
    <glyph glyph-name="s_h" horiz-adv-x="899" 
d="M177 590q0 81 50.5 126t114.5 45q72 0 116 -47v36h20v-381q47 111 163 111q69 0 120 -52.5t51 -141.5v-286h-20v279q0 79 -42 131t-115 52t-115 -52t-42 -131v-279h-20v688q-44 55 -116 55q-57 0 -101 -40.5t-44 -113.5q0 -79 49 -128q19 -11 32 -30l-14 -11
q-33 42 -87 42q-37 0 -63.5 -22.5t-26.5 -60.5t27 -63.5t90 -51.5q121 -50 121 -143q0 -57 -38 -95t-105 -38q-91 0 -139 86l14 11q48 -79 125 -79q56 0 89.5 33t33.5 80t-29 77.5t-98 58.5q-111 47 -111 121q0 47 31.5 75.5t78.5 28.5q22 0 35 -4q-35 47 -35 114z" />
    <glyph glyph-name="s_k" horiz-adv-x="817" 
d="M177 590q0 81 50.5 126t114.5 45q72 0 116 -47v36h20v-494l289 224l14 -13l-276 -211l312 -254l-13 -14l-326 268v-256h-20v688q-44 55 -116 55q-57 0 -101 -40.5t-44 -113.5q0 -79 49 -128q19 -11 32 -30l-14 -11q-33 42 -87 42q-37 0 -63.5 -22.5t-26.5 -60.5t27 -63.5
t90 -51.5q121 -50 121 -143q0 -57 -38 -95t-105 -38q-91 0 -139 86l14 11q48 -79 125 -79q56 0 89.5 33t33.5 80t-29 77.5t-98 58.5q-111 47 -111 121q0 47 31.5 75.5t78.5 28.5q22 0 35 -4q-35 47 -35 114z" />
    <glyph glyph-name="s_l" horiz-adv-x="582" 
d="M177 590q0 81 50.5 126t114.5 45q75 0 121 -46v35h20v-750h-20v689q-43 54 -121 54q-57 0 -101 -40.5t-44 -113.5q0 -79 49 -128q19 -11 32 -30l-14 -11q-33 42 -87 42q-37 0 -63.5 -22.5t-26.5 -60.5t27 -63.5t90 -51.5q121 -50 121 -143q0 -57 -38 -95t-105 -38
q-91 0 -139 86l14 11q48 -79 125 -79q56 0 89.5 33t33.5 80t-29 77.5t-98 58.5q-111 47 -111 121q0 47 31.5 75.5t78.5 28.5q22 0 35 -4q-35 47 -35 114z" />
    <glyph glyph-name="scedilla_b" horiz-adv-x="1010" 
d="M706 -12q-76 0 -138 41t-90 111v-140h-20v688q-44 55 -116 55q-57 0 -101 -40.5t-44 -113.5q0 -79 49 -128q19 -11 32 -30l-14 -11q-33 42 -87 42q-37 0 -63.5 -22.5t-26.5 -60.5t27 -63.5t90 -51.5q121 -50 121 -143q0 -55 -36 -92.5t-99 -40.5l-16 -31q47 -13 70 -41
t23 -58q0 -35 -23.5 -65.5t-77.5 -30.5q-41 0 -76 32l11 16q30 -30 66 -30q40 0 60 23.5t20 53.5q0 33 -26 57.5t-65 29.5l-5 10l19 35q-82 5 -127 85l14 11q48 -79 125 -79q56 0 89.5 33t33.5 80t-29 77.5t-98 58.5q-111 47 -111 121q0 47 31.5 75.5t78.5 28.5q22 0 35 -4
q-35 47 -35 114q0 81 50.5 126t114.5 45q72 0 116 -47v36h20v-422q28 69 90.5 110.5t137.5 41.5q101 0 174.5 -71t73.5 -175t-73.5 -175t-174.5 -71zM545 396q-67 -66 -67 -162t67 -162t161 -66t161 66t67 162t-67 162t-161 66t-161 -66z" />
    <glyph glyph-name="scedilla_h" horiz-adv-x="899" 
d="M177 590q0 81 50.5 126t114.5 45q72 0 116 -47v36h20v-381q47 111 163 111q69 0 120 -52.5t51 -141.5v-286h-20v279q0 79 -42 131t-115 52t-115 -52t-42 -131v-279h-20v688q-44 55 -116 55q-57 0 -101 -40.5t-44 -113.5q0 -79 49 -128q19 -11 32 -30l-14 -11
q-33 42 -87 42q-37 0 -63.5 -22.5t-26.5 -60.5t27 -63.5t90 -51.5q121 -50 121 -143q0 -55 -36 -92.5t-99 -40.5l-16 -31q47 -13 70 -41t23 -58q0 -35 -23.5 -65.5t-77.5 -30.5q-41 0 -76 32l11 16q30 -30 66 -30q40 0 60 23.5t20 53.5q0 33 -26 57.5t-65 29.5l-5 10l19 35
q-82 5 -127 85l14 11q48 -79 125 -79q56 0 89.5 33t33.5 80t-29 77.5t-98 58.5q-111 47 -111 121q0 47 31.5 75.5t78.5 28.5q22 0 35 -4q-35 47 -35 114z" />
    <glyph glyph-name="scedilla_k" horiz-adv-x="817" 
d="M177 590q0 81 50.5 126t114.5 45q72 0 116 -47v36h20v-494l289 224l14 -13l-276 -211l312 -254l-13 -14l-326 268v-256h-20v688q-44 55 -116 55q-57 0 -101 -40.5t-44 -113.5q0 -79 49 -128q19 -11 32 -30l-14 -11q-33 42 -87 42q-37 0 -63.5 -22.5t-26.5 -60.5t27 -63.5
t90 -51.5q121 -50 121 -143q0 -55 -36 -92.5t-99 -40.5l-16 -31q47 -13 70 -41t23 -58q0 -35 -23.5 -65.5t-77.5 -30.5q-41 0 -76 32l11 16q30 -30 66 -30q40 0 60 23.5t20 53.5q0 33 -26 57.5t-65 29.5l-5 10l19 35q-82 5 -127 85l14 11q48 -79 125 -79q56 0 89.5 33
t33.5 80t-29 77.5t-98 58.5q-111 47 -111 121q0 47 31.5 75.5t78.5 28.5q22 0 35 -4q-35 47 -35 114z" />
    <glyph glyph-name="scedilla_l" horiz-adv-x="582" 
d="M156 -56l-5 10l19 35q-82 5 -127 85l14 11q48 -79 125 -79q56 0 89.5 33t33.5 80t-29 77.5t-98 58.5q-111 47 -111 121q0 47 31.5 75.5t78.5 28.5q22 0 35 -4q-35 47 -35 114q0 81 50.5 126t114.5 45q75 0 121 -46v35h20v-750h-20v689q-43 54 -121 54q-57 0 -101 -40.5
t-44 -113.5q0 -79 49 -128q19 -11 32 -30l-14 -11q-33 42 -87 42q-37 0 -63.5 -22.5t-26.5 -60.5t27 -63.5t90 -51.5q121 -50 121 -143q0 -55 -36 -92.5t-99 -40.5l-16 -31q47 -13 70 -41t23 -58q0 -35 -23.5 -65.5t-77.5 -30.5q-41 0 -76 32l11 16q30 -30 66 -30
q40 0 60 23.5t20 53.5q0 33 -26 57.5t-65 29.5z" />
    <glyph glyph-name="scedilla_p" horiz-adv-x="1000" 
d="M156 -56l-5 10l19 35q-82 5 -127 85l14 11q48 -79 125 -79q56 0 89.5 33t33.5 80t-29 77.5t-98 58.5q-111 47 -111 121q0 47 31.5 75.5t78.5 28.5q8 0 22 -2q-45 45 -45 113q0 78 44.5 124t112.5 46t112.5 -46t44.5 -124v-263q28 70 90 111t138 41q101 0 174.5 -71
t73.5 -175t-73.5 -175t-174.5 -71q-75 0 -137.5 41.5t-90.5 110.5v-422h-20v872q0 71 -38 112t-99 41q-62 0 -99.5 -41t-37.5 -113q0 -67 51 -118q34 -12 53 -40l-14 -11q-33 42 -87 42q-37 0 -63.5 -22.5t-26.5 -60.5t27 -63.5t90 -51.5q121 -50 121 -143q0 -55 -36 -92.5
t-99 -40.5l-16 -31q47 -13 70 -41t23 -58q0 -35 -23.5 -65.5t-77.5 -30.5q-41 0 -76 32l11 16q30 -30 66 -30q40 0 60 23.5t20 53.5q0 33 -26 57.5t-65 29.5zM535 396q-67 -66 -67 -162t67 -162t161 -66t161 66t67 162t-67 162t-161 66t-161 -66z" />
    <glyph glyph-name="scedilla_t" horiz-adv-x="658" 
d="M156 -56l-5 10l19 35q-82 5 -127 85l14 11q48 -79 125 -79q56 0 89.5 33t33.5 80t-29 77.5t-98 58.5q-111 47 -111 121q0 47 31.5 75.5t78.5 28.5q19 0 42 -7q-37 51 -37 118q0 78 44.5 124t112.5 46t112.5 -46t44.5 -124v-123h137v-18h-137v-450h-20v589q0 72 -37.5 113
t-99.5 41t-99.5 -41t-37.5 -113q0 -77 46 -130q17 -11 30 -28l-14 -11q-33 42 -87 42q-37 0 -63.5 -22.5t-26.5 -60.5t27 -63.5t90 -51.5q121 -50 121 -143q0 -55 -36 -92.5t-99 -40.5l-16 -31q47 -13 70 -41t23 -58q0 -35 -23.5 -65.5t-77.5 -30.5q-41 0 -76 32l11 16
q30 -30 66 -30q40 0 60 23.5t20 53.5q0 33 -26 57.5t-65 29.5z" />
    <glyph glyph-name="c_t.salt" horiz-adv-x="829" 
d="M304 480q20 0 47 -5q-47 47 -47 116q0 78 44.5 124t112.5 46t112.5 -46t44.5 -124v-123h176v-18h-176v-317q0 -127 106 -127q37 0 74 26l8 -19q-42 -25 -84 -25q-124 0 -124 141v460q0 72 -37.5 113t-99.5 41t-99.5 -41t-37.5 -113q0 -68 52 -120q48 -14 77 -38l-11 -14
q-61 45 -138 45q-94 0 -161 -66t-67 -162t67 -162t161 -66q77 0 138 45l11 -14q-64 -49 -149 -49q-101 0 -174.5 71t-73.5 175t73.5 175t174.5 71z" />
    <glyph glyph-name="ccedilla_t.salt" horiz-adv-x="829" 
d="M56 234q0 104 73.5 175t174.5 71q20 0 47 -5q-47 47 -47 116q0 78 44.5 124t112.5 46t112.5 -46t44.5 -124v-123h176v-18h-176v-317q0 -127 106 -127q37 0 74 26l8 -19q-42 -25 -84 -25q-124 0 -124 141v460q0 72 -37.5 113t-99.5 41t-99.5 -41t-37.5 -113q0 -68 52 -120
q48 -14 77 -38l-11 -14q-61 45 -138 45q-94 0 -161 -66t-67 -162t67 -162t161 -66q77 0 138 45l11 -14q-64 -49 -149 -49h-2l-16 -31q47 -13 70 -41t23 -58q0 -35 -23.5 -65.5t-77.5 -30.5q-41 0 -76 32l11 16q30 -30 66 -30q40 0 60 23.5t20 53.5q0 33 -26 57.5t-65 29.5
l-5 10l19 35q-94 8 -160 77.5t-66 167.5z" />
    <glyph glyph-name="scedilla_t.salt" horiz-adv-x="708" 
d="M156 -56l-5 10l19 35q-82 5 -127 85l14 11q48 -79 125 -79q56 0 89.5 33t33.5 80t-29 77.5t-98 58.5q-111 47 -111 121q0 47 31.5 75.5t78.5 28.5q25 0 43 -7q-37 51 -37 118q0 78 44.5 124t112.5 46t112.5 -46t44.5 -124v-123h176v-18h-176v-317q0 -127 106 -127
q37 0 74 26l8 -19q-42 -25 -84 -25q-124 0 -124 141v460q0 72 -37.5 113t-99.5 41t-99.5 -41t-37.5 -113q0 -78 48 -132q16 -11 27 -26l-14 -11q-33 42 -87 42q-37 0 -63.5 -22.5t-26.5 -60.5t27 -63.5t90 -51.5q121 -50 121 -143q0 -55 -36 -92.5t-99 -40.5l-16 -31
q47 -13 70 -41t23 -58q0 -35 -23.5 -65.5t-77.5 -30.5q-41 0 -76 32l11 16q30 -30 66 -30q40 0 60 23.5t20 53.5q0 33 -26 57.5t-65 29.5z" />
    <glyph glyph-name="fi" horiz-adv-x="549" 
d="M31 450v18h90v101q0 91 50.5 141.5t122.5 50.5q70 0 118 -46l-13 -14q-37 42 -105 42q-66 0 -109.5 -46t-43.5 -129v-100h315v-468h-20v450h-295v-450h-20v450h-90z" />
    <glyph glyph-name="fl" horiz-adv-x="514" 
d="M415 750v-750h-20v688q-44 55 -115 55q-65 0 -102 -42.5t-37 -125.5v-107h160v-18h-160v-450h-20v450h-90v18h90v108q0 90 44.5 137.5t114.5 47.5q72 0 115 -50v39h20z" />
    <glyph glyph-name="Idieresis_Idieresis" horiz-adv-x="484" 
d="M12 837q-6 7 -6 16t6.5 15.5t15.5 6.5t15.5 -6.5t6.5 -15.5t-6.5 -15.5t-15.5 -6.5t-16 6zM226 837q-6 7 -6 16t6.5 15.5t15.5 6.5t15.5 -6.5t6.5 -15.5t-6.5 -15.5t-15.5 -6.5t-16 6zM440 837q-6 7 -6 16t6.5 15.5t15.5 6.5t15.5 -6.5t6.5 -15.5t-6.5 -15.5t-15.5 -6.5
t-16 6zM353 700h20v-700h-20v700zM111 700h20v-700h-20v700z" />
    <glyph glyph-name="idieresis_idieresis" horiz-adv-x="456" 
d="M5 614q-6 7 -6 16t6.5 15.5t15.5 6.5t15.5 -6.5t6.5 -15.5t-6.5 -15.5t-15.5 -6.5t-16 6zM212 614q-6 7 -6 16t6.5 15.5t15.5 6.5t15.5 -6.5t6.5 -15.5t-6.5 -15.5t-15.5 -6.5t-16 6zM419 614q-6 7 -6 16t6.5 15.5t15.5 6.5t15.5 -6.5t6.5 -15.5t-6.5 -15.5t-15.5 -6.5
t-16 6zM124 468v-468h-20v468h20zM352 468v-468h-20v468h20z" />
    </font>
</defs>
</svg>
