<?xml version="1.0" standalone="no"?>
<!DOCTYPE svg PUBLIC "-//W3C//DTD SVG 1.1//EN" "http://www.w3.org/Graphics/SVG/1.1/DTD/svg11.dtd" >
<svg xmlns="http://www.w3.org/2000/svg" xmlns:xlink="http://www.w3.org/1999/xlink" version="1.1">
<metadata>
Created by FontForge 20170910 at Tue Oct 29 10:54:23 2013
 By Jimmy Wärting
Copyright (c) 2012 S-Core. All rights reserved.
</metadata>
<defs>
<font id="CoreSansG-MediumItalic" horiz-adv-x="395" >
  <font-face 
    font-family="Core Sans G"
    font-weight="500"
    font-style="italic"
    font-stretch="normal"
    units-per-em="1000"
    panose-1="2 11 6 3 3 3 2 2 2 2"
    ascent="800"
    descent="-200"
    x-height="468"
    cap-height="700"
    bbox="-406.316 -294 1611.19 958"
    underline-thickness="24"
    underline-position="-207"
    unicode-range="U+0008-FB06"
  />
<missing-glyph horiz-adv-x="510" 
d="M15 0v700h500v-700h-500zM227 144q-13 -14 -13 -34t13.5 -34t33.5 -14t34 14t14 34t-14 34t-34 14t-34 -14zM351 229l-34 50q-19 -21 -44 -21q-33 0 -33 29t57 55q67 32 99 67.5t32 90.5q0 58 -46 96t-117 38q-43 0 -85.5 -21t-72.5 -58l52 -40q41 56 105 56
q45 0 70.5 -20.5t25.5 -49.5q0 -33 -26 -56.5t-82 -52.5q-79 -40 -79 -102q0 -43 27 -68.5t73 -25.5q47 0 78 33z" />
    <glyph glyph-name="f_f" unicode="ff" horiz-adv-x="673" 
d="M229 370l-126 -652h-106l126 652h-76l19 98h76l15 77q19 94 77.5 147.5t140.5 53.5q70 0 120 -40l-60 -77q-30 27 -70 27q-38 0 -64.5 -29t-36.5 -81l-16 -78h210l20 99q17 92 70 143t134 51q88 0 125 -69l-81 -59q-14 35 -55 35q-68 0 -88 -105l-19 -95h135l-19 -98
h-135l-126 -652h-106l126 652h-210z" />
    <glyph glyph-name="f_i" unicode="fi" horiz-adv-x="592" 
d="M469 0h-106l71 370h-205l-126 -652h-106l126 652h-76l19 98h76l17 85q19 95 85.5 151.5t155.5 56.5q116 0 160 -92l-83 -60q-25 62 -90 62q-47 0 -79 -32t-43 -87l-17 -84h311z" />
    <glyph glyph-name="f_l" unicode="fl" horiz-adv-x="603" 
d="M265 555l-17 -87h135l-19 -98h-135l-126 -652h-106l126 652h-76l19 98h76l20 102q17 90 82.5 141t149.5 51q79 0 119 -45l6 33h106l-145 -750h-106l121 627q-25 45 -90 45q-51 0 -89.5 -30t-50.5 -87z" />
    <glyph glyph-name="f_f_i" unicode="ffi" horiz-adv-x="908" 
d="M785 0h-106l71 370h-205l-126 -652h-106l126 652h-210l-126 -652h-106l126 652h-76l19 98h76l15 77q19 94 77.5 147.5t140.5 53.5q70 0 120 -40l-60 -77q-30 27 -70 27q-38 0 -64.5 -29t-36.5 -81l-16 -78h210l17 85q19 95 85.5 151.5t155.5 56.5q116 0 160 -92l-83 -60
q-25 62 -90 62q-47 0 -79 -32t-43 -87l-17 -84h311z" />
    <glyph glyph-name="f_f_l" unicode="ffl" horiz-adv-x="919" 
d="M581 555l-17 -87h135l-19 -98h-135l-126 -652h-106l126 652h-210l-126 -652h-106l126 652h-76l19 98h76l15 77q19 94 77.5 147.5t140.5 53.5q70 0 120 -40l-60 -77q-30 27 -70 27q-38 0 -64.5 -29t-36.5 -81l-16 -78h210l20 102q17 90 82.5 141t149.5 51q79 0 119 -45
l6 33h106l-145 -750h-106l121 627q-25 45 -90 45q-51 0 -89.5 -30t-50.5 -87z" />
    <glyph glyph-name=".notdef" horiz-adv-x="510" 
d="M15 0v700h500v-700h-500zM227 144q-13 -14 -13 -34t13.5 -34t33.5 -14t34 14t14 34t-14 34t-34 14t-34 -14zM351 229l-34 50q-19 -21 -44 -21q-33 0 -33 29t57 55q67 32 99 67.5t32 90.5q0 58 -46 96t-117 38q-43 0 -85.5 -21t-72.5 -58l52 -40q41 56 105 56
q45 0 70.5 -20.5t25.5 -49.5q0 -33 -26 -56.5t-82 -52.5q-79 -40 -79 -102q0 -43 27 -68.5t73 -25.5q47 0 78 33z" />
    <glyph glyph-name="NULL" horiz-adv-x="0" 
 />
    <glyph glyph-name="NULL" horiz-adv-x="0" 
 />
    <glyph glyph-name="nonmarkingreturn" horiz-adv-x="333" 
 />
    <glyph glyph-name="uni0008" horiz-adv-x="0" 
 />
    <glyph glyph-name="CR.001" unicode="&#x9;" horiz-adv-x="237" 
 />
    <glyph glyph-name="_13" unicode="&#xd;" horiz-adv-x="237" 
 />
    <glyph glyph-name="uni001D" horiz-adv-x="0" 
 />
    <glyph glyph-name="space" unicode=" " horiz-adv-x="300" 
 />
    <glyph glyph-name="exclam" unicode="!" horiz-adv-x="314" 
d="M191 700h116l-101 -519h-116zM53 57q5 29 29.5 49t54.5 20t46.5 -20t11.5 -49q-6 -29 -30.5 -49t-54.5 -20t-46.5 20t-10.5 49z" />
    <glyph glyph-name="quotedbl" unicode="&#x22;" horiz-adv-x="512" 
d="M144 419l35 281h119l-75 -281h-79zM351 419l35 281h119l-75 -281h-79z" />
    <glyph glyph-name="numbersign" unicode="#" horiz-adv-x="671" 
d="M552 443l-37 -186h97l-17 -90h-97l-32 -167h-97l32 167h-167l-32 -167h-97l32 167h-97l17 90h97l37 186h-97l17 90h97l33 167h97l-33 -167h167l33 167h97l-33 -167h97l-17 -90h-97zM288 443l-37 -186h167l37 186h-167z" />
    <glyph glyph-name="dollar" unicode="$" horiz-adv-x="540" 
d="M344 431q86 -39 119 -96t17 -138q-15 -76 -71 -133t-141 -71l-16 -81h-93l16 79q-58 9 -100.5 44t-62.5 90l91 72q14 -48 51.5 -73.5t83.5 -25.5q45 0 81.5 31t45.5 72q8 45 -14 76.5t-90 63.5q-75 36 -106 83.5t-17 117.5q11 56 53 100.5t103 60.5l16 80h93l-15 -74
q45 -7 76.5 -33t44.5 -65l-82 -63q-26 54 -84 54q-36 0 -60.5 -18t-29.5 -47q-7 -34 13 -57t78 -49z" />
    <glyph glyph-name="percent" unicode="%" horiz-adv-x="938" 
d="M163 37l611 675l62 -49l-611 -675zM444 664q40 -47 27 -116t-72 -116.5t-127 -47.5t-108 47.5t-27 116.5t72 116.5t127 47.5t108 -48zM290 475q30 0 55 21.5t31 51.5t-10.5 51.5t-47.5 21.5q-30 0 -55 -21.5t-31 -51.5t10.5 -51.5t47.5 -21.5zM835 268q40 -47 27 -116
t-72 -116.5t-127 -47.5t-108 47.5t-27 116.5t72 116.5t127 47.5t108 -48zM681 79q30 0 55 21.5t31 51.5t-10.5 51.5t-47.5 21.5q-30 0 -55 -21.5t-31 -51.5t10.5 -51.5t47.5 -21.5z" />
    <glyph glyph-name="ampersand" unicode="&#x26;" horiz-adv-x="643" 
d="M521 110l50 -83l-105 -61l-48 80q-107 -58 -192 -58q-101 0 -150 54t-33 136q21 109 175 210q-51 90 -38 162q14 71 72 116.5t136 45.5q69 0 111 -46t28 -117q-11 -54 -46.5 -91t-115.5 -89l105 -175q50 34 97 78l51 -80q-35 -36 -97 -82zM159 180q-7 -37 14.5 -61.5
t62.5 -24.5q55 0 131 39l-101 172q-55 -39 -78 -67.5t-29 -57.5zM411 547q5 26 -7.5 42.5t-36.5 16.5q-59 0 -72 -63q-8 -41 23 -95q47 29 67 49.5t26 49.5z" />
    <glyph glyph-name="quotesingle" unicode="'" horiz-adv-x="305" 
d="M144 419l35 281h119l-75 -281h-79z" />
    <glyph glyph-name="parenleft" unicode="(" horiz-adv-x="375" 
d="M154 310q45 235 215 440l80 -36q-143 -188 -184 -404q-43 -218 27 -404l-94 -36q-90 205 -44 440z" />
    <glyph glyph-name="parenright" unicode=")" horiz-adv-x="375" 
d="M287 310q-47 -238 -216 -440l-80 36q142 187 185 404q42 219 -28 404l94 36q90 -202 45 -440z" />
    <glyph glyph-name="asterisk" unicode="*" horiz-adv-x="564" 
d="M340 184l-49 88l-49 -88l-46 -64l-84 62l47 64l60 65l-88 17l-75 24l33 100l75 -25l87 -41l-12 97v79h105v-79l-13 -97l87 41l75 25l33 -100l-75 -24l-88 -17l60 -65l47 -64l-84 -62z" />
    <glyph glyph-name="plus" unicode="+" horiz-adv-x="621" 
d="M266 82v204h-188v92h188v204h109v-204h188v-92h-188v-204h-109z" />
    <glyph glyph-name="comma" unicode="," horiz-adv-x="304" 
d="M-30 -138l126 279l110 -31l-161 -268z" />
    <glyph glyph-name="hyphen" unicode="-" horiz-adv-x="406" 
d="M352 282h-290l20 100h290z" />
    <glyph glyph-name="period" unicode="." horiz-adv-x="304" 
d="M53 9q-17 21 -11 50t31 50t54 21t46 -21t11 -50t-31 -50t-54 -21t-46 21z" />
    <glyph glyph-name="slash" unicode="/" horiz-adv-x="520" 
d="M-54 -73l568 821l84 -37l-568 -821z" />
    <glyph glyph-name="zero" unicode="0" horiz-adv-x="608" 
d="M82 350q31 160 112 261t198 101q78 0 124.5 -48.5t54.5 -129t-9 -184.5q-32 -160 -113 -261t-198 -101t-159 101t-10 261zM198 350q-50 -256 74 -256t174 256q49 256 -75 256t-173 -256z" />
    <glyph glyph-name="one" unicode="1" horiz-adv-x="608" 
d="M440 711l33 -10l-136 -701h-116l106 548l-129 -62l-33 85z" />
    <glyph glyph-name="two" unicode="2" horiz-adv-x="608" 
d="M420 304l-195 -198h253l-20 -106h-423l-9 33l306 323q88 94 99 153q9 46 -16 71.5t-73 25.5q-72 0 -126 -73l-81 51q45 60 107.5 94t122.5 34q100 0 150 -56t33 -146q-19 -94 -128 -206z" />
    <glyph glyph-name="three" unicode="3" horiz-adv-x="608" 
d="M242 356l-12 37l166 201h-238l21 106h389l14 -34l-208 -241q74 -22 109 -77.5t20 -136.5q-18 -89 -95 -156t-191 -67q-65 0 -118 33t-81 91l94 68q38 -86 115 -86q60 0 104.5 31.5t55.5 88.5q12 65 -24 103.5t-121 38.5z" />
    <glyph glyph-name="four" unicode="4" horiz-adv-x="608" 
d="M7 132l-9 32l509 548l45 -7l-91 -467h75l-21 -106h-75l-25 -132h-116l25 132h-317zM164 237h181l47 243z" />
    <glyph glyph-name="five" unicode="5" horiz-adv-x="608" 
d="M406 221q13 62 -22 99t-104 37q-49 0 -110 -28l-28 18l121 353h327l-21 -106h-230l-52 -150q19 4 43 4q96 0 154.5 -62.5t38.5 -162.5q-20 -103 -97 -169t-192 -66q-68 0 -120.5 31.5t-77.5 91.5l94 68q33 -85 118 -85q66 0 107 36t51 91z" />
    <glyph glyph-name="six" unicode="6" horiz-adv-x="608" 
d="M564 222q-20 -101 -106 -167.5t-184 -66.5q-100 0 -160.5 66.5t-40.5 167.5q13 64 85 152l279 338l89 -42l-185 -225q14 2 23 2q43 0 82.5 -15t70 -42t44 -71t3.5 -97zM189 222q-11 -56 19 -92t85 -36t99 36t55 92q10 57 -19.5 92.5t-84.5 35.5q-56 0 -100 -36t-54 -92z
" />
    <glyph glyph-name="seven" unicode="7" horiz-adv-x="608" 
d="M167 700h436l13 -34l-417 -678l-102 33l354 573h-305z" />
    <glyph glyph-name="eight" unicode="8" horiz-adv-x="608" 
d="M52 213q12 61 54.5 109t102.5 75q-66 53 -51 132q15 78 81.5 130.5t152.5 52.5t131.5 -52.5t30.5 -130.5t-101 -132q49 -27 73 -75t12 -109q-19 -95 -101.5 -160t-185.5 -65t-160.5 65t-38.5 160zM169 218q-10 -52 19 -88t84 -36t98 36t53 88q10 55 -18.5 89.5
t-84.5 34.5t-98.5 -34.5t-52.5 -89.5zM442 526q7 37 -12.5 61t-57.5 24t-66.5 -24t-35.5 -61q-7 -36 12 -61.5t57 -25.5t67 25.5t36 61.5z" />
    <glyph glyph-name="nine" unicode="9" horiz-adv-x="608" 
d="M109 478q20 101 106 167.5t184 66.5q100 0 160.5 -66.5t40.5 -167.5q-13 -64 -85 -152l-279 -338l-89 42l185 225q-14 -2 -23 -2q-43 0 -82.5 15t-70 42t-44 71t-3.5 97zM484 478q11 56 -19 92t-85 36t-99 -36t-55 -92q-10 -56 20 -92t85 -36t99 36t54 92z" />
    <glyph glyph-name="colon" unicode=":" horiz-adv-x="304" 
d="M120 461q6 29 31 50t54 21t46 -21t11 -50q-5 -29 -30.5 -50t-54.5 -21t-45.5 21t-11.5 50zM53 9q-17 21 -11 50t31 50t54 21t46 -21t11 -50t-31 -50t-54 -21t-46 21z" />
    <glyph glyph-name="semicolon" unicode=";" horiz-adv-x="304" 
d="M120 461q6 29 31 50t54 21t46 -21t11 -50q-5 -29 -30.5 -50t-54.5 -21t-45.5 21t-11.5 50zM-30 -138l126 279l110 -31l-161 -268z" />
    <glyph glyph-name="less" unicode="&#x3c;" horiz-adv-x="621" 
d="M78 316v32l449 259l36 -95l-319 -180l319 -180l-36 -95z" />
    <glyph glyph-name="equal" unicode="=" horiz-adv-x="621" 
d="M563 404h-485v93h485v-93zM563 167h-485v93h485v-93z" />
    <glyph glyph-name="greater" unicode="&#x3e;" horiz-adv-x="621" 
d="M563 348v-32l-449 -259l-36 95l319 180l-319 180l36 95z" />
    <glyph glyph-name="question" unicode="?" horiz-adv-x="495" 
d="M318 279l27 -72q-50 -42 -112 -42q-60 0 -92.5 33t-22.5 81q8 42 44.5 81.5t94.5 64.5q129 56 143 121q7 35 -18.5 52.5t-73.5 17.5q-77 0 -140 -68l-73 51q113 113 233 113q94 0 145.5 -46.5t37.5 -118.5q-22 -114 -197 -190q-76 -33 -83 -66q-6 -35 31 -35q26 0 56 23z
M139 9q-17 21 -11 50t31 50t54 21t46 -21t11 -50t-31 -50t-54 -21t-46 21z" />
    <glyph glyph-name="at" unicode="@" horiz-adv-x="960" 
d="M593 138q-30 -33 -72.5 -51.5t-84.5 -18.5q-82 0 -128.5 60t-30.5 145q16 84 85 142.5t151 58.5q86 0 129 -59l10 51h93l-52 -266q-12 -65 41 -65q49 0 85 42t51 119q29 148 -55.5 252t-241.5 104q-148 0 -274.5 -111t-156.5 -267q-20 -101 11.5 -187t107.5 -137.5
t179 -51.5q133 0 252 69l16 -54q-139 -75 -280 -75q-121 0 -211 61.5t-127.5 161.5t-15.5 213q34 174 184.5 306t326.5 132q91 0 165.5 -34.5t120.5 -91.5t64.5 -133t2.5 -157q-19 -100 -84 -164.5t-155 -64.5q-89 0 -106 71zM369 273q-10 -50 19 -85.5t78 -35.5
q50 0 92.5 36t52.5 85q9 50 -20 85.5t-78 35.5q-50 0 -92.5 -36t-51.5 -85z" />
    <glyph glyph-name="A" unicode="A" horiz-adv-x="644" 
d="M70 -12l-103 23l423 701h40l151 -701l-113 -23l-33 171h-266zM417 255l-48 248l-144 -248h192z" />
    <glyph glyph-name="B" unicode="B" horiz-adv-x="548" 
d="M224 0h-196l136 700h169q105 0 155 -49t36 -123q-11 -54 -46 -94.5t-90 -58.5q69 -17 97 -65t15 -115q-16 -86 -90 -140.5t-186 -54.5zM260 600l-34 -178h54q55 0 87 24.5t40 64.5t-15 64.5t-78 24.5h-54zM206 322l-43 -222h68q63 0 105 30.5t52 80.5q9 50 -21 80.5
t-93 30.5h-68z" />
    <glyph glyph-name="C" unicode="C" horiz-adv-x="719" 
d="M535 712q156 0 243 -108l-95 -78q-59 76 -169 76q-106 0 -193.5 -72t-108.5 -180t38.5 -180t165.5 -72q111 0 198 76l65 -78q-129 -108 -285 -108q-152 0 -240 104.5t-58 257.5t158.5 257.5t280.5 104.5z" />
    <glyph glyph-name="D" unicode="D" horiz-adv-x="686" 
d="M656 350q-31 -156 -154 -253t-278 -97h-196l136 700h196q155 0 240.5 -97t55.5 -253zM258 590l-93 -480h81q109 0 191 65t103 175t-35.5 175t-165.5 65h-81z" />
    <glyph glyph-name="E" unicode="E" horiz-adv-x="493" 
d="M414 110l-21 -110h-365l136 700h356l-22 -110h-240l-29 -150h215l-21 -106h-215l-43 -224h249z" />
    <glyph glyph-name="F" unicode="F" horiz-adv-x="461" 
d="M144 0h-116l136 700h356l-22 -110h-240l-30 -157h210l-22 -110h-210z" />
    <glyph glyph-name="G" unicode="G" horiz-adv-x="791" 
d="M802 380l-11 -56q-28 -145 -140.5 -240.5t-256.5 -95.5q-152 0 -240 104.5t-58 257.5t158.5 257.5t280.5 104.5q89 0 159 -38.5t109 -106.5l-104 -66q-26 48 -74 74.5t-111 26.5q-106 0 -193.5 -72t-108.5 -180t38.5 -180t165.5 -72q82 0 145.5 46t96.5 126h-174l21 110
h297z" />
    <glyph glyph-name="H" unicode="H" horiz-adv-x="655" 
d="M547 700h116l-136 -700h-116l63 328h-267l-63 -328h-116l136 700h116l-51 -262h267z" />
    <glyph glyph-name="I" unicode="I" horiz-adv-x="292" 
d="M174 700h116l-136 -700h-116z" />
    <glyph glyph-name="J" unicode="J" horiz-adv-x="448" 
d="M-34 77l101 70q7 -23 26.5 -36t43.5 -13q84 0 109 125l93 477h116l-95 -484q-21 -112 -86.5 -170t-155.5 -58q-49 0 -90 24t-62 65z" />
    <glyph glyph-name="K" unicode="K" horiz-adv-x="598" 
d="M213 356l331 356l80 -59l-282 -296l201 -304l-108 -65l-222 368l-69 -356h-116l136 700h116z" />
    <glyph glyph-name="L" unicode="L" horiz-adv-x="474" 
d="M164 700h116l-115 -590h259l-21 -110h-375z" />
    <glyph glyph-name="M" unicode="M" horiz-adv-x="946" 
d="M440 -12h-40l-97 497l-221 -499l-110 25l342 701h41l109 -500l303 500h41l70 -701l-120 -25l-27 499z" />
    <glyph glyph-name="N" unicode="N" horiz-adv-x="741" 
d="M568 -12l-333 483l-91 -471h-116l136 702l44 10l333 -483l92 471h116l-137 -702z" />
    <glyph glyph-name="O" unicode="O" horiz-adv-x="834" 
d="M386 98q105 0 192.5 72t109.5 180q21 108 -38.5 180t-165.5 72t-193.5 -72t-108.5 -180t38.5 -180t165.5 -72zM124 92q-88 105 -58 258t158.5 257.5t280.5 104.5t240.5 -104.5t58.5 -257.5t-159 -257.5t-281 -104.5t-240 104z" />
    <glyph glyph-name="P" unicode="P" horiz-adv-x="526" 
d="M253 260h-59l-50 -260h-116l136 700h175q111 0 165 -63.5t36 -156.5q-19 -93 -97.5 -156.5t-189.5 -63.5zM259 594l-44 -228h56q58 0 100.5 30.5t52.5 83.5t-20.5 83.5t-88.5 30.5h-56z" />
    <glyph glyph-name="Q" unicode="Q" horiz-adv-x="834" 
d="M834 350q-25 -127 -122 -224l62 -80l-86 -71l-64 81q-111 -68 -230 -68q-152 0 -240 104.5t-58 257.5t158.5 257.5t280.5 104.5t240.5 -104.5t58.5 -257.5zM561 137l-79 103l87 71l79 -103q54 61 70 142q21 108 -38.5 180t-165.5 72t-193.5 -72t-108.5 -180t38.5 -180
t165.5 -72q75 0 145 39z" />
    <glyph glyph-name="R" unicode="R" horiz-adv-x="558" 
d="M259 594l-115 -594h-116l136 700h174q106 0 160.5 -59t37.5 -150q-12 -60 -55 -111.5t-113 -74.5l144 -265l-103 -52l-175 361l17 38h9q66 0 108.5 28.5t51.5 76.5q10 49 -20.5 75.5t-89.5 26.5h-51z" />
    <glyph glyph-name="S" unicode="S" horiz-adv-x="540" 
d="M344 431q86 -39 119 -96t17 -138q-17 -88 -88.5 -148.5t-177.5 -60.5q-72 0 -125.5 36.5t-76.5 100.5l91 72q14 -48 51.5 -73.5t83.5 -25.5q45 0 81.5 31t45.5 72q8 45 -14 76.5t-90 63.5q-75 36 -106 83.5t-17 117.5q14 71 75.5 120.5t143.5 49.5q58 0 97.5 -27.5
t54.5 -73.5l-82 -63q-26 54 -84 54q-36 0 -60.5 -18t-29.5 -47q-7 -34 13 -57t78 -49z" />
    <glyph glyph-name="T" unicode="T" horiz-adv-x="490" 
d="M86 590l22 110h446l-22 -110h-165l-114 -590h-116l114 590h-165z" />
    <glyph glyph-name="U" unicode="U" horiz-adv-x="656" 
d="M484 248l88 452h116l-88 -452q-24 -119 -111 -189.5t-190 -70.5t-163 70.5t-36 189.5l88 452h116l-88 -452q-15 -73 14.5 -111.5t90.5 -38.5t104.5 38.5t58.5 111.5z" />
    <glyph glyph-name="V" unicode="V" horiz-adv-x="644" 
d="M310 197l299 515l103 -23l-423 -701h-40l-151 701l113 23z" />
    <glyph glyph-name="W" unicode="W" horiz-adv-x="998" 
d="M567 712h40l84 -499l270 499l104 -25l-399 -699h-42l-82 494l-274 -494h-42l-127 699l114 25l76 -499z" />
    <glyph glyph-name="X" unicode="X" horiz-adv-x="635" 
d="M319 271l-262 -283l-95 52l305 328l-157 292l115 52l132 -246l229 246l95 -52l-271 -292l177 -328l-115 -52z" />
    <glyph glyph-name="Y" unicode="Y" horiz-adv-x="620" 
d="M318 0h-116l54 281l-166 381l119 50l126 -322l252 322l99 -50l-314 -381z" />
    <glyph glyph-name="Z" unicode="Z" horiz-adv-x="528" 
d="M559 700l9 -34l-403 -556h307l-21 -110h-464l-11 33l406 557h-258l22 110h413z" />
    <glyph glyph-name="bracketleft" unicode="[" horiz-adv-x="364" 
d="M42 -130l171 880h216l-16 -86h-110l-138 -708h110l-17 -86h-216z" />
    <glyph glyph-name="backslash" unicode="\" horiz-adv-x="521" 
d="M99 716l98 32l247 -826l-98 -32z" />
    <glyph glyph-name="bracketright" unicode="]" horiz-adv-x="364" 
d="M341 750l-171 -880h-216l17 86h110l138 708h-110l16 86h216z" />
    <glyph glyph-name="asciicircum" unicode="^" horiz-adv-x="630" 
d="M309 700h32l212 -282l-86 -57l-142 193l-142 -193l-86 57z" />
    <glyph glyph-name="underscore" unicode="_" horiz-adv-x="500" 
d="M-84 -175l16 78h499l-16 -78h-499z" />
    <glyph glyph-name="grave" unicode="`" horiz-adv-x="406" 
d="M185 688l67 59l120 -138l-66 -58z" />
    <glyph glyph-name="a" unicode="a" horiz-adv-x="635" 
d="M381 125q54 45 67 109t-23.5 108.5t-99.5 44.5t-116.5 -44.5t-66.5 -108.5t23.5 -108.5t99.5 -44.5t116 44zM602 468l-90 -468h-106l12 66q-78 -78 -189 -78q-100 0 -156 71t-36 175t104 175t184 71q112 0 159 -78l12 66h106z" />
    <glyph glyph-name="b" unicode="b" horiz-adv-x="635" 
d="M243 342q-53 -44 -66 -108t23.5 -108.5t99.5 -44.5t116.5 44.5t66.5 108.5t-23.5 108.5t-99.5 44.5t-117 -45zM23 0l145 750h106l-67 -348q78 78 189 78q100 0 156 -71t36 -175t-104 -175t-184 -71q-112 0 -159 78l-12 -66h-106z" />
    <glyph glyph-name="c" unicode="c" horiz-adv-x="509" 
d="M361 480q105 0 167 -74l-83 -69q-33 45 -103 45q-64 0 -115 -42t-64 -106q-13 -63 22 -105.5t99 -42.5q70 0 121 45l57 -69q-92 -74 -197 -74q-108 0 -168 71t-40 175t108 175t196 71z" />
    <glyph glyph-name="d" unicode="d" horiz-adv-x="635" 
d="M401 125q54 45 67 109t-23.5 108.5t-99.5 44.5t-116.5 -44.5t-66.5 -108.5t23.5 -108.5t99.5 -44.5t116 44zM677 750l-145 -750h-106l12 66q-78 -78 -189 -78q-100 0 -156 71t-36 175t104 175t184 71q112 0 159 -78l67 348h106z" />
    <glyph glyph-name="e" unicode="e" horiz-adv-x="580" 
d="M267 86q78 0 142 69l69 -61q-99 -106 -232 -106q-108 0 -168.5 70.5t-40.5 175.5q20 103 107 174.5t190 71.5q102 0 161 -70t40 -176q-4 -19 -8 -28h-387q-2 -57 35 -88.5t92 -31.5zM161 284h276q-1 48 -34.5 73t-86.5 25q-43 0 -87 -26.5t-68 -71.5z" />
    <glyph glyph-name="f" unicode="f" horiz-adv-x="357" 
d="M47 370l19 98h76l20 99q17 92 70 143t134 51q88 0 125 -69l-81 -59q-14 35 -55 35q-68 0 -88 -105l-19 -95h135l-19 -98h-135l-126 -652h-106l126 652h-76z" />
    <glyph glyph-name="g" unicode="g" horiz-adv-x="635" 
d="M602 468l-88 -455q-30 -156 -117 -225.5t-211 -69.5q-136 0 -193 111l89 59q36 -77 122 -77q165 0 202 191l12 64q-78 -78 -189 -78q-100 0 -156 71t-36 175t104 175t184 71q112 0 159 -78l12 66h106zM381 125q54 45 67 109t-23.5 108.5t-99.5 44.5t-116.5 -44.5
t-66.5 -108.5t23.5 -108.5t99.5 -44.5t116 44z" />
    <glyph glyph-name="h" unicode="h" horiz-adv-x="549" 
d="M431 0h-106l55 284q8 45 -14 74t-64 29t-76 -29t-42 -74l-55 -284h-106l145 750h106l-63 -326q64 56 142 56q72 0 112 -48t25 -126z" />
    <glyph glyph-name="i" unicode="i" horiz-adv-x="260" 
d="M27 0l90 468h106l-90 -468h-106zM273 648q-5 -28 -29 -48t-52 -20t-44 20t-11 48q6 28 30 48t52 20t44 -20t10 -48z" />
    <glyph glyph-name="j" unicode="j" horiz-adv-x="261" 
d="M16 -82l106 550h106l-107 -552q-18 -94 -72.5 -146t-136.5 -52q-40 0 -74.5 18t-53.5 50l86 62q14 -37 56 -37q69 0 90 107zM278 648q-5 -28 -29 -48t-52 -20t-44 20t-11 48q6 28 30 48t52 20t44 -20t10 -48z" />
    <glyph glyph-name="k" unicode="k" horiz-adv-x="511" 
d="M273 750l-97 -498l269 228l60 -65l-202 -167l154 -192l-89 -68l-192 264l-48 -252h-106l145 750h106z" />
    <glyph glyph-name="l" unicode="l" horiz-adv-x="260" 
d="M278 750l-145 -750h-106l145 750h106z" />
    <glyph glyph-name="m" unicode="m" horiz-adv-x="851" 
d="M733 0h-106l55 284q8 45 -14 74t-64 29t-76 -29t-42 -74l-55 -284h-106l55 284q8 45 -14 74t-64 29t-76 -29t-42 -74l-55 -284h-106l90 468h106l-8 -44q64 56 142 56q44 0 78.5 -20t50.5 -56q81 76 173 76q74 0 113 -48.5t23 -128.5z" />
    <glyph glyph-name="n" unicode="n" horiz-adv-x="549" 
d="M431 0h-106l55 284q8 45 -14 74t-64 29t-76 -29t-42 -74l-55 -284h-106l90 468h106l-8 -44q64 56 142 56q72 0 112 -48t25 -126z" />
    <glyph glyph-name="o" unicode="o" horiz-adv-x="596" 
d="M163 234q-13 -63 22 -105.5t99 -42.5t115 42t64 106q13 63 -22 105.5t-99 42.5t-115 -42t-64 -106zM97 59q-60 71 -40 175t108 175t196 71t168 -71t40 -175t-108 -175t-196 -71t-168 71z" />
    <glyph glyph-name="p" unicode="p" horiz-adv-x="635" 
d="M243 342q-53 -44 -66 -108t23.5 -108.5t99.5 -44.5t116.5 44.5t66.5 108.5t-23.5 108.5t-99.5 44.5t-117 -45zM-32 -282l145 750h106l-12 -66q78 78 189 78q100 0 156 -71t36 -175t-104 -175t-184 -71q-112 0 -159 78l-67 -348h-106z" />
    <glyph glyph-name="q" unicode="q" horiz-adv-x="635" 
d="M401 125q54 45 67 109t-23.5 108.5t-99.5 44.5t-116.5 -44.5t-66.5 -108.5t23.5 -108.5t99.5 -44.5t116 44zM622 468l-145 -750h-106l67 348q-78 -78 -189 -78q-100 0 -156 71t-36 175t104 175t184 71q112 0 159 -78l12 66h106z" />
    <glyph glyph-name="r" unicode="r" horiz-adv-x="393" 
d="M420 464l-48 -94q-28 18 -65 18q-46 0 -81.5 -36.5t-46.5 -91.5l-50 -260h-106l90 468h106l-9 -51q61 63 135 63q46 0 75 -16z" />
    <glyph glyph-name="s" unicode="s" horiz-adv-x="400" 
d="M156 82q30 0 50.5 15.5t25.5 40.5q6 27 -8.5 45t-55.5 36q-110 50 -93 134q10 55 58 91t108 36q37 0 68.5 -18.5t47.5 -49.5l-73 -58q-18 34 -51 34q-20 0 -34.5 -9t-17.5 -25q-4 -20 10.5 -34t52.5 -31q114 -53 95 -150q-13 -66 -64.5 -108.5t-130.5 -42.5q-49 0 -88 27
t-56 74l79 63q24 -70 77 -70z" />
    <glyph glyph-name="t" unicode="t" horiz-adv-x="344" 
d="M47 370l19 98h76l26 132h106l-26 -132h115l-19 -98h-115l-71 -370h-106l71 370h-76z" />
    <glyph glyph-name="u" unicode="u" horiz-adv-x="549" 
d="M123 468h106l-55 -284q-8 -45 14 -74t64 -29t76 29t42 74l55 284h106l-90 -468h-106l8 44q-64 -56 -142 -56q-72 0 -112 48t-25 126z" />
    <glyph glyph-name="v" unicode="v" horiz-adv-x="490" 
d="M211 -12h-38l-116 466l104 26l66 -315l188 315l94 -26z" />
    <glyph glyph-name="w" unicode="w" horiz-adv-x="774" 
d="M411 480h38l69 -313l189 313l94 -26l-299 -466h-39l-67 317l-191 -317h-39l-117 466l104 26l67 -313z" />
    <glyph glyph-name="x" unicode="x" horiz-adv-x="478" 
d="M318 -12l-97 180l-167 -180l-82 43l197 212l-104 194l100 43l85 -162l149 162l82 -43l-178 -194l115 -212z" />
    <glyph glyph-name="y" unicode="y" horiz-adv-x="509" 
d="M-14 -263l165 278l-89 438l107 27l59 -341l199 341l96 -27l-441 -747z" />
    <glyph glyph-name="z" unicode="z" horiz-adv-x="426" 
d="M415 468l5 -28l-266 -342h212l-19 -98h-359l-6 27l261 343h-162l19 98h315z" />
    <glyph glyph-name="braceleft" unicode="{" horiz-adv-x="402" 
d="M85 295l6 30q51 18 76.5 49.5t34.5 81.5l26 135q13 70 65 114.5t118 44.5h54l-17 -88h-25q-75 0 -93 -96l-20 -99q-20 -106 -120 -157q81 -51 59 -157l-19 -99q-18 -96 56 -96h25l-17 -88h-54q-66 0 -100 44.5t-21 114.5l26 135q10 49 -3.5 81t-56.5 50z" />
    <glyph glyph-name="bar" unicode="|" horiz-adv-x="309" 
d="M118 -200v969h93v-969h-93z" />
    <glyph glyph-name="braceright" unicode="}" horiz-adv-x="402" 
d="M337 325l-6 -30q-50 -18 -76 -49.5t-36 -81.5l-26 -135q-13 -70 -65 -114.5t-118 -44.5h-54l17 88h25q76 0 94 96l19 99q22 107 121 157q-80 51 -60 157l20 99q18 96 -57 96h-25l17 88h54q66 0 100 -44.5t21 -114.5l-26 -135q-19 -98 61 -131z" />
    <glyph glyph-name="asciitilde" unicode="~" horiz-adv-x="621" 
d="M319 272q-9 6 -23.5 17t-20.5 15.5t-16 10.5t-18.5 8t-18.5 2q-54 0 -62 -86l-96 23q11 75 50.5 118t99.5 43q61 0 108 -33q9 -6 23.5 -17t20.5 -15.5t16 -10.5t18.5 -8t18.5 -2q54 0 62 86l96 -23q-11 -75 -50.5 -118t-99.5 -43q-61 0 -108 33z" />
    <glyph glyph-name="uni00A0" unicode="&#xa0;" horiz-adv-x="300" 
 />
    <glyph glyph-name="exclamdown" unicode="&#xa1;" horiz-adv-x="314" 
d="M119 -236h-116l101 519h116zM257 407q-6 -29 -30.5 -49t-54.5 -20t-46.5 20t-10.5 49q5 29 29.5 49t54.5 20t46.5 -20t11.5 -49z" />
    <glyph glyph-name="cent" unicode="&#xa2;" horiz-adv-x="509" 
d="M308 475l16 81h80l-16 -78q86 -10 138 -72l-83 -69q-33 45 -103 45q-64 0 -115 -42t-64 -106q-13 -63 22 -105.5t99 -42.5q70 0 121 45l57 -69q-78 -62 -166 -72l-17 -84h-80l17 87q-87 16 -132 83t-27 158t89 158t164 83z" />
    <glyph glyph-name="sterling" unicode="&#xa3;" horiz-adv-x="594" 
d="M89 372h81l28 144q16 86 77.5 141t151.5 55q118 0 166 -103l-84 -59q-28 56 -92 56q-41 0 -68.5 -28t-36.5 -73l-26 -133h151l-13 -68h-151l-9 -46q-17 -85 -64 -152h315l-20 -106h-466l-7 32q100 94 122 207l13 65h-81z" />
    <glyph glyph-name="currency" unicode="&#xa4;" horiz-adv-x="714" 
d="M556 221l90 -90l-73 -74l-89 90q-53 -34 -117 -34t-117 34l-89 -90l-73 74l90 90q-29 50 -29 111t29 111l-90 90l73 74l89 -90q53 34 117 34t117 -34l89 90l73 -74l-90 -90q29 -50 29 -111t-29 -111zM279 423q-33 -35 -33 -91t33.5 -91t87.5 -35t87.5 35t33.5 91
t-33.5 91t-87.5 35t-88 -35z" />
    <glyph glyph-name="yen" unicode="&#xa5;" horiz-adv-x="620" 
d="M318 0h-116l32 166h-182l11 60h182l11 53h-182l11 60h147l-140 332l112 41l131 -322l257 322l96 -41l-270 -332h147l-11 -60h-182l-11 -53h182l-11 -60h-182z" />
    <glyph glyph-name="brokenbar" unicode="&#xa6;" horiz-adv-x="309" 
d="M118 364v327h93v-327h-93zM118 -103v326h93v-326h-93z" />
    <glyph glyph-name="section" unicode="&#xa7;" horiz-adv-x="523" 
d="M96 317q9 45 44.5 81t85.5 54q-67 50 -52 127q11 57 59 95t114 38q42 0 74.5 -20t48.5 -56l-75 -51q-18 38 -56 38q-23 0 -40 -13.5t-22 -34.5q-8 -46 70 -84q127 -63 103 -184q-20 -104 -129 -138q69 -50 53 -130q-11 -57 -62.5 -97.5t-117.5 -40.5q-43 0 -77.5 20.5
t-50.5 55.5l77 50q15 -38 60 -38q24 0 43.5 14.5t24.5 38.5q5 28 -12.5 49t-59.5 42q-126 62 -103 184zM258 232q33 0 60.5 22.5t34.5 57.5t-12 57.5t-52 22.5q-34 0 -61.5 -22.5t-34.5 -57.5t12 -57.5t53 -22.5z" />
    <glyph glyph-name="dieresis" unicode="&#xa8;" horiz-adv-x="406" 
d="M123 649q4 25 25 42t46 17t39 -17t10 -42q-5 -25 -26 -42t-46 -17t-39 17t-9 42zM315 649q4 25 25 42t46 17t39 -17t10 -42q-5 -25 -26 -42t-46 -17t-39 17t-9 42z" />
    <glyph glyph-name="copyright" unicode="&#xa9;" horiz-adv-x="828" 
d="M168 94q-106 106 -106 256t106 256t256 106t256 -106t106 -256t-106 -256t-256 -106t-256 106zM207 569q-89 -90 -89 -219t89.5 -219.5t216.5 -90.5t216.5 90.5t89.5 219.5t-89.5 219.5t-216.5 90.5t-217 -91zM438 545q83 0 145 -60l-59 -55q-34 39 -84 39
q-48 0 -80.5 -34t-32.5 -83t32.5 -83t80.5 -34q50 0 84 39l59 -55q-62 -60 -145 -60q-81 0 -140.5 57t-59.5 136t59.5 136t140.5 57z" />
    <glyph glyph-name="ordfeminine" unicode="&#xaa;" horiz-adv-x="446" 
d="M380 533q8 40 -15.5 69t-64.5 29t-75.5 -29t-42.5 -69q-7 -40 16 -69t64 -29t76 29t42 69zM503 702l-66 -338h-88l7 36q-54 -46 -124 -46q-72 0 -112 52t-26 127q14 74 74.5 126.5t133.5 52.5q68 0 106 -46l7 36h88z" />
    <glyph glyph-name="guillemotleft" unicode="&#xab;" horiz-adv-x="585" 
d="M56 300l4 24l265 172l24 -70l-180 -114l136 -114l-52 -70zM276 300l4 24l265 172l24 -70l-180 -114l136 -114l-52 -70z" />
    <glyph glyph-name="logicalnot" unicode="&#xac;" horiz-adv-x="621" 
d="M64 353v93h505v-285h-109v192h-396z" />
    <glyph glyph-name="uni00AD" unicode="&#xad;" horiz-adv-x="406" 
d="M353 286h-290l18 92h290z" />
    <glyph glyph-name="registered" unicode="&#xae;" horiz-adv-x="828" 
d="M168 94q-106 106 -106 256t106 256t256 106t256 -106t106 -256t-106 -256t-256 -106t-256 106zM207 569q-89 -90 -89 -219t89.5 -219.5t216.5 -90.5t216.5 90.5t89.5 219.5t-89.5 219.5t-216.5 90.5t-217 -91zM392 481v-318h-82v380h127q61 0 99 -30t38 -84
q0 -69 -62 -91l105 -142l-67 -45l-138 208l5 21h18q27 0 44.5 12t17.5 37q0 52 -61 52h-44z" />
    <glyph glyph-name="macron" unicode="&#xaf;" horiz-adv-x="500" 
d="M68 609l15 78h500l-15 -78h-500z" />
    <glyph glyph-name="degree" unicode="&#xb0;" horiz-adv-x="400" 
d="M307 672q40 -39 40 -96t-40 -96.5t-97 -39.5t-97 39.5t-40 96.5t40 96.5t97 39.5t97 -40zM164 623q-18 -18 -18 -47t18 -47.5t46 -18.5t46 18.5t18 47.5t-18 47.5t-46 18.5t-46 -19z" />
    <glyph glyph-name="plusminus" unicode="&#xb1;" horiz-adv-x="621" 
d="M266 164v191h-188v93h188v191h109v-191h188v-93h-188v-191h-109zM563 29h-485v93h485v-93z" />
    <glyph glyph-name="twosuperior" unicode="&#xb2;" 
d="M311 438l-115 -119h156l-15 -77h-279l-9 26l199 211q53 56 60 95q5 27 -7.5 43.5t-40.5 16.5q-44 0 -82 -51l-58 38q68 91 155 91q66 0 98.5 -38.5t20.5 -98.5q-12 -63 -83 -137z" />
    <glyph glyph-name="threesuperior" unicode="&#xb3;" 
d="M185 466l-12 28l110 129h-150l15 77h255l11 -28l-127 -151q97 -37 77 -142q-11 -60 -63 -104.5t-127 -44.5q-45 0 -80 21.5t-51 62.5l71 51q21 -57 74 -57q32 0 57.5 20.5t32.5 52.5q7 39 -16.5 62t-76.5 23z" />
    <glyph glyph-name="acute" unicode="&#xb4;" horiz-adv-x="406" 
d="M344 747l43 -59l-173 -137l-44 58z" />
    <glyph glyph-name="mu" unicode="&#xb5;" horiz-adv-x="591" 
d="M212 468l-54 -280q-9 -48 25 -75t81 -27q46 0 89.5 31.5t52.5 74.5l53 276h106l-90 -468h-106l8 43q-67 -55 -140 -55q-65 0 -110 38l-43 -219h-106l128 661h106z" />
    <glyph glyph-name="paragraph" unicode="&#xb6;" horiz-adv-x="592" 
d="M273 700h239v-831h-88v744h-42v-744h-88v398h-9q-98 0 -166 59t-68 159t62 157.5t160 57.5z" />
    <glyph glyph-name="periodcentered" unicode="&#xb7;" horiz-adv-x="304" 
d="M95 333q6 29 31 50t54 21t46 -21t11 -50q-5 -29 -30.5 -50t-54.5 -21t-45.5 21t-11.5 50z" />
    <glyph glyph-name="cedilla" unicode="&#xb8;" horiz-adv-x="406" 
d="M69 -87l-2 16l48 73h75l-32 -45q35 -9 52 -34t10 -59q-8 -42 -47 -72t-100 -30q-50 0 -87 29l48 53q21 -16 46 -16q48 0 57 40q4 22 -14 33.5t-54 11.5z" />
    <glyph glyph-name="onesuperior" unicode="&#xb9;" 
d="M322 712l27 -9l-89 -461h-87l67 348l-76 -37l-25 66z" />
    <glyph glyph-name="ordmasculine" unicode="&#xba;" horiz-adv-x="446" 
d="M444 659q45 -52 31 -126t-79.5 -126.5t-140.5 -52.5t-119.5 52.5t-30.5 126.5t79.5 126.5t140.5 52.5t119 -53zM192 533q-8 -41 14.5 -70t64.5 -29t75.5 28.5t41.5 70.5q8 41 -14.5 70t-64.5 29t-75.5 -28.5t-41.5 -70.5z" />
    <glyph glyph-name="guillemotright" unicode="&#xbb;" horiz-adv-x="585" 
d="M549 324l-4 -24l-265 -172l-24 70l180 114l-136 114l52 70zM329 324l-4 -24l-265 -172l-24 70l180 114l-136 114l52 70z" />
    <glyph glyph-name="onequarter" unicode="&#xbc;" horiz-adv-x="964" 
d="M322 712l27 -9l-89 -461h-87l67 348l-76 -37l-25 66zM706 715l58 -35l-508 -695l-58 35zM532 89l-9 27l328 359l37 -6l-60 -305h49l-14 -75h-49l-16 -83h-84l16 83h-198zM651 164h93l27 135z" />
    <glyph glyph-name="onehalf" unicode="&#xbd;" horiz-adv-x="964" 
d="M322 712l27 -9l-89 -461h-87l67 348l-76 -37l-25 66zM706 715l58 -35l-508 -695l-58 35zM816 201l-116 -119h156l-15 -77h-279l-8 26l199 211q53 56 60 95q5 27 -7.5 43.5t-40.5 16.5q-45 0 -82 -51l-58 38q68 91 155 91q66 0 98.5 -38.5t20.5 -98.5q-12 -63 -83 -137z
" />
    <glyph glyph-name="threequarters" unicode="&#xbe;" horiz-adv-x="964" 
d="M185 466l-12 28l110 129h-150l15 77h255l11 -28l-127 -151q97 -37 77 -142q-11 -60 -63 -104.5t-127 -44.5q-45 0 -80 21.5t-51 62.5l71 51q21 -57 74 -57q32 0 57.5 20.5t32.5 52.5q7 39 -16.5 62t-76.5 23zM706 715l58 -35l-508 -695l-58 35zM532 88l-9 27l328 359
l36 -6l-59 -305h49l-14 -75h-49l-17 -83h-84l17 83h-198zM651 163h93l26 135z" />
    <glyph glyph-name="questiondown" unicode="&#xbf;" horiz-adv-x="495" 
d="M180 185l-27 72q52 42 113 42q59 0 91.5 -33t22.5 -81q-8 -43 -44.5 -82t-94.5 -64q-130 -56 -142 -121q-7 -35 18 -52.5t73 -17.5q77 0 140 68l73 -51q-113 -113 -233 -113q-94 0 -145.5 46.5t-37.5 118.5q22 114 197 190q76 33 83 66q4 17 -5 26t-26 9q-26 0 -56 -23z
M370 405q-5 -29 -30.5 -50t-54.5 -21t-45.5 21t-11.5 50q6 29 31 50t54 21t46 -21t11 -50z" />
    <glyph glyph-name="Agrave" unicode="&#xc0;" horiz-adv-x="644" 
d="M-33 11l103 -23l99 171h266l33 -171l113 23l-151 701h-40zM369 503l48 -248h-192zM311 892l66 59l121 -138l-67 -58z" />
    <glyph glyph-name="Aacute" unicode="&#xc1;" horiz-adv-x="644" 
d="M70 -12l-103 23l423 701h40l151 -701l-113 -23l-33 171h-266zM417 255l-48 248l-144 -248h192zM546 951l44 -59l-174 -137l-43 58z" />
    <glyph glyph-name="Acircumflex" unicode="&#xc2;" horiz-adv-x="644" 
d="M70 -12l-103 23l423 701h40l151 -701l-113 -23l-33 171h-266zM417 255l-48 248l-144 -248h192zM444 950h24l121 -137l-67 -58l-85 97l-123 -97l-43 58z" />
    <glyph glyph-name="Atilde" unicode="&#xc3;" horiz-adv-x="644" 
d="M70 -12l-103 23l423 701h40l151 -701l-113 -23l-33 171h-266zM417 255l-48 248l-144 -248h192zM415 819q-21 21 -38 21q-28 0 -43 -49l-72 21q17 50 51 79t74 29q42 0 75 -33q19 -21 38 -21q28 0 42 49l72 -21q-16 -50 -50.5 -79t-74.5 -29q-41 0 -74 33z" />
    <glyph glyph-name="Adieresis" unicode="&#xc4;" horiz-adv-x="644" 
d="M70 -12l-103 23l423 701h40l151 -701l-113 -23l-33 171h-266zM417 255l-48 248l-144 -248h192zM282 853q5 25 26 42t46 17t39 -17t9 -42q-4 -25 -25 -42t-46 -17t-39 17t-10 42zM474 853q5 25 26 42t46 17t39 -17t9 -42q-4 -25 -25 -42t-46 -17t-39 17t-10 42z" />
    <glyph glyph-name="Aring" unicode="&#xc5;" horiz-adv-x="644" 
d="M70 -12l-103 23l423 701h40l151 -701l-113 -23l-33 171h-266zM417 255l-48 248l-144 -248h192zM347 778q-26 30 -17 75t46.5 75t82.5 30t70.5 -30t16.5 -75t-46 -75t-82 -30t-71 30zM412 885q-15 -13 -19 -32t7 -32t30 -13t34 13t19 32t-6.5 32t-29.5 13t-35 -13z" />
    <glyph glyph-name="AE" unicode="&#xc6;" horiz-adv-x="836" 
d="M757 110l-21 -110h-363l31 161h-207l-133 -173l-94 39l520 673h373l-22 -110h-240l-29 -150h215l-21 -106h-215l-43 -224h249zM422 253l52 270l-207 -270h155z" />
    <glyph glyph-name="Ccedilla" unicode="&#xc7;" horiz-adv-x="719" 
d="M291 -87l-2 16l42 64q-127 21 -196 120.5t-42 236.5q30 153 158.5 257.5t280.5 104.5q156 0 243 -108l-95 -78q-59 76 -169 76q-106 0 -193.5 -72t-108.5 -180t38.5 -180t165.5 -72q111 0 198 76l65 -78q-123 -103 -274 -108l-22 -31q35 -9 52 -34t10 -59q-8 -42 -47 -72
t-100 -30q-50 0 -87 29l48 53q21 -16 46 -16q48 0 57 40q4 22 -14 33.5t-54 11.5z" />
    <glyph glyph-name="Egrave" unicode="&#xc8;" horiz-adv-x="493" 
d="M393 0l21 110h-249l43 224h215l21 106h-215l29 150h240l22 110h-356l-136 -700h365zM274 892l66 59l121 -138l-67 -58z" />
    <glyph glyph-name="Eacute" unicode="&#xc9;" horiz-adv-x="493" 
d="M414 110l-21 -110h-365l136 700h356l-22 -110h-240l-29 -150h215l-21 -106h-215l-43 -224h249zM445 951l44 -59l-174 -137l-43 58z" />
    <glyph glyph-name="Ecircumflex" unicode="&#xca;" horiz-adv-x="493" 
d="M414 110l-21 -110h-365l136 700h356l-22 -110h-240l-29 -150h215l-21 -106h-215l-43 -224h249zM376 950h24l121 -137l-67 -58l-85 97l-123 -97l-43 58z" />
    <glyph glyph-name="Edieresis" unicode="&#xcb;" horiz-adv-x="493" 
d="M414 110l-21 -110h-365l136 700h356l-22 -110h-240l-29 -150h215l-21 -106h-215l-43 -224h249zM214 853q5 25 26 42t46 17t39 -17t9 -42q-4 -25 -25 -42t-46 -17t-39 17t-10 42zM406 853q5 25 26 42t46 17t39 -17t9 -42q-4 -25 -25 -42t-46 -17t-39 17t-10 42z" />
    <glyph glyph-name="Igrave" unicode="&#xcc;" horiz-adv-x="292" 
d="M290 700h-116l-136 -700h116zM130 892l66 59l121 -138l-67 -58z" />
    <glyph glyph-name="Iacute" unicode="&#xcd;" horiz-adv-x="292" 
d="M174 700h116l-136 -700h-116zM364 951l44 -59l-174 -137l-43 58z" />
    <glyph glyph-name="Icircumflex" unicode="&#xce;" horiz-adv-x="292" 
d="M174 700h116l-136 -700h-116zM268 950h24l121 -137l-67 -58l-85 97l-123 -97l-43 58z" />
    <glyph glyph-name="Idieresis" unicode="&#xcf;" horiz-adv-x="292" 
d="M174 700h116l-136 -700h-116zM105 853q5 25 26 42t46 17t39 -17t9 -42q-4 -25 -25 -42t-46 -17t-39 17t-10 42zM297 853q5 25 26 42t46 17t39 -17t9 -42q-4 -25 -25 -42t-46 -17t-39 17t-10 42z" />
    <glyph glyph-name="Eth" unicode="&#xd0;" horiz-adv-x="686" 
d="M656 350q-31 -156 -154 -253t-278 -97h-196l59 308h-69l16 81h69l61 311h196q155 0 240.5 -97t55.5 -253zM203 308l-38 -198h81q109 0 191 65t103 175t-35.5 175t-165.5 65h-81l-39 -201h149l-16 -81h-149z" />
    <glyph glyph-name="Ntilde" unicode="&#xd1;" horiz-adv-x="741" 
d="M568 -12l-333 483l-91 -471h-116l136 702l44 10l333 -483l92 471h116l-137 -702zM462 819q-21 21 -38 21q-28 0 -43 -49l-72 21q17 50 51 79t74 29q42 0 75 -33q19 -21 38 -21q28 0 42 49l72 -21q-16 -50 -50.5 -79t-74.5 -29q-41 0 -74 33z" />
    <glyph glyph-name="Ograve" unicode="&#xd2;" horiz-adv-x="834" 
d="M718 350q-22 -108 -109.5 -180t-192.5 -72q-106 0 -165.5 72t-38.5 180t108.5 180t193.5 72t165.5 -72t38.5 -180zM254 607q-128 -104 -158 -257t58 -257.5t240 -104.5t281 104.5t159 257.5t-58.5 257.5t-240.5 104.5t-281 -105zM438 892l66 59l121 -138l-67 -58z" />
    <glyph glyph-name="Oacute" unicode="&#xd3;" horiz-adv-x="834" 
d="M416 98q105 0 192.5 72t109.5 180q21 108 -38.5 180t-165.5 72t-193.5 -72t-108.5 -180t38.5 -180t165.5 -72zM154 92q-88 105 -58 258t158.5 257.5t280.5 104.5t240.5 -104.5t58.5 -257.5t-159 -257.5t-281 -104.5t-240 104zM658 951l44 -59l-174 -137l-43 58z" />
    <glyph glyph-name="Ocircumflex" unicode="&#xd4;" horiz-adv-x="834" 
d="M416 98q105 0 192.5 72t109.5 180q21 108 -38.5 180t-165.5 72t-193.5 -72t-108.5 -180t38.5 -180t165.5 -72zM154 92q-88 105 -58 258t158.5 257.5t280.5 104.5t240.5 -104.5t58.5 -257.5t-159 -257.5t-281 -104.5t-240 104zM569 950h24l121 -137l-67 -58l-85 97
l-123 -97l-43 58z" />
    <glyph glyph-name="Otilde" unicode="&#xd5;" horiz-adv-x="834" 
d="M416 98q105 0 192.5 72t109.5 180q21 108 -38.5 180t-165.5 72t-193.5 -72t-108.5 -180t38.5 -180t165.5 -72zM154 92q-88 105 -58 258t158.5 257.5t280.5 104.5t240.5 -104.5t58.5 -257.5t-159 -257.5t-281 -104.5t-240 104zM539 819q-21 21 -38 21q-28 0 -43 -49
l-72 21q17 50 51 79t74 29q42 0 75 -33q19 -21 38 -21q28 0 42 49l72 -21q-16 -50 -50.5 -79t-74.5 -29q-41 0 -74 33z" />
    <glyph glyph-name="Odieresis" unicode="&#xd6;" horiz-adv-x="834" 
d="M416 98q105 0 192.5 72t109.5 180q21 108 -38.5 180t-165.5 72t-193.5 -72t-108.5 -180t38.5 -180t165.5 -72zM154 92q-88 105 -58 258t158.5 257.5t280.5 104.5t240.5 -104.5t58.5 -257.5t-159 -257.5t-281 -104.5t-240 104zM406 853q5 25 26 42t46 17t39 -17t9 -42
q-4 -25 -25 -42t-46 -17t-39 17t-10 42zM598 853q5 25 26 42t46 17t39 -17t9 -42q-4 -25 -25 -42t-46 -17t-39 17t-10 42z" />
    <glyph glyph-name="multiply" unicode="&#xd7;" horiz-adv-x="621" 
d="M93 178l153 154l-153 154l74 74l154 -153l154 153l74 -74l-153 -154l153 -154l-74 -74l-154 153l-154 -153z" />
    <glyph glyph-name="Oslash" unicode="&#xd8;" horiz-adv-x="834" 
d="M663 683l91 117l60 -39l-89 -116q62 -50 88.5 -127t8.5 -168q-30 -153 -159 -257.5t-281 -104.5q-77 0 -140 29l-90 -117l-60 39l88 115q-62 50 -88 127.5t-8 168.5q30 153 158.5 257.5t280.5 104.5q77 0 140 -29zM200 350q-25 -123 55 -198l334 434q-43 16 -87 16
q-106 0 -193.5 -72t-108.5 -180zM404 98q105 0 192.5 72t109.5 180q23 123 -56 197l-333 -433q42 -16 87 -16z" />
    <glyph glyph-name="Ugrave" unicode="&#xd9;" horiz-adv-x="656" 
d="M216 248l88 452h-116l-88 -452q-24 -119 36 -189.5t163 -70.5t190 70.5t111 189.5l88 452h-116l-88 -452q-15 -73 -58.5 -111.5t-104.5 -38.5t-90.5 38.5t-14.5 111.5zM350 892l66 59l121 -138l-67 -58z" />
    <glyph glyph-name="Uacute" unicode="&#xda;" horiz-adv-x="656" 
d="M484 248l88 452h116l-88 -452q-24 -119 -111 -189.5t-190 -70.5t-163 70.5t-36 189.5l88 452h116l-88 -452q-15 -73 14.5 -111.5t90.5 -38.5t104.5 38.5t58.5 111.5zM556 951l44 -59l-174 -137l-43 58z" />
    <glyph glyph-name="Ucircumflex" unicode="&#xdb;" horiz-adv-x="656" 
d="M484 248l88 452h116l-88 -452q-24 -119 -111 -189.5t-190 -70.5t-163 70.5t-36 189.5l88 452h116l-88 -452q-15 -73 14.5 -111.5t90.5 -38.5t104.5 38.5t58.5 111.5zM474 950h24l121 -137l-67 -58l-85 97l-123 -97l-43 58z" />
    <glyph glyph-name="Udieresis" unicode="&#xdc;" horiz-adv-x="656" 
d="M484 248l88 452h116l-88 -452q-24 -119 -111 -189.5t-190 -70.5t-163 70.5t-36 189.5l88 452h116l-88 -452q-15 -73 14.5 -111.5t90.5 -38.5t104.5 38.5t58.5 111.5zM312 853q5 25 26 42t46 17t39 -17t9 -42q-4 -25 -25 -42t-46 -17t-39 17t-10 42zM504 853q5 25 26 42
t46 17t39 -17t9 -42q-4 -25 -25 -42t-46 -17t-39 17t-10 42z" />
    <glyph glyph-name="Yacute" unicode="&#xdd;" horiz-adv-x="620" 
d="M318 0h-116l54 281l-166 381l119 50l126 -322l252 322l99 -50l-314 -381zM530 951l44 -59l-174 -137l-43 58z" />
    <glyph glyph-name="Thorn" unicode="&#xde;" horiz-adv-x="531" 
d="M144 0h-116l137 709h116l-25 -132h59q111 0 165 -63.5t36 -156.5t-97 -156.5t-190 -63.5h-59zM235 471l-44 -228h56q58 0 100.5 30.5t52.5 83.5t-20.5 83.5t-88.5 30.5h-56z" />
    <glyph glyph-name="germandbls" unicode="&#xdf;" horiz-adv-x="579" 
d="M14 0l103 531q19 97 86.5 158t162.5 61q87 0 132.5 -54.5t30.5 -131.5q-21 -112 -136 -155q79 -19 114 -71t21 -125q-19 -98 -92 -161.5t-174 -63.5q-61 0 -103 32l55 85q25 -24 66 -24q55 0 92.5 36t49.5 94q12 64 -25.5 105t-127.5 47l23 82q52 6 90.5 37t47.5 75
q8 42 -13.5 71t-66.5 29q-52 0 -83.5 -32.5t-41.5 -83.5l-105 -541h-106z" />
    <glyph glyph-name="agrave" unicode="&#xe0;" horiz-adv-x="635" 
d="M444 342q37 -44 24 -108t-66.5 -108.5t-116.5 -44.5t-99.5 44.5t-23.5 108.5t66.5 108.5t116.5 44.5t99 -45zM532 0l90 468h-106l-12 -66q-47 78 -159 78q-100 0 -184 -71t-104 -175t36 -175t156 -71q111 0 189 78l-12 -66h106zM305 668l67 59l120 -138l-66 -58z" />
    <glyph glyph-name="aacute" unicode="&#xe1;" horiz-adv-x="635" 
d="M381 125q54 45 67 109t-23.5 108.5t-99.5 44.5t-116.5 -44.5t-66.5 -108.5t23.5 -108.5t99.5 -44.5t116 44zM602 468l-90 -468h-106l12 66q-78 -78 -189 -78q-100 0 -156 71t-36 175t104 175t184 71q112 0 159 -78l12 66h106zM454 727l43 -59l-173 -137l-44 58z" />
    <glyph glyph-name="acircumflex" unicode="&#xe2;" horiz-adv-x="635" 
d="M401 125q54 45 67 109t-23.5 108.5t-99.5 44.5t-116.5 -44.5t-66.5 -108.5t23.5 -108.5t99.5 -44.5t116 44zM622 468l-90 -468h-106l12 66q-78 -78 -189 -78q-100 0 -156 71t-36 175t104 175t184 71q112 0 159 -78l12 66h106zM415 726h24l120 -137l-66 -58l-85 97
l-123 -97l-44 58z" />
    <glyph glyph-name="atilde" unicode="&#xe3;" horiz-adv-x="635" 
d="M381 125q54 45 67 109t-23.5 108.5t-99.5 44.5t-116.5 -44.5t-66.5 -108.5t23.5 -108.5t99.5 -44.5t116 44zM602 468l-90 -468h-106l12 66q-78 -78 -189 -78q-100 0 -156 71t-36 175t104 175t184 71q112 0 159 -78l12 66h106zM365 595q-19 21 -38 21q-28 0 -42 -49
l-72 21q16 50 50.5 79t74.5 29q41 0 74 -33q21 -21 38 -21q28 0 43 49l72 -21q-16 -50 -50.5 -79t-74.5 -29q-42 0 -75 33z" />
    <glyph glyph-name="adieresis" unicode="&#xe4;" horiz-adv-x="635" 
d="M401 125q54 45 67 109t-23.5 108.5t-99.5 44.5t-116.5 -44.5t-66.5 -108.5t23.5 -108.5t99.5 -44.5t116 44zM622 468l-90 -468h-106l12 66q-78 -78 -189 -78q-100 0 -156 71t-36 175t104 175t184 71q112 0 159 -78l12 66h106zM253 629q4 25 25 42t46 17t39 -17t10 -42
q-5 -25 -26 -42t-46 -17t-39 17t-9 42zM445 629q4 25 25 42t46 17t39 -17t10 -42q-5 -25 -26 -42t-46 -17t-39 17t-9 42z" />
    <glyph glyph-name="aring" unicode="&#xe5;" horiz-adv-x="635" 
d="M401 125q54 45 67 109t-23.5 108.5t-99.5 44.5t-116.5 -44.5t-66.5 -108.5t23.5 -108.5t99.5 -44.5t116 44zM622 468l-90 -468h-106l12 66q-78 -78 -189 -78q-100 0 -156 71t-36 175t104 175t184 71q112 0 159 -78l12 66h106zM317 554q-25 30 -16 75t46 75t82 30t71 -30
t17 -75t-46.5 -75t-82.5 -30t-71 30zM383 661q-15 -13 -19 -32t6.5 -32t29.5 -13t34.5 13t19.5 32t-6.5 32t-29.5 13t-35 -13z" />
    <glyph glyph-name="ae" unicode="&#xe6;" horiz-adv-x="917" 
d="M38 144q14 68 78.5 112.5t142.5 44.5q82 0 129 -52l2 13q26 129 -106 129q-72 0 -141 -52l-38 67q96 74 204 74q140 0 170 -94q86 94 205 94q102 0 160 -70t39 -176q-5 -23 -7 -28h-387q-1 -55 34.5 -87.5t91.5 -32.5q84 0 144 69l69 -61q-101 -106 -232 -106
q-61 0 -107.5 22t-69.5 63q-85 -84 -210 -84q-90 0 -137 43t-34 112zM667 382q-46 0 -90 -27t-67 -71h276q-2 49 -34.5 73.5t-84.5 24.5zM187 201q-35 -21 -42 -56t20.5 -56t75.5 -21t83.5 21t42.5 56t-20.5 56t-75.5 21t-84 -21z" />
    <glyph glyph-name="ccedilla" unicode="&#xe7;" horiz-adv-x="509" 
d="M178 -87l-2 16l41 63q-88 15 -134 82.5t-28 159.5q20 104 108 175t196 71q105 0 167 -74l-83 -69q-33 45 -103 45q-64 0 -115 -42t-64 -106q-13 -63 22 -105.5t99 -42.5q70 0 121 45l57 -69q-79 -63 -170 -72l-23 -33q35 -9 52 -34t10 -59q-8 -42 -47 -72t-100 -30
q-50 0 -87 29l48 53q21 -16 46 -16q48 0 57 40q4 22 -14 33.5t-54 11.5z" />
    <glyph glyph-name="egrave" unicode="&#xe8;" horiz-adv-x="580" 
d="M267 86q-55 0 -92 31.5t-35 88.5h387q4 9 8 28q19 106 -40 176t-161 70q-103 0 -190 -71.5t-107 -174.5q-20 -105 40.5 -175.5t168.5 -70.5q133 0 232 106l-69 61q-64 -69 -142 -69zM437 284h-276q24 45 68 71.5t87 26.5q53 0 86.5 -25t34.5 -73zM257 668l67 59l120 -138
l-66 -58z" />
    <glyph glyph-name="eacute" unicode="&#xe9;" horiz-adv-x="580" 
d="M267 86q78 0 142 69l69 -61q-99 -106 -232 -106q-108 0 -168.5 70.5t-40.5 175.5q20 103 107 174.5t190 71.5q102 0 161 -70t40 -176q-4 -19 -8 -28h-387q-2 -57 35 -88.5t92 -31.5zM161 284h276q-1 48 -34.5 73t-86.5 25q-43 0 -87 -26.5t-68 -71.5zM432 727l43 -59
l-173 -137l-44 58z" />
    <glyph glyph-name="ecircumflex" unicode="&#xea;" horiz-adv-x="580" 
d="M287 86q78 0 142 69l69 -61q-99 -106 -232 -106q-108 0 -168.5 70.5t-40.5 175.5q20 103 107 174.5t190 71.5q102 0 161 -70t40 -176q-4 -19 -8 -28h-387q-2 -57 35 -88.5t92 -31.5zM181 284h276q-1 48 -34.5 73t-86.5 25q-43 0 -87 -26.5t-68 -71.5zM384 726h24
l120 -137l-66 -58l-85 97l-123 -97l-44 58z" />
    <glyph glyph-name="edieresis" unicode="&#xeb;" horiz-adv-x="580" 
d="M267 86q78 0 142 69l69 -61q-99 -106 -232 -106q-108 0 -168.5 70.5t-40.5 175.5q20 103 107 174.5t190 71.5q102 0 161 -70t40 -176q-4 -19 -8 -28h-387q-2 -57 35 -88.5t92 -31.5zM161 284h276q-1 48 -34.5 73t-86.5 25q-43 0 -87 -26.5t-68 -71.5zM202 629q4 25 25 42
t46 17t39 -17t10 -42q-5 -25 -26 -42t-46 -17t-39 17t-9 42zM394 629q4 25 25 42t46 17t39 -17t10 -42q-5 -25 -26 -42t-46 -17t-39 17t-9 42z" />
    <glyph glyph-name="igrave" unicode="&#xec;" horiz-adv-x="260" 
d="M133 0l90 468h-106l-90 -468h106zM68 668l67 59l120 -138l-66 -58z" />
    <glyph glyph-name="iacute" unicode="&#xed;" horiz-adv-x="260" 
d="M307 727l43 -59l-173 -137l-44 58zM223 468l-90 -468h-106l90 468h106z" />
    <glyph glyph-name="icircumflex" unicode="&#xee;" horiz-adv-x="260" 
d="M223 468l-90 -468h-106l90 468h106zM209 726h24l120 -137l-66 -58l-85 97l-123 -97l-44 58z" />
    <glyph glyph-name="idieresis" unicode="&#xef;" horiz-adv-x="260" 
d="M223 468l-90 -468h-106l90 468h106zM46 629q4 25 25 42t46 17t39 -17t10 -42q-5 -25 -26 -42t-46 -17t-39 17t-9 42zM238 629q4 25 25 42t46 17t39 -17t10 -42q-5 -25 -26 -42t-46 -17t-39 17t-9 42z" />
    <glyph glyph-name="eth" unicode="&#xf0;" horiz-adv-x="593" 
d="M214 500l-24 59l96 49q-46 29 -82 48l85 74q56 -31 104 -68l124 63l22 -60l-96 -48q163 -163 121 -378q-21 -107 -110 -179t-192 -72q-102 0 -163.5 71.5t-41.5 174.5q19 101 103.5 171.5t180.5 70.5q66 0 96 -28q-35 66 -95 117zM226 340q-50 -41 -63 -106t21 -106.5
t97 -41.5t113 41.5t63 106.5t-21 106.5t-97 41.5t-113 -42z" />
    <glyph glyph-name="ntilde" unicode="&#xf1;" horiz-adv-x="549" 
d="M431 0h-106l55 284q8 45 -14 74t-64 29t-76 -29t-42 -74l-55 -284h-106l90 468h106l-8 -44q64 56 142 56q72 0 112 -48t25 -126zM325 595q-19 21 -38 21q-28 0 -42 -49l-72 21q16 50 50.5 79t74.5 29q41 0 74 -33q21 -21 38 -21q28 0 43 49l72 -21q-16 -50 -50.5 -79
t-74.5 -29q-42 0 -75 33z" />
    <glyph glyph-name="ograve" unicode="&#xf2;" horiz-adv-x="596" 
d="M163 234q13 64 64 106t115 42t99 -42.5t22 -105.5q-13 -64 -64 -106t-115 -42t-99 42.5t-22 105.5zM165 409q-88 -71 -108 -175t40 -175t168 -71t196 71t108 175t-40 175t-168 71t-196 -71zM286 668l67 59l120 -138l-66 -58z" />
    <glyph glyph-name="oacute" unicode="&#xf3;" horiz-adv-x="596" 
d="M143 234q-13 -63 22 -105.5t99 -42.5t115 42t64 106q13 63 -22 105.5t-99 42.5t-115 -42t-64 -106zM77 59q-60 71 -40 175t108 175t196 71t168 -71t40 -175t-108 -175t-196 -71t-168 71zM466 727l43 -59l-173 -137l-44 58z" />
    <glyph glyph-name="ocircumflex" unicode="&#xf4;" horiz-adv-x="596" 
d="M163 234q-13 -63 22 -105.5t99 -42.5t115 42t64 106q13 63 -22 105.5t-99 42.5t-115 -42t-64 -106zM97 59q-60 71 -40 175t108 175t196 71t168 -71t40 -175t-108 -175t-196 -71t-168 71zM396 726h24l120 -137l-66 -58l-85 97l-123 -97l-44 58z" />
    <glyph glyph-name="otilde" unicode="&#xf5;" horiz-adv-x="596" 
d="M143 234q-13 -63 22 -105.5t99 -42.5t115 42t64 106q13 63 -22 105.5t-99 42.5t-115 -42t-64 -106zM77 59q-60 71 -40 175t108 175t196 71t168 -71t40 -175t-108 -175t-196 -71t-168 71zM346 595q-19 21 -38 21q-28 0 -42 -49l-72 21q16 50 50.5 79t74.5 29q41 0 74 -33
q21 -21 38 -21q28 0 43 49l72 -21q-16 -50 -50.5 -79t-74.5 -29q-42 0 -75 33z" />
    <glyph glyph-name="odieresis" unicode="&#xf6;" horiz-adv-x="596" 
d="M163 234q-13 -63 22 -105.5t99 -42.5t115 42t64 106q13 63 -22 105.5t-99 42.5t-115 -42t-64 -106zM97 59q-60 71 -40 175t108 175t196 71t168 -71t40 -175t-108 -175t-196 -71t-168 71zM234 629q4 25 25 42t46 17t39 -17t10 -42q-5 -25 -26 -42t-46 -17t-39 17t-9 42z
M426 629q4 25 25 42t46 17t39 -17t10 -42q-5 -25 -26 -42t-46 -17t-39 17t-9 42z" />
    <glyph glyph-name="divide" unicode="&#xf7;" horiz-adv-x="621" 
d="M563 286h-485v92h485v-92zM253 533q0 29 19.5 48.5t48.5 19.5t48 -19.5t19 -48.5q0 -28 -19 -47.5t-48 -19.5t-48.5 19.5t-19.5 47.5zM253 131q0 28 19.5 47.5t48.5 19.5t48 -19.5t19 -47.5q0 -29 -19 -48.5t-48 -19.5t-48.5 19.5t-19.5 48.5z" />
    <glyph glyph-name="oslash" unicode="&#xf8;" horiz-adv-x="596" 
d="M426 466l88 115l61 -39l-87 -113q39 -34 56 -85t5 -110q-20 -104 -108 -175t-196 -71q-46 0 -85 14l-87 -114l-61 39l85 111q-40 33 -56 84.5t-4 111.5q20 104 108 175t196 71q45 0 85 -14zM143 234q-12 -65 22 -107l193 251q-15 4 -36 4q-64 0 -115 -42t-64 -106z
M264 86q64 0 115 42t64 106q12 65 -23 106l-192 -250q15 -4 36 -4z" />
    <glyph glyph-name="ugrave" unicode="&#xf9;" horiz-adv-x="549" 
d="M229 468h-106l-59 -306q-15 -78 25 -126t112 -48q78 0 142 56l-8 -44h106l90 468h-106l-55 -284q-8 -45 -42 -74t-76 -29t-64 29t-14 74zM252 668l67 59l120 -138l-66 -58z" />
    <glyph glyph-name="uacute" unicode="&#xfa;" horiz-adv-x="549" 
d="M108 468h106l-55 -284q-8 -45 14 -74t64 -29t76 29t42 74l55 284h106l-90 -468h-106l8 44q-64 -56 -142 -56q-72 0 -112 48t-25 126zM421 727l43 -59l-173 -137l-44 58z" />
    <glyph glyph-name="ucircumflex" unicode="&#xfb;" horiz-adv-x="549" 
d="M123 468h106l-55 -284q-8 -45 14 -74t64 -29t76 29t42 74l55 284h106l-90 -468h-106l8 44q-64 -56 -142 -56q-72 0 -112 48t-25 126zM366 726h24l120 -137l-66 -58l-85 97l-123 -97l-44 58z" />
    <glyph glyph-name="udieresis" unicode="&#xfc;" horiz-adv-x="549" 
d="M123 468h106l-55 -284q-8 -45 14 -74t64 -29t76 29t42 74l55 284h106l-90 -468h-106l8 44q-64 -56 -142 -56q-72 0 -112 48t-25 126zM204 629q4 25 25 42t46 17t39 -17t10 -42q-5 -25 -26 -42t-46 -17t-39 17t-9 42zM396 629q4 25 25 42t46 17t39 -17t10 -42
q-5 -25 -26 -42t-46 -17t-39 17t-9 42z" />
    <glyph glyph-name="yacute" unicode="&#xfd;" horiz-adv-x="509" 
d="M-14 -263l165 278l-89 438l107 27l59 -341l199 341l96 -27l-441 -747zM401 727l43 -59l-173 -137l-44 58z" />
    <glyph glyph-name="thorn" unicode="&#xfe;" horiz-adv-x="635" 
d="M243 342q-53 -44 -66 -108t23.5 -108.5t99.5 -44.5t116.5 44.5t66.5 108.5t-23.5 108.5t-99.5 44.5t-117 -45zM-32 -282l200 1032h106l-67 -348q78 78 189 78q100 0 156 -71t36 -175t-104 -175t-184 -71q-112 0 -159 78l-67 -348h-106z" />
    <glyph glyph-name="ydieresis" unicode="&#xff;" horiz-adv-x="509" 
d="M-14 -263l165 278l-89 438l107 27l59 -341l199 341l96 -27l-441 -747zM171 629q4 25 25 42t46 17t39 -17t10 -42q-5 -25 -26 -42t-46 -17t-39 17t-9 42zM363 629q4 25 25 42t46 17t39 -17t10 -42q-5 -25 -26 -42t-46 -17t-39 17t-9 42z" />
    <glyph glyph-name="Amacron" unicode="&#x100;" horiz-adv-x="644" 
d="M70 -12l-103 23l423 701h40l151 -701l-113 -23l-33 171h-266zM417 255l-48 248l-144 -248h192zM285 813l15 81h292l-15 -81h-292z" />
    <glyph glyph-name="amacron" unicode="&#x101;" horiz-adv-x="635" 
d="M381 125q54 45 67 109t-23.5 108.5t-99.5 44.5t-116.5 -44.5t-66.5 -108.5t23.5 -108.5t99.5 -44.5t116 44zM602 468l-90 -468h-106l12 66q-78 -78 -189 -78q-100 0 -156 71t-36 175t104 175t184 71q112 0 159 -78l12 66h106zM215 589l16 81h292l-16 -81h-292z" />
    <glyph glyph-name="Abreve" unicode="&#x102;" horiz-adv-x="644" 
d="M-33 11l103 -23l99 171h266l33 -171l113 23l-151 701h-40zM369 503l48 -248h-192zM306 930h84q-6 -29 7 -52t42 -23t50 23t27 52h84q-13 -66 -63.5 -111t-113.5 -45t-96.5 45t-20.5 111z" />
    <glyph glyph-name="abreve" unicode="&#x103;" horiz-adv-x="635" 
d="M444 342q37 -44 24 -108t-66.5 -108.5t-116.5 -44.5t-99.5 44.5t-23.5 108.5t66.5 108.5t116.5 44.5t99 -45zM532 0l90 468h-106l-12 -66q-47 78 -159 78q-100 0 -184 -71t-104 -175t36 -175t156 -71q111 0 189 78l-12 -66h106zM257 706h84q-6 -29 6.5 -52t41.5 -23
t50.5 23t27.5 52h84q-13 -66 -64 -111t-114 -45t-96 45t-20 111z" />
    <glyph glyph-name="Aogonek" unicode="&#x104;" horiz-adv-x="644" 
d="M70 -12l-103 23l423 701h40l151 -701l-21 -4q-76 -55 -86 -108q-5 -24 7 -35.5t34 -11.5q21 0 37 13l13 -63q-38 -21 -84 -21q-51 0 -76.5 30.5t-16.5 71.5q11 62 79 111l-32 165h-266zM417 255l-48 248l-144 -248h192z" />
    <glyph glyph-name="aogonek" unicode="&#x105;" horiz-adv-x="635" 
d="M622 468l-90 -468h-17q-68 -53 -77 -101q-5 -24 7 -35.5t34 -11.5q21 0 37 13l13 -63q-38 -21 -84 -21q-51 0 -76.5 30.5t-16.5 71.5q13 67 89 117h-15l12 66q-78 -78 -189 -78q-100 0 -156 71t-36 175t104 175t184 71q112 0 159 -78l12 66h106zM401 125q54 45 67 109
t-23.5 108.5t-99.5 44.5t-116.5 -44.5t-66.5 -108.5t23.5 -108.5t99.5 -44.5t116 44z" />
    <glyph glyph-name="Cacute" unicode="&#x106;" horiz-adv-x="719" 
d="M535 712q156 0 243 -108l-95 -78q-59 76 -169 76q-106 0 -193.5 -72t-108.5 -180t38.5 -180t165.5 -72q111 0 198 76l65 -78q-129 -108 -285 -108q-152 0 -240 104.5t-58 257.5t158.5 257.5t280.5 104.5zM623 951l44 -59l-174 -137l-43 58z" />
    <glyph glyph-name="cacute" unicode="&#x107;" horiz-adv-x="509" 
d="M341 480q105 0 167 -74l-83 -69q-33 45 -103 45q-64 0 -115 -42t-64 -106q-13 -63 22 -105.5t99 -42.5q70 0 121 45l57 -69q-92 -74 -197 -74q-108 0 -168 71t-40 175t108 175t196 71zM421 727l43 -59l-173 -137l-44 58z" />
    <glyph glyph-name="Ccircumflex" unicode="&#x108;" horiz-adv-x="719" 
d="M535 712q156 0 243 -108l-95 -78q-59 76 -169 76q-106 0 -193.5 -72t-108.5 -180t38.5 -180t165.5 -72q111 0 198 76l65 -78q-129 -108 -285 -108q-152 0 -240 104.5t-58 257.5t158.5 257.5t280.5 104.5zM536 950h24l121 -137l-67 -58l-85 97l-123 -97l-43 58z" />
    <glyph glyph-name="ccircumflex" unicode="&#x109;" horiz-adv-x="509" 
d="M361 480q105 0 167 -74l-83 -69q-33 45 -103 45q-64 0 -115 -42t-64 -106q-13 -63 22 -105.5t99 -42.5q70 0 121 45l57 -69q-92 -74 -197 -74q-108 0 -168 71t-40 175t108 175t196 71zM372 726h24l120 -137l-66 -58l-85 97l-123 -97l-44 58z" />
    <glyph glyph-name="Cdotaccent" unicode="&#x10a;" horiz-adv-x="719" 
d="M535 712q156 0 243 -108l-95 -78q-59 76 -169 76q-106 0 -193.5 -72t-108.5 -180t38.5 -180t165.5 -72q111 0 198 76l65 -78q-129 -108 -285 -108q-152 0 -240 104.5t-58 257.5t158.5 257.5t280.5 104.5zM470 853q5 25 26 42t46 17t39 -17t9 -42q-4 -25 -25 -42t-46 -17
t-39 17t-10 42z" />
    <glyph glyph-name="cdotaccent" unicode="&#x10b;" horiz-adv-x="509" 
d="M341 480q105 0 167 -74l-83 -69q-33 45 -103 45q-64 0 -115 -42t-64 -106q-13 -63 22 -105.5t99 -42.5q70 0 121 45l57 -69q-92 -74 -197 -74q-108 0 -168 71t-40 175t108 175t196 71zM286 629q4 25 25 42t46 17t39 -17t10 -42q-5 -25 -26 -42t-46 -17t-39 17t-9 42z" />
    <glyph glyph-name="Ccaron" unicode="&#x10c;" horiz-adv-x="719" 
d="M394 -12q156 0 285 108l-65 78q-87 -76 -198 -76q-106 0 -165.5 72t-38.5 180t108.5 180t193.5 72q110 0 169 -76l95 78q-87 108 -243 108q-152 0 -280.5 -104.5t-158.5 -257.5t58 -257.5t240 -104.5zM522 755h-24l-120 137l66 58l85 -97l123 97l44 -58z" />
    <glyph glyph-name="ccaron" unicode="&#x10d;" horiz-adv-x="509" 
d="M265 -12q105 0 197 74l-57 69q-51 -45 -121 -45q-64 0 -99 42.5t-22 105.5q13 64 64 106t115 42q70 0 103 -45l83 69q-62 74 -167 74q-108 0 -196 -71t-108 -175t40 -175t168 -71zM358 531h-24l-121 137l67 58l85 -97l123 97l43 -58z" />
    <glyph glyph-name="Dcaron" unicode="&#x10e;" horiz-adv-x="686" 
d="M656 350q30 156 -55.5 253t-240.5 97h-196l-136 -700h196q155 0 278 97t154 253zM165 110l93 480h81q109 0 165.5 -65t35.5 -175t-103 -175t-191 -65h-81zM392 755h-24l-120 137l66 58l85 -97l123 97l44 -58z" />
    <glyph glyph-name="dcaron" unicode="&#x10f;" horiz-adv-x="776" 
d="M383 125q54 45 67 109t-23.5 108.5t-99.5 44.5t-116.5 -44.5t-66.5 -108.5t23.5 -108.5t99.5 -44.5t116 44zM659 750l-145 -750h-106l12 66q-78 -78 -189 -78q-100 0 -156 71t-36 175t104 175t184 71q112 0 159 -78l67 348h106zM653 504l106 240l98 -26l-140 -230z" />
    <glyph glyph-name="Dcroat" unicode="&#x110;" horiz-adv-x="686" 
d="M656 350q-31 -156 -154 -253t-278 -97h-196l59 308h-69l16 81h69l61 311h196q155 0 240.5 -97t55.5 -253zM203 308l-38 -198h81q109 0 191 65t103 175t-35.5 175t-165.5 65h-81l-39 -201h149l-16 -81h-149z" />
    <glyph glyph-name="dcroat" unicode="&#x111;" horiz-adv-x="635" 
d="M645 585l-113 -585h-106l12 66q-78 -78 -189 -78q-100 0 -156 71t-36 175t104 175t184 71q112 0 159 -78l35 183h-226l16 81h226l16 84h106l-16 -84h63l-16 -81h-63zM401 125q54 45 67 109t-23.5 108.5t-99.5 44.5t-116.5 -44.5t-66.5 -108.5t23.5 -108.5t99.5 -44.5
t116 44z" />
    <glyph glyph-name="Emacron" unicode="&#x112;" horiz-adv-x="493" 
d="M414 110l-21 -110h-365l136 700h356l-22 -110h-240l-29 -150h215l-21 -106h-215l-43 -224h249zM217 813l15 81h292l-15 -81h-292z" />
    <glyph glyph-name="emacron" unicode="&#x113;" horiz-adv-x="580" 
d="M267 86q78 0 142 69l69 -61q-99 -106 -232 -106q-108 0 -168.5 70.5t-40.5 175.5q20 103 107 174.5t190 71.5q102 0 161 -70t40 -176q-4 -19 -8 -28h-387q-2 -57 35 -88.5t92 -31.5zM161 284h276q-1 48 -34.5 73t-86.5 25q-43 0 -87 -26.5t-68 -71.5zM204 589l16 81h292
l-16 -81h-292z" />
    <glyph glyph-name="Ebreve" unicode="&#x114;" horiz-adv-x="493" 
d="M393 0l21 110h-249l43 224h215l21 106h-215l29 150h240l22 110h-356l-136 -700h365zM238 930h84q-6 -29 7 -52t42 -23t50 23t27 52h84q-13 -66 -63.5 -111t-113.5 -45t-96.5 45t-20.5 111z" />
    <glyph glyph-name="ebreve" unicode="&#x115;" horiz-adv-x="580" 
d="M287 86q-55 0 -92 31.5t-35 88.5h387q4 9 8 28q19 106 -40 176t-161 70q-103 0 -190 -71.5t-107 -174.5q-20 -105 40.5 -175.5t168.5 -70.5q133 0 232 106l-69 61q-64 -69 -142 -69zM457 284h-276q24 45 68 71.5t87 26.5q53 0 86.5 -25t34.5 -73zM246 706h84
q-6 -29 6.5 -52t41.5 -23t50.5 23t27.5 52h84q-13 -66 -64 -111t-114 -45t-96 45t-20 111z" />
    <glyph glyph-name="Edotaccent" unicode="&#x116;" horiz-adv-x="493" 
d="M414 110l-21 -110h-365l136 700h356l-22 -110h-240l-29 -150h215l-21 -106h-215l-43 -224h249zM310 853q5 25 26 42t46 17t39 -17t9 -42q-4 -25 -25 -42t-46 -17t-39 17t-10 42z" />
    <glyph glyph-name="edotaccent" unicode="&#x117;" horiz-adv-x="580" 
d="M267 86q78 0 142 69l69 -61q-99 -106 -232 -106q-108 0 -168.5 70.5t-40.5 175.5q20 103 107 174.5t190 71.5q102 0 161 -70t40 -176q-4 -19 -8 -28h-387q-2 -57 35 -88.5t92 -31.5zM161 284h276q-1 48 -34.5 73t-86.5 25q-43 0 -87 -26.5t-68 -71.5zM298 629q4 25 25 42
t46 17t39 -17t10 -42q-5 -25 -26 -42t-46 -17t-39 17t-9 42z" />
    <glyph glyph-name="Eogonek" unicode="&#x118;" horiz-adv-x="493" 
d="M414 110l-21 -110h-50q-68 -53 -77 -101q-5 -24 7 -35.5t34 -11.5q21 0 37 13l13 -63q-38 -21 -84 -21q-51 0 -76.5 30.5t-16.5 71.5q13 67 89 117h-241l136 700h356l-22 -110h-240l-29 -150h215l-21 -106h-215l-43 -224h249z" />
    <glyph glyph-name="eogonek" unicode="&#x119;" horiz-adv-x="580" 
d="M286 86q78 0 142 69l69 -61q-81 -86 -185 -102q-58 -50 -66 -93q-5 -24 7 -35.5t34 -11.5q21 0 37 13l13 -63q-38 -21 -84 -21q-51 0 -76.5 30.5t-16.5 71.5q11 60 75 107q-96 11 -147 79t-32 165q20 103 107 174.5t190 71.5q102 0 161 -70t40 -176q-4 -19 -8 -28h-387
q-2 -57 35 -88.5t92 -31.5zM180 284h276q-1 48 -34.5 73t-86.5 25q-43 0 -87 -26.5t-68 -71.5z" />
    <glyph glyph-name="Ecaron" unicode="&#x11a;" horiz-adv-x="493" 
d="M393 0l21 110h-249l43 224h215l21 106h-215l29 150h240l22 110h-356l-136 -700h365zM362 755h-24l-120 137l66 58l85 -97l123 97l44 -58z" />
    <glyph glyph-name="ecaron" unicode="&#x11b;" horiz-adv-x="580" 
d="M287 86q-55 0 -92 31.5t-35 88.5h387q4 9 8 28q19 106 -40 176t-161 70q-103 0 -190 -71.5t-107 -174.5q-20 -105 40.5 -175.5t168.5 -70.5q133 0 232 106l-69 61q-64 -69 -142 -69zM457 284h-276q24 45 68 71.5t87 26.5q53 0 86.5 -25t34.5 -73zM370 531h-24l-121 137
l67 58l85 -97l123 97l43 -58z" />
    <glyph glyph-name="Gcircumflex" unicode="&#x11c;" horiz-adv-x="791" 
d="M802 380l-11 -56q-28 -145 -140.5 -240.5t-256.5 -95.5q-152 0 -240 104.5t-58 257.5t158.5 257.5t280.5 104.5q89 0 159 -38.5t109 -106.5l-104 -66q-26 48 -74 74.5t-111 26.5q-106 0 -193.5 -72t-108.5 -180t38.5 -180t165.5 -72q82 0 145.5 46t96.5 126h-174l21 110
h297zM549 950h24l121 -137l-67 -58l-85 97l-123 -97l-43 58z" />
    <glyph glyph-name="gcircumflex" unicode="&#x11d;" horiz-adv-x="635" 
d="M602 468l-88 -455q-30 -156 -117 -225.5t-211 -69.5q-136 0 -193 111l89 59q36 -77 122 -77q165 0 202 191l12 64q-78 -78 -189 -78q-100 0 -156 71t-36 175t104 175t184 71q112 0 159 -78l12 66h106zM381 125q54 45 67 109t-23.5 108.5t-99.5 44.5t-116.5 -44.5
t-66.5 -108.5t23.5 -108.5t99.5 -44.5t116 44zM380 726h24l120 -137l-66 -58l-85 97l-123 -97l-44 58z" />
    <glyph glyph-name="Gbreve" unicode="&#x11e;" horiz-adv-x="791" 
d="M791 324l11 56h-297l-21 -110h174q-33 -80 -96.5 -126t-145.5 -46q-106 0 -165.5 72t-38.5 180t108.5 180t193.5 72q63 0 111 -26.5t74 -74.5l104 66q-39 68 -109 106.5t-159 38.5q-152 0 -280.5 -104.5t-158.5 -257.5t58 -257.5t240 -104.5q144 0 256.5 95.5
t140.5 240.5zM411 930h84q-6 -29 7 -52t42 -23t50 23t27 52h84q-13 -66 -63.5 -111t-113.5 -45t-96.5 45t-20.5 111z" />
    <glyph glyph-name="gbreve" unicode="&#x11f;" horiz-adv-x="635" 
d="M514 13l88 455h-106l-12 -66q-47 78 -159 78q-100 0 -184 -71t-104 -175t36 -175t156 -71q111 0 189 78l-12 -64q-37 -191 -202 -191q-86 0 -122 77l-89 -59q57 -111 193 -111q124 0 211 69.5t117 225.5zM424 342q37 -44 24 -108t-66.5 -108.5t-116.5 -44.5t-99.5 44.5
t-23.5 108.5t66.5 108.5t116.5 44.5t99 -45zM238 706h84q-6 -29 6.5 -52t41.5 -23t50.5 23t27.5 52h84q-13 -66 -64 -111t-114 -45t-96 45t-20 111z" />
    <glyph glyph-name="Gdotaccent" unicode="&#x120;" horiz-adv-x="791" 
d="M802 380l-11 -56q-28 -145 -140.5 -240.5t-256.5 -95.5q-152 0 -240 104.5t-58 257.5t158.5 257.5t280.5 104.5q89 0 159 -38.5t109 -106.5l-104 -66q-26 48 -74 74.5t-111 26.5q-106 0 -193.5 -72t-108.5 -180t38.5 -180t165.5 -72q82 0 145.5 46t96.5 126h-174l21 110
h297zM483 853q5 25 26 42t46 17t39 -17t9 -42q-4 -25 -25 -42t-46 -17t-39 17t-10 42z" />
    <glyph glyph-name="gdotaccent" unicode="&#x121;" horiz-adv-x="635" 
d="M602 468l-88 -455q-30 -156 -117 -225.5t-211 -69.5q-136 0 -193 111l89 59q36 -77 122 -77q165 0 202 191l12 64q-78 -78 -189 -78q-100 0 -156 71t-36 175t104 175t184 71q112 0 159 -78l12 66h106zM381 125q54 45 67 109t-23.5 108.5t-99.5 44.5t-116.5 -44.5
t-66.5 -108.5t23.5 -108.5t99.5 -44.5t116 44zM305 629q4 25 25 42t46 17t39 -17t10 -42q-5 -25 -26 -42t-46 -17t-39 17t-9 42z" />
    <glyph glyph-name="Gcommaaccent" unicode="&#x122;" horiz-adv-x="791" 
d="M802 380l-11 -56q-28 -145 -140.5 -240.5t-256.5 -95.5q-152 0 -240 104.5t-58 257.5t158.5 257.5t280.5 104.5q89 0 159 -38.5t109 -106.5l-104 -66q-26 48 -74 74.5t-111 26.5q-106 0 -193.5 -72t-108.5 -180t38.5 -180t165.5 -72q82 0 145.5 46t96.5 126h-174l21 110
h297zM262 -269l89 202l92 -25l-117 -193z" />
    <glyph glyph-name="gcommaaccent" unicode="&#x123;" horiz-adv-x="635" 
d="M602 468l-88 -455q-30 -156 -117 -225.5t-211 -69.5q-136 0 -193 111l89 59q36 -77 122 -77q165 0 202 191l12 64q-78 -78 -189 -78q-100 0 -156 71t-36 175t104 175t184 71q112 0 159 -78l12 66h106zM381 125q54 45 67 109t-23.5 108.5t-99.5 44.5t-116.5 -44.5
t-66.5 -108.5t23.5 -108.5t99.5 -44.5t116 44zM464 723l-89 -202l-91 25l116 193z" />
    <glyph glyph-name="Hcircumflex" unicode="&#x124;" horiz-adv-x="655" 
d="M547 700h116l-136 -700h-116l63 328h-267l-63 -328h-116l136 700h116l-51 -262h267zM449 950h24l121 -137l-67 -58l-85 97l-123 -97l-43 58z" />
    <glyph glyph-name="hcircumflex" unicode="&#x125;" horiz-adv-x="544" 
d="M426 0h-106l55 284q8 45 -14 74t-64 29t-76 -29t-42 -74l-55 -284h-106l145 750h106l-63 -326q64 56 142 56q72 0 112 -48t25 -126zM243 950h24l121 -137l-67 -58l-85 97l-123 -97l-43 58z" />
    <glyph glyph-name="Hbar" unicode="&#x126;" horiz-adv-x="655" 
d="M71 530l15 81h60l18 89h116l-18 -89h267l18 89h116l-18 -89h60l-15 -81h-60l-103 -530h-116l63 328h-267l-63 -328h-116l103 530h-60zM229 438h267l18 92h-267z" />
    <glyph glyph-name="hbar" unicode="&#x127;" horiz-adv-x="549" 
d="M431 0h-106l55 284q8 45 -14 74t-64 29t-76 -29t-42 -74l-55 -284h-106l113 585h-63l16 81h63l16 84h106l-16 -84h144l-16 -81h-144l-31 -161q64 56 142 56q72 0 112 -48t25 -126z" />
    <glyph glyph-name="Itilde" unicode="&#x128;" horiz-adv-x="292" 
d="M174 700h116l-136 -700h-116zM238 819q-21 21 -38 21q-28 0 -43 -49l-72 21q17 50 51 79t74 29q42 0 75 -33q19 -21 38 -21q28 0 42 49l72 -21q-16 -50 -50.5 -79t-74.5 -29q-41 0 -74 33z" />
    <glyph glyph-name="itilde" unicode="&#x129;" horiz-adv-x="260" 
d="M178 595q-19 21 -38 21q-28 0 -42 -49l-72 21q16 50 50.5 79t74.5 29q41 0 74 -33q21 -21 38 -21q28 0 43 49l72 -21q-16 -50 -50.5 -79t-74.5 -29q-42 0 -75 33zM223 468l-90 -468h-106l90 468h106z" />
    <glyph glyph-name="Imacron" unicode="&#x12a;" horiz-adv-x="292" 
d="M174 700h116l-136 -700h-116zM109 813l15 81h292l-15 -81h-292z" />
    <glyph glyph-name="imacron" unicode="&#x12b;" horiz-adv-x="260" 
d="M223 468l-90 -468h-106l90 468h106zM48 589l16 81h292l-16 -81h-292z" />
    <glyph glyph-name="Ibreve" unicode="&#x12c;" horiz-adv-x="292" 
d="M290 700h-116l-136 -700h116zM130 930h84q-6 -29 7 -52t42 -23t50 23t27 52h84q-13 -66 -63.5 -111t-113.5 -45t-96.5 45t-20.5 111z" />
    <glyph glyph-name="ibreve" unicode="&#x12d;" horiz-adv-x="260" 
d="M133 0l90 468h-106l-90 -468h106zM70 706h84q-6 -29 6.5 -52t41.5 -23t50.5 23t27.5 52h84q-13 -66 -64 -111t-114 -45t-96 45t-20 111z" />
    <glyph glyph-name="Iogonek" unicode="&#x12e;" horiz-adv-x="292" 
d="M183 700h116l-136 -700h-22q-68 -53 -77 -101q-5 -24 7 -35.5t34 -11.5q21 0 37 13l13 -63q-38 -21 -84 -21q-51 0 -76.5 30.5t-16.5 71.5q13 67 89 117h-20z" />
    <glyph glyph-name="iogonek" unicode="&#x12f;" horiz-adv-x="260" 
d="M35 0l90 468h106l-90 -468h-19q-68 -53 -77 -101q-5 -24 7 -35.5t34 -11.5q21 0 37 13l13 -63q-38 -21 -84 -21q-51 0 -76 30t-17 72q13 67 89 117h-13zM281 648q-5 -28 -29 -48t-52 -20t-44 20t-11 48q6 28 30 48t52 20t44 -20t10 -48z" />
    <glyph glyph-name="Idotaccent" unicode="&#x130;" horiz-adv-x="292" 
d="M174 700h116l-136 -700h-116zM201 853q5 25 26 42t46 17t39 -17t9 -42q-4 -25 -25 -42t-46 -17t-39 17t-10 42z" />
    <glyph glyph-name="dotlessi" unicode="&#x131;" horiz-adv-x="260" 
d="M223 468l-90 -468h-106l90 468h106z" />
    <glyph glyph-name="IJ" unicode="&#x132;" horiz-adv-x="695" 
d="M213 77l101 70q7 -23 26.5 -36t43.5 -13q84 0 109 125l93 477h116l-95 -484q-21 -112 -86.5 -170t-155.5 -58q-49 0 -90 24t-62 65zM174 700h116l-136 -700h-116z" />
    <glyph glyph-name="ij" unicode="&#x133;" horiz-adv-x="533" 
d="M27 0l90 468h106l-90 -468h-106zM273 648q-5 -28 -29 -48t-52 -20t-44 20t-11 48q6 28 30 48t52 20t44 -20t10 -48zM288 -82l106 550h106l-107 -552q-18 -94 -72.5 -146t-137.5 -52q-40 0 -74.5 18t-53.5 50l86 62q14 -37 56 -37q70 0 91 107zM550 648q-5 -28 -29 -48
t-52 -20t-44 20t-11 48q6 28 30 48t52 20t44 -20t10 -48z" />
    <glyph glyph-name="Jcircumflex" unicode="&#x134;" horiz-adv-x="448" 
d="M-34 77l101 70q7 -23 26.5 -36t43.5 -13q84 0 109 125l93 477h116l-95 -484q-21 -112 -86.5 -170t-155.5 -58q-49 0 -90 24t-62 65zM434 950h24l121 -137l-67 -58l-85 97l-123 -97l-43 58z" />
    <glyph glyph-name="jcircumflex" unicode="&#x135;" horiz-adv-x="261" 
d="M16 -82l106 550h106l-107 -552q-18 -94 -72.5 -146t-136.5 -52q-40 0 -74.5 18t-53.5 50l86 62q14 -37 56 -37q69 0 90 107zM215 726h24l120 -137l-66 -58l-85 97l-123 -97l-44 58z" />
    <glyph glyph-name="Kcommaaccent" unicode="&#x136;" horiz-adv-x="598" 
d="M213 356l331 356l80 -59l-282 -296l201 -304l-108 -65l-222 368l-69 -356h-116l136 700h116zM143 -269l89 202l92 -25l-117 -193z" />
    <glyph glyph-name="kcommaaccent" unicode="&#x137;" horiz-adv-x="511" 
d="M273 750l-97 -498l269 228l60 -65l-202 -167l154 -192l-89 -68l-192 264l-48 -252h-106l145 750h106zM90 -269l89 202l92 -25l-117 -193z" />
    <glyph glyph-name="kgreenlandic" unicode="&#x138;" horiz-adv-x="511" 
d="M368 -12l-192 264l269 228l60 -65l-202 -167l154 -192zM218 468l-90 -468h-106l90 468h106z" />
    <glyph glyph-name="Lacute" unicode="&#x139;" horiz-adv-x="474" 
d="M164 700h116l-115 -590h259l-21 -110h-375zM351 951l44 -59l-174 -137l-43 58z" />
    <glyph glyph-name="lacute" unicode="&#x13a;" horiz-adv-x="260" 
d="M273 721l-140 -721h-106l140 721h106zM351 951l44 -59l-174 -137l-43 58z" />
    <glyph glyph-name="Lcommaaccent" unicode="&#x13b;" horiz-adv-x="474" 
d="M164 700h116l-115 -590h259l-21 -110h-375zM78 -269l89 202l92 -25l-117 -193z" />
    <glyph glyph-name="lcommaaccent" unicode="&#x13c;" horiz-adv-x="260" 
d="M278 750l-145 -750h-106l145 750h106zM-67 -269l88 202l92 -25l-117 -193z" />
    <glyph glyph-name="Lcaron" unicode="&#x13d;" horiz-adv-x="474" 
d="M164 700h116l-115 -590h259l-21 -110h-375zM334 504l106 240l98 -26l-140 -230z" />
    <glyph glyph-name="lcaron" unicode="&#x13e;" 
d="M278 750l-145 -750h-106l145 750h106zM272 504l106 240l98 -26l-140 -230z" />
    <glyph glyph-name="Ldot" unicode="&#x13f;" horiz-adv-x="474" 
d="M164 700h116l-115 -590h259l-21 -110h-375zM310 379q5 25 26 42t46 17t39 -17t9 -42q-4 -25 -25 -42t-46 -17t-39 17t-10 42z" />
    <glyph glyph-name="ldot" unicode="&#x140;" horiz-adv-x="427" 
d="M278 750l-145 -750h-106l145 750h106zM310 379q5 25 26 42t46 17t39 -17t9 -42q-4 -25 -25 -42t-46 -17t-39 17t-10 42z" />
    <glyph glyph-name="Lslash" unicode="&#x141;" horiz-adv-x="474" 
d="M223 411l225 130l30 -67l-273 -158l-40 -206h259l-21 -110h-375l46 240l-50 -29l-30 67l99 57l71 365h116z" />
    <glyph glyph-name="lslash" unicode="&#x142;" horiz-adv-x="386" 
d="M286 469l126 74l30 -67l-175 -102l-72 -374h-105l59 305l-125 -73l-30 67l173 101l68 350h105z" />
    <glyph glyph-name="Nacute" unicode="&#x143;" horiz-adv-x="740" 
d="M568 -12l-333 483l-91 -471h-116l136 702l44 10l333 -483l92 471h116l-137 -702zM549 951l44 -59l-174 -137l-43 58z" />
    <glyph glyph-name="nacute" unicode="&#x144;" horiz-adv-x="549" 
d="M431 0h-106l55 284q8 45 -14 74t-64 29t-76 -29t-42 -74l-55 -284h-106l90 468h106l-8 -44q64 56 142 56q72 0 112 -48t25 -126zM430 727l43 -59l-173 -137l-44 58z" />
    <glyph glyph-name="Ncommaaccent" unicode="&#x145;" horiz-adv-x="740" 
d="M568 -12l-333 483l-91 -471h-116l136 702l44 10l333 -483l92 471h116l-137 -702zM209 -269l89 202l92 -25l-117 -193z" />
    <glyph glyph-name="ncommaaccent" unicode="&#x146;" horiz-adv-x="549" 
d="M431 0h-106l55 284q8 45 -14 74t-64 29t-76 -29t-42 -74l-55 -284h-106l90 468h106l-8 -44q64 56 142 56q72 0 112 -48t25 -126zM95 -269l89 202l92 -25l-117 -193z" />
    <glyph glyph-name="Ncaron" unicode="&#x147;" horiz-adv-x="740" 
d="M235 471l333 -483l44 10l137 702h-116l-92 -471l-333 483l-44 -10l-136 -702h116zM478 755h-24l-120 137l66 58l85 -97l123 97l44 -58z" />
    <glyph glyph-name="ncaron" unicode="&#x148;" horiz-adv-x="549" 
d="M325 0h106l59 306q15 78 -25 126t-112 48q-78 0 -142 -56l8 44h-106l-90 -468h106l55 284q8 45 42 74t76 29t64 -29t14 -74zM335 531h-24l-121 137l67 58l85 -97l123 97l43 -58z" />
    <glyph glyph-name="napostrophe" unicode="&#x149;" horiz-adv-x="644" 
d="M526 0h-106l55 284q8 45 -14 74t-64 29t-76 -29t-42 -74l-55 -284h-106l90 468h106l-8 -44q64 56 142 56q72 0 112 -48t25 -126zM65 504l106 240l98 -26l-140 -230z" />
    <glyph glyph-name="Eng" unicode="&#x14a;" horiz-adv-x="740" 
d="M495 -1l-263 455l-88 -454h-116l136 702l44 10l319 -550l105 538h116l-153 -787q-18 -94 -69.5 -144.5t-133.5 -50.5q-81 0 -122 63l81 66q15 -36 52 -36q56 0 76 105z" />
    <glyph glyph-name="eng" unicode="&#x14b;" horiz-adv-x="549" 
d="M490 307l-76 -394q-39 -195 -195 -195q-76 0 -117 63l78 63q16 -35 51 -35q57 0 78 105l71 367q10 49 -13.5 78t-64.5 29q-42 0 -75.5 -29t-42.5 -74l-55 -285h-106l90 468h106l-8 -44q64 56 142 56q72 0 112 -48t25 -125z" />
    <glyph glyph-name="Omacron" unicode="&#x14c;" horiz-adv-x="834" 
d="M416 98q105 0 192.5 72t109.5 180q21 108 -38.5 180t-165.5 72t-193.5 -72t-108.5 -180t38.5 -180t165.5 -72zM154 92q-88 105 -58 258t158.5 257.5t280.5 104.5t240.5 -104.5t58.5 -257.5t-159 -257.5t-281 -104.5t-240 104zM409 813l15 81h292l-15 -81h-292z" />
    <glyph glyph-name="omacron" unicode="&#x14d;" horiz-adv-x="596" 
d="M143 234q-13 -63 22 -105.5t99 -42.5t115 42t64 106q13 63 -22 105.5t-99 42.5t-115 -42t-64 -106zM77 59q-60 71 -40 175t108 175t196 71t168 -71t40 -175t-108 -175t-196 -71t-168 71zM217 589l16 81h292l-16 -81h-292z" />
    <glyph glyph-name="Obreve" unicode="&#x14e;" horiz-adv-x="834" 
d="M718 350q-22 -108 -109.5 -180t-192.5 -72q-106 0 -165.5 72t-38.5 180t108.5 180t193.5 72t165.5 -72t38.5 -180zM254 607q-128 -104 -158 -257t58 -257.5t240 -104.5t281 104.5t159 257.5t-58.5 257.5t-240.5 104.5t-281 -105zM430 930h84q-6 -29 7 -52t42 -23t50 23
t27 52h84q-13 -66 -63.5 -111t-113.5 -45t-96.5 45t-20.5 111z" />
    <glyph glyph-name="obreve" unicode="&#x14f;" horiz-adv-x="596" 
d="M163 234q13 64 64 106t115 42t99 -42.5t22 -105.5q-13 -64 -64 -106t-115 -42t-99 42.5t-22 105.5zM165 409q-88 -71 -108 -175t40 -175t168 -71t196 71t108 175t-40 175t-168 71t-196 -71zM259 706h84q-6 -29 6.5 -52t41.5 -23t50.5 23t27.5 52h84q-13 -66 -64 -111
t-114 -45t-96 45t-20 111z" />
    <glyph glyph-name="Ohungarumlaut" unicode="&#x150;" horiz-adv-x="834" 
d="M416 98q105 0 192.5 72t109.5 180q21 108 -38.5 180t-165.5 72t-193.5 -72t-108.5 -180t38.5 -180t165.5 -72zM154 92q-88 105 -58 258t158.5 257.5t280.5 104.5t240.5 -104.5t58.5 -257.5t-159 -257.5t-281 -104.5t-240 104zM555 951l45 -59l-174 -137l-43 58zM740 951
l44 -59l-174 -137l-43 58z" />
    <glyph glyph-name="ohungarumlaut" unicode="&#x151;" horiz-adv-x="596" 
d="M143 234q-13 -63 22 -105.5t99 -42.5t115 42t64 106q13 63 -22 105.5t-99 42.5t-115 -42t-64 -106zM77 59q-60 71 -40 175t108 175t196 71t168 -71t40 -175t-108 -175t-196 -71t-168 71zM360 727l44 -59l-173 -137l-44 58zM545 727l43 -59l-173 -137l-44 58z" />
    <glyph glyph-name="OE" unicode="&#x152;" horiz-adv-x="830" 
d="M781 110l-21 -110h-365q-155 0 -242 98t-57 252q20 102 85 182.5t157 124t193 43.5h356l-22 -110h-240l-29 -150h215l-21 -106h-215l-43 -224h249zM212 350q-22 -111 37 -178.5t166 -68.5l96 494q-107 -1 -192.5 -68.5t-106.5 -178.5z" />
    <glyph glyph-name="oe" unicode="&#x153;" horiz-adv-x="983" 
d="M484 83q-87 -95 -222 -95q-105 0 -165 71.5t-40 174.5t108 174.5t193 71.5q60 0 109 -28t74 -74q90 102 219 102q100 0 158.5 -71t39.5 -175q-5 -24 -7 -28h-385q-4 -55 32 -87.5t93 -32.5q38 0 77 18t66 51l69 -61q-101 -106 -231 -106q-131 0 -188 95zM740 382
q-49 0 -92.5 -27.5t-63.5 -70.5h277q-7 98 -121 98zM163 234q-13 -63 22 -105.5t99 -42.5t115 42t64 106q13 63 -22 105.5t-99 42.5t-115 -42t-64 -106z" />
    <glyph glyph-name="Racute" unicode="&#x154;" horiz-adv-x="558" 
d="M259 594l-115 -594h-116l136 700h174q106 0 160.5 -59t37.5 -150q-12 -60 -55 -111.5t-113 -74.5l144 -265l-103 -52l-175 361l17 38h9q66 0 108.5 28.5t51.5 76.5q10 49 -20.5 75.5t-89.5 26.5h-51zM442 951l44 -59l-174 -137l-43 58z" />
    <glyph glyph-name="racute" unicode="&#x155;" horiz-adv-x="393" 
d="M420 464l-48 -94q-28 18 -65 18q-46 0 -81.5 -36.5t-46.5 -91.5l-50 -260h-106l90 468h106l-9 -51q61 63 135 63q46 0 75 -16zM352 727l43 -59l-173 -137l-44 58z" />
    <glyph glyph-name="Rcommaaccent" unicode="&#x156;" horiz-adv-x="558" 
d="M259 594l-115 -594h-116l136 700h174q106 0 160.5 -59t37.5 -150q-12 -60 -55 -111.5t-113 -74.5l144 -265l-103 -52l-175 361l17 38h9q66 0 108.5 28.5t51.5 76.5q10 49 -20.5 75.5t-89.5 26.5h-51zM127 -269l89 202l92 -25l-117 -193z" />
    <glyph glyph-name="rcommaaccent" unicode="&#x157;" horiz-adv-x="393" 
d="M420 464l-48 -94q-28 18 -65 18q-46 0 -81.5 -36.5t-46.5 -91.5l-50 -260h-106l90 468h106l-9 -51q61 63 135 63q46 0 75 -16zM-68 -269l88 202l92 -25l-117 -193z" />
    <glyph glyph-name="Rcaron" unicode="&#x158;" horiz-adv-x="558" 
d="M144 0l115 594h51q59 0 89.5 -26.5t20.5 -75.5q-9 -48 -51.5 -76.5t-108.5 -28.5h-9l-17 -38l175 -361l103 52l-144 265q70 23 113 74.5t55 111.5q17 91 -37.5 150t-160.5 59h-174l-136 -700h116zM355 755h-24l-120 137l66 58l85 -97l123 97l44 -58z" />
    <glyph glyph-name="rcaron" unicode="&#x159;" horiz-adv-x="393" 
d="M372 370l48 94q-29 16 -75 16q-74 0 -135 -63l9 51h-106l-90 -468h106l50 260q11 55 46.5 91.5t81.5 36.5q37 0 65 -18zM273 531h-24l-121 137l67 58l85 -97l123 97l43 -58z" />
    <glyph glyph-name="Sacute" unicode="&#x15a;" horiz-adv-x="540" 
d="M344 431q86 -39 119 -96t17 -138q-17 -88 -88.5 -148.5t-177.5 -60.5q-72 0 -125.5 36.5t-76.5 100.5l91 72q14 -48 51.5 -73.5t83.5 -25.5q45 0 81.5 31t45.5 72q8 45 -14 76.5t-90 63.5q-75 36 -106 83.5t-17 117.5q14 71 75.5 120.5t143.5 49.5q58 0 97.5 -27.5
t54.5 -73.5l-82 -63q-26 54 -84 54q-36 0 -60.5 -18t-29.5 -47q-7 -34 13 -57t78 -49zM453 951l44 -59l-174 -137l-43 58z" />
    <glyph glyph-name="sacute" unicode="&#x15b;" horiz-adv-x="400" 
d="M156 82q30 0 50.5 15.5t25.5 40.5q6 27 -8.5 45t-55.5 36q-110 50 -93 134q10 55 58 91t108 36q37 0 68.5 -18.5t47.5 -49.5l-73 -58q-18 34 -51 34q-20 0 -34.5 -9t-17.5 -25q-4 -20 10.5 -34t52.5 -31q114 -53 95 -150q-13 -66 -64.5 -108.5t-130.5 -42.5q-49 0 -88 27
t-56 74l79 63q24 -70 77 -70zM344 727l43 -59l-173 -137l-44 58z" />
    <glyph glyph-name="Scircumflex" unicode="&#x15c;" horiz-adv-x="540" 
d="M344 431q86 -39 119 -96t17 -138q-17 -88 -88.5 -148.5t-177.5 -60.5q-72 0 -125.5 36.5t-76.5 100.5l91 72q14 -48 51.5 -73.5t83.5 -25.5q45 0 81.5 31t45.5 72q8 45 -14 76.5t-90 63.5q-75 36 -106 83.5t-17 117.5q14 71 75.5 120.5t143.5 49.5q58 0 97.5 -27.5
t54.5 -73.5l-82 -63q-26 54 -84 54q-36 0 -60.5 -18t-29.5 -47q-7 -34 13 -57t78 -49zM373 950h24l121 -137l-67 -58l-85 97l-123 -97l-43 58z" />
    <glyph glyph-name="scircumflex" unicode="&#x15d;" horiz-adv-x="400" 
d="M156 82q30 0 50.5 15.5t25.5 40.5q6 27 -8.5 45t-55.5 36q-110 50 -93 134q10 55 58 91t108 36q37 0 68.5 -18.5t47.5 -49.5l-73 -58q-18 34 -51 34q-20 0 -34.5 -9t-17.5 -25q-4 -20 10.5 -34t52.5 -31q114 -53 95 -150q-13 -66 -64.5 -108.5t-130.5 -42.5q-49 0 -88 27
t-56 74l79 63q24 -70 77 -70zM271 726h24l120 -137l-66 -58l-85 97l-123 -97l-44 58z" />
    <glyph glyph-name="Scedilla" unicode="&#x15e;" horiz-adv-x="540" 
d="M150 -87l-2 16l40 61q-63 7 -109.5 42t-66.5 93l91 72q14 -48 51.5 -73.5t83.5 -25.5q45 0 81.5 31t45.5 72q8 45 -14 76.5t-90 63.5q-75 36 -106 83.5t-17 117.5q14 71 75.5 120.5t143.5 49.5q58 0 97.5 -27.5t54.5 -73.5l-82 -63q-26 54 -84 54q-36 0 -60.5 -18
t-29.5 -47q-7 -34 13 -57t78 -49q86 -39 119 -96t17 -138q-15 -77 -72 -134t-144 -71l-25 -35q35 -9 52 -34t10 -59q-8 -42 -47 -72t-100 -30q-50 0 -87 29l48 53q21 -16 46 -16q48 0 57 40q4 22 -14 33.5t-54 11.5z" />
    <glyph glyph-name="scedilla" unicode="&#x15f;" horiz-adv-x="400" 
d="M76 -87l-2 16l41 62q-40 7 -71 33t-44 65l79 63q24 -70 77 -70q30 0 50.5 15.5t25.5 40.5q6 27 -8.5 45t-55.5 36q-110 50 -93 134q10 55 58 91t108 36q37 0 68.5 -18.5t47.5 -49.5l-73 -58q-18 34 -51 34q-20 0 -34.5 -9t-17.5 -25q-4 -20 10.5 -34t52.5 -31
q114 -53 95 -150q-11 -56 -50 -95.5t-99 -50.5l-25 -36q35 -9 52 -34t10 -59q-8 -42 -47 -72t-100 -30q-50 0 -87 29l48 53q21 -16 46 -16q48 0 57 40q4 22 -14 33.5t-54 11.5z" />
    <glyph glyph-name="Scaron" unicode="&#x160;" horiz-adv-x="540" 
d="M344 431q-58 26 -78 49t-13 57q5 29 29.5 47t60.5 18q58 0 84 -54l82 63q-15 46 -54.5 73.5t-97.5 27.5q-82 0 -143.5 -49.5t-75.5 -120.5q-14 -70 17 -117.5t106 -83.5q68 -32 90 -63.5t14 -76.5q-9 -41 -45.5 -72t-81.5 -31q-46 0 -83.5 25.5t-51.5 73.5l-91 -72
q23 -64 76.5 -100.5t125.5 -36.5q106 0 177.5 60.5t88.5 148.5q16 81 -17 138t-119 96zM359 755h-24l-120 137l66 58l85 -97l123 97l44 -58z" />
    <glyph glyph-name="scaron" unicode="&#x161;" horiz-adv-x="400" 
d="M156 82q-53 0 -77 70l-79 -63q17 -47 56 -74t88 -27q79 0 130.5 42.5t64.5 108.5q19 97 -95 150q-38 17 -52.5 31t-10.5 34q3 16 17.5 25t34.5 9q33 0 51 -34l73 58q-16 31 -47.5 49.5t-68.5 18.5q-60 0 -108 -36t-58 -91q-17 -84 93 -134q41 -18 55.5 -36t8.5 -45
q-5 -25 -25.5 -40.5t-50.5 -15.5zM257 531h-24l-121 137l67 58l85 -97l123 97l43 -58z" />
    <glyph glyph-name="Tcommaaccent" unicode="&#x162;" horiz-adv-x="490" 
d="M112 -87l-2 16l47 71h-20l114 590h-165l22 110h446l-22 -110h-165l-114 -590h-21l-31 -43q35 -9 52 -34t10 -59q-8 -42 -47 -72t-100 -30q-50 0 -87 29l48 53q21 -16 46 -16q48 0 57 40q4 22 -14 33.5t-54 11.5z" />
    <glyph glyph-name="tcommaaccent" unicode="&#x163;" horiz-adv-x="344" 
d="M25 -87l-2 16l47 71h-18l71 370h-76l19 98h76l26 132h106l-26 -132h115l-19 -98h-115l-71 -370h-13l-31 -43q35 -9 52 -34t10 -59q-8 -42 -47 -72t-100 -30q-51 0 -86 29l47 53q21 -16 46 -16q48 0 57 40q4 22 -14 33.5t-54 11.5z" />
    <glyph glyph-name="Tcaron" unicode="&#x164;" horiz-adv-x="490" 
d="M108 700l-22 -110h165l-114 -590h116l114 590h165l22 110h-446zM351 755h-24l-120 137l66 58l85 -97l123 97l44 -58z" />
    <glyph glyph-name="tcaron" unicode="&#x165;" horiz-adv-x="508" 
d="M47 370l19 98h76l26 132h106l-26 -132h115l-19 -98h-115l-71 -370h-106l71 370h-76zM385 504l106 240l98 -26l-140 -230z" />
    <glyph glyph-name="Tbar" unicode="&#x166;" horiz-adv-x="490" 
d="M328 386h115l-16 -81h-115l-59 -305h-116l59 305h-115l16 81h115l39 204h-165l22 110h446l-22 -110h-165z" />
    <glyph glyph-name="tbar" unicode="&#x167;" horiz-adv-x="344" 
d="M47 370l19 98h76l26 132h106l-26 -132h115l-19 -98h-115l-17 -91h94l-16 -81h-94l-38 -198h-106l38 198h-63l16 81h63l17 91h-76z" />
    <glyph glyph-name="Utilde" unicode="&#x168;" horiz-adv-x="656" 
d="M484 248l88 452h116l-88 -452q-24 -119 -111 -189.5t-190 -70.5t-163 70.5t-36 189.5l88 452h116l-88 -452q-15 -73 14.5 -111.5t90.5 -38.5t104.5 38.5t58.5 111.5zM444 819q-21 21 -38 21q-28 0 -43 -49l-72 21q17 50 51 79t74 29q42 0 75 -33q19 -21 38 -21
q28 0 42 49l72 -21q-16 -50 -50.5 -79t-74.5 -29q-41 0 -74 33z" />
    <glyph glyph-name="utilde" unicode="&#x169;" horiz-adv-x="549" 
d="M108 468h106l-55 -284q-8 -45 14 -74t64 -29t76 29t42 74l55 284h106l-90 -468h-106l8 44q-64 -56 -142 -56q-72 0 -112 48t-25 126zM321 595q-19 21 -38 21q-28 0 -42 -49l-72 21q16 50 50.5 79t74.5 29q41 0 74 -33q21 -21 38 -21q28 0 43 49l72 -21q-16 -50 -50.5 -79
t-74.5 -29q-42 0 -75 33z" />
    <glyph glyph-name="Umacron" unicode="&#x16a;" horiz-adv-x="656" 
d="M484 248l88 452h116l-88 -452q-24 -119 -111 -189.5t-190 -70.5t-163 70.5t-36 189.5l88 452h116l-88 -452q-15 -73 14.5 -111.5t90.5 -38.5t104.5 38.5t58.5 111.5zM315 813l15 81h292l-15 -81h-292z" />
    <glyph glyph-name="umacron" unicode="&#x16b;" horiz-adv-x="549" 
d="M108 468h106l-55 -284q-8 -45 14 -74t64 -29t76 29t42 74l55 284h106l-90 -468h-106l8 44q-64 -56 -142 -56q-72 0 -112 48t-25 126zM191 589l16 81h292l-16 -81h-292z" />
    <glyph glyph-name="Ubreve" unicode="&#x16c;" horiz-adv-x="656" 
d="M216 248l88 452h-116l-88 -452q-24 -119 36 -189.5t163 -70.5t190 70.5t111 189.5l88 452h-116l-88 -452q-15 -73 -58.5 -111.5t-104.5 -38.5t-90.5 38.5t-14.5 111.5zM336 931h84q-6 -29 7 -52t42 -23t50 23t27 52h84q-12 -65 -63 -110.5t-114 -45.5t-96 45t-21 111z
" />
    <glyph glyph-name="ubreve" unicode="&#x16d;" horiz-adv-x="549" 
d="M229 468h-106l-59 -306q-15 -78 25 -126t112 -48q78 0 142 56l-8 -44h106l90 468h-106l-55 -284q-8 -45 -42 -74t-76 -29t-64 29t-14 74zM228 706h84q-6 -29 6.5 -52t41.5 -23t50.5 23t27.5 52h84q-13 -66 -64 -111t-114 -45t-96 45t-20 111z" />
    <glyph glyph-name="Uring" unicode="&#x16e;" horiz-adv-x="656" 
d="M484 248l88 452h116l-88 -452q-24 -119 -111 -189.5t-190 -70.5t-163 70.5t-36 189.5l88 452h116l-88 -452q-15 -73 14.5 -111.5t90.5 -38.5t104.5 38.5t58.5 111.5zM377 778q-26 30 -17 75t46.5 75t82.5 30t70.5 -30t16.5 -75t-46 -75t-82 -30t-71 30zM442 885
q-15 -13 -19 -32t7 -32t30 -13t34 13t19 32t-6.5 32t-29.5 13t-35 -13z" />
    <glyph glyph-name="uring" unicode="&#x16f;" horiz-adv-x="549" 
d="M123 468h106l-55 -284q-8 -45 14 -74t64 -29t76 29t42 74l55 284h106l-90 -468h-106l8 44q-64 -56 -142 -56q-72 0 -112 48t-25 126zM252 628q8 45 45.5 75t82.5 30t70.5 -30t17.5 -75q-9 -45 -46.5 -75t-82.5 -30t-70.5 30t-16.5 75zM315 628q-4 -19 6.5 -32t29.5 -13
t34.5 13t19.5 32q3 19 -7.5 32t-29.5 13t-34.5 -13t-18.5 -32z" />
    <glyph glyph-name="Uhungarumlaut" unicode="&#x170;" horiz-adv-x="656" 
d="M484 248l88 452h116l-88 -452q-24 -119 -111 -189.5t-190 -70.5t-163 70.5t-36 189.5l88 452h116l-88 -452q-15 -73 14.5 -111.5t90.5 -38.5t104.5 38.5t58.5 111.5zM466 951l45 -59l-174 -137l-43 58zM651 951l44 -59l-174 -137l-43 58z" />
    <glyph glyph-name="uhungarumlaut" unicode="&#x171;" horiz-adv-x="549" 
d="M108 468h106l-55 -284q-8 -45 14 -74t64 -29t76 29t42 74l55 284h106l-90 -468h-106l8 44q-64 -56 -142 -56q-72 0 -112 48t-25 126zM329 727l44 -59l-173 -137l-44 58zM514 727l43 -59l-173 -137l-44 58z" />
    <glyph glyph-name="Uogonek" unicode="&#x172;" horiz-adv-x="656" 
d="M482 248l88 452h116l-88 -452q-19 -98 -83 -163.5t-147 -86.5q-64 -52 -73 -99q-5 -24 7 -35.5t34 -11.5q21 0 37 13l13 -63q-38 -21 -84 -21q-51 0 -76.5 30.5t-16.5 71.5q11 58 72 106q-97 6 -151 75.5t-32 183.5l88 452h116l-88 -452q-15 -73 14.5 -111.5t90.5 -38.5
t104.5 38.5t58.5 111.5z" />
    <glyph glyph-name="uogonek" unicode="&#x173;" horiz-adv-x="549" 
d="M123 468h106l-55 -284q-8 -45 14 -74t64 -29t76 29t42 74l55 284h106l-90 -468h-17q-68 -53 -77 -101q-5 -24 7 -35.5t34 -11.5q21 0 37 13l13 -63q-38 -21 -84 -21q-51 0 -76.5 30.5t-16.5 71.5q13 67 89 117h-15l8 44q-64 -56 -142 -56q-72 0 -112 48t-25 126z" />
    <glyph glyph-name="Wcircumflex" unicode="&#x174;" horiz-adv-x="998" 
d="M567 712h40l84 -499l270 499l104 -25l-399 -699h-42l-82 494l-274 -494h-42l-127 699l114 25l76 -499zM621 950h24l121 -137l-67 -58l-85 97l-123 -97l-43 58z" />
    <glyph glyph-name="wcircumflex" unicode="&#x175;" horiz-adv-x="774" 
d="M411 480h38l69 -313l189 313l94 -26l-299 -466h-39l-67 317l-191 -317h-39l-117 466l104 26l67 -313zM466 726h24l120 -137l-66 -58l-85 97l-123 -97l-44 58z" />
    <glyph glyph-name="Ycircumflex" unicode="&#x176;" horiz-adv-x="620" 
d="M318 0h-116l54 281l-166 381l119 50l126 -322l252 322l99 -50l-314 -381zM432 950h24l121 -137l-67 -58l-85 97l-123 -97l-43 58z" />
    <glyph glyph-name="ycircumflex" unicode="&#x177;" horiz-adv-x="509" 
d="M-14 -263l165 278l-89 438l107 27l59 -341l199 341l96 -27l-441 -747zM332 726h24l120 -137l-66 -58l-85 97l-123 -97l-44 58z" />
    <glyph glyph-name="Ydieresis" unicode="&#x178;" horiz-adv-x="620" 
d="M318 0h-116l54 281l-166 381l119 50l126 -322l252 322l99 -50l-314 -381zM269 853q5 25 26 42t46 17t39 -17t9 -42q-4 -25 -25 -42t-46 -17t-39 17t-10 42zM461 853q5 25 26 42t46 17t39 -17t9 -42q-4 -25 -25 -42t-46 -17t-39 17t-10 42z" />
    <glyph glyph-name="Zacute" unicode="&#x179;" horiz-adv-x="528" 
d="M559 700l9 -34l-403 -556h307l-21 -110h-464l-11 33l406 557h-258l22 110h413zM461 951l44 -59l-174 -137l-43 58z" />
    <glyph glyph-name="zacute" unicode="&#x17a;" horiz-adv-x="426" 
d="M415 468l5 -28l-266 -342h212l-19 -98h-359l-6 27l261 343h-162l19 98h315zM360 727l43 -59l-173 -137l-44 58z" />
    <glyph glyph-name="Zdotaccent" unicode="&#x17b;" horiz-adv-x="528" 
d="M559 700l9 -34l-403 -556h307l-21 -110h-464l-11 33l406 557h-258l22 110h413zM318 853q5 25 26 42t46 17t39 -17t9 -42q-4 -25 -25 -42t-46 -17t-39 17t-10 42z" />
    <glyph glyph-name="zdotaccent" unicode="&#x17c;" horiz-adv-x="426" 
d="M415 468l5 -28l-266 -342h212l-19 -98h-359l-6 27l261 343h-162l19 98h315zM230 629q4 25 25 42t46 17t39 -17t10 -42q-5 -25 -26 -42t-46 -17t-39 17t-9 42z" />
    <glyph glyph-name="Zcaron" unicode="&#x17d;" horiz-adv-x="528" 
d="M568 666l-9 34h-413l-22 -110h258l-406 -557l11 -33h464l21 110h-307zM371 755h-24l-120 137l66 58l85 -97l123 97l44 -58z" />
    <glyph glyph-name="zcaron" unicode="&#x17e;" horiz-adv-x="426" 
d="M420 440l-5 28h-315l-19 -98h162l-261 -343l6 -27h359l19 98h-212zM285 531h-24l-121 137l67 58l85 -97l123 97l43 -58z" />
    <glyph glyph-name="longs" unicode="&#x17f;" horiz-adv-x="357" 
d="M47 370l19 98h76l20 99q17 92 70 143t134 51q88 0 125 -69l-81 -59q-14 35 -55 35q-68 0 -88 -105l-109 -563h-106l71 370h-76z" />
    <glyph glyph-name="florin" unicode="&#x192;" horiz-adv-x="357" 
d="M123 370h-76l19 98h76l20 99q17 92 70 143t134 51q88 0 125 -69l-81 -59q-14 35 -55 35q-68 0 -88 -105l-19 -95h135l-19 -98h-135l-89 -458q-17 -92 -69.5 -143t-133.5 -51q-87 0 -125 69l82 59q13 -35 54 -35q67 0 87 105z" />
    <glyph glyph-name="Ohorn" unicode="&#x1a0;" horiz-adv-x="834" 
d="M535 712q133 0 219 -83q35 27 42 65q10 44 -17 85l92 42q24 -43 12 -104q-16 -81 -93 -129q71 -101 44 -238q-30 -153 -159 -257.5t-281 -104.5t-240 104.5t-58 257.5t158.5 257.5t280.5 104.5zM416 98q105 0 192.5 72t109.5 180q21 108 -38.5 180t-165.5 72t-193.5 -72
t-108.5 -180t38.5 -180t165.5 -72z" />
    <glyph glyph-name="ohorn" unicode="&#x1a1;" horiz-adv-x="596" 
d="M361 480q96 0 156 -58q42 26 50 71q10 46 -17 85l93 42q23 -43 11 -104q-19 -89 -106 -136q38 -63 21 -146q-20 -104 -108 -175t-196 -71t-168 71t-40 175t108 175t196 71zM163 234q-13 -63 22 -105.5t99 -42.5t115 42t64 106q13 63 -22 105.5t-99 42.5t-115 -42
t-64 -106z" />
    <glyph glyph-name="Uhorn" unicode="&#x1af;" horiz-adv-x="656" 
d="M484 248l88 452h116q27 24 33 57q8 45 -18 85l92 42q23 -41 11 -103q-9 -48 -43 -87.5t-89 -62.5l-74 -383q-24 -119 -111 -189.5t-190 -70.5t-163 70.5t-36 189.5l88 452h116l-88 -452q-15 -73 14.5 -111.5t90.5 -38.5t104.5 38.5t58.5 111.5z" />
    <glyph glyph-name="uhorn" unicode="&#x1b0;" horiz-adv-x="575" 
d="M123 468h106l-55 -284q-8 -45 14 -74t64 -29t76 29t42 74l55 284h106q38 25 46 67q10 44 -17 85l92 42q23 -41 11 -104q-10 -51 -47 -92t-97 -62l-78 -404h-106l8 44q-64 -56 -142 -56q-72 0 -112 48t-25 126z" />
    <glyph glyph-name="Scommaaccent" unicode="&#x218;" horiz-adv-x="540" 
d="M344 431q86 -39 119 -96t17 -138q-17 -88 -88.5 -148.5t-177.5 -60.5q-72 0 -125.5 36.5t-76.5 100.5l91 72q14 -48 51.5 -73.5t83.5 -25.5q45 0 81.5 31t45.5 72q8 45 -14 76.5t-90 63.5q-75 36 -106 83.5t-17 117.5q14 71 75.5 120.5t143.5 49.5q58 0 97.5 -27.5
t54.5 -73.5l-82 -63q-26 54 -84 54q-36 0 -60.5 -18t-29.5 -47q-7 -34 13 -57t78 -49zM92 -269l89 202l92 -25l-117 -193z" />
    <glyph glyph-name="scommaaccent" unicode="&#x219;" horiz-adv-x="400" 
d="M156 82q30 0 50.5 15.5t25.5 40.5q6 27 -8.5 45t-55.5 36q-110 50 -93 134q10 55 58 91t108 36q37 0 68.5 -18.5t47.5 -49.5l-73 -58q-18 34 -51 34q-20 0 -34.5 -9t-17.5 -25q-4 -20 10.5 -34t52.5 -31q114 -53 95 -150q-13 -66 -64.5 -108.5t-130.5 -42.5q-49 0 -88 27
t-56 74l79 63q24 -70 77 -70zM20 -269l89 202l92 -25l-117 -193z" />
    <glyph glyph-name="uni021A" unicode="&#x21a;" horiz-adv-x="490" 
d="M86 590l22 110h446l-22 -110h-165l-114 -590h-116l114 590h-165zM50 -269l89 202l92 -25l-117 -193z" />
    <glyph glyph-name="uni021B" unicode="&#x21b;" horiz-adv-x="344" 
d="M47 370l19 98h76l26 132h106l-26 -132h115l-19 -98h-115l-71 -370h-106l71 370h-76zM-36 -269l89 202l92 -25l-117 -193z" />
    <glyph glyph-name="uni0237" unicode="&#x237;" horiz-adv-x="261" 
d="M16 -82l106 550h106l-107 -552q-18 -94 -72.5 -146t-136.5 -52q-40 0 -74.5 18t-53.5 50l86 62q14 -37 56 -37q69 0 90 107z" />
    <glyph glyph-name="apostrophe" unicode="&#x2bc;" horiz-adv-x="406" 
d="M168 512l106 240l98 -26l-140 -230z" />
    <glyph glyph-name="circumflex" unicode="&#x2c6;" horiz-adv-x="406" 
d="M286 746h24l120 -137l-66 -58l-86 97l-122 -97l-44 58z" />
    <glyph glyph-name="caron" unicode="&#x2c7;" horiz-adv-x="406" 
d="M272 551h-24l-121 137l67 58l85 -97l123 97l43 -58z" />
    <glyph glyph-name="uni02C9" unicode="&#x2c9;" horiz-adv-x="406" 
d="M125 609l16 81h292l-16 -81h-292z" />
    <glyph glyph-name="breve" unicode="&#x2d8;" horiz-adv-x="406" 
d="M158 716h84q-6 -29 6.5 -52t41.5 -23t50.5 23t27.5 52h84q-13 -66 -64 -111t-114 -45t-96 45t-20 111z" />
    <glyph glyph-name="dotaccent" unicode="&#x2d9;" horiz-adv-x="406" 
d="M224 649q4 25 25 42t46 17t39 -17t10 -42q-5 -25 -26 -42t-46 -17t-39 17t-9 42z" />
    <glyph glyph-name="ring" unicode="&#x2da;" horiz-adv-x="406" 
d="M188 574q-26 30 -17 75t46 75t82 30t71 -30t17 -75t-46.5 -75t-82.5 -30t-70 30zM253 681q-15 -13 -19 -32t6.5 -32t29.5 -13t34.5 13t19.5 32t-7 32t-30 13t-34 -13z" />
    <glyph glyph-name="ogonek" unicode="&#x2db;" horiz-adv-x="406" 
d="M160 10h72q-36 -26 -61 -56t-29 -55q-5 -24 7 -35.5t34 -11.5q21 0 37 13l13 -63q-38 -21 -84 -21q-51 0 -76.5 30.5t-16.5 71.5q13 72 104 127z" />
    <glyph glyph-name="tilde" unicode="&#x2dc;" horiz-adv-x="406" 
d="M255 616q-19 21 -38 21q-28 0 -42 -49l-72 21q16 50 50.5 79t74.5 29q41 0 74 -33q21 -21 38 -21q28 0 43 49l72 -21q-16 -50 -50.5 -79t-74.5 -29q-42 0 -75 33z" />
    <glyph glyph-name="hungarumlaut" unicode="&#x2dd;" horiz-adv-x="406" 
d="M251 747l44 -59l-173 -137l-44 58zM436 747l43 -59l-173 -137l-44 58z" />
    <glyph glyph-name="gravecomb" unicode="&#x300;" horiz-adv-x="0" 
d="M-295 688l67 59l120 -138l-66 -58z" />
    <glyph glyph-name="acutecomb" unicode="&#x301;" horiz-adv-x="0" 
d="M-83 747l42 -59l-172 -137l-44 58z" />
    <glyph glyph-name="uni0302" unicode="&#x302;" horiz-adv-x="0" 
d="M-169 746h24l119 -137l-65 -58l-86 97l-122 -97l-44 58z" />
    <glyph glyph-name="tildecomb" unicode="&#x303;" horiz-adv-x="0" 
d="M-199 616q-19 21 -38 21q-28 0 -42 -49l-72 21q16 50 50.5 79t74.5 29q41 0 74 -33q21 -21 38 -21q28 0 43 49l71 -21q-16 -50 -50 -79t-74 -29q-42 0 -75 33z" />
    <glyph glyph-name="uni0304" unicode="&#x304;" horiz-adv-x="0" 
d="M-326 609l16 81h291l-16 -81h-291z" />
    <glyph glyph-name="uni0306" unicode="&#x306;" horiz-adv-x="0" 
d="M-296 716h84q-6 -29 6.5 -52t41.5 -23t50.5 23t27.5 52h83q-13 -66 -63.5 -111t-113.5 -45t-96 45t-20 111z" />
    <glyph glyph-name="uni0307" unicode="&#x307;" horiz-adv-x="0" 
d="M-235 649q4 25 25 42t46 17t39 -17t10 -42q-5 -25 -26 -42t-46 -17t-39 17t-9 42z" />
    <glyph glyph-name="uni0308" unicode="&#x308;" horiz-adv-x="0" 
d="M-326 649q4 25 25 42t46 17t39 -17t10 -42q-5 -25 -26 -42t-46 -17t-39 17t-9 42zM-134 649q4 25 25 42t46 17q24 0 38 -17t10 -42q-5 -25 -25.5 -42t-45.5 -17t-39 17t-9 42z" />
    <glyph glyph-name="hookabovecomb" unicode="&#x309;" horiz-adv-x="0" 
d="M-156 600l-8 -40h-72l11 55l11 11q39 8 44 33q5 24 -19 24q-17 0 -34 -17l-33 41q42 42 95 42q36 0 55 -22.5t13 -55.5q-10 -51 -63 -71z" />
    <glyph glyph-name="uni030A" unicode="&#x30a;" horiz-adv-x="0" 
d="M-257 574q-26 30 -17 75t46 75t82 30t71 -30t17 -75t-46.5 -75t-82.5 -30t-70 30zM-192 681q-15 -13 -19 -32t6.5 -32t29.5 -13t34.5 13t19.5 32t-7 32t-30 13t-34 -13z" />
    <glyph glyph-name="uni030C" unicode="&#x30c;" horiz-adv-x="0" 
d="M-183 551h-24l-121 137l67 58l85 -97l123 97l42 -58z" />
    <glyph glyph-name="dotbelowcomb" unicode="&#x323;" horiz-adv-x="0" 
d="M-405 -225q4 25 25 42t46 17t39 -17t10 -42q-5 -25 -26 -42t-46 -17t-39 17t-9 42z" />
    <glyph glyph-name="uni03A9" unicode="&#x3a9;" horiz-adv-x="819" 
d="M778 378q0 -166 -155 -270h157v-108h-290v108q85 52 128.5 113.5t43.5 146.5q0 101 -70.5 168.5t-171.5 67.5t-171.5 -67.5t-70.5 -168.5q0 -85 43.5 -146.5t128.5 -113.5v-108h-290v108h157q-155 104 -155 270q0 141 102.5 237.5t255.5 96.5t255.5 -96.5t102.5 -237.5z
" />
    <glyph glyph-name="pi" unicode="&#x3c0;" horiz-adv-x="636" 
d="M343 165l39 205h-104q-21 -112 -58 -200t-103 -180l-94 36q110 152 147 344h-123l19 98h575l-19 -98h-134l-39 -202q-16 -82 31 -82q37 0 60 33l43 -73q-55 -58 -126 -58q-73 0 -101 51t-13 126z" />
    <glyph glyph-name="uni0400" unicode="&#x400;" horiz-adv-x="493" 
d="M393 0l21 110h-249l43 224h215l21 106h-215l29 150h240l22 110h-356l-136 -700h365zM274 892l66 59l121 -138l-67 -58z" />
    <glyph glyph-name="afii10023" unicode="&#x401;" horiz-adv-x="493" 
d="M414 110l-21 -110h-365l136 700h356l-22 -110h-240l-29 -150h215l-21 -106h-215l-43 -224h249zM214 853q5 25 26 42t46 17t39 -17t9 -42q-4 -25 -25 -42t-46 -17t-39 17t-10 42zM406 853q5 25 26 42t46 17t39 -17t9 -42q-4 -25 -25 -42t-46 -17t-39 17t-10 42z" />
    <glyph glyph-name="afii10051" unicode="&#x402;" horiz-adv-x="637" 
d="M81 590l22 110h428l-22 -110h-169l-38 -194q58 35 127 35q90 0 140 -59.5t32 -154.5q-19 -97 -94 -157t-186 -60l20 104q54 0 93 28t49 77q11 56 -16.5 87t-80.5 31q-61 0 -103 -29l-57 -298h-116l114 590h-143z" />
    <glyph glyph-name="afii10052" unicode="&#x403;" horiz-adv-x="441" 
d="M28 0l136 700h338l-22 -110h-222l-114 -590h-116zM441 951l44 -59l-174 -137l-43 58z" />
    <glyph glyph-name="afii10053" unicode="&#x404;" horiz-adv-x="719" 
d="M535 712q156 0 243 -108l-95 -78q-59 76 -169 76q-92 0 -172 -55.5t-115 -143.5h371l-21 -106h-371q1 -88 59.5 -143.5t150.5 -55.5q111 0 198 76l65 -78q-129 -108 -285 -108q-152 0 -240 104.5t-58 257.5t158.5 257.5t280.5 104.5z" />
    <glyph glyph-name="afii10054" unicode="&#x405;" horiz-adv-x="540" 
d="M344 431q86 -39 119 -96t17 -138q-17 -88 -88.5 -148.5t-177.5 -60.5q-72 0 -125.5 36.5t-76.5 100.5l91 72q14 -48 51.5 -73.5t83.5 -25.5q45 0 81.5 31t45.5 72q8 45 -14 76.5t-90 63.5q-75 36 -106 83.5t-17 117.5q14 71 75.5 120.5t143.5 49.5q58 0 97.5 -27.5
t54.5 -73.5l-82 -63q-26 54 -84 54q-36 0 -60.5 -18t-29.5 -47q-7 -34 13 -57t78 -49z" />
    <glyph glyph-name="afii10055" unicode="&#x406;" horiz-adv-x="292" 
d="M174 700h116l-136 -700h-116z" />
    <glyph glyph-name="afii10056" unicode="&#x407;" horiz-adv-x="292" 
d="M174 700h116l-136 -700h-116zM105 853q5 25 26 42t46 17t39 -17t9 -42q-4 -25 -25 -42t-46 -17t-39 17t-10 42zM297 853q5 25 26 42t46 17t39 -17t9 -42q-4 -25 -25 -42t-46 -17t-39 17t-10 42z" />
    <glyph glyph-name="afii10057" unicode="&#x408;" horiz-adv-x="448" 
d="M-34 77l101 70q7 -23 26.5 -36t43.5 -13q84 0 109 125l93 477h116l-95 -484q-21 -112 -86.5 -170t-155.5 -58q-49 0 -90 24t-62 65z" />
    <glyph glyph-name="afii10058" unicode="&#x409;" horiz-adv-x="917" 
d="M604 334l-44 -228h56q58 0 100.5 30.5t52.5 83.5t-20.5 83.5t-88.5 30.5h-56zM254 700h422l-51 -260h59q111 0 165.5 -63.5t35.5 -156.5q-18 -93 -96.5 -156.5t-189.5 -63.5h-175l114 590h-200l-51 -193q-38 -144 -94 -237.5t-145 -171.5l-82 62q80 68 130 151.5
t79 199.5z" />
    <glyph glyph-name="afii10059" unicode="&#x40a;" horiz-adv-x="894" 
d="M602 440h59q111 0 165.5 -63.5t35.5 -156.5q-18 -93 -96.5 -156.5t-189.5 -63.5h-175l64 331h-257l-64 -331h-116l136 700h116l-52 -265h257l52 265h116zM581 334l-44 -228h56q58 0 100.5 30.5t52.5 83.5t-20.5 83.5t-88.5 30.5h-56z" />
    <glyph glyph-name="afii10060" unicode="&#x40b;" horiz-adv-x="637" 
d="M81 590l22 110h428l-22 -110h-169l-38 -194q57 35 132 35q89 0 131 -56t22 -158l-42 -217h-116l41 214q22 113 -87 113q-55 0 -100 -29l-57 -298h-116l114 590h-143z" />
    <glyph glyph-name="afii10061" unicode="&#x40c;" horiz-adv-x="598" 
d="M213 356l331 356l80 -59l-282 -296l201 -304l-108 -65l-222 368l-69 -356h-116l136 700h116zM487 951l44 -59l-174 -137l-43 58z" />
    <glyph glyph-name="uni040D" unicode="&#x40d;" horiz-adv-x="741" 
d="M588 471l-521 -483l-40 10l137 702h116l-92 -471l521 483l40 -10l-136 -702h-116zM390 892l66 59l121 -138l-67 -58z" />
    <glyph glyph-name="afii10062" unicode="&#x40e;" horiz-adv-x="611" 
d="M683 673l-500 -685l-98 38l169 232l-156 415l114 39l124 -342l249 342zM292 930h84q-6 -29 7 -52t42 -23t50 23t27 52h84q-13 -66 -63.5 -111t-113.5 -45t-96.5 45t-20.5 111z" />
    <glyph glyph-name="afii10145" unicode="&#x40f;" horiz-adv-x="655" 
d="M195 -126l25 126h-192l136 700h116l-115 -590h267l115 590h116l-136 -700h-191l-25 -126h-116z" />
    <glyph glyph-name="afii10017" unicode="&#x410;" horiz-adv-x="644" 
d="M70 -12l-103 23l423 701h40l151 -701l-113 -23l-33 171h-266zM417 255l-48 248l-144 -248h192z" />
    <glyph glyph-name="afii10018" unicode="&#x411;" horiz-adv-x="539" 
d="M229 440h59q111 0 165.5 -63.5t35.5 -156.5q-18 -93 -96.5 -156.5t-189.5 -63.5h-175l136 700h368l-22 -110h-252zM208 334l-44 -228h56q58 0 100.5 30.5t52.5 83.5t-20.5 83.5t-88.5 30.5h-56z" />
    <glyph glyph-name="afii10019" unicode="&#x412;" horiz-adv-x="548" 
d="M224 0h-196l136 700h169q105 0 155 -49t36 -123q-11 -54 -46 -94.5t-90 -58.5q69 -17 97 -65t15 -115q-16 -86 -90 -140.5t-186 -54.5zM260 600l-34 -178h54q55 0 87 24.5t40 64.5t-15 64.5t-78 24.5h-54zM206 322l-43 -222h68q63 0 105 30.5t52 80.5q9 50 -21 80.5
t-93 30.5h-68z" />
    <glyph glyph-name="afii10020" unicode="&#x413;" horiz-adv-x="441" 
d="M28 0l136 700h338l-22 -110h-222l-114 -590h-116z" />
    <glyph glyph-name="afii10021" unicode="&#x414;" horiz-adv-x="641" 
d="M581 110l-46 -236h-116l25 126h-368l-25 -126h-115l45 236h53q73 113 118 239t77 291l12 60h391l-115 -590h64zM153 110h248l93 480h-167q-55 -279 -174 -480z" />
    <glyph glyph-name="afii10022" unicode="&#x415;" horiz-adv-x="493" 
d="M414 110l-21 -110h-365l136 700h356l-22 -110h-240l-29 -150h215l-21 -106h-215l-43 -224h249z" />
    <glyph glyph-name="afii10024" unicode="&#x416;" horiz-adv-x="888" 
d="M521 356l313 356l80 -59l-262 -296l181 -304l-108 -65l-204 368l-69 -356h-116l136 700h116zM230 712l175 -356l-348 -368l-82 65l299 304l-148 296z" />
    <glyph glyph-name="afii10025" unicode="&#x417;" horiz-adv-x="548" 
d="M326 602q-63 0 -118 -65l-79 55q44 57 102 88.5t119 31.5q86 0 132 -50t32 -126q-19 -90 -105 -137q52 -26 75.5 -75t11.5 -113q-19 -94 -100.5 -158.5t-186.5 -64.5q-67 0 -119.5 30.5t-80.5 91.5l104 68q39 -80 119 -80q57 0 98 33.5t50 84.5q11 54 -19.5 87.5
t-88.5 33.5h-75l21 110h72q41 0 70 23t36 58q7 33 -12.5 53.5t-57.5 20.5z" />
    <glyph glyph-name="afii10026" unicode="&#x418;" horiz-adv-x="741" 
d="M588 471l-521 -483l-40 10l137 702h116l-92 -471l521 483l40 -10l-136 -702h-116z" />
    <glyph glyph-name="afii10027" unicode="&#x419;" horiz-adv-x="741" 
d="M588 471l-521 -483l-40 10l137 702h116l-92 -471l521 483l40 -10l-136 -702h-116zM353 930h84q-6 -29 7 -52t42 -23t50 23t27 52h84q-13 -66 -63.5 -111t-113.5 -45t-96.5 45t-20.5 111z" />
    <glyph glyph-name="afii10028" unicode="&#x41a;" horiz-adv-x="598" 
d="M213 356l331 356l80 -59l-282 -296l201 -304l-108 -65l-222 368l-69 -356h-116l136 700h116z" />
    <glyph glyph-name="afii10029" unicode="&#x41b;" horiz-adv-x="693" 
d="M338 590l-51 -193q-38 -144 -94 -237.5t-145 -171.5l-82 62q80 68 130 151.5t79 199.5l79 299h447l-136 -700h-116l114 590h-225z" />
    <glyph glyph-name="afii10030" unicode="&#x41c;" horiz-adv-x="946" 
d="M440 -12h-40l-97 497l-221 -499l-110 25l342 701h41l109 -500l303 500h41l70 -701l-120 -25l-27 499z" />
    <glyph glyph-name="afii10031" unicode="&#x41d;" horiz-adv-x="655" 
d="M547 700h116l-136 -700h-116l63 328h-267l-63 -328h-116l136 700h116l-51 -262h267z" />
    <glyph glyph-name="afii10032" unicode="&#x41e;" horiz-adv-x="834" 
d="M416 98q105 0 192.5 72t109.5 180q21 108 -38.5 180t-165.5 72t-193.5 -72t-108.5 -180t38.5 -180t165.5 -72zM154 92q-88 105 -58 258t158.5 257.5t280.5 104.5t240.5 -104.5t58.5 -257.5t-159 -257.5t-281 -104.5t-240 104z" />
    <glyph glyph-name="afii10033" unicode="&#x41f;" horiz-adv-x="655" 
d="M164 700h499l-136 -700h-116l114 590h-267l-114 -590h-116z" />
    <glyph glyph-name="afii10034" unicode="&#x420;" horiz-adv-x="526" 
d="M253 260h-59l-50 -260h-116l136 700h175q111 0 165 -63.5t36 -156.5q-19 -93 -97.5 -156.5t-189.5 -63.5zM259 594l-44 -228h56q58 0 100.5 30.5t52.5 83.5t-20.5 83.5t-88.5 30.5h-56z" />
    <glyph glyph-name="afii10035" unicode="&#x421;" horiz-adv-x="719" 
d="M505 712q156 0 243 -108l-95 -78q-59 76 -169 76q-106 0 -193.5 -72t-108.5 -180t38.5 -180t165.5 -72q111 0 198 76l65 -78q-129 -108 -285 -108q-152 0 -240 104.5t-58 257.5t158.5 257.5t280.5 104.5z" />
    <glyph glyph-name="afii10036" unicode="&#x422;" horiz-adv-x="490" 
d="M86 590l22 110h446l-22 -110h-165l-114 -590h-116l114 590h-165z" />
    <glyph glyph-name="afii10037" unicode="&#x423;" horiz-adv-x="611" 
d="M683 673l-500 -685l-98 38l169 232l-156 415l114 39l124 -342l249 342z" />
    <glyph glyph-name="afii10038" unicode="&#x424;" horiz-adv-x="878" 
d="M392 192l61 316h-41q-85 0 -143.5 -43.5t-72.5 -114.5t28 -114.5t127 -43.5h41zM569 508l-61 -316h41q84 0 143.5 43.5t73.5 114.5t-28.5 114.5t-127.5 43.5h-41zM491 700h116l-16 -82h37q134 0 205.5 -74t48.5 -194q-24 -120 -124.5 -194t-234.5 -74h-37l-15 -82h-116
l15 82h-37q-134 0 -205.5 74t-47.5 194q23 120 123.5 194t234.5 74h37z" />
    <glyph glyph-name="afii10039" unicode="&#x425;" horiz-adv-x="635" 
d="M319 271l-262 -283l-95 52l305 328l-157 292l115 52l132 -246l229 246l95 -52l-271 -292l177 -328l-115 -52z" />
    <glyph glyph-name="afii10040" unicode="&#x426;" horiz-adv-x="672" 
d="M475 0h-447l136 700h116l-115 -590h267l115 590h116l-115 -590h64l-46 -236h-116z" />
    <glyph glyph-name="afii10041" unicode="&#x427;" horiz-adv-x="580" 
d="M285 700l-39 -197q-24 -125 90 -125q58 0 97 21l59 301h116l-136 -700h-116l58 300q-52 -32 -126 -32q-89 0 -135.5 56.5t-26.5 157.5l43 218h116z" />
    <glyph glyph-name="afii10042" unicode="&#x428;" horiz-adv-x="948" 
d="M956 700l-136 -700h-792l136 700h116l-115 -590h222l115 590h116l-115 -590h222l115 590h116z" />
    <glyph glyph-name="afii10043" unicode="&#x429;" horiz-adv-x="965" 
d="M956 700l-115 -590h64l-46 -236h-116l25 126h-740l136 700h116l-115 -590h222l115 590h116l-115 -590h222l115 590h116z" />
    <glyph glyph-name="afii10044" unicode="&#x42a;" horiz-adv-x="606" 
d="M314 440h59q111 0 165.5 -63.5t35.5 -156.5q-18 -93 -96.5 -156.5t-189.5 -63.5h-175l115 596h-147l21 104h263zM293 334l-44 -228h56q58 0 100.5 30.5t52.5 83.5t-20.5 83.5t-88.5 30.5h-56z" />
    <glyph glyph-name="afii10045" unicode="&#x42b;" horiz-adv-x="778" 
d="M229 440h59q111 0 165.5 -63.5t35.5 -156.5q-18 -93 -96.5 -156.5t-189.5 -63.5h-175l136 700h116zM208 334l-44 -228h56q58 0 100.5 30.5t52.5 83.5t-20.5 83.5t-88.5 30.5h-56zM786 700h-116l-136 -700h116z" />
    <glyph glyph-name="afii10046" unicode="&#x42c;" horiz-adv-x="521" 
d="M229 440h59q111 0 165.5 -63.5t35.5 -156.5q-18 -93 -96.5 -156.5t-189.5 -63.5h-175l136 700h116zM208 334l-44 -228h56q58 0 100.5 30.5t52.5 83.5t-20.5 83.5t-88.5 30.5h-56z" />
    <glyph glyph-name="afii10047" unicode="&#x42d;" horiz-adv-x="719" 
d="M249 -12q-156 0 -243 108l95 78q59 -76 170 -76q92 0 171.5 55.5t114.5 143.5h-371l21 106h371q-1 88 -59 143.5t-150 55.5q-112 0 -199 -76l-65 78q129 108 285 108q152 0 240.5 -104.5t58.5 -257.5t-159 -257.5t-281 -104.5z" />
    <glyph glyph-name="afii10048" unicode="&#x42e;" horiz-adv-x="1073" 
d="M164 700h116l-58 -295h97q46 133 167 220t258 87q152 0 240.5 -104.5t58.5 -257.5t-159 -257.5t-281 -104.5q-138 0 -224.5 87t-80.5 220h-97l-57 -295h-116zM625 98q105 0 192.5 72t109.5 180q21 108 -38.5 180t-165.5 72t-193.5 -72t-108.5 -180t38.5 -180t165.5 -72z
" />
    <glyph glyph-name="afii10049" unicode="&#x42f;" horiz-adv-x="574" 
d="M330 0l115 594h-51q-59 0 -99.5 -26.5t-50.5 -75.5q-9 -48 23 -76.5t97 -28.5h9l1 -38l-315 -361l-83 52l248 265q-61 23 -84.5 74.5t-11.5 111.5q17 91 95.5 150t184.5 59h174l-136 -700h-116z" />
    <glyph glyph-name="afii10065" unicode="&#x430;" horiz-adv-x="635" 
d="M401 125q54 45 67 109t-23.5 108.5t-99.5 44.5t-116.5 -44.5t-66.5 -108.5t23.5 -108.5t99.5 -44.5t116 44zM622 468l-90 -468h-106l12 66q-78 -78 -189 -78q-100 0 -156 71t-36 175t104 175t184 71q112 0 159 -78l12 66h106z" />
    <glyph glyph-name="afii10066" unicode="&#x431;" horiz-adv-x="609" 
d="M219 412q75 66 175 66t156.5 -71t37.5 -173q-20 -104 -108 -175t-199 -71q-116 0 -174.5 79t-31.5 220q45 232 162.5 337t341.5 126l-4 -103q-161 -13 -239.5 -68t-116.5 -167zM416 125q53 44 66 109t-23 109t-100 44t-117 -44t-66 -109t23 -109t100 -44t117 44z" />
    <glyph glyph-name="afii10067" unicode="&#x432;" horiz-adv-x="489" 
d="M232 0h-209l90 468h185q74 0 109.5 -36t25.5 -84q-12 -62 -72 -92q39 -13 58 -44t11 -73q-13 -63 -66.5 -101t-131.5 -38zM146 92h100q30 0 52 14.5t27 39.5q5 26 -10.5 40.5t-46.5 14.5h-100zM325 335q4 21 -9 31t-37 10h-77l-17 -83h77q54 0 63 42z" />
    <glyph glyph-name="afii10068" unicode="&#x433;" horiz-adv-x="397" 
d="M23 0l90 468h298l-19 -98h-192l-71 -370h-106z" />
    <glyph glyph-name="afii10069" unicode="&#x434;" horiz-adv-x="532" 
d="M474 98l-40 -204h-106l21 106h-279l-21 -106h-105l39 204h44q44 66 82 158t54 171l7 41h321l-71 -370h54zM134 98h185l52 272h-125q-37 -152 -112 -272z" />
    <glyph glyph-name="afii10070" unicode="&#x435;" horiz-adv-x="580" 
d="M287 86q78 0 142 69l69 -61q-99 -106 -232 -106q-108 0 -168.5 70.5t-40.5 175.5q20 103 107 174.5t190 71.5q102 0 161 -70t40 -176q-4 -19 -8 -28h-387q-2 -57 35 -88.5t92 -31.5zM181 284h276q-1 48 -34.5 73t-86.5 25q-43 0 -87 -26.5t-68 -71.5z" />
    <glyph glyph-name="afii10072" unicode="&#x436;" horiz-adv-x="738" 
d="M594 -12l-174 264l-48 -252h-106l90 468h106l-42 -216l251 228l62 -63l-188 -169l138 -197zM314 252l-276 -264l-65 63l216 197l-122 169l86 63z" />
    <glyph glyph-name="afii10073" unicode="&#x437;" horiz-adv-x="432" 
d="M213 387q-42 0 -86 -37l-60 58q77 72 177 72q70 0 106.5 -37.5t26.5 -86.5q-12 -59 -67 -92q67 -40 50 -128q-12 -60 -73.5 -104t-143.5 -44q-110 0 -162 86l89 59q28 -52 89 -52q37 0 64 18t32 45q7 33 -12.5 53.5t-63.5 20.5h-64l16 82h62q30 0 50.5 12t24.5 32
q4 17 -11 30t-44 13z" />
    <glyph glyph-name="afii10074" unicode="&#x438;" horiz-adv-x="572" 
d="M513 480l27 -7l-91 -473h-106l53 277l-347 -289l-27 7l91 473h106l-53 -277z" />
    <glyph glyph-name="afii10075" unicode="&#x439;" horiz-adv-x="572" 
d="M513 480l27 -7l-91 -473h-106l53 277l-347 -289l-27 7l91 473h106l-53 -277zM226 706h84q-6 -29 6.5 -52t41.5 -23t50.5 23t27.5 52h84q-13 -66 -64 -111t-114 -45t-96 45t-20 111z" />
    <glyph glyph-name="afii10076" unicode="&#x43a;" horiz-adv-x="511" 
d="M368 -12l-192 264l269 228l60 -65l-202 -167l154 -192zM218 468l-90 -468h-106l90 468h106z" />
    <glyph glyph-name="afii10077" unicode="&#x43b;" horiz-adv-x="575" 
d="M542 468l-90 -468h-106l71 370h-162l-55 -190q-35 -125 -172 -192l-59 66q103 51 127 132l79 282h367z" />
    <glyph glyph-name="afii10078" unicode="&#x43c;" horiz-adv-x="688" 
d="M305 -10h-26l-76 271l-144 -273l-95 22l254 468h26l84 -301l200 301h26l72 -468l-103 -22l-38 273z" />
    <glyph glyph-name="afii10079" unicode="&#x43d;" horiz-adv-x="558" 
d="M525 468l-90 -468h-106l39 205h-200l-39 -205h-106l90 468h106l-32 -165h200l32 165h106z" />
    <glyph glyph-name="afii10080" unicode="&#x43e;" horiz-adv-x="596" 
d="M143 234q-13 -63 22 -105.5t99 -42.5t115 42t64 106q13 63 -22 105.5t-99 42.5t-115 -42t-64 -106zM77 59q-60 71 -40 175t108 175t196 71t168 -71t40 -175t-108 -175t-196 -71t-168 71z" />
    <glyph glyph-name="afii10081" unicode="&#x43f;" horiz-adv-x="558" 
d="M525 468l-90 -468h-106l71 370h-200l-71 -370h-106l90 468h412z" />
    <glyph glyph-name="afii10082" unicode="&#x440;" horiz-adv-x="635" 
d="M243 342q-53 -44 -66 -108t23.5 -108.5t99.5 -44.5t116.5 44.5t66.5 108.5t-23.5 108.5t-99.5 44.5t-117 -45zM-32 -282l145 750h106l-12 -66q78 78 189 78q100 0 156 -71t36 -175t-104 -175t-184 -71q-112 0 -159 78l-67 -348h-106z" />
    <glyph glyph-name="afii10083" unicode="&#x441;" horiz-adv-x="509" 
d="M341 480q105 0 167 -74l-83 -69q-33 45 -103 45q-64 0 -115 -42t-64 -106q-13 -63 22 -105.5t99 -42.5q70 0 121 45l57 -69q-92 -74 -197 -74q-108 0 -168 71t-40 175t108 175t196 71z" />
    <glyph glyph-name="afii10084" unicode="&#x442;" horiz-adv-x="438" 
d="M47 370l19 98h386l-19 -98h-140l-71 -370h-106l71 370h-140z" />
    <glyph glyph-name="afii10085" unicode="&#x443;" horiz-adv-x="509" 
d="M-14 -263l165 278l-89 438l107 27l59 -341l199 341l96 -27l-441 -747z" />
    <glyph glyph-name="afii10086" unicode="&#x444;" horiz-adv-x="1018" 
d="M544 66l-61 -316h-106l61 316q-78 -78 -189 -78q-100 0 -156 71t-36 175t104 175t184 71q112 0 159 -78l67 348h106l-67 -348q78 78 189 78q100 0 156 -71t36 -175t-104 -175t-184 -71q-112 0 -159 78zM401 125q54 45 67 109t-23.5 108.5t-99.5 44.5t-116.5 -44.5
t-66.5 -108.5t23.5 -108.5t99.5 -44.5t116 44zM646 342q-53 -44 -66 -108t23.5 -108.5t99.5 -44.5t116.5 44.5t66.5 108.5t-23.5 108.5t-99.5 44.5t-117 -45z" />
    <glyph glyph-name="afii10087" unicode="&#x445;" horiz-adv-x="478" 
d="M318 -12l-97 180l-167 -180l-82 43l197 212l-104 194l100 43l85 -162l149 162l82 -43l-178 -194l115 -212z" />
    <glyph glyph-name="afii10088" unicode="&#x446;" horiz-adv-x="566" 
d="M454 98h54l-40 -204h-106l21 106h-360l90 468h106l-71 -370h200l71 370h106z" />
    <glyph glyph-name="afii10089" unicode="&#x447;" horiz-adv-x="525" 
d="M224 468l-24 -128q-24 -122 76 -122q46 0 83 17l45 233h106l-90 -468h-106l29 150q-44 -25 -108 -25q-75 0 -119 52t-26 144l28 147h106z" />
    <glyph glyph-name="afii10090" unicode="&#x448;" horiz-adv-x="800" 
d="M767 468l-90 -468h-654l90 468h106l-71 -370h168l71 370h106l-71 -370h168l71 370h106z" />
    <glyph glyph-name="afii10091" unicode="&#x449;" horiz-adv-x="808" 
d="M696 98h54l-40 -204h-106l21 106h-602l90 468h106l-71 -370h168l71 370h106l-71 -370h168l71 370h106z" />
    <glyph glyph-name="afii10092" unicode="&#x44a;" horiz-adv-x="533" 
d="M271 0h-185l72 375h-115l18 93h221l-25 -132h79q85 0 127 -47t28 -121t-75 -121t-145 -47zM239 242l-29 -148h75q40 0 66.5 20t33.5 54t-12 54t-59 20h-75z" />
    <glyph glyph-name="afii10093" unicode="&#x44b;" horiz-adv-x="691" 
d="M208 0h-185l90 468h106l-25 -132h79q85 0 127 -47t28 -121t-75 -121t-145 -47zM176 242l-29 -148h75q40 0 66.5 20t33.5 54t-12 54t-59 20h-75zM568 0l90 468h-106l-90 -468h106z" />
    <glyph glyph-name="afii10094" unicode="&#x44c;" horiz-adv-x="470" 
d="M208 0h-185l90 468h106l-25 -132h79q85 0 127 -47t28 -121t-75 -121t-145 -47zM176 242l-29 -148h75q40 0 66.5 20t33.5 54t-12 54t-59 20h-75z" />
    <glyph glyph-name="afii10095" unicode="&#x44d;" horiz-adv-x="509" 
d="M158 -12q-105 0 -167 74l83 69q33 -45 103 -45q51 0 95.5 28t67.5 74h-220l18 92h220q-5 46 -38.5 74t-84.5 28q-70 0 -121 -45l-57 69q93 74 197 74q108 0 168 -71t40 -175t-108 -175t-196 -71z" />
    <glyph glyph-name="afii10096" unicode="&#x44e;" horiz-adv-x="793" 
d="M23 0l90 468h106l-35 -185h65q34 86 114.5 141.5t174.5 55.5q108 0 168 -71t40 -175t-108 -175t-196 -71q-95 0 -153.5 55t-59.5 142h-65l-35 -185h-106zM340 234q-13 -63 22 -105.5t99 -42.5t115 42t64 106q13 63 -22 105.5t-99 42.5t-115 -42t-64 -106z" />
    <glyph glyph-name="afii10097" unicode="&#x44f;" horiz-adv-x="493" 
d="M251 252h50l1 -19l-236 -245l-79 50l148 150q-35 19 -50.5 54t-7.5 75q13 69 67 110t130 41h186l-90 -468h-106l73 380h-71q-32 0 -54.5 -18.5t-28.5 -45.5t12 -45.5t56 -18.5z" />
    <glyph glyph-name="uni0450" unicode="&#x450;" horiz-adv-x="580" 
d="M287 86q-55 0 -92 31.5t-35 88.5h387q4 9 8 28q19 106 -40 176t-161 70q-103 0 -190 -71.5t-107 -174.5q-20 -105 40.5 -175.5t168.5 -70.5q133 0 232 106l-69 61q-64 -69 -142 -69zM457 284h-276q24 45 68 71.5t87 26.5q53 0 86.5 -25t34.5 -73zM277 668l67 59l120 -138
l-66 -58z" />
    <glyph glyph-name="afii10071" unicode="&#x451;" horiz-adv-x="580" 
d="M287 86q78 0 142 69l69 -61q-99 -106 -232 -106q-108 0 -168.5 70.5t-40.5 175.5q20 103 107 174.5t190 71.5q102 0 161 -70t40 -176q-4 -19 -8 -28h-387q-2 -57 35 -88.5t92 -31.5zM181 284h276q-1 48 -34.5 73t-86.5 25q-43 0 -87 -26.5t-68 -71.5zM222 629q4 25 25 42
t46 17t39 -17t10 -42q-5 -25 -26 -42t-46 -17t-39 17t-9 42zM414 629q4 25 25 42t46 17t39 -17t10 -42q-5 -25 -26 -42t-46 -17t-39 17t-9 42z" />
    <glyph glyph-name="afii10099" unicode="&#x452;" horiz-adv-x="549" 
d="M309 -86l72 370q8 45 -14.5 74t-64.5 29t-76 -29t-42 -74l-55 -284h-106l113 585h-63l16 81h63l16 84h106l-16 -84h144l-16 -81h-144l-31 -161q64 56 142 56q72 0 112 -48t25 -126l-76 -393q-39 -195 -195 -195q-76 0 -117 63l78 63q16 -35 51 -35q57 0 78 105z" />
    <glyph glyph-name="afii10100" unicode="&#x453;" horiz-adv-x="397" 
d="M23 0l90 468h298l-19 -98h-192l-71 -370h-106zM372 747l43 -59l-173 -137l-44 58z" />
    <glyph glyph-name="afii10101" unicode="&#x454;" horiz-adv-x="509" 
d="M361 480q105 0 167 -74l-83 -69q-33 45 -103 45q-51 0 -95 -28t-68 -74h220l-18 -92h-220q5 -46 38.5 -74t84.5 -28q70 0 121 45l57 -69q-92 -74 -197 -74q-108 0 -168 71t-40 175t108 175t196 71z" />
    <glyph glyph-name="afii10102" unicode="&#x455;" horiz-adv-x="400" 
d="M156 82q30 0 50.5 15.5t25.5 40.5q6 27 -8.5 45t-55.5 36q-110 50 -93 134q10 55 58 91t108 36q37 0 68.5 -18.5t47.5 -49.5l-73 -58q-18 34 -51 34q-20 0 -34.5 -9t-17.5 -25q-4 -20 10.5 -34t52.5 -31q114 -53 95 -150q-13 -66 -64.5 -108.5t-130.5 -42.5q-49 0 -88 27
t-56 74l79 63q24 -70 77 -70z" />
    <glyph glyph-name="afii10103" unicode="&#x456;" horiz-adv-x="260" 
d="M27 0l90 468h106l-90 -468h-106zM273 648q-5 -28 -29 -48t-52 -20t-44 20t-11 48q6 28 30 48t52 20t44 -20t10 -48z" />
    <glyph glyph-name="afii10104" unicode="&#x457;" horiz-adv-x="260" 
d="M223 468l-90 -468h-106l90 468h106zM46 629q4 25 25 42t46 17t39 -17t10 -42q-5 -25 -26 -42t-46 -17t-39 17t-9 42zM238 629q4 25 25 42t46 17t39 -17t10 -42q-5 -25 -26 -42t-46 -17t-39 17t-9 42z" />
    <glyph glyph-name="afii10105" unicode="&#x458;" horiz-adv-x="261" 
d="M16 -82l106 550h106l-107 -552q-18 -94 -72.5 -146t-136.5 -52q-40 0 -74.5 18t-53.5 50l86 62q14 -37 56 -37q69 0 90 107zM278 648q-5 -28 -29 -48t-52 -20t-44 20t-11 48q6 28 30 48t52 20t44 -20t10 -48z" />
    <glyph glyph-name="afii10106" unicode="&#x459;" horiz-adv-x="782" 
d="M335 0l71 370h-151l-55 -190q-35 -125 -172 -192l-59 66q103 51 127 132l79 282h356l-25 -132h79q85 0 127 -47t28 -121t-75 -121t-145 -47h-185zM488 242l-29 -148h75q40 0 66.5 20t33.5 54t-12 54t-59 20h-75z" />
    <glyph glyph-name="afii10107" unicode="&#x45a;" horiz-adv-x="761" 
d="M499 0h-185l39 205h-185l-39 -205h-106l90 468h106l-32 -165h185l32 165h106l-25 -132h79q85 0 127 -47t28 -121t-75 -121t-145 -47zM467 242l-29 -148h75q40 0 66.5 20t33.5 54t-12 54t-59 20h-75z" />
    <glyph glyph-name="afii10108" unicode="&#x45b;" horiz-adv-x="549" 
d="M431 0h-106l55 284q8 45 -14 74t-64 29t-76 -29t-42 -74l-55 -284h-106l113 585h-63l16 81h63l16 84h106l-16 -84h144l-16 -81h-144l-31 -161q64 56 142 56q72 0 112 -48t25 -126z" />
    <glyph glyph-name="afii10109" unicode="&#x45c;" horiz-adv-x="511" 
d="M368 -12l-192 264l269 228l60 -65l-202 -167l154 -192zM218 468l-90 -468h-106l90 468h106zM418 747l43 -59l-173 -137l-44 58z" />
    <glyph glyph-name="uni045D" unicode="&#x45d;" horiz-adv-x="572" 
d="M513 480l27 -7l-91 -473h-106l53 277l-347 -289l-27 7l91 473h106l-53 -277zM267 688l67 59l120 -138l-66 -58z" />
    <glyph glyph-name="afii10110" unicode="&#x45e;" horiz-adv-x="509" 
d="M151 15l-165 -278l96 -31l441 747l-96 27l-199 -341l-59 341l-107 -27zM194 716h84q-6 -29 6.5 -52t41.5 -23t50.5 23t27.5 52h84q-13 -66 -64 -111t-114 -45t-96 45t-20 111z" />
    <glyph glyph-name="afii10193" unicode="&#x45f;" horiz-adv-x="558" 
d="M23 0l90 468h106l-71 -370h200l71 370h106l-90 -468h-153l-21 -106h-106l21 106h-153z" />
    <glyph glyph-name="afii10050" unicode="&#x490;" horiz-adv-x="441" 
d="M528 836l-48 -246h-222l-114 -590h-116l136 700h227l26 136h111z" />
    <glyph glyph-name="afii10098" unicode="&#x491;" horiz-adv-x="397" 
d="M434 584l-42 -214h-192l-71 -370h-106l90 468h197l23 116h101z" />
    <glyph glyph-name="Wgrave" unicode="&#x1e80;" horiz-adv-x="998" 
d="M607 712h-40l-278 -499l-76 499l-114 -25l127 -699h42l274 494l82 -494h42l399 699l-104 25l-270 -499zM461 892l66 59l121 -138l-67 -58z" />
    <glyph glyph-name="wgrave" unicode="&#x1e81;" horiz-adv-x="774" 
d="M449 480h-38l-191 -313l-67 313l-104 -26l117 -466h39l191 317l67 -317h39l299 466l-94 26l-189 -313zM306 668l67 59l120 -138l-66 -58z" />
    <glyph glyph-name="Wacute" unicode="&#x1e82;" horiz-adv-x="998" 
d="M567 712h40l84 -499l270 499l104 -25l-399 -699h-42l-82 494l-274 -494h-42l-127 699l114 25l76 -499zM739 951l44 -59l-174 -137l-43 58z" />
    <glyph glyph-name="wacute" unicode="&#x1e83;" horiz-adv-x="774" 
d="M411 480h38l69 -313l189 313l94 -26l-299 -466h-39l-67 317l-191 -317h-39l-117 466l104 26l67 -313zM583 727l43 -59l-173 -137l-44 58z" />
    <glyph glyph-name="Wdieresis" unicode="&#x1e84;" horiz-adv-x="998" 
d="M567 712h40l84 -499l270 499l104 -25l-399 -699h-42l-82 494l-274 -494h-42l-127 699l114 25l76 -499zM459 853q5 25 26 42t46 17t39 -17t9 -42q-4 -25 -25 -42t-46 -17t-39 17t-10 42zM651 853q5 25 26 42t46 17t39 -17t9 -42q-4 -25 -25 -42t-46 -17t-39 17t-10 42z
" />
    <glyph glyph-name="wdieresis" unicode="&#x1e85;" horiz-adv-x="774" 
d="M411 480h38l69 -313l189 313l94 -26l-299 -466h-39l-67 317l-191 -317h-39l-117 466l104 26l67 -313zM304 629q4 25 25 42t46 17t39 -17t10 -42q-5 -25 -26 -42t-46 -17t-39 17t-9 42zM496 629q4 25 25 42t46 17t39 -17t10 -42q-5 -25 -26 -42t-46 -17t-39 17t-9 42z" />
    <glyph glyph-name="uni1E9E" unicode="&#x1e9e;" horiz-adv-x="594" 
d="M18 0l95 491q19 96 91.5 158.5t168.5 62.5q89 0 138 -51.5t34 -126.5q-20 -104 -142 -147q80 -10 119.5 -62.5t25.5 -122.5q-18 -94 -89 -154t-183 -60q-69 0 -103 32l56 92q29 -24 67 -24q60 0 94 32.5t44 82.5q12 58 -26.5 94t-129.5 42l24 86q119 19 135 98
q8 40 -14 64.5t-68 24.5q-52 0 -83.5 -32t-41.5 -83l-96 -497h-116z" />
    <glyph glyph-name="Ygrave" unicode="&#x1ef2;" horiz-adv-x="620" 
d="M202 0h116l54 281l314 381l-99 50l-252 -322l-126 322l-119 -50l166 -381zM307 892l66 59l121 -138l-67 -58z" />
    <glyph glyph-name="ygrave" unicode="&#x1ef3;" horiz-adv-x="509" 
d="M151 15l-165 -278l96 -31l441 747l-96 27l-199 -341l-59 341l-107 -27zM218 668l67 59l120 -138l-66 -58z" />
    <glyph glyph-name="thinspace" unicode="&#x2009;" horiz-adv-x="200" 
 />
    <glyph glyph-name="figuredash" unicode="&#x2012;" horiz-adv-x="621" 
d="M558 286h-485l18 92h485z" />
    <glyph glyph-name="endash" unicode="&#x2013;" horiz-adv-x="500" 
d="M505 286h-500l18 92h500z" />
    <glyph glyph-name="emdash" unicode="&#x2014;" horiz-adv-x="1000" 
d="M1005 286h-1000l18 92h1000z" />
    <glyph glyph-name="uni2015" unicode="&#x2015;" horiz-adv-x="1000" 
d="M123 378h800l-18 -92h-800z" />
    <glyph glyph-name="quoteleft" unicode="&#x2018;" horiz-adv-x="304" 
d="M360 770l-126 -279l-110 31l161 268z" />
    <glyph glyph-name="quoteright" unicode="&#x2019;" horiz-adv-x="304" 
d="M96 514l127 279l110 -31l-161 -268z" />
    <glyph glyph-name="quotesinglbase" unicode="&#x201a;" horiz-adv-x="304" 
d="M-30 -138l126 279l110 -31l-161 -268z" />
    <glyph glyph-name="quotedblleft" unicode="&#x201c;" horiz-adv-x="505" 
d="M561 770l-126 -279l-110 31l161 268zM360 770l-126 -279l-110 31l161 268z" />
    <glyph glyph-name="quotedblright" unicode="&#x201d;" horiz-adv-x="505" 
d="M298 515l126 279l110 -31l-161 -268zM97 515l126 279l110 -31l-161 -268z" />
    <glyph glyph-name="quotedblbase" unicode="&#x201e;" horiz-adv-x="505" 
d="M-30 -138l126 279l110 -31l-161 -268zM171 -138l126 279l110 -31l-161 -268z" />
    <glyph glyph-name="dagger" unicode="&#x2020;" horiz-adv-x="587" 
d="M166 -131l122 627h-164l16 84h164l33 168h102l-33 -168h164l-16 -84h-164l-122 -627h-102z" />
    <glyph glyph-name="daggerdbl" unicode="&#x2021;" horiz-adv-x="587" 
d="M35 37l16 84h164l73 375h-164l16 84h164l33 168h102l-33 -168h164l-16 -84h-164l-73 -375h164l-16 -84h-164l-33 -168h-102l33 168h-164z" />
    <glyph glyph-name="bullet" unicode="&#x2022;" horiz-adv-x="460" 
d="M333 239q-39 -38 -93 -38t-93 38.5t-39 92.5t39 92.5t93 38.5t93 -38.5t39 -92.5t-39 -93z" />
    <glyph glyph-name="onedotenleader" unicode="&#x2024;" horiz-adv-x="304" 
d="M59 9q-17 21 -11 50t31 50t54 21t46 -21t11 -50t-31 -50t-54 -21t-46 21z" />
    <glyph glyph-name="twodotenleader" unicode="&#x2025;" horiz-adv-x="608" 
d="M53 9q-17 21 -11 50t31 50t54 21t46 -21t11 -50t-31 -50t-54 -21t-46 21zM357 9q-17 21 -11 50t31 50t54 21t46 -21t11 -50t-31 -50t-54 -21t-46 21z" />
    <glyph glyph-name="ellipsis" unicode="&#x2026;" horiz-adv-x="912" 
d="M59 9q-17 21 -11 50t31 50t54 21t46 -21t11 -50t-31 -50t-54 -21t-46 21zM363 9q-17 21 -11 50t31 50t54 21t46 -21t11 -50t-31 -50t-54 -21t-46 21zM667 9q-17 21 -11 50t31 50t54 21t46 -21t11 -50t-31 -50t-54 -21t-46 21z" />
    <glyph glyph-name="perthousand" unicode="&#x2030;" horiz-adv-x="1301" 
d="M153 37l611 675l62 -49l-611 -675zM444 664q40 -47 27 -116t-72 -116.5t-127 -47.5t-108 47.5t-27 116.5t72 116.5t127 47.5t108 -48zM290 475q30 0 55 21.5t31 51.5t-10.5 51.5t-47.5 21.5q-30 0 -55 -21.5t-31 -51.5t10.5 -51.5t47.5 -21.5zM815 268q40 -47 27 -116
t-72 -116.5t-127 -47.5t-108 47.5t-27 116.5t72 116.5t127 47.5t108 -48zM661 79q30 0 55 21.5t31 51.5t-10.5 51.5t-47.5 21.5q-30 0 -55 -21.5t-31 -51.5t10.5 -51.5t47.5 -21.5zM1198 268q40 -47 27 -116t-72 -116.5t-127 -47.5t-108 47.5t-27 116.5t72 116.5t127 47.5
t108 -48zM1044 79q30 0 55 21.5t31 51.5t-10.5 51.5t-47.5 21.5q-30 0 -55 -21.5t-31 -51.5t10.5 -51.5t47.5 -21.5z" />
    <glyph glyph-name="uni2031" unicode="&#x2031;" horiz-adv-x="1684" 
d="M153 37l611 675l62 -49l-611 -675zM444 664q40 -47 27 -116t-72 -116.5t-127 -47.5t-108 47.5t-27 116.5t72 116.5t127 47.5t108 -48zM290 475q30 0 55 21.5t31 51.5t-10.5 51.5t-47.5 21.5q-30 0 -55 -21.5t-31 -51.5t10.5 -51.5t47.5 -21.5zM815 268q40 -47 27 -116
t-72 -116.5t-127 -47.5t-108 47.5t-27 116.5t72 116.5t127 47.5t108 -48zM661 79q30 0 55 21.5t31 51.5t-10.5 51.5t-47.5 21.5q-30 0 -55 -21.5t-31 -51.5t10.5 -51.5t47.5 -21.5zM1198 268q40 -47 27 -116t-72 -116.5t-127 -47.5t-108 47.5t-27 116.5t72 116.5t127 47.5
t108 -48zM1044 79q30 0 55 21.5t31 51.5t-10.5 51.5t-47.5 21.5q-30 0 -55 -21.5t-31 -51.5t10.5 -51.5t47.5 -21.5zM1581 268q40 -47 27 -116t-72 -116.5t-127 -47.5t-108 47.5t-27 116.5t72 116.5t127 47.5t108 -48zM1427 79q30 0 55 21.5t31 51.5t-10.5 51.5t-47.5 21.5
q-30 0 -55 -21.5t-31 -51.5t10.5 -51.5t47.5 -21.5z" />
    <glyph glyph-name="guilsinglleft" unicode="&#x2039;" horiz-adv-x="365" 
d="M56 300l4 24l265 172l24 -70l-180 -114l136 -114l-52 -70z" />
    <glyph glyph-name="guilsinglright" unicode="&#x203a;" horiz-adv-x="365" 
d="M329 324l-4 -24l-264 -172l-25 70l180 114l-136 114l53 70z" />
    <glyph glyph-name="uni203E" unicode="&#x203e;" horiz-adv-x="500" 
d="M68 609l15 78h500l-15 -78h-500z" />
    <glyph glyph-name="fraction" unicode="&#x2044;" horiz-adv-x="415" 
d="M450 715l58 -35l-508 -695l-57 35z" />
    <glyph glyph-name="zerosuperior" unicode="&#x2070;" 
d="M187 471q-15 -69 -5.5 -115.5t46.5 -46.5q36 0 62.5 44.5t40.5 117.5q15 69 5.5 115.5t-45.5 46.5q-37 0 -63.5 -44.5t-40.5 -117.5zM101 471q21 105 74.5 173t130.5 68t104 -68.5t6 -172.5q-20 -104 -73.5 -172.5t-130.5 -68.5t-104 68t-7 173z" />
    <glyph glyph-name="uni2071" unicode="&#x2071;" 
d="M299 558l-61 -316h-88l61 316h88zM221 658q5 23 23.5 38.5t40.5 15.5t35 -15.5t8 -38.5q-4 -22 -22.5 -37.5t-41.5 -15.5q-22 0 -34.5 15t-8.5 38z" />
    <glyph glyph-name="foursuperior" unicode="&#x2074;" 
d="M45 325l-9 27l328 359l37 -6l-60 -305h49l-14 -75h-49l-16 -83h-84l16 83h-198zM164 400h93l26 135z" />
    <glyph glyph-name="fivesuperior" unicode="&#x2075;" 
d="M284 387q7 36 -13.5 59.5t-59.5 23.5t-70 -17l-24 16l80 231h219l-15 -76h-146l-29 -83q14 3 30 1q60 -7 94 -47t21 -107q-13 -66 -64.5 -112t-126.5 -46q-43 0 -79.5 22t-52.5 63l70 50q21 -57 67 -57q37 0 64.5 23t34.5 56z" />
    <glyph glyph-name="sixsuperior" unicode="&#x2076;" 
d="M396 385q-13 -67 -68.5 -111t-120.5 -44q-66 0 -105 44t-26 111q9 45 53 100l182 227l68 -33l-112 -143q18 0 32 -3q51 -12 80.5 -49t16.5 -99zM160 385q-6 -32 11 -54.5t49 -22.5q33 0 59 22.5t32 54.5q7 32 -10.5 55t-50.5 23q-32 0 -57.5 -23t-32.5 -55z" />
    <glyph glyph-name="sevensuperior" unicode="&#x2077;" 
d="M141 700h288l10 -27l-271 -443l-76 26l225 365h-192z" />
    <glyph glyph-name="eightsuperior" unicode="&#x2078;" 
d="M219 307q32 0 59 24t33 55q6 32 -12 54.5t-50 22.5t-58 -22.5t-32 -54.5q-6 -31 11.5 -55t48.5 -24zM323 586q5 21 -6 37t-33 16t-39 -16t-22 -37q-4 -21 7 -36.5t33 -15.5t39 15.5t21 36.5zM73 382q15 81 93 120q-34 34 -24 85q10 53 54 89t102 36t88 -36t20 -89
q-11 -51 -58 -85q62 -39 47 -120q-12 -63 -67.5 -107.5t-123.5 -44.5t-105.5 44.5t-25.5 107.5z" />
    <glyph glyph-name="ninesuperior" unicode="&#x2079;" 
d="M94 557q13 67 68.5 111t120.5 44q66 0 105 -44t26 -111q-9 -45 -53 -100l-182 -227l-68 33l112 143q-19 0 -32 3q-51 12 -80.5 49t-16.5 99zM270 634q-33 0 -59 -22.5t-32 -54.5t11.5 -55t49.5 -23t58 23t32 55t-11 54.5t-49 22.5z" />
    <glyph glyph-name="uni207A" unicode="&#x207a;" 
d="M165 308v125h-125v75h125v125h85v-125h125v-75h-125v-125h-85z" />
    <glyph glyph-name="uni207B" unicode="&#x207b;" 
d="M375 433h-335v75h335v-75z" />
    <glyph glyph-name="uni207C" unicode="&#x207c;" 
d="M375 369h-335v75h335v-75zM375 498h-335v75h335v-75z" />
    <glyph glyph-name="uni207D" unicode="&#x207d;" 
d="M194 469q28 152 143 288l62 -27q-95 -127 -120 -261q-27 -133 19 -261l-73 -27q-61 136 -31 288z" />
    <glyph glyph-name="uni207E" unicode="&#x207e;" 
d="M313 469q-30 -152 -143 -288l-63 27q94 126 121 261q25 134 -20 261l74 27q59 -136 31 -288z" />
    <glyph glyph-name="uni207F" unicode="&#x207f;" 
d="M257 238l37 192q6 29 -8.5 46t-40.5 17t-46.5 -17t-26.5 -46l-37 -192h-85l63 324h85l-5 -24q37 32 89 32t82 -32.5t19 -86.5l-41 -213h-85z" />
    <glyph glyph-name="zeroinferior" unicode="&#x2080;" 
d="M96 108q-30 -162 41 -162q36 0 63 44.5t40 117.5q15 69 5.5 115.5t-45.5 46.5q-37 0 -63.5 -44.5t-40.5 -117.5zM10 108q21 105 74.5 173t130.5 68t104 -68.5t6 -172.5q-20 -105 -73 -173t-130 -68t-104.5 68t-7.5 173z" />
    <glyph glyph-name="oneinferior" unicode="&#x2081;" 
d="M251 349l28 -9l-90 -461h-87l68 348l-77 -37l-25 66z" />
    <glyph glyph-name="twoinferior" unicode="&#x2082;" 
d="M240 75l-115 -119h156l-15 -77h-279l-9 26l199 211q52 56 61 95q5 27 -8 43.5t-41 16.5q-43 0 -82 -51l-57 38q68 91 154 91q66 0 98.5 -38.5t21.5 -98.5q-12 -64 -84 -137z" />
    <glyph glyph-name="threeinferior" unicode="&#x2083;" 
d="M115 103l-13 28l110 129h-150l15 77h255l12 -28l-128 -151q98 -38 78 -142q-12 -60 -64 -104.5t-126 -44.5q-45 0 -80 21.5t-52 62.5l72 51q21 -57 74 -57q33 0 58 20.5t31 52.5q8 39 -15.5 62t-76.5 23z" />
    <glyph glyph-name="fourinferior" unicode="&#x2084;" 
d="M-26 -38l-9 27l328 359l37 -6l-59 -305h49l-15 -75h-49l-16 -83h-84l16 83h-198zM94 37h93l26 135z" />
    <glyph glyph-name="fiveinferior" unicode="&#x2085;" 
d="M213 24q7 36 -13.5 59.5t-59.5 23.5t-70 -17l-24 16l80 231h219l-15 -76h-146l-29 -83q14 3 30 1q61 -7 95 -47t20 -107q-13 -66 -64 -112t-126 -46q-44 0 -80.5 22t-52.5 63l71 50q20 -57 67 -57q37 0 64.5 23t33.5 56z" />
    <glyph glyph-name="sixinferior" unicode="&#x2086;" 
d="M313 22q-13 -67 -68.5 -111t-120.5 -44q-66 0 -105 44t-26 111q9 47 52 100l182 227l69 -33l-113 -143q19 0 33 -3q51 -12 80 -49t17 -99zM137 -55q33 0 59 22.5t32 54.5t-11.5 55t-49.5 23t-58 -23t-32 -55t11 -54.5t49 -22.5z" />
    <glyph glyph-name="seveninferior" unicode="&#x2087;" 
d="M70 337h288l11 -27l-271 -443l-76 26l225 365h-192z" />
    <glyph glyph-name="eightinferior" unicode="&#x2088;" 
d="M149 -56q31 0 58 24t33 55q6 32 -11.5 54.5t-49.5 22.5t-58.5 -22.5t-32.5 -54.5q-6 -31 11.5 -55t49.5 -24zM160 186q11 -15 33 -15t39 15.5t21 36.5t-7 37t-33 16t-39 -16t-21 -37t7 -37zM2 19q15 81 94 120q-36 34 -25 85q11 53 54.5 89t101.5 36t88.5 -36t19.5 -89
q-10 -50 -57 -85q61 -39 46 -120q-12 -63 -67 -107.5t-123 -44.5t-106 44.5t-26 107.5z" />
    <glyph glyph-name="nineinferior" unicode="&#x2089;" 
d="M35 194q13 67 68.5 111t120.5 44q66 0 105 -44t26 -111q-9 -47 -52 -100l-182 -227l-69 33l113 143q-19 0 -33 3q-51 12 -80 49t-17 99zM211 271q-33 0 -59 -22.5t-32 -54.5t11.5 -55t49.5 -23t58 23t32 55t-11 54.5t-49 22.5z" />
    <glyph glyph-name="uni208A" unicode="&#x208a;" 
d="M165 -55v125h-125v75h125v125h85v-125h125v-75h-125v-125h-85z" />
    <glyph glyph-name="uni208B" unicode="&#x208b;" 
d="M375 70h-335v75h335v-75z" />
    <glyph glyph-name="uni208C" unicode="&#x208c;" 
d="M375 6h-335v75h335v-75zM375 135h-335v75h335v-75z" />
    <glyph glyph-name="uni208D" unicode="&#x208d;" 
d="M266 394l63 -27q-94 -126 -121 -261q-26 -136 19 -261l-73 -27q-61 136 -31 288t143 288z" />
    <glyph glyph-name="uni208E" unicode="&#x208e;" 
d="M99 -182l-63 27q96 129 121 261q27 133 -19 261l73 27q61 -136 31 -288t-143 -288z" />
    <glyph glyph-name="uni2090" unicode="&#x2090;" 
d="M362 189l-60 -308h-80l7 33q-52 -41 -112 -41q-66 0 -103 47t-24 115q14 68 69 115t121 47q60 0 96 -41l6 33h80zM248 35q7 36 -14 62t-57 26q-37 0 -68 -25.5t-38 -62.5t14 -62.5t58 -25.5q36 0 67 25.5t38 62.5z" />
    <glyph glyph-name="uni2091" unicode="&#x2091;" 
d="M182 127q-56 0 -85 -54h153q-8 54 -68 54zM138 -127q-71 0 -111.5 46t-27.5 116q13 68 71 115t126 47q67 0 106 -46t26 -116q-2 -12 -6 -24h-240q1 -31 19.5 -49.5t50.5 -18.5q53 0 89 45l55 -41q-71 -74 -158 -74z" />
    <glyph glyph-name="uni2092" unicode="&#x2092;" 
d="M255 35q8 37 -13 62.5t-58 25.5t-67 -25.5t-38 -62.5q-7 -37 13.5 -62.5t57.5 -25.5t67.5 25.5t37.5 62.5zM27 -79q-40 47 -27 114t72 114.5t127 47.5t108 -47.5t27 -114.5t-71.5 -114.5t-126.5 -47.5t-109 48z" />
    <glyph glyph-name="uni2093" unicode="&#x2093;" 
d="M143 -11l-104 -115l-65 36l129 137l-66 125l76 35l53 -104l93 104l62 -35l-114 -125l75 -137l-79 -36z" />
    <glyph glyph-name="uni2094" unicode="&#x2094;" 
d="M151 -57q26 0 49 14.5t37 39.5h-153q3 -26 21 -40t46 -14zM196 197q72 0 112 -46t26 -116q-13 -68 -70.5 -115t-125.5 -47q-67 0 -106.5 46t-26.5 116q2 13 7 24h240q-1 31 -20 49.5t-51 18.5q-53 0 -89 -45l-55 41q72 74 159 74z" />
    <glyph glyph-name="uni20A0" unicode="&#x20a0;" horiz-adv-x="777" 
d="M107 466q20 102 109 174t194 72q103 0 167 -75l-81 -63q-36 47 -101 47q-64 0 -116.5 -45t-65.5 -110q-13 -66 23 -111t100 -45q66 0 120 45l26 135h300l-17 -85h-196l-19 -101h172l-16 -82h-172l-27 -138h205l-16 -84h-309l48 248q-56 -28 -121 -28q-105 0 -166 71.5
t-41 174.5z" />
    <glyph glyph-name="colonmonetary" unicode="&#x20a1;" horiz-adv-x="719" 
d="M339 -9l-29 -60l-53 17l26 54q-33 10 -66 27l-47 -98l-53 17l55 113q-58 50 -82 125t-6 164q27 143 143 245t259 115l38 78l52 -17l-29 -60q35 -1 73 -13l44 90l52 -17l-45 -92q58 -29 95 -75l-95 -78q-23 28 -52 45l-228 -473h13q111 0 198 76l65 -78
q-129 -108 -285 -108q-24 0 -43 3zM502 602h-7l-224 -463q27 -21 63 -32l235 486q-31 9 -67 9zM200 350q-19 -99 29 -170l200 412q-85 -22 -148.5 -88t-80.5 -154z" />
    <glyph glyph-name="uni20A2" unicode="&#x20a2;" horiz-adv-x="719" 
d="M535 712q156 0 243 -108l-95 -78q-59 76 -169 76q-106 0 -193.5 -72t-108.5 -180q-15 -74 9.5 -132.5t79.5 -90.5l63 324h96l-9 -48q57 59 126 59q42 0 71 -14l-42 -86q-28 17 -62 17q-44 0 -77.5 -34.5t-44.5 -87.5l-30 -158q8 -1 24 -1q111 0 198 76l65 -78
q-129 -108 -285 -108q-152 0 -240 104.5t-58 257.5t158.5 257.5t280.5 104.5z" />
    <glyph glyph-name="franc" unicode="&#x20a3;" horiz-adv-x="461" 
d="M144 0h-116l33 174h-65l16 81h65l87 445h356l-22 -110h-240l-30 -157h210l-22 -110h-210l-13 -68h154l-16 -81h-154z" />
    <glyph glyph-name="lira" unicode="&#x20a4;" horiz-adv-x="594" 
d="M300 443h151l-12 -60h-151l-15 -77h151l-12 -60h-151q-16 -75 -61 -140h315l-20 -106h-466l-7 32q100 94 122 207l1 7h-81l12 60h81l15 77h-81l12 60h81l14 73q16 86 77.5 141t151.5 55q118 0 166 -103l-84 -59q-28 56 -92 56q-41 0 -68.5 -28t-36.5 -73z" />
    <glyph glyph-name="uni20A6" unicode="&#x20a6;" horiz-adv-x="741" 
d="M697 441h62l-11 -60h-62l-12 -62h62l-12 -60h-62l-51 -261l-44 -10l-181 271h-192l-50 -259h-116l50 259h-61l12 60h61l12 62h-61l11 60h61l51 261l44 10l181 -271h192l51 259h116zM430 381l41 -62h87l12 62h-140zM218 381l-12 -62h140l-42 62h-86zM263 441l-26 40
l-8 -40h34zM511 259l27 -40l8 40h-35z" />
    <glyph glyph-name="peseta" unicode="&#x20a7;" horiz-adv-x="1105" 
d="M861 82q30 0 50.5 15.5t25.5 40.5q6 27 -8.5 45t-55.5 36q-110 50 -93 134q2 10 4 17h-98l-71 -370h-106l71 370h-76l6 31q-36 -64 -103.5 -102.5t-153.5 -38.5h-59l-50 -260h-116l136 700h175q111 0 165 -63.5t36 -156.5l-3 -12h62l26 132h106l-26 -132h115l-9 -51
q51 63 135 63q37 0 68.5 -18.5t47.5 -49.5l-73 -58q-18 34 -51 34q-20 0 -34.5 -9t-17.5 -25q-4 -20 10.5 -34t52.5 -31q114 -53 95 -150q-13 -66 -64.5 -108.5t-130.5 -42.5q-49 0 -88 27t-56 74l79 63q24 -70 77 -70zM259 594l-44 -228h56q58 0 100.5 30.5t52.5 83.5
t-20.5 83.5t-88.5 30.5h-56z" />
    <glyph glyph-name="uni20A8" unicode="&#x20a8;" horiz-adv-x="925" 
d="M681 82q30 0 50.5 15.5t25.5 40.5q6 27 -8.5 45t-55.5 36q-110 50 -93 134q10 55 58 91t108 36q37 0 68.5 -18.5t47.5 -49.5l-73 -58q-18 34 -51 34q-20 0 -34.5 -9t-17.5 -25q-4 -20 10.5 -34t52.5 -31q114 -53 95 -150q-13 -66 -64.5 -108.5t-130.5 -42.5q-49 0 -88 27
t-56 74l79 63q24 -70 77 -70zM259 594l-115 -594h-116l136 700h174q106 0 160.5 -59t37.5 -150q-12 -60 -55 -111.5t-113 -74.5l144 -265l-103 -52l-175 361l17 38h9q66 0 108.5 28.5t51.5 76.5q10 49 -20.5 75.5t-89.5 26.5h-51z" />
    <glyph glyph-name="uni20A9" unicode="&#x20a9;" horiz-adv-x="998" 
d="M920 433h104l-12 -60h-127l-29 -51h146l-12 -60h-168l-156 -274h-42l-46 274h-159l-151 -274h-42l-51 274h-167l12 60h145l-9 51h-126l12 60h103l-46 254l114 25l42 -279h157l155 279h40l47 -279h156l151 279l104 -25zM481 373l-28 -51h115l-8 51h-79zM264 373l8 -51h77
l29 51h-114zM664 373l8 -51h78l27 51h-113zM542 482l-27 -49h35zM281 262l8 -49l27 49h-35zM682 262l9 -49l26 49h-35z" />
    <glyph glyph-name="afii57636" unicode="&#x20aa;" horiz-adv-x="895" 
d="M28 0l136 700h271q125 0 179 -73t26 -216l-29 -151h-108l26 135q22 113 -6 158t-104 45h-161l-116 -598h-114zM903 700l-136 -700h-271q-125 0 -179.5 73.5t-26.5 215.5l29 151h108l-26 -135q-22 -113 6 -158t104 -45h161l117 598h114z" />
    <glyph glyph-name="dong" unicode="&#x20ab;" horiz-adv-x="635" 
d="M500 -80l-15 -75h-416l15 75h416zM645 585l-113 -585h-106l12 66q-78 -78 -189 -78q-100 0 -156 71t-36 175t104 175t184 71q112 0 159 -78l35 183h-226l16 81h226l16 84h106l-16 -84h63l-16 -81h-63zM401 125q54 45 67 109t-23.5 108.5t-99.5 44.5t-116.5 -44.5
t-66.5 -108.5t23.5 -108.5t99.5 -44.5t116 44z" />
    <glyph glyph-name="Euro" unicode="&#x20ac;" horiz-adv-x="655" 
d="M83 350q5 26 7 35h-53l12 60h62q47 120 142.5 193.5t215.5 73.5q145 0 214 -109l-90 -69q-54 74 -143 74q-71 0 -128.5 -45t-92.5 -118h263l-12 -60h-274q-6 -24 -8 -35q-3 -11 -5 -35h274l-12 -60h-263q6 -73 46 -118t111 -45q91 0 173 74l62 -69q-111 -109 -256 -109
q-120 0 -186.5 73.5t-67.5 193.5h-62l12 60h53q2 19 6 35z" />
    <glyph glyph-name="uni2116" unicode="&#x2116;" horiz-adv-x="1038" 
d="M484 -11l-260 473l-89 -462h-107l136 701l41 10l260 -474l90 463h107l-137 -701zM1000 313l-14 -73h-318l14 73h318zM968 540q8 39 -10.5 63.5t-55.5 24.5t-65.5 -25t-36.5 -63q-7 -39 11.5 -63.5t55.5 -24.5t65.5 25t35.5 63zM715 540q14 71 72.5 119.5t129.5 48.5
t110.5 -48.5t25.5 -119.5q-13 -71 -71.5 -119.5t-129.5 -48.5t-110.5 48.5t-26.5 119.5z" />
    <glyph glyph-name="trademark" unicode="&#x2122;" horiz-adv-x="669" 
d="M43 634v62h225v-62h-78v-271h-69v271h-78zM466 363h-34l-65 186l-47 -193l-68 11l93 329h31l73 -207l73 207h31l93 -329l-68 -11l-47 193z" />
    <glyph glyph-name="onethird" unicode="&#x2153;" horiz-adv-x="964" 
d="M322 712l27 -9l-89 -461h-87l67 348l-76 -37l-25 66zM706 715l58 -35l-508 -695l-58 35zM697 230l-12 28l110 129h-150l15 77h255l11 -28l-127 -151q98 -38 77 -142q-11 -60 -63 -104.5t-127 -44.5q-44 0 -79 21.5t-52 62.5l72 51q19 -57 73 -57q32 0 57.5 20.5
t32.5 52.5q8 39 -16 62t-77 23z" />
    <glyph glyph-name="twothirds" unicode="&#x2154;" horiz-adv-x="964" 
d="M311 438l-115 -119h156l-15 -77h-279l-9 26l199 211q53 56 60 95q5 27 -7.5 43.5t-40.5 16.5q-44 0 -82 -51l-58 38q68 91 155 91q66 0 98.5 -38.5t20.5 -98.5q-12 -63 -83 -137zM706 715l58 -35l-508 -695l-58 35zM697 230l-12 28l110 129h-150l15 77h255l11 -28
l-127 -151q98 -38 77 -142q-11 -60 -63 -104.5t-127 -44.5q-44 0 -79 21.5t-52 62.5l72 51q19 -57 73 -57q32 0 57.5 20.5t32.5 52.5q8 39 -16 62t-77 23z" />
    <glyph glyph-name="onefifth" unicode="&#x2155;" horiz-adv-x="964" 
d="M322 712l27 -9l-89 -461h-87l67 348l-76 -37l-25 66zM706 715l58 -35l-508 -695l-58 35zM789 150q7 36 -13.5 59.5t-59.5 23.5q-38 0 -71 -17l-23 16l79 231h219l-14 -76h-146l-29 -83q14 3 30 1q60 -7 94 -47t21 -107q-13 -66 -64.5 -112t-126.5 -46q-43 0 -79.5 22
t-52.5 63l70 50q21 -57 67 -57q37 0 64.5 23t34.5 56z" />
    <glyph glyph-name="twofifths" unicode="&#x2156;" horiz-adv-x="964" 
d="M311 438l-115 -119h156l-15 -77h-279l-9 26l199 211q53 56 60 95q5 27 -7.5 43.5t-40.5 16.5q-44 0 -82 -51l-58 38q68 91 155 91q66 0 98.5 -38.5t20.5 -98.5q-12 -63 -83 -137zM706 715l58 -35l-508 -695l-58 35zM789 150q7 36 -13.5 59.5t-59.5 23.5q-38 0 -71 -17
l-23 16l79 231h219l-14 -76h-146l-29 -83q14 3 30 1q60 -7 94 -47t21 -107q-13 -66 -64.5 -112t-126.5 -46q-43 0 -79.5 22t-52.5 63l70 50q21 -57 67 -57q37 0 64.5 23t34.5 56z" />
    <glyph glyph-name="threefifths" unicode="&#x2157;" horiz-adv-x="964" 
d="M185 466l-12 28l110 129h-150l15 77h255l11 -28l-127 -151q97 -37 77 -142q-11 -60 -63 -104.5t-127 -44.5q-45 0 -80 21.5t-51 62.5l71 51q21 -57 74 -57q32 0 57.5 20.5t32.5 52.5q7 39 -16.5 62t-76.5 23zM706 715l58 -35l-508 -695l-58 35zM789 150q7 36 -13.5 59.5
t-59.5 23.5q-38 0 -71 -17l-23 16l79 231h219l-14 -76h-146l-29 -83q14 3 30 1q60 -7 94 -47t21 -107q-13 -66 -64.5 -112t-126.5 -46q-43 0 -79.5 22t-52.5 63l70 50q21 -57 67 -57q37 0 64.5 23t34.5 56z" />
    <glyph glyph-name="fourfifths" unicode="&#x2158;" horiz-adv-x="964" 
d="M45 325l-9 27l328 359l37 -6l-60 -305h49l-14 -75h-49l-16 -83h-84l16 83h-198zM164 400h93l26 135zM706 715l58 -35l-508 -695l-58 35zM789 150q7 36 -13.5 59.5t-59.5 23.5q-38 0 -71 -17l-23 16l79 231h219l-14 -76h-146l-29 -83q14 3 30 1q60 -7 94 -47t21 -107
q-13 -66 -64.5 -112t-126.5 -46q-43 0 -79.5 22t-52.5 63l70 50q21 -57 67 -57q37 0 64.5 23t34.5 56z" />
    <glyph glyph-name="onesixth" unicode="&#x2159;" horiz-adv-x="964" 
d="M322 712l27 -9l-89 -461h-87l67 348l-76 -37l-25 66zM706 715l58 -35l-508 -695l-58 35zM865 149q-12 -67 -68 -111t-121 -44t-104 44t-27 111q9 45 53 100l182 227l69 -33l-113 -143q20 0 32 -3q52 -12 81 -49t16 -99zM629 149q-6 -32 11 -54.5t49 -22.5q33 0 59 22.5
t32 54.5q7 32 -10 55t-50 23q-32 0 -58 -23t-33 -55z" />
    <glyph glyph-name="fivesixths" unicode="&#x215a;" horiz-adv-x="964" 
d="M284 387q7 36 -13.5 59.5t-59.5 23.5t-70 -17l-24 16l80 231h219l-15 -76h-146l-29 -83q14 3 30 1q60 -7 94 -47t21 -107q-13 -66 -64.5 -112t-126.5 -46q-43 0 -79.5 22t-52.5 63l70 50q21 -57 67 -57q37 0 64.5 23t34.5 56zM706 715l58 -35l-508 -695l-58 35zM865 149
q-12 -67 -68 -111t-121 -44t-104 44t-27 111q9 45 53 100l182 227l69 -33l-113 -143q20 0 32 -3q52 -12 81 -49t16 -99zM629 149q-6 -32 11 -54.5t49 -22.5q33 0 59 22.5t32 54.5q7 32 -10 55t-50 23q-32 0 -58 -23t-33 -55z" />
    <glyph glyph-name="oneeighth" unicode="&#x215b;" horiz-adv-x="964" 
d="M322 712l27 -9l-89 -461h-87l67 348l-76 -37l-25 66zM706 715l58 -35l-508 -695l-58 35zM704 71q32 0 59 24t33 55q6 32 -11.5 54.5t-49.5 22.5t-58.5 -22.5t-32.5 -54.5q-6 -31 11.5 -55t48.5 -24zM809 350q4 21 -7 37t-33 16t-39 -16t-21 -37q-5 -21 6 -36.5t33 -15.5
t39 15.5t22 36.5zM558 146q15 80 93 120q-34 34 -24 85q10 53 54 89t102 36t88 -36t20 -89q-11 -51 -58 -85q62 -38 47 -120q-12 -63 -67.5 -107.5t-123.5 -44.5t-105.5 44.5t-25.5 107.5z" />
    <glyph glyph-name="threeeighths" unicode="&#x215c;" horiz-adv-x="964" 
d="M185 466l-12 28l110 129h-150l15 77h255l11 -28l-127 -151q97 -37 77 -142q-11 -60 -63 -104.5t-127 -44.5q-45 0 -80 21.5t-51 62.5l71 51q21 -57 74 -57q32 0 57.5 20.5t32.5 52.5q7 39 -16.5 62t-76.5 23zM706 715l58 -35l-508 -695l-58 35zM704 71q32 0 59 24t33 55
q6 32 -11.5 54.5t-49.5 22.5t-58.5 -22.5t-32.5 -54.5q-6 -31 11.5 -55t48.5 -24zM809 350q4 21 -7 37t-33 16t-39 -16t-21 -37q-5 -21 6 -36.5t33 -15.5t39 15.5t22 36.5zM558 146q15 80 93 120q-34 34 -24 85q10 53 54 89t102 36t88 -36t20 -89q-11 -51 -58 -85
q62 -38 47 -120q-12 -63 -67.5 -107.5t-123.5 -44.5t-105.5 44.5t-25.5 107.5z" />
    <glyph glyph-name="fiveeighths" unicode="&#x215d;" horiz-adv-x="964" 
d="M284 387q7 36 -13.5 59.5t-59.5 23.5t-70 -17l-24 16l80 231h219l-15 -76h-146l-29 -83q14 3 30 1q60 -7 94 -47t21 -107q-13 -66 -64.5 -112t-126.5 -46q-43 0 -79.5 22t-52.5 63l70 50q21 -57 67 -57q37 0 64.5 23t34.5 56zM706 715l58 -35l-508 -695l-58 35zM704 71
q32 0 59 24t33 55q6 32 -11.5 54.5t-49.5 22.5t-58.5 -22.5t-32.5 -54.5q-6 -31 11.5 -55t48.5 -24zM809 350q4 21 -7 37t-33 16t-39 -16t-21 -37q-5 -21 6 -36.5t33 -15.5t39 15.5t22 36.5zM558 146q15 80 93 120q-34 34 -24 85q10 53 54 89t102 36t88 -36t20 -89
q-11 -51 -58 -85q62 -38 47 -120q-12 -63 -67.5 -107.5t-123.5 -44.5t-105.5 44.5t-25.5 107.5z" />
    <glyph glyph-name="seveneighths" unicode="&#x215e;" horiz-adv-x="964" 
d="M141 700h288l10 -27l-271 -443l-76 26l225 365h-192zM706 715l58 -35l-508 -695l-58 35zM704 71q32 0 59 24t33 55q6 32 -11.5 54.5t-49.5 22.5t-58.5 -22.5t-32.5 -54.5q-6 -31 11.5 -55t48.5 -24zM809 350q4 21 -7 37t-33 16t-39 -16t-21 -37q-5 -21 6 -36.5t33 -15.5
t39 15.5t22 36.5zM558 146q15 80 93 120q-34 34 -24 85q10 53 54 89t102 36t88 -36t20 -89q-11 -51 -58 -85q62 -38 47 -120q-12 -63 -67.5 -107.5t-123.5 -44.5t-105.5 44.5t-25.5 107.5z" />
    <glyph glyph-name="uni215F" unicode="&#x215f;" horiz-adv-x="964" 
d="M322 712l27 -9l-89 -461h-87l67 348l-76 -37l-25 66zM706 715l58 -35l-508 -695l-58 35z" />
    <glyph glyph-name="partialdiff" unicode="&#x2202;" horiz-adv-x="596" 
d="M55 234q0 102 73 171.5t173 69.5q56 0 92 -27q-82 118 -273 208l71 74q180 -88 275 -216.5t95 -274.5q0 -107 -75 -179t-178 -72q-102 0 -177.5 71.5t-75.5 174.5zM411 127q41 42 41 107t-40.5 106.5t-103.5 41.5t-103.5 -41.5t-40.5 -106.5t40.5 -106.5t103.5 -41.5
t103 41z" />
    <glyph glyph-name="Delta" unicode="&#x2206;" horiz-adv-x="678" 
d="M649 0h-600l-16 31l297 679h38l297 -679zM182 100h334l-167 404z" />
    <glyph glyph-name="product" unicode="&#x220f;" horiz-adv-x="701" 
d="M632 740v-851h-116v748h-312v-748h-116v851h544z" />
    <glyph glyph-name="summation" unicode="&#x2211;" horiz-adv-x="617" 
d="M220 -9h379v-102h-538l-16 38l278 403l-278 372l16 38h538v-102h-376l215 -286v-44z" />
    <glyph glyph-name="minus" unicode="&#x2212;" horiz-adv-x="621" 
d="M563 286h-485v92h485v-92z" />
    <glyph glyph-name="uni2215" unicode="&#x2215;" horiz-adv-x="445" 
d="M387 715l64 -35l-373 -695l-64 35z" />
    <glyph glyph-name="uni2219" unicode="&#x2219;" horiz-adv-x="304" 
d="M112 283q-21 21 -21 50t21 50t50 21t50 -21t21 -50t-21 -50t-50 -21t-50 21z" />
    <glyph glyph-name="radical" unicode="&#x221a;" horiz-adv-x="724" 
d="M394 0h-40l-173 304h-73v79h124l122 -217l147 604h95z" />
    <glyph glyph-name="infinity" unicode="&#x221e;" horiz-adv-x="789" 
d="M230 400q-31 0 -51.5 -19.5t-20.5 -48.5t20.5 -48.5t51.5 -19.5q30 0 57 14.5t62 53.5q-35 39 -62 53.5t-57 14.5zM405 273q-83 -87 -180 -87q-67 0 -113 40.5t-46 105.5t46 105.5t113 40.5q96 0 180 -88q84 88 180 88q67 0 113 -40.5t46 -105.5t-46 -105.5t-113 -40.5
q-97 0 -180 87zM580 400q-30 0 -57 -14.5t-62 -53.5q35 -39 62 -53.5t57 -14.5q31 0 51.5 19.5t20.5 48.5t-20.5 48.5t-51.5 19.5z" />
    <glyph glyph-name="orthogonal" unicode="&#x221f;" horiz-adv-x="642" 
d="M633 93v-93h-525v575h109v-482h416z" />
    <glyph glyph-name="integral" unicode="&#x222b;" horiz-adv-x="582" 
d="M354 552v-578q0 -92 -43 -143t-124 -51q-87 0 -138 69l70 59q21 -35 61 -35q68 0 68 105v578q0 92 43 143t124 51q87 0 138 -69l-70 -59q-21 35 -61 35q-68 0 -68 -105z" />
    <glyph glyph-name="approxequal" unicode="&#x2248;" horiz-adv-x="621" 
d="M319 166q-9 6 -23.5 17t-20.5 15.5t-16 10.5t-18.5 8t-18.5 2q-54 0 -62 -86l-96 23q11 75 50.5 118t99.5 43q61 0 108 -33q9 -6 23.5 -17t20.5 -15.5t16 -10.5t18.5 -8t18.5 -2q54 0 62 86l96 -23q-11 -75 -50.5 -118t-99.5 -43q-61 0 -108 33zM319 372q-9 6 -23.5 17
t-20.5 15.5t-16 10.5t-18.5 8t-18.5 2q-54 0 -62 -86l-96 23q11 75 50.5 118t99.5 43q61 0 108 -33q9 -6 23.5 -17t20.5 -15.5t16 -10.5t18.5 -8t18.5 -2q54 0 62 86l96 -23q-11 -75 -50.5 -118t-99.5 -43q-61 0 -108 33z" />
    <glyph glyph-name="notequal" unicode="&#x2260;" horiz-adv-x="621" 
d="M382 497l88 145l61 -38l-65 -107h97v-93h-154l-87 -144h241v-93h-297l-96 -158l-61 38l73 120h-104v93h160l88 144h-248v93h304z" />
    <glyph glyph-name="lessequal" unicode="&#x2264;" horiz-adv-x="621" 
d="M78 29h485v93h-485v-93zM78 386v32l448 234l37 -94l-310 -156l310 -156l-37 -94z" />
    <glyph glyph-name="greaterequal" unicode="&#x2265;" horiz-adv-x="621" 
d="M563 29h-485v93h485v-93zM563 418v-32l-448 -234l-37 94l310 156l-310 156l37 94z" />
    <glyph glyph-name="lozenge" unicode="&#x25ca;" horiz-adv-x="568" 
d="M162 302l132 -252l132 252l-132 252zM50 302l244 459l244 -459l-244 -459z" />
    <glyph glyph-name="H18533" unicode="&#x25cf;" horiz-adv-x="1000" 
d="M271 87q-99 99 -99 239t99 239t239 99t239 -99t99 -239t-99 -239t-239 -99t-239 99z" />
    <glyph glyph-name="s_t" unicode="&#xfb06;" horiz-adv-x="707" 
d="M156 82q30 0 50.5 15.5t25.5 40.5q6 27 -8.5 45t-55.5 36q-110 50 -93 134q10 52 54.5 88t102.5 39q-26 46 -15 103q14 72 80.5 125t152.5 53q96 0 145 -62t31 -158l-15 -73h115l-19 -98h-115l-71 -370h-106l105 544q12 61 -13.5 97.5t-76.5 36.5t-88 -32.5t-46 -79.5
q-12 -55 13 -105q28 -16 48 -49l-73 -58q-18 34 -51 34q-20 0 -34.5 -9t-17.5 -25q-4 -20 10.5 -34t52.5 -31q114 -53 95 -150q-13 -66 -64.5 -108.5t-130.5 -42.5q-49 0 -88 27t-56 74l79 63q24 -70 77 -70z" />
    <glyph glyph-name="f_j" horiz-adv-x="588" 
d="M559 468l-100 -519q-23 -116 -72 -173.5t-131 -57.5q-77 0 -114 67l87 63q8 -36 41 -36q56 0 77 106l87 452h-205l-126 -652h-106l126 652h-76l19 98h76l17 85q19 95 85.5 151.5t155.5 56.5q116 0 160 -92l-83 -60q-25 62 -90 62q-47 0 -79 -32t-43 -87l-17 -84h311z" />
    <glyph glyph-name="zero.tnum" horiz-adv-x="612" 
d="M117 350q31 160 112 261t198 101q78 0 124.5 -48.5t54.5 -129t-9 -184.5q-32 -160 -113 -261t-198 -101t-159 101t-10 261zM233 350q-50 -256 74 -256t174 256q49 256 -75 256t-173 -256z" />
    <glyph glyph-name="one.tnum" horiz-adv-x="450" 
d="M367 711l33 -10l-136 -701h-116l106 548l-129 -62l-33 85z" />
    <glyph glyph-name="two.tnum" horiz-adv-x="541" 
d="M391 304l-195 -198h253l-20 -106h-423l-9 33l306 323q88 94 99 153q9 46 -16 71.5t-73 25.5q-72 0 -126 -73l-81 51q45 60 107.5 94t122.5 34q100 0 150 -56t33 -146q-19 -94 -128 -206z" />
    <glyph glyph-name="three.tnum" horiz-adv-x="560" 
d="M233 356l-12 37l166 201h-238l21 106h389l14 -34l-208 -241q74 -22 109 -77.5t20 -136.5q-18 -89 -95 -156t-191 -67q-65 0 -118 33t-81 91l94 68q38 -86 115 -86q60 0 104.5 31.5t55.5 88.5q12 65 -24 103.5t-121 38.5z" />
    <glyph glyph-name="four.tnum" horiz-adv-x="589" 
d="M11 132l-9 32l509 548l45 -7l-91 -467h75l-21 -106h-75l-25 -132h-116l25 132h-317zM168 237h181l47 243z" />
    <glyph glyph-name="five.tnum" horiz-adv-x="578" 
d="M393 221q13 62 -22 99t-104 37q-49 0 -110 -28l-28 18l121 353h327l-21 -106h-230l-52 -150q19 4 43 4q96 0 154.5 -62.5t38.5 -162.5q-20 -103 -97 -169t-192 -66q-68 0 -120.5 31.5t-77.5 91.5l94 68q33 -85 118 -85q66 0 107 36t51 91z" />
    <glyph glyph-name="six.tnum" horiz-adv-x="618" 
d="M556 222q-20 -101 -106 -167.5t-184 -66.5q-100 0 -160.5 66.5t-40.5 167.5q13 64 85 152l279 338l89 -42l-185 -225q14 2 23 2q43 0 82.5 -15t70 -42t44 -71t3.5 -97zM181 222q-11 -56 19 -92t85 -36t99 36t55 92q10 57 -19.5 92.5t-84.5 35.5q-56 0 -100 -36t-54 -92z
" />
    <glyph glyph-name="seven.tnum" horiz-adv-x="510" 
d="M121 700h436l13 -34l-417 -678l-102 33l354 573h-305z" />
    <glyph glyph-name="eight.tnum" horiz-adv-x="602" 
d="M69 213q12 61 54.5 109t102.5 75q-66 53 -51 132q15 78 81.5 130.5t152.5 52.5t131.5 -52.5t30.5 -130.5t-101 -132q49 -27 73 -75t12 -109q-19 -95 -101.5 -160t-185.5 -65t-160.5 65t-38.5 160zM186 218q-10 -52 19 -88t84 -36t98 36t53 88q10 55 -18.5 89.5
t-84.5 34.5t-98.5 -34.5t-52.5 -89.5zM459 526q7 37 -12.5 61t-57.5 24t-66.5 -24t-35.5 -61q-7 -36 12 -61.5t57 -25.5t67 25.5t36 61.5z" />
    <glyph glyph-name="nine.tnum" horiz-adv-x="618" 
d="M99 478q20 101 106 167.5t184 66.5q100 0 160.5 -66.5t40.5 -167.5q-13 -64 -85 -152l-279 -338l-89 42l185 225q-14 -2 -23 -2q-43 0 -82.5 15t-70 42t-44 71t-3.5 97zM474 478q11 56 -19 92t-85 36t-99 -36t-55 -92q-10 -56 20 -92t85 -36t99 36t54 92z" />
    <glyph glyph-name="hyphen.case" horiz-adv-x="406" 
d="M356 300h-290l19 100h290z" />
    <glyph glyph-name="parenleft.case" horiz-adv-x="375" 
d="M163 350q45 235 215 440l80 -36q-143 -188 -184 -404q-43 -218 27 -404l-94 -36q-91 203 -44 440z" />
    <glyph glyph-name="parenright.case" horiz-adv-x="375" 
d="M295 350q-46 -236 -216 -440l-80 36q142 187 185 404q42 219 -28 404l94 36q90 -202 45 -440z" />
    <glyph glyph-name="bracketleft.case" horiz-adv-x="364" 
d="M50 -90l171 880h216l-17 -86h-110l-137 -708h110l-17 -86h-216z" />
    <glyph glyph-name="bracketright.case" horiz-adv-x="364" 
d="M349 790l-171 -880h-216l17 86h110l137 708h-110l17 86h216z" />
    <glyph glyph-name="braceleft.case" horiz-adv-x="402" 
d="M93 335l5 30q51 18 77 50t35 81l26 135q13 70 65 114.5t118 44.5h54l-17 -88h-25q-74 0 -94 -96l-19 -99q-20 -106 -120 -157q79 -50 59 -157l-19 -99q-20 -96 56 -96h25l-17 -88h-54q-66 0 -100 44.5t-21 114.5l26 135q9 50 -4 81.5t-56 49.5z" />
    <glyph glyph-name="braceright.case" horiz-adv-x="402" 
d="M344 365l-5 -30q-51 -18 -77 -50t-35 -81l-26 -135q-13 -70 -65 -114.5t-118 -44.5h-54l17 88h25q74 0 94 96l19 99q20 106 121 157q-80 51 -60 157l19 99q20 96 -56 96h-25l17 88h54q66 0 100 -44.5t21 -114.5l-26 -135q-9 -50 4 -81.5t56 -49.5z" />
    <glyph glyph-name="at.case" horiz-adv-x="960" 
d="M608 213q-31 -33 -73.5 -51.5t-84.5 -18.5q-82 0 -128.5 60t-30.5 145q16 84 85 142.5t151 58.5q85 0 130 -59l10 51h93l-52 -266q-13 -65 40 -65q49 0 85.5 42t51.5 119q28 148 -56 252t-241 104q-148 0 -274.5 -111t-157.5 -267q-30 -154 56 -265t242 -111
q133 0 253 69l15 -54q-137 -75 -279 -75q-121 0 -211 61.5t-128 161.5t-16 213q22 114 98 214.5t186.5 162t226.5 61.5q121 0 210.5 -58.5t127 -153.5t16.5 -204q-20 -100 -85 -164.5t-155 -64.5q-88 0 -105 71zM481 227q49 0 91.5 35.5t52.5 85.5t-19 85.5t-78 35.5
q-50 0 -92.5 -36t-52.5 -85t19 -85t79 -36z" />
    <glyph glyph-name="guillemotleft.case" horiz-adv-x="585" 
d="M63 338l5 24l264 172l25 -70l-180 -114l135 -114l-51 -70zM283 338l5 24l264 172l25 -70l-180 -114l135 -114l-51 -70z" />
    <glyph glyph-name="guillemotright.case" horiz-adv-x="585" 
d="M557 362l-5 -24l-264 -172l-25 70l181 114l-136 114l51 70zM337 362l-5 -24l-264 -172l-25 70l181 114l-136 114l51 70z" />
    <glyph glyph-name="guilsinglleft.case" horiz-adv-x="365" 
d="M63 338l5 24l264 172l25 -70l-180 -114l135 -114l-51 -70z" />
    <glyph glyph-name="guilsinglright.case" horiz-adv-x="365" 
d="M337 362l-5 -24l-263 -172l-26 70l181 114l-136 114l52 70z" />
    <glyph glyph-name="endash.case" horiz-adv-x="500" 
d="M509 304h-500l17 92h500z" />
    <glyph glyph-name="emdash.case" horiz-adv-x="1000" 
d="M1009 304h-1000l17 92h1000z" />
    <glyph glyph-name="periodcentered.case" horiz-adv-x="304" 
d="M104 353q6 29 31 50t54 21t46 -21t11 -50q-5 -29 -30.5 -50t-54.5 -21t-45.5 21t-11.5 50z" />
    <glyph glyph-name="questiondown.case" horiz-adv-x="495" 
d="M226 421l-27 72q50 42 112 42q60 0 92.5 -33t22.5 -81q-8 -43 -44.5 -82t-94.5 -64q-129 -56 -143 -121q-7 -35 18.5 -52.5t73.5 -17.5q77 0 140 68l73 -51q-113 -113 -233 -113q-94 0 -145.5 46.5t-37.5 118.5q22 114 197 190q76 33 83 66q6 35 -31 35q-26 0 -56 -23z
M416 641q-5 -29 -30.5 -50t-54.5 -21t-45.5 21t-11.5 50q6 29 31 50t54 21t46 -21t11 -50z" />
    <glyph glyph-name="exclamdown.case" horiz-adv-x="314" 
d="M165 0h-116l100 519h116zM302 643q-5 -29 -29.5 -49t-54.5 -20t-46.5 20t-11.5 49q6 29 30.5 49t54.5 20t46.5 -20t10.5 -49z" />
    <glyph glyph-name="bullet.case" horiz-adv-x="460" 
d="M333 257q-39 -38 -93 -38t-93 38.5t-39 92.5t39 92.5t93 38.5t93 -38.5t39 -92.5t-39 -93z" />
    <glyph glyph-name="zero.p_osf" horiz-adv-x="503" 
d="M218 86q47 0 81 51t51 136q17 80 2.5 133.5t-61.5 53.5q-48 0 -82 -51.5t-50 -135.5q-18 -80 -3.5 -133.5t62.5 -53.5zM199 -12q-98 0 -135.5 80t-12.5 205q24 125 92.5 205t166.5 80t135 -80t13 -205q-25 -126 -93.5 -205.5t-165.5 -79.5z" />
    <glyph glyph-name="one.p_osf" horiz-adv-x="390" 
d="M293 558l38 -12l-106 -546h-110l79 407l-101 -50l-35 85z" />
    <glyph glyph-name="two.p_osf" horiz-adv-x="467" 
d="M324 233l-147 -138h204l-18 -95h-369l-10 34l260 251q66 65 75 107q6 31 -10.5 48.5t-50.5 17.5q-28 0 -60.5 -15t-56.5 -44l-71 47q41 52 97 82t109 30q87 0 127 -44.5t26 -119.5q-15 -78 -105 -161z" />
    <glyph glyph-name="three.p_osf" horiz-adv-x="515" 
d="M197 220l-9 38l163 192h-231l19 96h368l12 -32l-193 -228q70 -21 102.5 -75t18.5 -128q-17 -85 -90.5 -148t-181.5 -63q-64 0 -113.5 29.5t-73.5 88.5l87 60q37 -80 109 -80q54 0 97.5 31t53.5 84q12 60 -22.5 97.5t-115.5 37.5z" />
    <glyph glyph-name="four.p_osf" horiz-adv-x="536" 
d="M-9 9l-7 33l460 516l45 -7l-87 -445h68l-19 -97h-68l-24 -125h-109l24 125h-283zM142 106h151l42 216z" />
    <glyph glyph-name="five.p_osf" horiz-adv-x="536" 
d="M337 93q11 60 -19 94.5t-96 34.5q-50 0 -98 -24l-28 19l111 330h297l-19 -97h-201l-51 -145q28 6 52 6q89 0 135.5 -61.5t28.5 -153.5q-19 -99 -92 -161.5t-181 -62.5q-61 0 -109.5 30.5t-72.5 87.5l86 59q33 -77 111 -77q56 0 95.5 34.5t50.5 86.5z" />
    <glyph glyph-name="six.p_osf" horiz-adv-x="571" 
d="M528 213q-20 -101 -97 -163t-172 -62t-150 62.5t-35 162.5q12 64 77 145l266 328l87 -42l-183 -219q15 3 30 3q85 0 140.5 -58.5t36.5 -156.5zM277 85q51 0 91 37t51 91q11 53 -15 88.5t-78 35.5t-92 -35.5t-51 -88.5t15.5 -90.5t78.5 -37.5z" />
    <glyph glyph-name="seven.p_osf" horiz-adv-x="462" 
d="M85 547h395l14 -35l-391 -652l-97 34l332 550h-273z" />
    <glyph glyph-name="eight.p_osf" horiz-adv-x="553" 
d="M502 499q-15 -77 -88 -124q44 -26 64.5 -71t9.5 -103q-17 -89 -94.5 -151t-170.5 -62t-145.5 62t-35.5 151q11 57 48.5 102t91.5 72q-54 48 -40 124q14 73 75.5 123.5t138.5 50.5t118.5 -50.5t27.5 -123.5zM379 206q9 51 -15.5 86.5t-74.5 35.5t-88.5 -35.5t-47.5 -86.5
q-9 -48 15.5 -84.5t73.5 -36.5t88.5 36.5t48.5 84.5zM398 498q6 33 -10 57.5t-50 24.5t-60 -24.5t-32 -57.5q-6 -34 10 -58t50 -24t60 24t32 58z" />
    <glyph glyph-name="nine.p_osf" horiz-adv-x="571" 
d="M87 333q20 101 97 163t172 62t150 -62.5t35 -162.5q-12 -64 -77 -145l-266 -328l-87 42l183 219q-13 -3 -30 -3q-85 0 -140.5 58.5t-36.5 156.5zM338 461q-51 0 -91 -37t-51 -91q-10 -53 15.5 -88.5t77.5 -35.5t92.5 35.5t50.5 88.5q11 53 -15.5 90.5t-78.5 37.5z" />
    <glyph glyph-name="zero.t_osf" horiz-adv-x="582" 
d="M283 86q47 0 81 51t51 136q17 80 2.5 133.5t-61.5 53.5q-48 0 -82 -51.5t-50 -135.5q-18 -80 -3.5 -133.5t62.5 -53.5zM264 -12q-98 0 -135.5 80t-12.5 205q24 125 92.5 205t166.5 80t135 -80t13 -205q-25 -126 -93.5 -205.5t-165.5 -79.5z" />
    <glyph glyph-name="one.t_osf" horiz-adv-x="582" 
d="M404 558l38 -12l-106 -546h-110l79 407l-101 -50l-35 85z" />
    <glyph glyph-name="two.t_osf" horiz-adv-x="582" 
d="M377 233l-147 -138h204l-18 -95h-369l-10 34l260 251q66 65 75 107q6 31 -10.5 48.5t-50.5 17.5q-28 0 -60.5 -15t-56.5 -44l-71 47q41 52 97 82t109 30q87 0 127 -44.5t26 -119.5q-15 -78 -105 -161z" />
    <glyph glyph-name="three.t_osf" horiz-adv-x="582" 
d="M208 220l-9 38l163 192h-231l19 96h368l12 -32l-193 -228q70 -21 102.5 -75t18.5 -128q-17 -85 -90.5 -148t-181.5 -63q-64 0 -113.5 29.5t-73.5 88.5l87 60q37 -80 109 -80q54 0 97.5 31t53.5 84q12 60 -22.5 97.5t-115.5 37.5z" />
    <glyph glyph-name="four.t_osf" horiz-adv-x="582" 
d="M-3 9l-7 33l460 516l45 -7l-87 -445h68l-19 -97h-68l-24 -125h-109l24 125h-283zM148 106h151l42 216z" />
    <glyph glyph-name="five.t_osf" horiz-adv-x="582" 
d="M356 93q11 60 -19 94.5t-96 34.5q-50 0 -98 -24l-28 19l111 330h297l-19 -97h-201l-51 -145q28 6 52 6q89 0 135.5 -61.5t28.5 -153.5q-19 -99 -92 -161.5t-181 -62.5q-61 0 -109.5 30.5t-72.5 87.5l86 59q33 -77 111 -77q56 0 95.5 34.5t50.5 86.5z" />
    <glyph glyph-name="six.t_osf" horiz-adv-x="582" 
d="M511 213q-20 -101 -97 -163t-172 -62t-150 62.5t-35 162.5q12 64 77 145l266 328l87 -42l-183 -219q15 3 30 3q85 0 140.5 -58.5t36.5 -156.5zM260 85q51 0 91 37t51 91q11 53 -15 88.5t-78 35.5t-92 -35.5t-51 -88.5t15.5 -90.5t78.5 -37.5z" />
    <glyph glyph-name="seven.t_osf" horiz-adv-x="582" 
d="M134 547h395l14 -35l-391 -652l-97 34l332 550h-273z" />
    <glyph glyph-name="eight.t_osf" horiz-adv-x="582" 
d="M534 499q-15 -77 -88 -124q44 -26 64.5 -71t9.5 -103q-17 -89 -94.5 -151t-170.5 -62t-145.5 62t-35.5 151q11 57 48.5 102t91.5 72q-54 48 -40 124q14 73 75.5 123.5t138.5 50.5t118.5 -50.5t27.5 -123.5zM411 206q9 51 -15.5 86.5t-74.5 35.5t-88.5 -35.5t-47.5 -86.5
q-9 -48 15.5 -84.5t73.5 -36.5t88.5 36.5t48.5 84.5zM430 498q6 33 -10 57.5t-50 24.5t-60 -24.5t-32 -57.5q-6 -34 10 -58t50 -24t60 24t32 58z" />
    <glyph glyph-name="nine.t_osf" horiz-adv-x="582" 
d="M96 333q20 101 97 163t172 62t150 -62.5t35 -162.5q-12 -64 -77 -145l-266 -328l-87 42l183 219q-14 -3 -30 -3q-85 0 -140.5 58.5t-36.5 156.5zM347 461q-51 0 -91 -37t-51 -91q-10 -53 15.5 -88.5t77.5 -35.5t92.5 35.5t50.5 88.5q11 53 -15.5 90.5t-78.5 37.5z" />
    <glyph glyph-name="dollar.osf" horiz-adv-x="468" 
d="M260 625h79l-11 -58q59 -15 85 -71l-80 -54q-16 37 -53 37q-21 0 -36.5 -12t-19.5 -30q-7 -43 64 -74q130 -58 107 -177q-12 -60 -54 -102t-104 -55l-11 -57h-79l11 55q-45 8 -78.5 36.5t-45.5 72.5l83 56q10 -35 33.5 -55t52.5 -20q30 0 55 19t32 50q11 56 -69 96
q-59 31 -84 68.5t-14 94.5q8 44 43 77t83 44z" />
    <glyph glyph-name="cent.osf" horiz-adv-x="535" 
d="M87 303q18 90 87.5 156.5t161.5 83.5l16 83h79l-15 -78q87 -9 143 -73l-84 -69q-33 45 -103 45q-64 0 -115 -42t-64 -106q-12 -64 23 -106t99 -42q70 0 120 45l57 -69q-81 -64 -171 -73l-17 -86h-79l18 90q-85 17 -129 84t-27 157z" />
    <glyph glyph-name="sterling.osf" horiz-adv-x="485" 
d="M60 312h64l15 78q40 198 205 198q52 0 85.5 -18.5t60.5 -59.5l-81 -59q-23 40 -73 40q-67 0 -83 -78l-20 -101h123l-12 -62h-123q-18 -95 -56 -154h258l-18 -96h-394l-7 31q80 74 99 172l9 47h-64z" />
    <glyph glyph-name="yen.osf" horiz-adv-x="567" 
d="M287 0h-108l21 110h-158l12 61h158l9 46h-158l12 61h134l-127 262l103 40l110 -260l210 260l87 -40l-227 -262h134l-12 -61h-158l-9 -46h158l-12 -61h-158z" />
    <glyph glyph-name="florin.osf" horiz-adv-x="498" 
d="M156 57l54 282h-67l16 80h67l15 75q16 83 65 130t122 47q78 0 119 -67l-82 -62q-13 34 -48 34q-52 0 -68 -87l-14 -70h102l-16 -80h-102l-56 -288q-16 -82 -65 -129t-122 -47q-78 0 -119 67l82 62q13 -34 48 -34q52 0 69 87z" />
    <glyph glyph-name="Euro.osf" horiz-adv-x="579" 
d="M95 287q6 22 7 27h-43l11 61h52q40 95 116.5 154t173.5 59q119 0 175 -90l-77 -61q-37 53 -115 53q-105 0 -162 -115h197l-11 -61h-208q-4 -13 -7 -27q0 -4 -1.5 -13t-2.5 -14h208l-12 -61h-197q6 -53 35 -84t82 -31q79 0 136 53l53 -61q-92 -90 -210 -90q-97 0 -151 59
t-56 154h-52l12 61h43l2.5 15t1.5 12z" />
    <glyph glyph-name="zero.numerator" 
d="M167 471q-15 -69 -5.5 -115.5t46.5 -46.5q36 0 62.5 44.5t40.5 117.5q15 69 5.5 115.5t-45.5 46.5q-37 0 -63.5 -44.5t-40.5 -117.5zM81 471q21 105 74.5 173t130.5 68t104 -68.5t6 -172.5q-20 -104 -73.5 -172.5t-130.5 -68.5t-104 68t-7 173z" />
    <glyph glyph-name="one.numerator" 
d="M322 712l27 -9l-89 -461h-87l67 348l-76 -37l-25 66z" />
    <glyph glyph-name="two.numerator" 
d="M311 438l-115 -119h156l-15 -77h-279l-9 26l199 211q53 56 60 95q5 27 -7.5 43.5t-40.5 16.5q-44 0 -82 -51l-58 38q68 91 155 91q66 0 98.5 -38.5t20.5 -98.5q-12 -63 -83 -137z" />
    <glyph glyph-name="three.numerator" 
d="M185 466l-12 28l110 129h-150l15 77h255l11 -28l-127 -151q97 -37 77 -142q-11 -60 -63 -104.5t-127 -44.5q-45 0 -80 21.5t-51 62.5l71 51q21 -57 74 -57q32 0 57.5 20.5t32.5 52.5q7 39 -16.5 62t-76.5 23z" />
    <glyph glyph-name="four.numerator" 
d="M45 325l-9 27l328 359l37 -6l-60 -305h49l-14 -75h-49l-16 -83h-84l16 83h-198zM164 400h93l26 135z" />
    <glyph glyph-name="five.numerator" 
d="M284 387q7 36 -13.5 59.5t-59.5 23.5t-70 -17l-24 16l80 231h219l-15 -76h-146l-29 -83q14 3 30 1q60 -7 94 -47t21 -107q-13 -66 -64.5 -112t-126.5 -46q-43 0 -79.5 22t-52.5 63l70 50q21 -57 67 -57q37 0 64.5 23t34.5 56z" />
    <glyph glyph-name="six.numerator" 
d="M383 385q-13 -67 -68.5 -111t-120.5 -44q-66 0 -105 44t-26 111q9 45 53 100l182 227l68 -33l-112 -143q18 0 32 -3q51 -12 80.5 -49t16.5 -99zM147 385q-6 -32 11 -54.5t49 -22.5q33 0 59 22.5t32 54.5q7 32 -10.5 55t-50.5 23q-32 0 -57.5 -23t-32.5 -55z" />
    <glyph glyph-name="seven.numerator" 
d="M141 700h288l10 -27l-271 -443l-76 26l225 365h-192z" />
    <glyph glyph-name="eight.numerator" 
d="M211 307q32 0 59 24t33 55q6 32 -12 54.5t-50 22.5t-58 -22.5t-32 -54.5q-6 -31 11.5 -55t48.5 -24zM315 586q5 21 -6 37t-33 16t-39 -16t-22 -37q-4 -21 7 -36.5t33 -15.5t39 15.5t21 36.5zM65 382q15 81 93 120q-34 34 -24 85q10 53 54 89t102 36t88 -36t20 -89
q-11 -51 -58 -85q62 -39 47 -120q-12 -63 -67.5 -107.5t-123.5 -44.5t-105.5 44.5t-25.5 107.5z" />
    <glyph glyph-name="nine.numerator" 
d="M99 557q13 67 68.5 111t120.5 44q66 0 105 -44t26 -111q-9 -45 -53 -100l-182 -227l-68 33l112 143q-19 0 -32 3q-51 12 -80.5 49t-16.5 99zM275 634q-33 0 -59 -22.5t-32 -54.5t11.5 -55t49.5 -23t58 23t32 55t-11 54.5t-49 22.5z" />
    <glyph glyph-name="zero.denominator" 
d="M116 108q-30 -162 41 -162q36 0 63 44.5t40 117.5q15 69 5.5 115.5t-45.5 46.5q-37 0 -63.5 -44.5t-40.5 -117.5zM30 108q21 105 74.5 173t130.5 68t104 -68.5t6 -172.5q-20 -105 -73 -173t-130 -68t-104.5 68t-7.5 173z" />
    <glyph glyph-name="one.denominator" 
d="M251 349l28 -9l-90 -461h-87l68 348l-77 -37l-25 66z" />
    <glyph glyph-name="two.denominator" 
d="M240 75l-115 -119h156l-15 -77h-279l-9 26l199 211q52 56 61 95q5 27 -8 43.5t-41 16.5q-43 0 -82 -51l-57 38q68 91 154 91q66 0 98.5 -38.5t21.5 -98.5q-12 -64 -84 -137z" />
    <glyph glyph-name="three.denominator" 
d="M115 103l-13 28l110 129h-150l15 77h255l12 -28l-128 -151q98 -38 78 -142q-12 -60 -64 -104.5t-126 -44.5q-45 0 -80 21.5t-52 62.5l72 51q21 -57 74 -57q33 0 58 20.5t31 52.5q8 39 -15.5 62t-76.5 23z" />
    <glyph glyph-name="four.denominator" 
d="M-26 -38l-9 27l328 359l37 -6l-59 -305h49l-15 -75h-49l-16 -83h-84l16 83h-198zM94 37h93l26 135z" />
    <glyph glyph-name="five.denominator" 
d="M213 24q7 36 -13.5 59.5t-59.5 23.5t-70 -17l-24 16l80 231h219l-15 -76h-146l-29 -83q14 3 30 1q61 -7 95 -47t20 -107q-13 -66 -64 -112t-126 -46q-44 0 -80.5 22t-52.5 63l71 50q20 -57 67 -57q37 0 64.5 23t33.5 56z" />
    <glyph glyph-name="six.denominator" 
d="M326 22q-13 -67 -68.5 -111t-120.5 -44q-66 0 -105 44t-26 111q9 47 52 100l182 227l69 -33l-113 -143q19 0 33 -3q51 -12 80 -49t17 -99zM150 -55q33 0 59 22.5t32 54.5t-11.5 55t-49.5 23t-58 -23t-32 -55t11 -54.5t49 -22.5z" />
    <glyph glyph-name="seven.denominator" 
d="M70 337h288l11 -27l-271 -443l-76 26l225 365h-192z" />
    <glyph glyph-name="eight.denominator" 
d="M141 -56q31 0 58 24t33 55q6 32 -11.5 54.5t-49.5 22.5t-58.5 -22.5t-32.5 -54.5q-6 -31 11.5 -55t49.5 -24zM152 186q11 -15 33 -15t39 15.5t21 36.5t-7 37t-33 16t-39 -16t-21 -37t7 -37zM-6 19q15 81 94 120q-36 34 -25 85q11 53 54.5 89t101.5 36t88.5 -36t19.5 -89
q-10 -50 -57 -85q61 -39 46 -120q-12 -63 -67 -107.5t-123 -44.5t-106 44.5t-26 107.5z" />
    <glyph glyph-name="nine.denominator" 
d="M27 194q13 67 68.5 111t120.5 44q66 0 105 -44t26 -111q-9 -47 -52 -100l-182 -227l-69 33l113 143q-20 0 -33 3q-51 12 -80 49t-17 99zM203 271q-33 0 -59 -22.5t-32 -54.5t11.5 -55t49.5 -23t58 23t32 55t-11 54.5t-49 22.5z" />
    <glyph glyph-name="commaaccent" horiz-adv-x="406" 
d="M32 -243l90 202l91 -25l-117 -193z" />
    <glyph glyph-name="c_t" horiz-adv-x="824" 
d="M361 480h8q-26 46 -15 103q14 72 80.5 125t152.5 53q96 0 145 -62t31 -158l-15 -73h115l-19 -98h-115l-71 -370h-106l105 544q12 61 -13.5 97.5t-76.5 36.5t-88 -32.5t-46 -79.5q-12 -55 12 -102q51 -20 83 -58l-83 -69q-33 45 -103 45q-64 0 -115 -42t-64 -106
q-13 -63 22 -105.5t99 -42.5q70 0 121 45l57 -69q-92 -74 -197 -74q-108 0 -168 71t-40 175t108 175t196 71z" />
    <glyph glyph-name="s_p" horiz-adv-x="1027" 
d="M360 -282l160 826q12 61 -13.5 97.5t-76.5 36.5t-88 -32.5t-46 -79.5q-12 -55 13 -105q28 -16 48 -49l-73 -58q-18 34 -51 34q-20 0 -34.5 -9t-17.5 -25q-4 -20 10.5 -34t52.5 -31q114 -53 95 -150q-13 -66 -64.5 -108.5t-130.5 -42.5q-49 0 -88 27t-56 74l79 63
q24 -70 77 -70q30 0 50.5 15.5t25.5 40.5q6 27 -8.5 45t-55.5 36q-110 50 -93 134q10 52 54.5 88t102.5 39q-26 46 -15 103q14 72 80.5 125t152.5 53q96 0 145 -62t31 -158l-27 -139q78 78 189 78q100 0 156 -71t36 -175t-104 -175t-184 -71q-112 0 -159 78l-67 -348h-106z
M635 342q-53 -44 -66 -108t23.5 -108.5t99.5 -44.5t116.5 44.5t66.5 108.5t-23.5 108.5t-99.5 44.5t-117 -45z" />
    <glyph glyph-name="f_t" horiz-adv-x="656" 
d="M267 563l-19 -95h205l26 132h106l-26 -132h115l-19 -98h-115l-71 -370h-106l71 370h-205l-126 -652h-106l126 652h-76l19 98h76l20 99q17 92 70 143t134 51q88 0 125 -69l-81 -59q-14 35 -55 35q-68 0 -88 -105z" />
    <glyph glyph-name="f_b" horiz-adv-x="986" 
d="M513 717l6 33h106l-67 -348q78 78 189 78q100 0 156 -71t36 -175t-104 -175t-184 -71q-112 0 -159 78l-12 -66h-106l121 627q-25 45 -90 45q-51 0 -89.5 -30t-50.5 -87l-17 -87h135l-19 -98h-135l-126 -652h-106l126 652h-76l19 98h76l20 102q17 90 82.5 141t149.5 51
q79 0 119 -45zM594 342q-53 -44 -66 -108t23.5 -108.5t99.5 -44.5t116.5 44.5t66.5 108.5t-23.5 108.5t-99.5 44.5t-117 -45z" />
    <glyph glyph-name="t_t" horiz-adv-x="648" 
d="M47 370l19 98h76l26 132h106l-26 -132h198l26 132h106l-26 -132h115l-19 -98h-115l-71 -370h-106l71 370h-198l-71 -370h-106l71 370h-76z" />
    <glyph glyph-name="f_k" horiz-adv-x="849" 
d="M625 750l-97 -498l269 228l60 -65l-202 -167l154 -192l-89 -68l-192 264l-48 -252h-106l121 627q-25 45 -90 45q-51 0 -89.5 -30t-50.5 -87l-17 -87h135l-19 -98h-135l-126 -652h-106l126 652h-76l19 98h76l20 102q17 90 82.5 141t149.5 51q79 0 119 -45l6 33h106z" />
    <glyph glyph-name="f_h" horiz-adv-x="900" 
d="M782 0h-106l55 284q8 45 -14 74t-64 29t-76 -29t-42 -74l-55 -284h-106l121 627q-25 45 -90 45q-51 0 -89.5 -30t-50.5 -87l-17 -87h135l-19 -98h-135l-126 -652h-106l126 652h-76l19 98h76l20 102q17 90 82.5 141t149.5 51q79 0 119 -45l6 33h106l-63 -326q64 56 142 56
q72 0 112 -48t25 -126z" />
    <glyph glyph-name="f_f_h" horiz-adv-x="1216" 
d="M229 370l-126 -652h-106l126 652h-76l19 98h76l15 77q19 94 77.5 147.5t140.5 53.5q70 0 120 -40l-60 -77q-30 27 -70 27q-38 0 -64.5 -29t-36.5 -81l-16 -78h210l20 102q17 90 82.5 141t149.5 51q79 0 119 -45l6 33h106l-63 -326q64 56 142 56q72 0 112 -48t25 -126
l-59 -306h-106l55 284q8 45 -14 74t-64 29t-76 -29t-42 -74l-55 -284h-106l121 627q-25 45 -90 45q-51 0 -89.5 -30t-50.5 -87l-17 -87h135l-19 -98h-135l-126 -652h-106l126 652h-210z" />
    <glyph glyph-name="f_f_b" horiz-adv-x="1302" 
d="M829 717l6 33h106l-67 -348q78 78 189 78q100 0 156 -71t36 -175t-104 -175t-184 -71q-112 0 -159 78l-12 -66h-106l121 627q-25 45 -90 45q-51 0 -89.5 -30t-50.5 -87l-17 -87h135l-19 -98h-135l-126 -652h-106l126 652h-210l-126 -652h-106l126 652h-76l19 98h76l15 77
q19 94 77.5 147.5t140.5 53.5q70 0 120 -40l-60 -77q-30 27 -70 27q-38 0 -64.5 -29t-36.5 -81l-16 -78h210l20 102q17 90 82.5 141t149.5 51q79 0 119 -45zM910 342q-53 -44 -66 -108t23.5 -108.5t99.5 -44.5t116.5 44.5t66.5 108.5t-23.5 108.5t-99.5 44.5t-117 -45z" />
    <glyph glyph-name="f_iogonek" horiz-adv-x="592" 
d="M376 0h-13l71 370h-205l-126 -652h-106l126 652h-76l19 98h76l17 85q19 95 85.5 151.5t155.5 56.5q116 0 160 -92l-83 -60q-25 62 -90 62q-47 0 -79 -32t-43 -87l-17 -84h311l-90 -468h-19q-68 -53 -77 -101q-5 -24 7 -35.5t34 -11.5q21 0 37 13l13 -63q-38 -21 -84 -21
q-51 0 -76.5 30.5t-16.5 71.5q13 67 89 117z" />
    <glyph glyph-name="f_f_k" horiz-adv-x="1165" 
d="M941 750l-97 -498l269 228l60 -65l-202 -167l154 -192l-89 -68l-192 264l-48 -252h-106l121 627q-25 45 -90 45q-51 0 -89.5 -30t-50.5 -87l-17 -87h135l-19 -98h-135l-126 -652h-106l126 652h-210l-126 -652h-106l126 652h-76l19 98h76l15 77q19 94 77.5 147.5
t140.5 53.5q70 0 120 -40l-60 -77q-30 27 -70 27q-38 0 -64.5 -29t-36.5 -81l-16 -78h210l20 102q17 90 82.5 141t149.5 51q79 0 119 -45l6 33h106z" />
    <glyph glyph-name="f_f_j" horiz-adv-x="909" 
d="M875 468l-100 -519q-23 -116 -72 -173.5t-131 -57.5q-77 0 -114 67l87 63q8 -36 41 -36q56 0 77 106l87 452h-205l-126 -652h-106l126 652h-210l-126 -652h-106l126 652h-76l19 98h76l15 77q19 94 77.5 147.5t140.5 53.5q70 0 120 -40l-60 -77q-30 27 -70 27
q-38 0 -64.5 -29t-36.5 -81l-16 -78h210l17 85q19 95 85.5 151.5t155.5 56.5q116 0 160 -92l-83 -60q-25 62 -90 62q-47 0 -79 -32t-43 -87l-17 -84h311z" />
    <glyph glyph-name="f_t_t" horiz-adv-x="959" 
d="M585 600l-26 -132h198l26 132h106l-26 -132h115l-19 -98h-115l-71 -370h-106l71 370h-198l-71 -370h-106l71 370h-205l-126 -652h-106l126 652h-76l19 98h76l20 99q17 92 70 143t134 51q88 0 125 -69l-81 -59q-14 35 -55 35q-68 0 -88 -105l-19 -95h205l26 132h106z" />
    <glyph glyph-name="f_f_t" horiz-adv-x="973" 
d="M313 -282l126 652h-210l-126 -652h-106l126 652h-76l19 98h76l15 77q19 94 77.5 147.5t140.5 53.5q70 0 120 -40l-60 -77q-30 27 -70 27q-38 0 -64.5 -29t-36.5 -81l-16 -78h210l20 99q17 92 70 143t134 51q88 0 125 -69l-81 -59q-14 35 -55 35q-68 0 -88 -105l-19 -95
h205l26 132h106l-26 -132h115l-19 -98h-115l-71 -370h-106l71 370h-205l-126 -652h-106z" />
    <glyph glyph-name="f_f_iogonek" horiz-adv-x="928" 
d="M694 0h-15l71 370h-205l-126 -652h-106l126 652h-210l-126 -652h-106l126 652h-76l19 98h76l15 77q19 94 77.5 147.5t140.5 53.5q70 0 120 -40l-60 -77q-30 27 -70 27q-38 0 -64.5 -29t-36.5 -81l-16 -78h210l17 85q19 95 85.5 151.5t155.5 56.5q116 0 160 -92l-83 -60
q-25 62 -90 62q-47 0 -79 -32t-43 -87l-17 -84h311l-90 -468h-17q-68 -53 -77 -101q-5 -24 7 -35.5t34 -11.5q21 0 37 13l13 -63q-38 -21 -84 -21q-51 0 -76.5 30.5t-16.5 71.5q13 67 89 117z" />
    <glyph glyph-name="f_f_kcommaaccent" horiz-adv-x="1165" 
d="M941 750l-97 -498l269 228l60 -65l-202 -167l154 -192l-89 -68l-192 264l-48 -252h-106l121 627q-25 45 -90 45q-51 0 -89.5 -30t-50.5 -87l-17 -87h135l-19 -98h-135l-126 -652h-106l126 652h-210l-126 -652h-106l126 652h-76l19 98h76l15 77q19 94 77.5 147.5
t140.5 53.5q70 0 120 -40l-60 -77q-30 27 -70 27q-38 0 -64.5 -29t-36.5 -81l-16 -78h210l20 102q17 90 82.5 141t149.5 51q79 0 119 -45l6 33h106zM758 -269l89 202l92 -25l-117 -193z" />
    <glyph glyph-name="f_lcaron" horiz-adv-x="742" 
d="M265 555l-17 -87h135l-19 -98h-135l-126 -652h-106l126 652h-76l19 98h76l20 102q17 90 82.5 141t149.5 51q79 0 119 -45l6 33h106l-145 -750h-106l121 627q-25 45 -90 45q-51 0 -89.5 -30t-50.5 -87zM619 504l106 240l98 -26l-140 -230z" />
    <glyph glyph-name="f_lcommaaccent" horiz-adv-x="603" 
d="M265 555l-17 -87h135l-19 -98h-135l-126 -652h-106l126 652h-76l19 98h76l20 102q17 90 82.5 141t149.5 51q79 0 119 -45l6 33h106l-145 -750h-106l121 627q-25 45 -90 45q-51 0 -89.5 -30t-50.5 -87zM279 -269l89 202l92 -25l-117 -193z" />
    <glyph glyph-name="f_f_lcommaaccent" horiz-adv-x="919" 
d="M581 555l-17 -87h135l-19 -98h-135l-126 -652h-106l126 652h-210l-126 -652h-106l126 652h-76l19 98h76l15 77q19 94 77.5 147.5t140.5 53.5q70 0 120 -40l-60 -77q-30 27 -70 27q-38 0 -64.5 -29t-36.5 -81l-16 -78h210l20 102q17 90 82.5 141t149.5 51q79 0 119 -45
l6 33h106l-145 -750h-106l121 627q-25 45 -90 45q-51 0 -89.5 -30t-50.5 -87zM595 -269l89 202l92 -25l-117 -193z" />
    <glyph glyph-name="f_ldot" horiz-adv-x="774" 
d="M265 555l-17 -87h135l-19 -98h-135l-126 -652h-106l126 652h-76l19 98h76l20 102q17 90 82.5 141t149.5 51q79 0 119 -45l6 33h106l-145 -750h-106l121 627q-25 45 -90 45q-51 0 -89.5 -30t-50.5 -87zM657 379q5 25 26 42t46 17t39 -17t9 -42q-4 -25 -25 -42t-46 -17
t-39 17t-10 42z" />
    <glyph glyph-name="f_f_lslash" horiz-adv-x="954" 
d="M581 555l-17 -87h135l-19 -98h-135l-126 -652h-106l126 652h-210l-126 -652h-106l126 652h-76l19 98h76l15 77q19 94 77.5 147.5t140.5 53.5q70 0 120 -40l-60 -77q-30 27 -70 27q-38 0 -64.5 -29t-36.5 -81l-16 -78h210l20 102q17 90 82.5 141t149.5 51q79 0 119 -45
l6 33h106l-69 -354l96 56l27 -55l-138 -81l-61 -316h-106l47 246l-94 -55l-27 55l137 80l58 301q-25 45 -90 45q-51 0 -89.5 -30t-50.5 -87z" />
    <glyph glyph-name="f_lslash" horiz-adv-x="638" 
d="M265 555l-17 -87h135l-19 -98h-135l-126 -652h-106l126 652h-76l19 98h76l20 102q17 90 82.5 141t149.5 51q79 0 119 -45l6 33h106l-69 -354l95 56l27 -55l-137 -80l-61 -317h-106l48 247l-96 -56l-27 55l138 80l58 301q-25 45 -90 45q-51 0 -89.5 -30t-50.5 -87z" />
    <glyph glyph-name="f_f_tbar" horiz-adv-x="973" 
d="M583 563l-19 -95h205l26 132h106l-26 -132h115l-19 -98h-115l-17 -91h94l-16 -81h-94l-38 -198h-106l38 198h-63l16 81h63l17 91h-205l-126 -652h-106l126 652h-210l-126 -652h-106l126 652h-76l19 98h76l15 77q19 94 77.5 147.5t140.5 53.5q70 0 120 -40l-60 -77
q-30 27 -70 27q-38 0 -64.5 -29t-36.5 -81l-16 -78h210l20 99q17 92 70 143t134 51q88 0 125 -69l-81 -59q-14 35 -55 35q-68 0 -88 -105z" />
    <glyph glyph-name="f_tbar" horiz-adv-x="656" 
d="M47 370l19 98h76l20 99q17 92 70 143t134 51q88 0 125 -69l-81 -59q-14 35 -55 35q-68 0 -88 -105l-19 -95h205l26 132h106l-26 -132h115l-19 -98h-115l-17 -91h94l-16 -81h-94l-38 -198h-106l38 198h-63l16 81h63l17 91h-205l-126 -652h-106l126 652h-76z" />
    <glyph glyph-name="f_tcaron" horiz-adv-x="819" 
d="M47 370l19 98h76l20 99q17 92 70 143t134 51q88 0 125 -69l-81 -59q-14 35 -55 35q-68 0 -88 -105l-19 -95h205l26 132h106l-26 -132h115l-19 -98h-115l-71 -370h-106l71 370h-205l-126 -652h-106l126 652h-76zM696 504l106 240l98 -26l-140 -230z" />
    <glyph glyph-name="f_f_tcaron" horiz-adv-x="1135" 
d="M313 -282l126 652h-210l-126 -652h-106l126 652h-76l19 98h76l15 77q19 94 77.5 147.5t140.5 53.5q70 0 120 -40l-60 -77q-30 27 -70 27q-38 0 -64.5 -29t-36.5 -81l-16 -78h210l20 99q17 92 70 143t134 51q88 0 125 -69l-81 -59q-14 35 -55 35q-68 0 -88 -105l-19 -95
h205l26 132h106l-26 -132h115l-19 -98h-115l-71 -370h-106l71 370h-205l-126 -652h-106zM1012 504l106 240l98 -26l-140 -230z" />
    <glyph glyph-name="f_uni021B" horiz-adv-x="656" 
d="M267 563l-19 -95h206l26 132h106l-26 -132h115l-19 -98h-115l-71 -370h-106l71 370h-206l-126 -652h-106l126 652h-76l19 98h76l20 99q17 92 70 143t134 51q88 0 125 -69l-81 -59q-14 35 -55 35q-68 0 -88 -105zM276 -269l89 202l92 -25l-117 -193z" />
    <glyph glyph-name="f_f_uni021B" horiz-adv-x="973" 
d="M313 -282l126 652h-210l-126 -652h-106l126 652h-76l19 98h76l15 77q19 94 77.5 147.5t140.5 53.5q70 0 120 -40l-60 -77q-30 27 -70 27q-38 0 -64.5 -29t-36.5 -81l-16 -78h210l20 99q17 92 70 143t134 51q88 0 125 -69l-81 -59q-14 35 -55 35q-68 0 -88 -105l-19 -95
h205l26 132h106l-26 -132h115l-19 -98h-115l-71 -370h-106l71 370h-205l-126 -652h-106zM591 -269l89 202l92 -25l-117 -193z" />
    <glyph glyph-name="t_uni021B" horiz-adv-x="648" 
d="M268 -269l89 202l92 -25l-117 -193zM47 370l19 98h76l26 132h106l-26 -132h198l26 132h106l-26 -132h115l-19 -98h-115l-71 -370h-106l71 370h-198l-71 -370h-106l71 370h-76z" />
    <glyph glyph-name="uni021B_t" horiz-adv-x="648" 
d="M-36 -269l89 202l92 -25l-117 -193zM47 370l19 98h76l26 132h106l-26 -132h198l26 132h106l-26 -132h115l-19 -98h-115l-71 -370h-106l71 370h-198l-71 -370h-106l71 370h-76z" />
    <glyph glyph-name="uni021B_uni021B" horiz-adv-x="648" 
d="M268 -269l89 202l92 -25l-117 -193zM-36 -269l89 202l92 -25l-117 -193zM47 370l19 98h76l26 132h106l-26 -132h198l26 132h106l-26 -132h115l-19 -98h-115l-71 -370h-106l71 370h-198l-71 -370h-106l71 370h-76z" />
    <glyph glyph-name="f_f_ldot" horiz-adv-x="1090" 
d="M581 555l-17 -87h135l-19 -98h-135l-126 -652h-106l126 652h-210l-126 -652h-106l126 652h-76l19 98h76l15 77q19 94 77.5 147.5t140.5 53.5q70 0 120 -40l-60 -77q-30 27 -70 27q-38 0 -64.5 -29t-36.5 -81l-16 -78h210l20 102q17 90 82.5 141t149.5 51q79 0 119 -45
l6 33h106l-145 -750h-106l121 627q-25 45 -90 45q-51 0 -89.5 -30t-50.5 -87zM973 379q5 25 26 42t46 17t39 -17t9 -42q-4 -25 -25 -42t-46 -17t-39 17t-10 42z" />
    <glyph glyph-name="a.salt" horiz-adv-x="551" 
d="M39 144q14 69 79 113t142 44q86 0 129 -52l2 13q26 129 -106 129q-72 0 -141 -52l-38 67q96 74 205 74q105 0 156 -55.5t32 -155.5l-52 -269h-106l7 40q-69 -51 -150 -51q-78 0 -125.5 42t-33.5 113zM188 201q-35 -21 -42 -56t20.5 -56t75.5 -21t83.5 21t42.5 56
t-20.5 56t-75.5 21t-84 -21z" />
    <glyph glyph-name="g.salt" horiz-adv-x="580" 
d="M-9 -123q13 70 86 113q-44 24 -34 72q11 54 83 84q-54 54 -38 141q16 84 89.5 138.5t162.5 54.5q42 0 73 -12h175l-14 -76h-70q24 -46 12 -105q-16 -84 -89 -138.5t-162 -54.5q-49 0 -84 16q-40 -12 -45 -40q-3 -15 16 -25t59 -10h55q110 0 169.5 -43t46.5 -115
q-14 -71 -91 -115t-186 -44t-168.5 44t-45.5 115zM191 287q-9 -47 16.5 -76t74.5 -29t85.5 29t45.5 76q10 47 -15.5 76t-74.5 29t-85.5 -29t-46.5 -76zM98 -123q-7 -36 28 -54.5t95 -18.5q61 0 103.5 18.5t49.5 54.5q6 36 -29 54.5t-95 18.5q-61 0 -103.5 -18.5t-48.5 -54.5
z" />
    <glyph glyph-name="t.salt" horiz-adv-x="408" 
d="M243 370l-39 -202q-9 -40 -0.5 -61t37.5 -21q38 0 68 28l39 -77q-61 -49 -136 -49q-149 0 -115 176l40 206h-90l19 98h90l27 138l113 37l-34 -175h147l-19 -98h-147z" />
    <glyph glyph-name="agrave.salt" horiz-adv-x="551" 
d="M39 144q-14 -71 33.5 -113t125.5 -42q81 0 150 51l-7 -40h106l52 269q19 100 -32 155.5t-156 55.5q-109 0 -205 -74l38 -67q69 52 141 52q132 0 106 -129l-2 -13q-43 52 -129 52q-77 0 -142 -44t-79 -113zM166 89q-27 21 -20 56t42.5 56t83.5 21t75.5 -21t20.5 -56
t-42.5 -56t-83.5 -21t-76 21zM261 688l67 59l120 -138l-66 -58z" />
    <glyph glyph-name="aacute.salt" horiz-adv-x="551" 
d="M25 144q14 69 79 113t142 44q86 0 129 -52l2 13q26 129 -106 129q-72 0 -141 -52l-38 67q96 74 205 74q105 0 156 -55.5t32 -155.5l-52 -269h-106l7 40q-69 -51 -150 -51q-78 0 -125.5 42t-33.5 113zM174 201q-35 -21 -42 -56t20.5 -56t75.5 -21t83.5 21t42.5 56
t-20.5 56t-75.5 21t-84 -21zM414 747l43 -59l-173 -137l-44 58z" />
    <glyph glyph-name="acircumflex.salt" horiz-adv-x="551" 
d="M25 144q14 69 79 113t142 44q86 0 129 -52l2 13q26 129 -106 129q-72 0 -141 -52l-38 67q96 74 205 74q105 0 156 -55.5t32 -155.5l-52 -269h-106l7 40q-69 -51 -150 -51q-78 0 -125.5 42t-33.5 113zM174 201q-35 -21 -42 -56t20.5 -56t75.5 -21t83.5 21t42.5 56
t-20.5 56t-75.5 21t-84 -21zM344 746h24l120 -137l-66 -58l-86 97l-122 -97l-44 58z" />
    <glyph glyph-name="atilde.salt" horiz-adv-x="551" 
d="M25 144q14 69 79 113t142 44q86 0 129 -52l2 13q26 129 -106 129q-72 0 -141 -52l-38 67q96 74 205 74q105 0 156 -55.5t32 -155.5l-52 -269h-106l7 40q-69 -51 -150 -51q-78 0 -125.5 42t-33.5 113zM174 201q-35 -21 -42 -56t20.5 -56t75.5 -21t83.5 21t42.5 56
t-20.5 56t-75.5 21t-84 -21zM319 616q-19 21 -38 21q-28 0 -42 -49l-72 21q16 50 50.5 79t74.5 29q41 0 74 -33q21 -21 38 -21q28 0 43 49l72 -21q-16 -50 -50.5 -79t-74.5 -29q-42 0 -75 33z" />
    <glyph glyph-name="adieresis.salt" horiz-adv-x="551" 
d="M39 144q14 69 79 113t142 44q86 0 129 -52l2 13q26 129 -106 129q-72 0 -141 -52l-38 67q96 74 205 74q105 0 156 -55.5t32 -155.5l-52 -269h-106l7 40q-69 -51 -150 -51q-78 0 -125.5 42t-33.5 113zM188 201q-35 -21 -42 -56t20.5 -56t75.5 -21t83.5 21t42.5 56
t-20.5 56t-75.5 21t-84 -21zM202 649q4 25 25 42t46 17t39 -17t10 -42q-5 -25 -26 -42t-46 -17t-39 17t-9 42zM394 649q4 25 25 42t46 17t39 -17t10 -42q-5 -25 -26 -42t-46 -17t-39 17t-9 42z" />
    <glyph glyph-name="aring.salt" horiz-adv-x="551" 
d="M25 144q14 69 79 113t142 44q86 0 129 -52l2 13q26 129 -106 129q-72 0 -141 -52l-38 67q96 74 205 74q105 0 156 -55.5t32 -155.5l-52 -269h-106l7 40q-69 -51 -150 -51q-78 0 -125.5 42t-33.5 113zM174 201q-35 -21 -42 -56t20.5 -56t75.5 -21t83.5 21t42.5 56
t-20.5 56t-75.5 21t-84 -21zM253 574q-26 30 -17 75t46 75t82 30t71 -30t17 -75t-46.5 -75t-82.5 -30t-70 30zM318 681q-15 -13 -19 -32t6.5 -32t29.5 -13t34.5 13t19.5 32t-7 32t-30 13t-34 -13z" />
    <glyph glyph-name="amacron.salt" horiz-adv-x="551" 
d="M25 144q14 69 79 113t142 44q86 0 129 -52l2 13q26 129 -106 129q-72 0 -141 -52l-38 67q96 74 205 74q105 0 156 -55.5t32 -155.5l-52 -269h-106l7 40q-69 -51 -150 -51q-78 0 -125.5 42t-33.5 113zM174 201q-35 -21 -42 -56t20.5 -56t75.5 -21t83.5 21t42.5 56
t-20.5 56t-75.5 21t-84 -21zM189 609l16 81h292l-16 -81h-292z" />
    <glyph glyph-name="abreve.salt" horiz-adv-x="551" 
d="M39 144q-14 -71 33.5 -113t125.5 -42q81 0 150 51l-7 -40h106l52 269q19 100 -32 155.5t-156 55.5q-109 0 -205 -74l38 -67q69 52 141 52q132 0 106 -129l-2 -13q-43 52 -129 52q-77 0 -142 -44t-79 -113zM166 89q-27 21 -20 56t42.5 56t83.5 21t75.5 -21t20.5 -56
t-42.5 -56t-83.5 -21t-76 21zM224 716h84q-6 -29 6.5 -52t41.5 -23t50.5 23t27.5 52h84q-13 -66 -64 -111t-114 -45t-96 45t-20 111z" />
    <glyph glyph-name="aogonek.salt" horiz-adv-x="551" 
d="M39 144q14 69 79 113t142 44q86 0 129 -52l2 13q26 129 -106 129q-72 0 -141 -52l-38 67q96 74 205 74q105 0 156 -55.5t32 -155.5l-52 -269h-17q-68 -53 -77 -101q-5 -24 7 -35.5t34 -11.5q21 0 37 13l13 -63q-38 -21 -84 -21q-51 0 -76.5 30.5t-16.5 71.5q13 67 89 117
h-15l7 40q-69 -51 -150 -51q-78 0 -125.5 42t-33.5 113zM188 201q-35 -21 -42 -56t20.5 -56t75.5 -21t83.5 21t42.5 56t-20.5 56t-75.5 21t-84 -21z" />
    <glyph glyph-name="gcircumflex.salt" horiz-adv-x="580" 
d="M-23 -123q13 70 86 113q-44 24 -34 72q11 54 83 84q-54 54 -38 141q16 84 89.5 138.5t162.5 54.5q42 0 73 -12h175l-14 -76h-70q24 -46 12 -105q-16 -84 -89 -138.5t-162 -54.5q-49 0 -84 16q-40 -12 -45 -40q-3 -15 16 -25t59 -10h55q110 0 169.5 -43t46.5 -115
q-14 -71 -91 -115t-186 -44t-168.5 44t-45.5 115zM177 287q-9 -47 16.5 -76t74.5 -29t85.5 29t45.5 76q10 47 -15.5 76t-74.5 29t-85.5 -29t-46.5 -76zM84 -123q-7 -36 28 -54.5t95 -18.5q61 0 103.5 18.5t49.5 54.5q6 36 -29 54.5t-95 18.5q-61 0 -103.5 -18.5t-48.5 -54.5
zM362 746h24l120 -137l-66 -58l-86 97l-122 -97l-44 58z" />
    <glyph glyph-name="gbreve.salt" horiz-adv-x="580" 
d="M-9 -123q-14 -71 45.5 -115t168.5 -44t186 44t91 115q13 72 -46.5 115t-169.5 43h-55q-40 0 -59 10t-16 25q5 28 45 40q35 -16 84 -16q89 0 162 54.5t89 138.5q12 59 -12 105h70l14 76h-175q-31 12 -73 12q-89 0 -162.5 -54.5t-89.5 -138.5q-16 -87 38 -141
q-72 -30 -83 -84q-10 -48 34 -72q-73 -43 -86 -113zM191 287q10 47 46.5 76t85.5 29t74.5 -29t15.5 -76q-9 -47 -45.5 -76t-85.5 -29t-74.5 29t-16.5 76zM98 -123q6 36 48.5 54.5t103.5 18.5q60 0 95 -18.5t29 -54.5q-7 -36 -49.5 -54.5t-103.5 -18.5q-60 0 -95 18.5
t-28 54.5zM235 716h84q-6 -29 6.5 -52t41.5 -23t50.5 23t27.5 52h84q-13 -66 -64 -111t-114 -45t-96 45t-20 111z" />
    <glyph glyph-name="gdotaccent.salt" horiz-adv-x="580" 
d="M-23 -123q13 70 86 113q-44 24 -34 72q11 54 83 84q-54 54 -38 141q16 84 89.5 138.5t162.5 54.5q42 0 73 -12h175l-14 -76h-70q24 -46 12 -105q-16 -84 -89 -138.5t-162 -54.5q-49 0 -84 16q-40 -12 -45 -40q-3 -15 16 -25t59 -10h55q110 0 169.5 -43t46.5 -115
q-14 -71 -91 -115t-186 -44t-168.5 44t-45.5 115zM177 287q-9 -47 16.5 -76t74.5 -29t85.5 29t45.5 76q10 47 -15.5 76t-74.5 29t-85.5 -29t-46.5 -76zM84 -123q-7 -36 28 -54.5t95 -18.5q61 0 103.5 18.5t49.5 54.5q6 36 -29 54.5t-95 18.5q-61 0 -103.5 -18.5t-48.5 -54.5
zM301 649q4 25 25 42t46 17t39 -17t10 -42q-5 -25 -26 -42t-46 -17t-39 17t-9 42z" />
    <glyph glyph-name="gcommaaccent.salt" horiz-adv-x="580" 
d="M-9 -123q13 70 86 113q-44 24 -34 72q11 54 83 84q-54 54 -38 141q16 84 89.5 138.5t162.5 54.5q42 0 73 -12h175l-14 -76h-70q24 -46 12 -105q-16 -84 -89 -138.5t-162 -54.5q-49 0 -84 16q-40 -12 -45 -40q-3 -15 16 -25t59 -10h55q110 0 169.5 -43t46.5 -115
q-14 -71 -91 -115t-186 -44t-168.5 44t-45.5 115zM191 287q-9 -47 16.5 -76t74.5 -29t85.5 29t45.5 76q10 47 -15.5 76t-74.5 29t-85.5 -29t-46.5 -76zM98 -123q-7 -36 28 -54.5t95 -18.5q61 0 103.5 18.5t49.5 54.5q6 36 -29 54.5t-95 18.5q-61 0 -103.5 -18.5t-48.5 -54.5
zM472 723l-89 -202l-91 25l116 193z" />
    <glyph glyph-name="tcommaaccent.salt" horiz-adv-x="408" 
d="M111 -87l-2 16l45 69q-83 31 -57 166l40 206h-90l19 98h90l27 138l113 37l-34 -175h147l-19 -98h-147l-39 -202q-9 -40 -0.5 -61t37.5 -21q38 0 68 28l39 -77q-57 -46 -126 -49l-22 -31q35 -9 52 -34t10 -59q-8 -42 -47 -72t-100 -30q-50 0 -87 29l48 53q21 -16 46 -16
q48 0 57 40q4 22 -14 33.5t-54 11.5z" />
    <glyph glyph-name="tcaron.salt" horiz-adv-x="551" 
d="M243 370l-39 -202q-9 -40 -0.5 -61t37.5 -21q38 0 68 28l39 -77q-61 -49 -136 -49q-149 0 -115 176l40 206h-90l19 98h90l27 138l113 37l-34 -175h147l-19 -98h-147zM428 504l106 240l98 -26l-140 -230z" />
    <glyph glyph-name="tbar.salt" horiz-adv-x="408" 
d="M215 225l-11 -57q-9 -40 -0.5 -61t37.5 -21q38 0 68 28l39 -77q-61 -49 -136 -49q-149 0 -115 176l12 61h-67l13 68h67l15 77h-90l19 98h90l27 138l113 37l-34 -175h147l-19 -98h-147l-15 -77h90l-13 -68h-90z" />
    <glyph glyph-name="uni021B.salt" horiz-adv-x="408" 
d="M243 370l-39 -202q-9 -40 -0.5 -61t37.5 -21q38 0 68 28l39 -77q-61 -49 -136 -49q-149 0 -115 176l40 206h-90l19 98h90l27 138l113 37l-34 -175h147l-19 -98h-147zM36 -269l89 202l92 -25l-117 -193z" />
    <glyph glyph-name="f_t.salt" horiz-adv-x="705" 
d="M540 370l-39 -202q-9 -40 -0.5 -61t37.5 -21q38 0 68 28l39 -77q-61 -49 -136 -49q-149 0 -115 176l40 206h-205l-126 -652h-106l126 652h-76l19 98h76l20 99q17 92 70 143t134 51q88 0 125 -69l-81 -59q-14 35 -55 35q-68 0 -88 -105l-19 -95h205l27 138l113 37
l-34 -175h147l-19 -98h-147z" />
    <glyph glyph-name="t_t.salt" horiz-adv-x="735" 
d="M570 370l-39 -202q-9 -40 -0.5 -61t37.5 -21q38 0 68 28l39 -77q-61 -49 -136 -49q-149 0 -115 176l40 206h-221l-39 -202q-9 -40 -0.5 -61t37.5 -21q38 0 68 28l39 -77q-61 -49 -136 -49q-149 0 -115 176l40 206h-90l19 98h90l27 138l113 37l-34 -175h221l27 138l113 37
l-34 -175h147l-19 -98h-147z" />
    <glyph glyph-name="f_t_t.salt" horiz-adv-x="1032" 
d="M867 370l-39 -202q-9 -40 -0.5 -61t37.5 -21q38 0 68 28l39 -77q-61 -49 -136 -49q-149 0 -115 176l40 206h-221l-39 -202q-9 -40 -0.5 -61t37.5 -21q38 0 68 28l39 -77q-61 -49 -136 -49q-149 0 -115 176l40 206h-205l-126 -652h-106l126 652h-76l19 98h76l20 99
q17 92 70 143t134 51q88 0 125 -69l-81 -59q-14 35 -55 35q-68 0 -88 -105l-19 -95h205l27 138l113 37l-34 -175h221l27 138l113 37l-34 -175h147l-19 -98h-147z" />
    <glyph glyph-name="f_f_t.salt" horiz-adv-x="1022" 
d="M857 370l-39 -202q-9 -40 -0.5 -61t37.5 -21q38 0 68 28l39 -77q-61 -49 -136 -49q-149 0 -115 176l40 206h-206l-126 -652h-106l126 652h-210l-126 -652h-106l126 652h-76l19 98h76l15 77q19 94 77.5 147.5t140.5 53.5q70 0 120 -40l-60 -77q-30 27 -70 27
q-38 0 -64.5 -29t-36.5 -81l-16 -78h210l20 99q17 92 70 143t134 51q88 0 125 -69l-81 -59q-14 35 -55 35q-68 0 -88 -105l-19 -95h206l27 138l113 37l-34 -175h147l-19 -98h-147z" />
    <glyph glyph-name="f_f_tbar.salt" horiz-adv-x="1022" 
d="M829 225l-11 -57q-9 -40 -0.5 -61t37.5 -21q38 0 68 28l39 -77q-61 -49 -136 -49q-149 0 -115 176l12 61h-67l13 68h67l15 77h-206l-126 -652h-106l126 652h-210l-126 -652h-106l126 652h-76l19 98h76l15 77q19 94 77.5 147.5t140.5 53.5q70 0 120 -40l-60 -77
q-30 27 -70 27q-38 0 -64.5 -29t-36.5 -81l-16 -78h210l20 99q17 92 70 143t134 51q88 0 125 -69l-81 -59q-14 35 -55 35q-68 0 -88 -105l-19 -95h206l27 138l113 37l-34 -175h147l-19 -98h-147l-15 -77h90l-13 -68h-90z" />
    <glyph glyph-name="f_tbar.salt" horiz-adv-x="705" 
d="M512 225l-11 -57q-9 -40 -0.5 -61t37.5 -21q38 0 68 28l39 -77q-61 -49 -136 -49q-149 0 -115 176l12 61h-67l13 68h67l15 77h-205l-126 -652h-106l126 652h-76l19 98h76l20 99q17 92 70 143t134 51q88 0 125 -69l-81 -59q-14 35 -55 35q-68 0 -88 -105l-19 -95h205
l27 138l113 37l-34 -175h147l-19 -98h-147l-15 -77h90l-13 -68h-90z" />
    <glyph glyph-name="f_tcaron.salt" horiz-adv-x="848" 
d="M540 370l-39 -202q-9 -40 -0.5 -61t37.5 -21q38 0 68 28l39 -77q-61 -49 -136 -49q-149 0 -115 176l40 206h-205l-126 -652h-106l126 652h-76l19 98h76l20 99q17 92 70 143t134 51q88 0 125 -69l-81 -59q-14 35 -55 35q-68 0 -88 -105l-19 -95h205l27 138l113 37
l-34 -175h147l-19 -98h-147zM725 504l106 240l98 -26l-140 -230z" />
    <glyph glyph-name="f_f_tcaron.salt" horiz-adv-x="1165" 
d="M857 370l-39 -202q-9 -40 -0.5 -61t37.5 -21q38 0 68 28l39 -77q-61 -49 -136 -49q-149 0 -115 176l40 206h-206l-126 -652h-106l126 652h-210l-126 -652h-106l126 652h-76l19 98h76l15 77q19 94 77.5 147.5t140.5 53.5q70 0 120 -40l-60 -77q-30 27 -70 27
q-38 0 -64.5 -29t-36.5 -81l-16 -78h210l20 99q17 92 70 143t134 51q88 0 125 -69l-81 -59q-14 35 -55 35q-68 0 -88 -105l-19 -95h206l27 138l113 37l-34 -175h147l-19 -98h-147zM1042 504l106 240l98 -26l-140 -230z" />
    <glyph glyph-name="f_uni021B.salt" horiz-adv-x="705" 
d="M540 370l-39 -202q-9 -40 -0.5 -61t37.5 -21q38 0 68 28l39 -77q-61 -49 -136 -49q-149 0 -115 176l40 206h-205l-126 -652h-106l126 652h-76l19 98h76l20 99q17 92 70 143t134 51q88 0 125 -69l-81 -59q-14 35 -55 35q-68 0 -88 -105l-19 -95h205l27 138l113 37
l-34 -175h147l-19 -98h-147zM333 -269l89 202l92 -25l-117 -193z" />
    <glyph glyph-name="f_f_uni021B.salt" horiz-adv-x="1022" 
d="M857 370l-39 -202q-9 -40 -0.5 -61t37.5 -21q38 0 68 28l39 -77q-61 -49 -136 -49q-149 0 -115 176l40 206h-206l-126 -652h-106l126 652h-210l-126 -652h-106l126 652h-76l19 98h76l15 77q19 94 77.5 147.5t140.5 53.5q70 0 120 -40l-60 -77q-30 27 -70 27
q-38 0 -64.5 -29t-36.5 -81l-16 -78h210l20 99q17 92 70 143t134 51q88 0 125 -69l-81 -59q-14 35 -55 35q-68 0 -88 -105l-19 -95h206l27 138l113 37l-34 -175h147l-19 -98h-147zM650 -269l89 202l92 -25l-117 -193z" />
    <glyph glyph-name="t_uni021B.salt" horiz-adv-x="735" 
d="M364 -269l89 202l92 -25l-117 -193zM570 370l-39 -202q-9 -40 -0.5 -61t37.5 -21q38 0 68 28l39 -77q-61 -49 -136 -49q-149 0 -115 176l40 206h-221l-39 -202q-9 -40 -0.5 -61t37.5 -21q38 0 68 28l39 -77q-61 -49 -136 -49q-149 0 -115 176l40 206h-90l19 98h90l27 138
l113 37l-34 -175h221l27 138l113 37l-34 -175h147l-19 -98h-147z" />
    <glyph glyph-name="uni021B_t.salt" horiz-adv-x="735" 
d="M36 -269l89 202l92 -25l-117 -193zM570 370l-39 -202q-9 -40 -0.5 -61t37.5 -21q38 0 68 28l39 -77q-61 -49 -136 -49q-149 0 -115 176l40 206h-221l-39 -202q-9 -40 -0.5 -61t37.5 -21q38 0 68 28l39 -77q-61 -49 -136 -49q-149 0 -115 176l40 206h-90l19 98h90l27 138
l113 37l-34 -175h221l27 138l113 37l-34 -175h147l-19 -98h-147z" />
    <glyph glyph-name="uni021B_uni021B.salt" horiz-adv-x="735" 
d="M36 -269l89 202l92 -25l-117 -193zM364 -269l89 202l92 -25l-117 -193zM570 370l-39 -202q-9 -40 -0.5 -61t37.5 -21q38 0 68 28l39 -77q-61 -49 -136 -49q-149 0 -115 176l40 206h-221l-39 -202q-9 -40 -0.5 -61t37.5 -21q38 0 68 28l39 -77q-61 -49 -136 -49
q-149 0 -115 176l40 206h-90l19 98h90l27 138l113 37l-34 -175h221l27 138l113 37l-34 -175h147l-19 -98h-147z" />
    <glyph glyph-name="s_t.salt" horiz-adv-x="757" 
d="M592 370l-39 -202q-9 -40 -0.5 -61t37.5 -21q38 0 68 28l39 -77q-61 -49 -136 -49q-149 0 -115 176l74 380q12 61 -13.5 97.5t-76.5 36.5t-88 -32.5t-46 -79.5q-12 -55 13 -105q28 -16 48 -49l-73 -58q-18 34 -51 34q-20 0 -34.5 -9t-17.5 -25q-4 -20 10.5 -34t52.5 -31
q114 -53 95 -150q-13 -66 -64.5 -108.5t-130.5 -42.5q-49 0 -88 27t-56 74l79 63q24 -70 77 -70q30 0 50.5 15.5t25.5 40.5q6 27 -8.5 45t-55.5 36q-110 50 -93 134q10 52 54.5 88t102.5 39q-26 46 -15 103q14 72 80.5 125t152.5 53q96 0 145 -62t31 -158l-15 -73h147
l-19 -98h-147z" />
    <glyph glyph-name="f_f_lcaron" horiz-adv-x="1058" 
d="M581 555l-17 -87h135l-19 -98h-135l-126 -652h-106l126 652h-210l-126 -652h-106l126 652h-76l19 98h76l15 77q19 94 77.5 147.5t140.5 53.5q70 0 120 -40l-60 -77q-30 27 -70 27q-38 0 -64.5 -29t-36.5 -81l-16 -78h210l20 102q17 90 82.5 141t149.5 51q79 0 119 -45
l6 33h106l-145 -750h-106l121 627q-25 45 -90 45q-51 0 -89.5 -30t-50.5 -87zM935 504l106 240l98 -26l-140 -230z" />
    <glyph glyph-name="f_kcommaaccent" horiz-adv-x="849" 
d="M625 750l-97 -498l269 228l60 -65l-202 -167l154 -192l-89 -68l-192 264l-48 -252h-106l121 627q-25 45 -90 45q-51 0 -89.5 -30t-50.5 -87l-17 -87h135l-19 -98h-135l-126 -652h-106l126 652h-76l19 98h76l20 102q17 90 82.5 141t149.5 51q79 0 119 -45l6 33h106z
M442 -269l89 202l92 -25l-117 -193z" />
    <glyph glyph-name="c_b" horiz-adv-x="1144" 
d="M361 480h9q-28 43 -17 106q14 71 76.5 123t141.5 52q77 0 120 -45l6 34h106l-67 -348q78 78 189 78q100 0 156 -71t36 -175t-104 -175t-184 -71q-112 0 -159 78l-12 -66h-106l121 625q-31 54 -105 54q-53 0 -90.5 -32t-46.5 -80q-12 -59 13 -102q49 -19 84 -59l-83 -69
q-33 45 -103 45q-64 0 -115 -42t-64 -106q-13 -63 22 -105.5t99 -42.5q70 0 121 45l57 -69q-92 -74 -197 -74q-108 0 -168 71t-40 175t108 175t196 71zM772 342q-53 -44 -66 -108t23.5 -108.5t99.5 -44.5t116.5 44.5t66.5 108.5t-23.5 108.5t-99.5 44.5t-117 -45z" />
    <glyph glyph-name="c_h" horiz-adv-x="1058" 
d="M960 0h-106l55 284q8 45 -14 74t-64 29t-76 -29t-42 -74l-55 -284h-106l121 625q-31 54 -105 54q-53 0 -90.5 -32t-46.5 -80q-12 -59 13 -102q49 -19 84 -59l-83 -69q-33 45 -103 45q-64 0 -115 -42t-64 -106q-13 -63 22 -105.5t99 -42.5q70 0 121 45l57 -69
q-92 -74 -197 -74q-108 0 -168 71t-40 175t108 175t196 71h9q-28 43 -17 106q14 71 76.5 123t141.5 52q77 0 120 -45l6 34h106l-63 -326q64 56 142 56q72 0 112 -48t25 -126z" />
    <glyph glyph-name="c_k" horiz-adv-x="1007" 
d="M803 750l-97 -498l269 228l60 -65l-202 -167l154 -192l-89 -68l-192 264l-48 -252h-106l121 625q-31 54 -105 54q-53 0 -90.5 -32t-46.5 -80q-12 -59 13 -102q49 -19 84 -59l-83 -69q-33 45 -103 45q-64 0 -115 -42t-64 -106q-13 -63 22 -105.5t99 -42.5q70 0 121 45
l57 -69q-92 -74 -197 -74q-108 0 -168 71t-40 175t108 175t196 71h9q-28 43 -17 106q14 71 76.5 123t141.5 52q77 0 120 -45l6 34h106z" />
    <glyph glyph-name="c_l" horiz-adv-x="761" 
d="M803 750l-145 -750h-106l121 625q-31 54 -105 54q-53 0 -90.5 -32t-46.5 -80q-12 -59 13 -102q49 -19 84 -59l-83 -69q-33 45 -103 45q-64 0 -115 -42t-64 -106q-13 -63 22 -105.5t99 -42.5q70 0 121 45l57 -69q-92 -74 -197 -74q-108 0 -168 71t-40 175t108 175t196 71
h9q-28 43 -17 106q14 71 76.5 123t141.5 52q77 0 120 -45l6 34h106z" />
    <glyph glyph-name="ccedilla_b" horiz-adv-x="1144" 
d="M178 -87l-2 16l41 63q-88 15 -134 82.5t-28 159.5q20 104 108 175t196 71h9q-28 43 -17 106q14 71 76.5 123t141.5 52q77 0 120 -45l6 34h106l-67 -348q78 78 189 78q100 0 156 -71t36 -175t-104 -175t-184 -71q-112 0 -159 78l-12 -66h-106l121 625q-31 54 -105 54
q-53 0 -90.5 -32t-46.5 -80q-12 -59 13 -102q49 -19 84 -59l-83 -69q-33 45 -103 45q-64 0 -115 -42t-64 -106q-13 -63 22 -105.5t99 -42.5q70 0 121 45l57 -69q-79 -63 -170 -72l-23 -33q35 -9 52 -34t10 -59q-8 -42 -47 -72t-100 -30q-50 0 -87 29l48 53q21 -16 46 -16
q48 0 57 40q4 22 -14 33.5t-54 11.5zM770 342q-53 -44 -66 -108t23.5 -108.5t99.5 -44.5t116.5 44.5t66.5 108.5t-23.5 108.5t-99.5 44.5t-117 -45z" />
    <glyph glyph-name="ccedilla_h" horiz-adv-x="1058" 
d="M178 -87l-2 16l41 63q-88 15 -134 82.5t-28 159.5q20 104 108 175t196 71h9q-28 43 -17 106q14 71 76.5 123t141.5 52q77 0 120 -45l6 34h106l-63 -326q64 56 142 56q72 0 112 -48t25 -126l-59 -306h-106l55 284q8 45 -14 74t-64 29t-76 -29t-42 -74l-55 -284h-106
l121 625q-31 54 -105 54q-53 0 -90.5 -32t-46.5 -80q-12 -59 13 -102q49 -19 84 -59l-83 -69q-33 45 -103 45q-64 0 -115 -42t-64 -106q-13 -63 22 -105.5t99 -42.5q70 0 121 45l57 -69q-79 -63 -170 -72l-23 -33q35 -9 52 -34t10 -59q-8 -42 -47 -72t-100 -30q-50 0 -87 29
l48 53q21 -16 46 -16q48 0 57 40q4 22 -14 33.5t-54 11.5z" />
    <glyph glyph-name="ccedilla_k" horiz-adv-x="1007" 
d="M801 750l-97 -498l269 228l60 -65l-202 -167l154 -192l-89 -68l-192 264l-48 -252h-106l121 625q-31 54 -105 54q-53 0 -90.5 -32t-46.5 -80q-12 -59 13 -102q49 -19 84 -59l-83 -69q-33 45 -103 45q-64 0 -115 -42t-64 -106q-13 -63 22 -105.5t99 -42.5q70 0 121 45
l57 -69q-79 -63 -170 -72l-23 -33q35 -9 52 -34t10 -59q-8 -42 -47 -72t-100 -30q-50 0 -87 29l48 53q21 -16 46 -16q48 0 57 40q4 22 -14 33.5t-54 11.5l-2 16l41 63q-88 15 -134 82.5t-28 159.5q20 104 108 175t196 71h9q-28 43 -17 106q14 71 76.5 123t141.5 52
q77 0 120 -45l6 34h106z" />
    <glyph glyph-name="ccedilla_l" horiz-adv-x="761" 
d="M178 -87l-2 16l41 63q-88 15 -134 82.5t-28 159.5q20 104 108 175t196 71h9q-28 43 -17 106q14 71 76.5 123t141.5 52q77 0 120 -45l6 34h106l-145 -750h-106l121 625q-31 54 -105 54q-53 0 -90.5 -32t-46.5 -80q-12 -59 13 -102q49 -19 84 -59l-83 -69q-33 45 -103 45
q-64 0 -115 -42t-64 -106q-13 -63 22 -105.5t99 -42.5q70 0 121 45l57 -69q-79 -63 -170 -72l-23 -33q35 -9 52 -34t10 -59q-8 -42 -47 -72t-100 -30q-50 0 -87 29l48 53q21 -16 46 -16q48 0 57 40q4 22 -14 33.5t-54 11.5z" />
    <glyph glyph-name="ccedilla_t" horiz-adv-x="824" 
d="M178 -87l-2 16l41 63q-88 15 -134 82.5t-28 159.5q20 104 108 175t196 71h8q-26 46 -15 103q14 72 80.5 125t152.5 53q96 0 145 -62t31 -158l-15 -73h115l-19 -98h-115l-71 -370h-106l105 544q12 61 -13.5 97.5t-76.5 36.5t-88 -32.5t-46 -79.5q-12 -55 12 -102
q51 -20 83 -58l-83 -69q-33 45 -103 45q-64 0 -115 -42t-64 -106q-13 -63 22 -105.5t99 -42.5q70 0 121 45l57 -69q-79 -63 -170 -72l-23 -33q35 -9 52 -34t10 -59q-8 -42 -47 -72t-100 -30q-50 0 -87 29l48 53q21 -16 46 -16q48 0 57 40q4 22 -14 33.5t-54 11.5z" />
    <glyph glyph-name="s_b" horiz-adv-x="1027" 
d="M415 0l121 625q-32 54 -105 54q-53 0 -90.5 -32t-46.5 -80q-12 -61 13 -105q34 -19 50 -50l-73 -58q-18 34 -51 34q-20 0 -34.5 -9t-17.5 -25q-4 -20 10.5 -34t52.5 -31q114 -53 95 -150q-13 -66 -64.5 -108.5t-130.5 -42.5q-49 0 -88 27t-56 74l79 63q24 -70 77 -70
q30 0 50.5 15.5t25.5 40.5q6 27 -8.5 45t-55.5 36q-110 50 -93 134q10 52 55 88t103 39q-28 43 -17 106q14 71 76.5 123t141.5 52q76 0 119 -46l7 35h106l-67 -348q78 78 189 78q100 0 156 -71t36 -175t-104 -175t-184 -71q-112 0 -159 78l-12 -66h-106zM635 342
q-53 -44 -66 -108t23.5 -108.5t99.5 -44.5t116.5 44.5t66.5 108.5t-23.5 108.5t-99.5 44.5t-117 -45z" />
    <glyph glyph-name="s_h" horiz-adv-x="941" 
d="M156 82q30 0 50.5 15.5t25.5 40.5q6 27 -8.5 45t-55.5 36q-110 50 -93 134q10 52 55 88t103 39q-28 43 -17 106q14 71 76.5 123t141.5 52q76 0 119 -46l7 35h106l-63 -326q64 56 142 56q72 0 112 -48t25 -126l-59 -306h-106l55 284q8 45 -14 74t-64 29t-76 -29t-42 -74
l-55 -284h-106l121 625q-32 54 -105 54q-53 0 -90.5 -32t-46.5 -80q-12 -61 13 -105q34 -19 50 -50l-73 -58q-18 34 -51 34q-20 0 -34.5 -9t-17.5 -25q-4 -20 10.5 -34t52.5 -31q114 -53 95 -150q-13 -66 -64.5 -108.5t-130.5 -42.5q-49 0 -88 27t-56 74l79 63
q24 -70 77 -70z" />
    <glyph glyph-name="s_k" horiz-adv-x="890" 
d="M666 750l-97 -498l269 228l60 -65l-202 -167l154 -192l-89 -68l-192 264l-48 -252h-106l121 625q-32 54 -105 54q-53 0 -90.5 -32t-46.5 -80q-12 -61 13 -105q34 -19 50 -50l-73 -58q-18 34 -51 34q-20 0 -34.5 -9t-17.5 -25q-4 -20 10.5 -34t52.5 -31q114 -53 95 -150
q-13 -66 -64.5 -108.5t-130.5 -42.5q-49 0 -88 27t-56 74l79 63q24 -70 77 -70q30 0 50.5 15.5t25.5 40.5q6 27 -8.5 45t-55.5 36q-110 50 -93 134q10 52 55 88t103 39q-28 43 -17 106q14 71 76.5 123t141.5 52q76 0 119 -46l7 35h106z" />
    <glyph glyph-name="s_l" horiz-adv-x="644" 
d="M156 82q30 0 50.5 15.5t25.5 40.5q6 27 -8.5 45t-55.5 36q-110 50 -93 134q10 52 55 88t103 39q-28 43 -17 106q14 71 76.5 123t141.5 52q76 0 119 -46l7 35h106l-145 -750h-106l121 625q-32 54 -105 54q-53 0 -90.5 -32t-46.5 -80q-12 -61 13 -105q34 -19 50 -50
l-73 -58q-18 34 -51 34q-20 0 -34.5 -9t-17.5 -25q-4 -20 10.5 -34t52.5 -31q114 -53 95 -150q-13 -66 -64.5 -108.5t-130.5 -42.5q-49 0 -88 27t-56 74l79 63q24 -70 77 -70z" />
    <glyph glyph-name="scedilla_b" horiz-adv-x="1027" 
d="M415 0l121 625q-32 54 -105 54q-53 0 -90.5 -32t-46.5 -80q-12 -61 13 -105q34 -19 50 -50l-73 -58q-18 34 -51 34q-20 0 -34.5 -9t-17.5 -25q-4 -20 10.5 -34t52.5 -31q114 -53 95 -150q-11 -56 -50 -95.5t-99 -50.5l7 9h-75l-7 -11q-40 7 -71 33t-44 65l79 63
q24 -70 77 -70q30 0 50.5 15.5t25.5 40.5q6 27 -8.5 45t-55.5 36q-110 50 -93 134q10 52 55 88t103 39q-28 43 -17 106q14 71 76.5 123t141.5 52q76 0 119 -46l7 35h106l-67 -348q78 78 189 78q100 0 156 -71t36 -175t-104 -175t-184 -71q-112 0 -159 78l-12 -66h-106z
M635 342q-53 -44 -66 -108t23.5 -108.5t99.5 -44.5t116.5 44.5t66.5 108.5t-23.5 108.5t-99.5 44.5t-117 -45zM74 -71l2 -16q36 0 54 -11.5t14 -33.5q-9 -40 -57 -40q-25 0 -46 16l-48 -53q37 -29 87 -29q61 0 100 30t47 72q7 34 -10 59t-52 34l25 36q-23 -5 -46 -5
q-16 0 -29 3z" />
    <glyph glyph-name="scedilla_h" horiz-adv-x="941" 
d="M76 -87l-2 16l41 62q-40 7 -71 33t-44 65l79 63q24 -70 77 -70q30 0 50.5 15.5t25.5 40.5q6 27 -8.5 45t-55.5 36q-110 50 -93 134q10 52 55 88t103 39q-28 43 -17 106q14 71 76.5 123t141.5 52q76 0 119 -46l7 35h106l-63 -326q64 56 142 56q72 0 112 -48t25 -126
l-59 -306h-106l55 284q8 45 -14 74t-64 29t-76 -29t-42 -74l-55 -284h-106l121 625q-32 54 -105 54q-53 0 -90.5 -32t-46.5 -80q-12 -61 13 -105q34 -19 50 -50l-73 -58q-18 34 -51 34q-20 0 -34.5 -9t-17.5 -25q-4 -20 10.5 -34t52.5 -31q114 -53 95 -150
q-11 -56 -50 -95.5t-99 -50.5l-25 -36q35 -9 52 -34t10 -59q-8 -42 -47 -72t-100 -30q-50 0 -87 29l48 53q21 -16 46 -16q48 0 57 40q4 22 -14 33.5t-54 11.5z" />
    <glyph glyph-name="scedilla_k" horiz-adv-x="890" 
d="M666 750l-97 -498l269 228l60 -65l-202 -167l154 -192l-89 -68l-192 264l-48 -252h-106l121 625q-32 54 -105 54q-53 0 -90.5 -32t-46.5 -80q-12 -61 13 -105q34 -19 50 -50l-73 -58q-18 34 -51 34q-20 0 -34.5 -9t-17.5 -25q-4 -20 10.5 -34t52.5 -31q114 -53 95 -150
q-11 -56 -50 -95.5t-99 -50.5l-25 -36q35 -9 52 -34t10 -59q-8 -42 -47 -72t-100 -30q-50 0 -87 29l48 53q21 -16 46 -16q48 0 57 40q4 22 -14 33.5t-54 11.5l-2 16l41 62q-40 7 -71 33t-44 65l79 63q24 -70 77 -70q30 0 50.5 15.5t25.5 40.5q6 27 -8.5 45t-55.5 36
q-110 50 -93 134q10 52 55 88t103 39q-28 43 -17 106q14 71 76.5 123t141.5 52q76 0 119 -46l7 35h106z" />
    <glyph glyph-name="scedilla_l" horiz-adv-x="644" 
d="M76 -87l-2 16l41 62q-40 7 -71 33t-44 65l79 63q24 -70 77 -70q30 0 50.5 15.5t25.5 40.5q6 27 -8.5 45t-55.5 36q-110 50 -93 134q10 52 55 88t103 39q-28 43 -17 106q14 71 76.5 123t141.5 52q76 0 119 -46l7 35h106l-145 -750h-106l121 625q-32 54 -105 54
q-53 0 -90.5 -32t-46.5 -80q-12 -61 13 -105q34 -19 50 -50l-73 -58q-18 34 -51 34q-20 0 -34.5 -9t-17.5 -25q-4 -20 10.5 -34t52.5 -31q114 -53 95 -150q-11 -56 -50 -95.5t-99 -50.5l-25 -36q35 -9 52 -34t10 -59q-8 -42 -47 -72t-100 -30q-50 0 -87 29l48 53
q21 -16 46 -16q48 0 57 40q4 22 -14 33.5t-54 11.5z" />
    </font>
</defs>
</svg>
