<?xml version="1.0" encoding="utf-8"?>
<!-- Generator: Adobe Illustrator 22.1.0, SVG Export Plug-In . SVG Version: 6.00 Build 0)  -->
<svg version="1.1" id="Слой_1" xmlns="http://www.w3.org/2000/svg" xmlns:xlink="http://www.w3.org/1999/xlink" x="0px" y="0px"
	 viewBox="0 0 37.6 48" style="enable-background:new 0 0 37.6 48;" xml:space="preserve">
<path fill="#ffffff" d="M31.7,17.6H6.3c-0.4,0-0.8,0.4-0.8,0.8c0,0.4,0.4,0.8,0.8,0.8h25.3c0.4,0,0.8-0.4,0.8-0.8C32.5,18,32.1,17.6,31.7,17.6z
	 M6.3,12.8H19c0.4,0,0.8-0.4,0.8-0.8s-0.4-0.8-0.8-0.8H6.3c-0.4,0-0.8,0.4-0.8,0.8S5.9,12.8,6.3,12.8z M31.7,24H6.3
	c-0.4,0-0.8,0.4-0.8,0.8c0,0.4,0.4,0.8,0.8,0.8h25.3c0.4,0,0.8-0.4,0.8-0.8C32.5,24.4,32.1,24,31.7,24z M31.7,30.4H6.3
	c-0.4,0-0.8,0.4-0.8,0.8c0,0.4,0.4,0.8,0.8,0.8h25.3c0.4,0,0.8-0.4,0.8-0.8C32.5,30.8,32.1,30.4,31.7,30.4z M31.7,36.8H6.3
	c-0.4,0-0.8,0.4-0.8,0.8c0,0.4,0.4,0.8,0.8,0.8h25.3c0.4,0,0.8-0.4,0.8-0.8C32.5,37.2,32.1,36.8,31.7,36.8z M36.9,10.9L26.7,0.7
	C26.2,0.3,25.6,0,24.9,0H1.3C0.6,0,0,0.6,0,1.3v45.4C0,47.4,0.6,48,1.3,48h35c0.7,0,1.3-0.6,1.3-1.3v-34
	C37.6,12,37.3,11.4,36.9,10.9z M26.4,3.5c0-0.3,0.3-0.4,0.5-0.2l7.5,7.5c0.2,0.2,0,0.4-0.2,0.4h-7.4c-0.3,0-0.5-0.2-0.5-0.5V3.5z
	 M36,45.7c0,0.4-0.3,0.7-0.7,0.7H2.3c-0.4,0-0.7-0.3-0.7-0.7V2.3c0-0.4,0.3-0.7,0.7-0.7h21.8c0.4,0,0.7,0.3,0.7,0.7v9.3
	c0,0.6,0.5,1.2,1.2,1.2h9.3c0.4,0,0.7,0.3,0.7,0.7V45.7z"/>
</svg>
