<?xml version="1.0" encoding="utf-8"?>
<!-- Generator: Adobe Illustrator 22.1.0, SVG Export Plug-In . SVG Version: 6.00 Build 0)  -->
<svg version="1.1" id="Слой_1" xmlns="http://www.w3.org/2000/svg" xmlns:xlink="http://www.w3.org/1999/xlink" x="0px" y="0px"
	 viewBox="0 0 71.6 71.6" style="enable-background:new 0 0 71.6 71.6;" xml:space="preserve">
<style type="text/css">
	.st0{fill:#FFFFFF;}
</style>
<g>
	<path class="st0" d="M35.8,71.6C16.1,71.6,0,55.6,0,35.8S16.1,0,35.8,0c19.7,0,35.8,16.1,35.8,35.8S55.6,71.6,35.8,71.6z M35.8,2
		C17.2,2,2,17.2,2,35.8c0,18.6,15.2,33.8,33.8,33.8c18.6,0,33.8-15.2,33.8-33.8C69.6,17.2,54.5,2,35.8,2z"/>
</g>
<g>
	<g>
		<g>
			<path class="st0" d="M51.2,39.8l3.8-4l-1.9-2l-3.8,4L51.2,39.8z"/>
		</g>
		<g>
			<path class="st0" d="M49.2,33.8l3.8,4l1.9-2l-3.8-4L49.2,33.8z"/>
		</g>
	</g>
	<g>
		<path class="st0" d="M16.6,34.6h35.2V37H16.6V34.6z"/>
	</g>
</g>
</svg>
