<?xml version="1.0" encoding="utf-8"?>
<!-- Generator: Adobe Illustrator 22.1.0, SVG Export Plug-In . SVG Version: 6.00 Build 0)  -->
<svg version="1.1" id="Слой_1" xmlns="http://www.w3.org/2000/svg" xmlns:xlink="http://www.w3.org/1999/xlink" x="0px" y="0px"
	 viewBox="0 0 7 10.3" style="enable-background:new 0 0 7 10.3;" xml:space="preserve">
<style type="text/css">
	.st0{fill:#FFFFFF;}
</style>
<g>
	<g>
		<path class="st0" d="M6.6,8.6C6.4,9,6.2,9.3,5.9,9.5C5.6,9.8,5.2,10,4.7,10.1c-0.4,0.1-0.9,0.2-1.5,0.2c-0.5,0-0.8,0-1.2-0.1
			c-0.3-0.1-0.6-0.1-0.8-0.2C1.1,9.9,0.9,9.8,0.8,9.8S0.7,9.7,0.6,9.7S0.6,9.7,0.5,9.8C0.4,9.9,0.3,10,0.2,10.1H0.1l0-2.8h0.1
			c0.1,0.2,0.2,0.5,0.3,0.7c0.1,0.2,0.3,0.5,0.4,0.7C1.1,9,1.2,9.2,1.4,9.3c0.2,0.2,0.3,0.3,0.5,0.4c0.2,0.1,0.4,0.2,0.6,0.2
			C2.8,10,3,10.1,3.3,10.1c0.7,0,1.2-0.2,1.7-0.6C5.4,9.1,5.6,8.6,5.6,8c0-0.3,0-0.5-0.1-0.7C5.4,7.1,5.2,6.9,5.1,6.8
			C5,6.7,4.8,6.5,4.6,6.4S4.2,6.2,4,6.2C3.8,6.1,3.6,6,3.4,6C3.2,5.9,3.1,5.8,2.9,5.8S2.6,5.7,2.5,5.6S2.2,5.5,1.9,5.4
			C1.7,5.3,1.5,5.2,1.3,5.1C1,4.9,0.8,4.7,0.7,4.5C0.5,4.3,0.4,4,0.3,3.8C0.2,3.5,0.1,3.2,0.1,2.9c0-0.5,0.1-0.9,0.3-1.3
			C0.6,1.3,0.8,1,1.1,0.7s0.7-0.4,1.1-0.5C2.6,0.1,3,0,3.5,0c0.4,0,0.8,0,1.1,0.1c0.3,0.1,0.5,0.1,0.7,0.2c0.2,0.1,0.3,0.2,0.4,0.2
			c0.1,0.1,0.1,0.1,0.2,0.1c0,0,0.1-0.1,0.2-0.2c0.1-0.1,0.2-0.2,0.2-0.3h0.2v2.6H6.2C6.1,2.5,6,2.2,5.8,1.9
			C5.6,1.6,5.4,1.3,5.2,1.1C5,0.8,4.7,0.6,4.4,0.5c-0.3-0.1-0.6-0.2-1-0.2c-0.3,0-0.6,0-0.8,0.1C2.4,0.5,2.2,0.6,2,0.8
			C1.8,0.9,1.6,1.1,1.5,1.4C1.4,1.6,1.4,1.9,1.4,2.2c0,0.5,0.1,0.9,0.4,1.2C2.1,3.7,2.5,3.9,3,4.1c0.2,0.1,0.4,0.1,0.5,0.2
			s0.3,0.1,0.5,0.2c0.2,0.1,0.3,0.1,0.5,0.2s0.3,0.1,0.5,0.2C5.6,5,6,5.4,6.4,5.8s0.5,1,0.5,1.6C6.9,7.9,6.8,8.3,6.6,8.6z"/>
	</g>
</g>
</svg>
