<?xml version="1.0" encoding="iso-8859-1"?>
<!-- Generator: Adobe Illustrator 22.1.0, SVG Export Plug-In . SVG Version: 6.00 Build 0)  -->
<svg version="1.1" id="&#x421;&#x43B;&#x43E;&#x439;_1"
	 xmlns="http://www.w3.org/2000/svg" xmlns:xlink="http://www.w3.org/1999/xlink" x="0px" y="0px" viewBox="0 0 260 260"
	 style="enable-background:new 0 0 260 260;" xml:space="preserve">
<g>
	<path style="fill:#E7E6E6;" d="M129.499,51.503c42.81,0,77.639,34.829,77.639,77.639s-34.829,77.639-77.639,77.639
		S51.86,171.952,51.86,129.142S86.689,51.503,129.499,51.503 M129.499,8.439C62.837,8.439,8.797,62.48,8.797,129.142
		s54.04,120.703,120.703,120.703s120.703-54.04,120.703-120.703S196.162,8.439,129.499,8.439L129.499,8.439z"/>
	<path style="fill:#FFFFFF;" d="M250.202,129.142c0-7.879-0.78-15.573-2.221-23.031l-42.277,8.218
		c0.931,4.798,1.434,9.747,1.434,14.813H250.202z M205.704,114.329L205.704,114.329L205.704,114.329L205.704,114.329z"/>
	<path style="fill:#C2BBBC;" d="M129.499,206.781c-42.81,0-77.639-34.829-77.639-77.639s34.829-77.639,77.639-77.639V8.439
		C62.837,8.439,8.797,62.48,8.797,129.142s54.04,120.703,120.703,120.703s120.703-54.04,120.703-120.703h-43.064
		C207.138,171.952,172.31,206.781,129.499,206.781z"/>
	<path style="fill:#D5D4D4;" d="M175.366,66.551l25.471-34.759C180.85,17.121,156.193,8.439,129.499,8.439v43.064
		C146.646,51.503,162.505,57.101,175.366,66.551z"/>
	<path style="fill:#E7E6E6;" d="M200.695,31.621l-25.486,34.746c9.055,6.66,16.615,15.23,22.084,25.116l37.742-20.794
		C226.538,55.303,214.784,41.973,200.695,31.621z"/>
	<path style="fill:#F4F4F4;" d="M235.001,70.508L197.337,91.44c3.925,7.033,6.785,14.734,8.367,22.888l42.277-8.218
		C245.528,93.421,241.092,81.444,235.001,70.508z"/>
	<linearGradient id="SVGID_1_" gradientUnits="userSpaceOnUse" x1="132.5421" y1="25.4143" x2="202.3291" y2="25.4143">
		<stop  offset="0" style="stop-color:#E52530"/>
		<stop  offset="1" style="stop-color:#E7246A"/>
	</linearGradient>
	<path style="fill:url(#SVGID_1_);" d="M184.853,48.334l17.477-23.849c-19.565-13.155-44.549-21.526-69.787-21.99v28.813
		C151.292,32.01,170.238,38.527,184.853,48.334z"/>
	<linearGradient id="SVGID_2_" gradientUnits="userSpaceOnUse" x1="216.5263" y1="88.581" x2="254.5832" y2="88.581">
		<stop  offset="0" style="stop-color:#E52530"/>
		<stop  offset="1" style="stop-color:#E7246A"/>
	</linearGradient>
	<path style="fill:url(#SVGID_2_);" d="M242.73,69.631l-26.203,14.625c3.759,7.276,6.631,15.079,8.478,23.275l29.578-5.716
		C252.082,90.438,248.061,79.635,242.73,69.631z"/>
	<path style="fill:#E7205F;" d="M207.15,27.982l-17.553,23.876c9.582,7.462,17.731,16.663,23.99,27.135l26.156-14.598
		C231.313,50.248,220.236,37.867,207.15,27.982z"/>
	<linearGradient id="SVGID_3_" gradientUnits="userSpaceOnUse" x1="189.3072" y1="53.3623" x2="239.7428" y2="53.3623">
		<stop  offset="0" style="stop-color:#E52530"/>
		<stop  offset="1" style="stop-color:#E7246A"/>
	</linearGradient>
	<path style="fill:url(#SVGID_3_);" d="M239.743,64.395c-8.499-14.263-19.684-26.739-32.911-36.664l-17.524,23.892
		c9.71,7.503,17.957,16.791,24.28,27.37L239.743,64.395z"/>
	<linearGradient id="SVGID_4_" gradientUnits="userSpaceOnUse" x1="2.5" y1="130.0657" x2="257.4786" y2="130.0657">
		<stop  offset="0" style="stop-color:#E52530"/>
		<stop  offset="1" style="stop-color:#E7246A"/>
	</linearGradient>
	<path style="fill:url(#SVGID_4_);" d="M125.214,3.875v26.264c-52.432,2.646-94.886,46.809-94.886,99.003
		c0,54.683,44.488,99.171,99.171,99.171c53.454,0,96.725-41.54,99.029-94.794l27.702-0.046
		c-0.328,32.322-13.466,62.894-37.079,86.215c-23.882,23.586-55.236,36.575-88.288,36.575c-35.732,0-68.22-12.984-91.479-36.56
		c-22.984-23.298-35.642-55.46-35.642-90.56c0-33.327,12.885-64.775,36.282-88.551C63.031,17.212,93.24,4.203,125.214,3.875
		 M126.456,2.626C58.886,2.626,2.5,59.37,2.5,129.142c0,72.67,53.212,128.363,128.363,128.363
		c68.942,0,126.615-56.73,126.615-125.276l-30.147,0.05c-1.662,52.627-44.801,94.792-97.832,94.792
		c-54.084,0-97.929-43.844-97.929-97.929c0-52.806,42.571-95.809,94.886-97.815V2.626L126.456,2.626z"/>
	<linearGradient id="SVGID_5_" gradientUnits="userSpaceOnUse" x1="226.2047" y1="116.936" x2="257.5" y2="116.936">
		<stop  offset="0" style="stop-color:#E52530"/>
		<stop  offset="1" style="stop-color:#E7246A"/>
	</linearGradient>
	<path style="fill:url(#SVGID_5_);" d="M257.5,126.109c-0.127-6.254-0.697-12.396-1.699-18.396l-29.597,5.72
		c0.652,4.162,1.043,8.408,1.154,12.726L257.5,126.109z"/>
</g>
</svg>
