<?xml version="1.0" encoding="UTF-8"?>
<svg width="471px" height="472px" viewBox="0 0 471 472" version="1.1" xmlns="http://www.w3.org/2000/svg" xmlns:xlink="http://www.w3.org/1999/xlink">
    <!-- Generator: Sketch 49.3 (51167) - http://www.bohemiancoding.com/sketch -->
    <title>2% of global GDP</title>
    <desc>Created with Sketch.</desc>
    <defs></defs>
    <g id="Page-1" stroke="none" stroke-width="1" fill="none" fill-rule="evenodd">
        <g id="2%-of-global-GDP" fill="#000000">
            <path d="M22.5,1 L22.5,1 C26.6421356,1 30,4.35786438 30,8.5 L30,463.5 C30,467.642136 26.6421356,471 22.5,471 L22.5,471 C18.3578644,471 15,467.642136 15,463.5 L15,8.5 C15,4.35786438 18.3578644,1 22.5,1 Z" id="Rectangle"></path>
            <rect id="Rectangle-2" x="0" y="89" width="30" height="15" rx="7.5"></rect>
            <rect id="Rectangle-2" x="0" y="178" width="30" height="15" rx="7.5"></rect>
            <rect id="Rectangle-2" x="0" y="266" width="30" height="15" rx="7.5"></rect>
            <rect id="Rectangle-2" x="0" y="354" width="30" height="15" rx="7.5"></rect>
            <path d="M105.5,451 L116.5,451 C120.642136,451 124,454.357864 124,458.5 L124,458.5 C124,462.642136 120.642136,466 116.5,466 L105.5,466 C101.357864,466 98,462.642136 98,458.5 L98,458.5 C98,454.357864 101.357864,451 105.5,451 Z" id="Rectangle-2" transform="translate(111.000000, 458.500000) rotate(-90.000000) translate(-111.000000, -458.500000) "></path>
            <path d="M193.5,451 L204.5,451 C208.642136,451 212,454.357864 212,458.5 L212,458.5 C212,462.642136 208.642136,466 204.5,466 L193.5,466 C189.357864,466 186,462.642136 186,458.5 L186,458.5 C186,454.357864 189.357864,451 193.5,451 Z" id="Rectangle-2" transform="translate(199.000000, 458.500000) rotate(-90.000000) translate(-199.000000, -458.500000) "></path>
            <path d="M281.5,451 L292.5,451 C296.642136,451 300,454.357864 300,458.5 L300,458.5 C300,462.642136 296.642136,466 292.5,466 L281.5,466 C277.357864,466 274,462.642136 274,458.5 L274,458.5 C274,454.357864 277.357864,451 281.5,451 Z" id="Rectangle-2" transform="translate(287.000000, 458.500000) rotate(-90.000000) translate(-287.000000, -458.500000) "></path>
            <path d="M369.5,451 L380.5,451 C384.642136,451 388,454.357864 388,458.5 L388,458.5 C388,462.642136 384.642136,466 380.5,466 L369.5,466 C365.357864,466 362,462.642136 362,458.5 L362,458.5 C362,454.357864 365.357864,451 369.5,451 Z" id="Rectangle-2" transform="translate(375.000000, 458.500000) rotate(-90.000000) translate(-375.000000, -458.500000) "></path>
            <path d="M375,412.5 L375,412.5 C379.142136,412.5 382.5,415.857864 382.5,420 L382.5,420 C382.5,424.142136 379.142136,427.5 375,427.5 L375,427.5 C370.857864,427.5 367.5,424.142136 367.5,420 L367.5,420 C367.5,415.857864 370.857864,412.5 375,412.5 Z" id="Rectangle-2" transform="translate(375.000000, 420.000000) rotate(-90.000000) translate(-375.000000, -420.000000) "></path>
            <path d="M375,382.5 L375,382.5 C379.142136,382.5 382.5,385.857864 382.5,390 L382.5,390 C382.5,394.142136 379.142136,397.5 375,397.5 L375,397.5 C370.857864,397.5 367.5,394.142136 367.5,390 L367.5,390 C367.5,385.857864 370.857864,382.5 375,382.5 Z" id="Rectangle-2" transform="translate(375.000000, 390.000000) rotate(-90.000000) translate(-375.000000, -390.000000) "></path>
            <path d="M375,352.5 L375,352.5 C379.142136,352.5 382.5,355.857864 382.5,360 L382.5,360 C382.5,364.142136 379.142136,367.5 375,367.5 L375,367.5 C370.857864,367.5 367.5,364.142136 367.5,360 L367.5,360 C367.5,355.857864 370.857864,352.5 375,352.5 Z" id="Rectangle-2" transform="translate(375.000000, 360.000000) rotate(-90.000000) translate(-375.000000, -360.000000) "></path>
            <path d="M375,322.5 L375,322.5 C379.142136,322.5 382.5,325.857864 382.5,330 L382.5,330 C382.5,334.142136 379.142136,337.5 375,337.5 L375,337.5 C370.857864,337.5 367.5,334.142136 367.5,330 L367.5,330 C367.5,325.857864 370.857864,322.5 375,322.5 Z" id="Rectangle-2" transform="translate(375.000000, 330.000000) rotate(-90.000000) translate(-375.000000, -330.000000) "></path>
            <path d="M375,292.5 L375,292.5 C379.142136,292.5 382.5,295.857864 382.5,300 L382.5,300 C382.5,304.142136 379.142136,307.5 375,307.5 L375,307.5 C370.857864,307.5 367.5,304.142136 367.5,300 L367.5,300 C367.5,295.857864 370.857864,292.5 375,292.5 Z" id="Rectangle-2" transform="translate(375.000000, 300.000000) rotate(-90.000000) translate(-375.000000, -300.000000) "></path>
            <path d="M375,262.5 L375,262.5 C379.142136,262.5 382.5,265.857864 382.5,270 L382.5,270 C382.5,274.142136 379.142136,277.5 375,277.5 L375,277.5 C370.857864,277.5 367.5,274.142136 367.5,270 L367.5,270 C367.5,265.857864 370.857864,262.5 375,262.5 Z" id="Rectangle-2" transform="translate(375.000000, 270.000000) rotate(-90.000000) translate(-375.000000, -270.000000) "></path>
            <path d="M375,232.5 L375,232.5 C379.142136,232.5 382.5,235.857864 382.5,240 L382.5,240 C382.5,244.142136 379.142136,247.5 375,247.5 L375,247.5 C370.857864,247.5 367.5,244.142136 367.5,240 L367.5,240 C367.5,235.857864 370.857864,232.5 375,232.5 Z" id="Rectangle-2" transform="translate(375.000000, 240.000000) rotate(-90.000000) translate(-375.000000, -240.000000) "></path>
            <path d="M375,202.5 L375,202.5 C379.142136,202.5 382.5,205.857864 382.5,210 L382.5,210 C382.5,214.142136 379.142136,217.5 375,217.5 L375,217.5 C370.857864,217.5 367.5,214.142136 367.5,210 L367.5,210 C367.5,205.857864 370.857864,202.5 375,202.5 Z" id="Rectangle-2" transform="translate(375.000000, 210.000000) rotate(-90.000000) translate(-375.000000, -210.000000) "></path>
            <path d="M375,172.5 L375,172.5 C379.142136,172.5 382.5,175.857864 382.5,180 L382.5,180 C382.5,184.142136 379.142136,187.5 375,187.5 L375,187.5 C370.857864,187.5 367.5,184.142136 367.5,180 L367.5,180 C367.5,175.857864 370.857864,172.5 375,172.5 Z" id="Rectangle-2" transform="translate(375.000000, 180.000000) rotate(-90.000000) translate(-375.000000, -180.000000) "></path>
            <path d="M287,412.5 L287,412.5 C291.142136,412.5 294.5,415.857864 294.5,420 L294.5,420 C294.5,424.142136 291.142136,427.5 287,427.5 L287,427.5 C282.857864,427.5 279.5,424.142136 279.5,420 L279.5,420 C279.5,415.857864 282.857864,412.5 287,412.5 Z" id="Rectangle-2" transform="translate(287.000000, 420.000000) rotate(-90.000000) translate(-287.000000, -420.000000) "></path>
            <path d="M287,382.5 L287,382.5 C291.142136,382.5 294.5,385.857864 294.5,390 L294.5,390 C294.5,394.142136 291.142136,397.5 287,397.5 L287,397.5 C282.857864,397.5 279.5,394.142136 279.5,390 L279.5,390 C279.5,385.857864 282.857864,382.5 287,382.5 Z" id="Rectangle-2" transform="translate(287.000000, 390.000000) rotate(-90.000000) translate(-287.000000, -390.000000) "></path>
            <path d="M287,352.5 L287,352.5 C291.142136,352.5 294.5,355.857864 294.5,360 L294.5,360 C294.5,364.142136 291.142136,367.5 287,367.5 L287,367.5 C282.857864,367.5 279.5,364.142136 279.5,360 L279.5,360 C279.5,355.857864 282.857864,352.5 287,352.5 Z" id="Rectangle-2" transform="translate(287.000000, 360.000000) rotate(-90.000000) translate(-287.000000, -360.000000) "></path>
            <path d="M287,322.5 L287,322.5 C291.142136,322.5 294.5,325.857864 294.5,330 L294.5,330 C294.5,334.142136 291.142136,337.5 287,337.5 L287,337.5 C282.857864,337.5 279.5,334.142136 279.5,330 L279.5,330 C279.5,325.857864 282.857864,322.5 287,322.5 Z" id="Rectangle-2" transform="translate(287.000000, 330.000000) rotate(-90.000000) translate(-287.000000, -330.000000) "></path>
            <path d="M287,292.5 L287,292.5 C291.142136,292.5 294.5,295.857864 294.5,300 L294.5,300 C294.5,304.142136 291.142136,307.5 287,307.5 L287,307.5 C282.857864,307.5 279.5,304.142136 279.5,300 L279.5,300 C279.5,295.857864 282.857864,292.5 287,292.5 Z" id="Rectangle-2" transform="translate(287.000000, 300.000000) rotate(-90.000000) translate(-287.000000, -300.000000) "></path>
            <path d="M199,412.5 L199,412.5 C203.142136,412.5 206.5,415.857864 206.5,420 L206.5,420 C206.5,424.142136 203.142136,427.5 199,427.5 L199,427.5 C194.857864,427.5 191.5,424.142136 191.5,420 L191.5,420 C191.5,415.857864 194.857864,412.5 199,412.5 Z" id="Rectangle-2" transform="translate(199.000000, 420.000000) rotate(-90.000000) translate(-199.000000, -420.000000) "></path>
            <path d="M199,382.5 L199,382.5 C203.142136,382.5 206.5,385.857864 206.5,390 L206.5,390 C206.5,394.142136 203.142136,397.5 199,397.5 L199,397.5 C194.857864,397.5 191.5,394.142136 191.5,390 L191.5,390 C191.5,385.857864 194.857864,382.5 199,382.5 Z" id="Rectangle-2" transform="translate(199.000000, 390.000000) rotate(-90.000000) translate(-199.000000, -390.000000) "></path>
            <path d="M199,352.5 L199,352.5 C203.142136,352.5 206.5,355.857864 206.5,360 L206.5,360 C206.5,364.142136 203.142136,367.5 199,367.5 L199,367.5 C194.857864,367.5 191.5,364.142136 191.5,360 L191.5,360 C191.5,355.857864 194.857864,352.5 199,352.5 Z" id="Rectangle-2" transform="translate(199.000000, 360.000000) rotate(-90.000000) translate(-199.000000, -360.000000) "></path>
            <path d="M199,322.5 L199,322.5 C203.142136,322.5 206.5,325.857864 206.5,330 L206.5,330 C206.5,334.142136 203.142136,337.5 199,337.5 L199,337.5 C194.857864,337.5 191.5,334.142136 191.5,330 L191.5,330 C191.5,325.857864 194.857864,322.5 199,322.5 Z" id="Rectangle-2" transform="translate(199.000000, 330.000000) rotate(-90.000000) translate(-199.000000, -330.000000) "></path>
            <path d="M110,412.5 L110,412.5 C114.142136,412.5 117.5,415.857864 117.5,420 L117.5,420 C117.5,424.142136 114.142136,427.5 110,427.5 L110,427.5 C105.857864,427.5 102.5,424.142136 102.5,420 L102.5,420 C102.5,415.857864 105.857864,412.5 110,412.5 Z" id="Rectangle-2" transform="translate(110.000000, 420.000000) rotate(-90.000000) translate(-110.000000, -420.000000) "></path>
            <path d="M110,382.5 L110,382.5 C114.142136,382.5 117.5,385.857864 117.5,390 L117.5,390 C117.5,394.142136 114.142136,397.5 110,397.5 L110,397.5 C105.857864,397.5 102.5,394.142136 102.5,390 L102.5,390 C102.5,385.857864 105.857864,382.5 110,382.5 Z" id="Rectangle-2" transform="translate(110.000000, 390.000000) rotate(-90.000000) translate(-110.000000, -390.000000) "></path>
            <path d="M110,352.5 L110,352.5 C114.142136,352.5 117.5,355.857864 117.5,360 L117.5,360 C117.5,364.142136 114.142136,367.5 110,367.5 L110,367.5 C105.857864,367.5 102.5,364.142136 102.5,360 L102.5,360 C102.5,355.857864 105.857864,352.5 110,352.5 Z" id="Rectangle-2" transform="translate(110.000000, 360.000000) rotate(-90.000000) translate(-110.000000, -360.000000) "></path>
            <path d="M110,322.5 L110,322.5 C114.142136,322.5 117.5,325.857864 117.5,330 L117.5,330 C117.5,334.142136 114.142136,337.5 110,337.5 L110,337.5 C105.857864,337.5 102.5,334.142136 102.5,330 L102.5,330 C102.5,325.857864 105.857864,322.5 110,322.5 Z" id="Rectangle-2" transform="translate(110.000000, 330.000000) rotate(-90.000000) translate(-110.000000, -330.000000) "></path>
            <path d="M199,292.5 L199,292.5 C203.142136,292.5 206.5,295.857864 206.5,300 L206.5,300 C206.5,304.142136 203.142136,307.5 199,307.5 L199,307.5 C194.857864,307.5 191.5,304.142136 191.5,300 L191.5,300 C191.5,295.857864 194.857864,292.5 199,292.5 Z" id="Rectangle-2" transform="translate(199.000000, 300.000000) rotate(-90.000000) translate(-199.000000, -300.000000) "></path>
            <path d="M287,262.5 L287,262.5 C291.142136,262.5 294.5,265.857864 294.5,270 L294.5,270 C294.5,274.142136 291.142136,277.5 287,277.5 L287,277.5 C282.857864,277.5 279.5,274.142136 279.5,270 L279.5,270 C279.5,265.857864 282.857864,262.5 287,262.5 Z" id="Rectangle-2" transform="translate(287.000000, 270.000000) rotate(-90.000000) translate(-287.000000, -270.000000) "></path>
            <path d="M287,232.5 L287,232.5 C291.142136,232.5 294.5,235.857864 294.5,240 L294.5,240 C294.5,244.142136 291.142136,247.5 287,247.5 L287,247.5 C282.857864,247.5 279.5,244.142136 279.5,240 L279.5,240 C279.5,235.857864 282.857864,232.5 287,232.5 Z" id="Rectangle-2" transform="translate(287.000000, 240.000000) rotate(-90.000000) translate(-287.000000, -240.000000) "></path>
            <path d="M287,202.5 L287,202.5 C291.142136,202.5 294.5,205.857864 294.5,210 L294.5,210 C294.5,214.142136 291.142136,217.5 287,217.5 L287,217.5 C282.857864,217.5 279.5,214.142136 279.5,210 L279.5,210 C279.5,205.857864 282.857864,202.5 287,202.5 Z" id="Rectangle-2" transform="translate(287.000000, 210.000000) rotate(-90.000000) translate(-287.000000, -210.000000) "></path>
            <path d="M287,172.5 L287,172.5 C291.142136,172.5 294.5,175.857864 294.5,180 L294.5,180 C294.5,184.142136 291.142136,187.5 287,187.5 L287,187.5 C282.857864,187.5 279.5,184.142136 279.5,180 L279.5,180 C279.5,175.857864 282.857864,172.5 287,172.5 Z" id="Rectangle-2" transform="translate(287.000000, 180.000000) rotate(-90.000000) translate(-287.000000, -180.000000) "></path>
            <path d="M375,142.5 L375,142.5 C379.142136,142.5 382.5,145.857864 382.5,150 L382.5,150 C382.5,154.142136 379.142136,157.5 375,157.5 L375,157.5 C370.857864,157.5 367.5,154.142136 367.5,150 L367.5,150 C367.5,145.857864 370.857864,142.5 375,142.5 Z" id="Rectangle-2" transform="translate(375.000000, 150.000000) rotate(-90.000000) translate(-375.000000, -150.000000) "></path>
            <path d="M375,112.5 L375,112.5 C379.142136,112.5 382.5,115.857864 382.5,120 L382.5,120 C382.5,124.142136 379.142136,127.5 375,127.5 L375,127.5 C370.857864,127.5 367.5,124.142136 367.5,120 L367.5,120 C367.5,115.857864 370.857864,112.5 375,112.5 Z" id="Rectangle-2" transform="translate(375.000000, 120.000000) rotate(-90.000000) translate(-375.000000, -120.000000) "></path>
            <path d="M7.5,442 L462.5,442 C466.642136,442 470,445.357864 470,449.5 L470,449.5 C470,453.642136 466.642136,457 462.5,457 L7.5,457 C3.35786438,457 5.07265313e-16,453.642136 0,449.5 L-8.8817842e-16,449.5 C-1.39544373e-15,445.357864 3.35786438,442 7.5,442 Z" id="Rectangle-2"></path>
            <path d="M28.4694104,365.623355 L116.684406,307.250933 L151.447793,223.873872 C152.93555,220.305612 157.034262,218.61903 160.602522,220.106788 C161.946986,220.667351 163.083086,221.633372 163.852499,222.87023 L192.344193,268.671594 C194.96969,272.892169 200.519529,274.185236 204.740105,271.559739 C205.858983,270.863717 206.811377,269.930496 207.530005,268.826002 L291.719993,139.430461 L378.655401,103.086865 C379.729677,102.637761 380.706599,101.984466 381.532002,101.163203 L456.369894,26.7006043 L456.369894,67.2782812 C456.369894,71.2600908 459.597789,74.4879853 463.579599,74.4879853 L463.579599,74.4879853 C467.561408,74.4879853 470.789303,71.2600908 470.789303,67.2782812 L470.789303,6.82228149 C470.789303,3.50857299 468.103011,0.822281491 464.789303,0.822281491 L404.194537,0.822281491 C400.124786,0.822281491 396.8256,4.12146697 396.8256,8.1912185 L396.8256,8.1912185 C396.8256,12.26097 400.124786,15.5601555 404.194537,15.5601555 L444.938065,15.5601555 L372.455159,88.9758755 C371.529643,89.9133018 370.428031,90.6586271 369.213605,91.1690352 L285.500937,126.352422 C283.064227,127.376541 280.997584,129.119097 279.576534,131.347773 L202.387849,252.405138 C201.497075,253.802166 199.642445,254.212566 198.245417,253.321792 C197.863848,253.078496 197.542265,252.752029 197.304746,252.366838 L164.535825,199.224484 C161.92696,194.993607 156.382253,193.678708 152.151377,196.287573 C150.630821,197.225187 149.423688,198.594097 148.683675,200.220009 L104.822139,296.589913 C104.512703,297.269788 104.019075,297.849433 103.39716,298.263199 L29.7451828,347.264679 L23.0094545,352.060494 L28.4694104,365.623355 Z" id="Path-2"></path>
        </g>
    </g>
</svg>