<?xml version="1.0" encoding="UTF-8"?>
<svg width="475px" height="448px" viewBox="0 0 475 448" version="1.1" xmlns="http://www.w3.org/2000/svg" xmlns:xlink="http://www.w3.org/1999/xlink">
    <!-- Generator: Sketch 49.3 (51167) - http://www.bohemiancoding.com/sketch -->
    <title>Stable growth</title>
    <desc>Created with Sketch.</desc>
    <defs></defs>
    <g id="Page-1" stroke="none" stroke-width="1" fill="none" fill-rule="evenodd">
        <g id="Stable-growth" fill="#40413E">
            <path d="M128.96,392.61 C131.07,394.163 133.41,395.304 135.94,396.002 C203.08,414.588 249.02,427.052 252.98,427.756 C257.72,428.498 302.79,429.207 331.06,429.494 L369.47,415.297 L369.47,364.176 L354.24,343.366 C343.72,338.859 291.81,316.788 273.9,312.273 C273.59,312.193 273.27,312.093 272.97,311.972 C271.61,311.432 270.2,311.135 268.79,311.09 L185.36,308.41 C178.5,308.21 172.51,313.375 172.07,319.971 C171.84,323.382 172.97,326.651 175.25,329.176 C177.54,331.704 180.67,333.156 184.08,333.266 L215.05,334.261 L249.23,335.257 C259.69,335.568 267.95,344.321 267.64,354.769 C267.34,365.223 258.56,373.468 248.13,373.175 L148.77,369.64 C147.2,369.594 145.8,369.294 144.75,369.024 C143.96,368.85 141.48,368.208 139.22,366.743 C139.1,366.665 138.99,366.583 138.87,366.499 L29.81,286.31 C27.77,284.907 25.31,284.397 22.87,284.873 C20.41,285.353 18.31,286.779 16.94,288.889 C14.3,292.969 15.54,298.661 19.71,301.578 C19.88,301.699 20.05,301.827 20.21,301.963 L128.96,392.61 Z M332.36,444.507 C332.34,444.507 332.31,444.507 332.29,444.506 C319.87,444.384 257.54,443.717 250.51,442.552 C244.75,441.593 173.75,422.033 131.93,410.458 C127.54,409.243 123.47,407.241 119.82,404.507 C119.72,404.429 119.61,404.349 119.51,404.266 L10.83,313.67 C0.17,305.999 -2.69,291.6 4.35,280.732 C7.95,275.176 13.51,271.418 20,270.15 C26.49,268.882 33.05,270.272 38.47,274.06 C38.52,274.094 38.56,274.129 38.61,274.164 L147.46,354.196 C147.64,354.275 148.03,354.387 148.03,354.387 C148.16,354.414 148.28,354.445 148.41,354.479 C148.98,354.626 149.19,354.646 149.26,354.648 L248.62,358.183 C250.7,358.231 252.58,356.518 252.65,354.331 C252.71,352.146 250.98,350.316 248.79,350.25 L214.59,349.254 L183.6,348.258 C176.09,348.016 169.17,344.813 164.13,339.239 C159.09,333.669 156.59,326.466 157.1,318.957 C158.11,304.15 170.73,292.94 185.84,293.417 L269.27,296.098 C272.25,296.193 275.19,296.781 278.02,297.844 C299.46,303.401 359.5,329.291 362.06,330.398 C363.29,330.928 364.35,331.775 365.14,332.854 L383.03,357.295 C383.97,358.581 384.47,360.132 384.47,361.725 L384.47,420.521 C384.47,423.661 382.52,426.468 379.57,427.557 L334.96,444.042 C334.13,444.35 333.25,444.507 332.36,444.507 Z" id="Fill-32"></path>
            <path d="M54.28,343.786 C52.69,343.786 51.08,343.278 49.72,342.23 C46.43,339.705 45.82,334.996 48.34,331.712 L65.47,309.452 C67.99,306.17 72.7,305.554 75.99,308.08 C79.27,310.605 79.88,315.314 77.36,318.598 L60.23,340.858 C58.76,342.778 56.53,343.786 54.28,343.786" id="Fill-33"></path>
            <path d="M130.49,405.431 C129.62,405.431 128.74,405.279 127.88,404.959 C123.99,403.516 122.01,399.198 123.46,395.315 L135.87,361.925 C137.32,358.043 141.63,356.066 145.52,357.509 C149.4,358.953 151.38,363.27 149.93,367.153 L137.52,400.543 C136.39,403.563 133.53,405.431 130.49,405.431" id="Fill-34"></path>
            <path d="M322.27,441.993 L253.07,365.577 C250.29,362.507 250.52,357.764 253.59,354.984 C256.66,352.204 261.41,352.437 264.19,355.509 L333.39,431.924 C336.17,434.994 335.93,439.737 332.86,442.518 C331.43,443.818 329.63,444.458 327.83,444.458 C325.79,444.458 323.75,443.628 322.27,441.993 Z" id="Fill-35"></path>
            <path d="M255.83,348.05 C254.59,348.05 253.34,347.742 252.18,347.093 C248.56,345.07 247.27,340.5 249.29,336.886 L269.19,301.338 C271.22,297.724 275.79,296.433 279.4,298.457 C283.01,300.479 284.3,305.05 282.28,308.664 L262.38,344.212 C261.01,346.667 258.46,348.05 255.83,348.05" id="Fill-36"></path>
            <path d="M215.59,343.968 C211.45,343.968 208.09,340.61 208.09,336.468 L208.09,304.468 C208.09,300.326 211.45,296.968 215.59,296.968 C219.74,296.968 223.09,300.326 223.09,304.468 L223.09,336.468 C223.09,340.61 219.74,343.968 215.59,343.968" id="Fill-37"></path>
            <path d="M419.09,369.468 L380.09,369.468 C375.95,369.468 372.59,366.11 372.59,361.968 C372.59,357.826 375.95,354.468 380.09,354.468 L419.09,354.468 C423.24,354.468 426.59,357.826 426.59,361.968 C426.59,366.11 423.24,369.468 419.09,369.468" id="Fill-38"></path>
            <path d="M419.09,426.468 L380.09,426.468 C375.95,426.468 372.59,423.11 372.59,418.968 C372.59,414.826 375.95,411.468 380.09,411.468 L419.09,411.468 C423.24,411.468 426.59,414.826 426.59,418.968 C426.59,423.11 423.24,426.468 419.09,426.468" id="Fill-39"></path>
            <path d="M419.09,399.468 L380.09,399.468 C375.95,399.468 372.59,396.11 372.59,391.968 C372.59,387.826 375.95,384.468 380.09,384.468 L419.09,384.468 C423.24,384.468 426.59,387.826 426.59,391.968 C426.59,396.11 423.24,399.468 419.09,399.468" id="Fill-40"></path>
            <path d="M467.07,447.6 L439.22,447.6 C425.88,447.6 415.02,436.746 415.02,423.405 L415.02,357.243 C415.02,343.902 425.88,333.049 439.22,333.049 L467.07,333.049 C471.21,333.049 474.57,336.407 474.57,340.549 C474.57,344.691 471.21,348.049 467.07,348.049 L439.22,348.049 C434.15,348.049 430.02,352.173 430.02,357.243 L430.02,423.405 C430.02,428.475 434.15,432.6 439.22,432.6 L467.07,432.6 C471.21,432.6 474.57,435.958 474.57,440.1 C474.57,444.242 471.21,447.6 467.07,447.6" id="Fill-41"></path>
            <path d="M33.49,245.26 C31.23,245.26 29,244.248 27.53,242.318 C25.01,239.029 25.64,234.321 28.92,231.804 L200.48,100.504 C202.59,98.894 205.38,98.512 207.84,99.503 L282.82,129.711 L404.98,10.412 C407.94,7.518 412.69,7.573 415.58,10.537 C418.48,13.5 418.42,18.249 415.46,21.143 L289.8,143.863 C287.67,145.941 284.52,146.565 281.76,145.454 L206.2,115.014 L38.04,243.716 C36.68,244.756 35.08,245.26 33.49,245.26" id="Fill-42"></path>
            <path d="M410.68,59.38 C410.33,59.38 409.96,59.354 409.6,59.301 C405.5,58.705 402.66,54.899 403.25,50.8 L408.2,16.768 L374.17,21.718 C370.07,22.309 366.27,19.475 365.67,15.376 C365.07,11.277 367.91,7.471 372.01,6.875 L415.99,0.477 C418.34,0.137 420.7,0.921 422.38,2.595 C424.05,4.269 424.83,6.635 424.49,8.978 L418.1,52.959 C417.55,56.692 414.35,59.38 410.68,59.38" id="Fill-43"></path>
            <path d="M87.59,251.968 C83.45,251.968 80.09,248.61 80.09,244.468 L80.09,230.468 C80.09,226.326 83.45,222.968 87.59,222.968 C91.74,222.968 95.09,226.326 95.09,230.468 L95.09,244.468 C95.09,248.61 91.74,251.968 87.59,251.968" id="Fill-44"></path>
            <path d="M119.59,251.968 C115.45,251.968 112.09,248.61 112.09,244.468 L112.09,207.468 C112.09,203.326 115.45,199.968 119.59,199.968 C123.74,199.968 127.09,203.326 127.09,207.468 L127.09,244.468 C127.09,248.61 123.74,251.968 119.59,251.968" id="Fill-45"></path>
            <path d="M150.59,251.968 C146.45,251.968 143.09,248.61 143.09,244.468 L143.09,187.468 C143.09,183.326 146.45,179.968 150.59,179.968 C154.74,179.968 158.09,183.326 158.09,187.468 L158.09,244.468 C158.09,248.61 154.74,251.968 150.59,251.968" id="Fill-46"></path>
            <path d="M182.59,251.968 C178.45,251.968 175.09,248.61 175.09,244.468 L175.09,161.468 C175.09,157.326 178.45,153.968 182.59,153.968 C186.74,153.968 190.09,157.326 190.09,161.468 L190.09,244.468 C190.09,248.61 186.74,251.968 182.59,251.968" id="Fill-47"></path>
            <path d="M213.59,251.968 C209.45,251.968 206.09,248.61 206.09,244.468 L206.09,142.468 C206.09,138.326 209.45,134.968 213.59,134.968 C217.74,134.968 221.09,138.326 221.09,142.468 L221.09,244.468 C221.09,248.61 217.74,251.968 213.59,251.968" id="Fill-48"></path>
            <path d="M245.59,251.968 C241.45,251.968 238.09,248.61 238.09,244.468 L238.09,157.468 C238.09,153.326 241.45,149.968 245.59,149.968 C249.74,149.968 253.09,153.326 253.09,157.468 L253.09,244.468 C253.09,248.61 249.74,251.968 245.59,251.968" id="Fill-49"></path>
            <path d="M277.59,251.968 C273.45,251.968 270.09,248.61 270.09,244.468 L270.09,169.468 C270.09,165.326 273.45,161.968 277.59,161.968 C281.74,161.968 285.09,165.326 285.09,169.468 L285.09,244.468 C285.09,248.61 281.74,251.968 277.59,251.968" id="Fill-50"></path>
            <path d="M308.59,251.968 C304.45,251.968 301.09,248.61 301.09,244.468 L301.09,157.468 C301.09,153.326 304.45,149.968 308.59,149.968 C312.74,149.968 316.09,153.326 316.09,157.468 L316.09,244.468 C316.09,248.61 312.74,251.968 308.59,251.968" id="Fill-51"></path>
            <path d="M340.59,251.968 C336.45,251.968 333.09,248.61 333.09,244.468 L333.09,127.468 C333.09,123.326 336.45,119.968 340.59,119.968 C344.74,119.968 348.09,123.326 348.09,127.468 L348.09,244.468 C348.09,248.61 344.74,251.968 340.59,251.968" id="Fill-52"></path>
            <path d="M372.59,251.968 C368.45,251.968 365.09,248.61 365.09,244.468 L365.09,94.468 C365.09,90.326 368.45,86.968 372.59,86.968 C376.74,86.968 380.09,90.326 380.09,94.468 L380.09,244.468 C380.09,248.61 376.74,251.968 372.59,251.968" id="Fill-53"></path>
            <path d="M404.59,251.968 C400.45,251.968 397.09,248.61 397.09,244.468 L397.09,79.468 C397.09,75.326 400.45,71.968 404.59,71.968 C408.74,71.968 412.09,75.326 412.09,79.468 L412.09,244.468 C412.09,248.61 408.74,251.968 404.59,251.968" id="Fill-54"></path>
        </g>
    </g>
</svg>